<?xml version="1.0" encoding="utf-8"?>
<!-- Generator: Adobe Illustrator 24.0.1, SVG Export Plug-In . SVG Version: 6.00 Build 0)  -->
<svg version="1.1" id="Layer_1" xmlns="http://www.w3.org/2000/svg" xmlns:xlink="http://www.w3.org/1999/xlink" x="0px" y="0px"
	 viewBox="0 0 96.2 109.2" style="enable-background:new 0 0 96.2 109.2;" xml:space="preserve">
<style type="text/css">
	.st0{fill:#F27D16;}
	.st1{fill:#4D4D4D;}
	.st2{fill:#FFFFFF;}
	.st3{fill:#F2F2F2;}
	.st4{fill:#F2CB05;}
	.st5{fill:#9450F2;}
	.st6{fill:#96D9C6;}
	.st7{fill:#3068D9;}
	.st8{clip-path:url(#SVGID_2_);}
	.st9{clip-path:url(#SVGID_2_);fill:#FFFFFF;}
	.st10{clip-path:url(#SVGID_4_);}
	.st11{clip-path:url(#SVGID_4_);fill:#FFFFFF;}
	.st12{clip-path:url(#SVGID_6_);}
	.st13{clip-path:url(#SVGID_6_);fill:#FFFFFF;}
	.st14{opacity:0.99;fill:#FFFFFF;}
	.st15{opacity:0.66;}
	.st16{fill:#FD9951;}
	.st17{fill:#F7DE65;}
	.st18{fill:#DBC1F7;}
	.st19{fill:#6A98E4;}
	.st20{fill:#CC5B00;}
	.st21{fill:#4B2477;}
	.st22{fill:#61A795;}
	.st23{fill:#365A51;}
	.st24{fill:#0A2C5C;}
	.st25{fill:#7496DE;}
	.st26{fill:#B2C4E4;}
	.st27{fill:#72A495;}
	.st28{fill:#F9C800;}
	.st29{fill:#106AE0;}
	.st30{clip-path:url(#SVGID_8_);}
	.st31{clip-path:url(#SVGID_8_);fill:#FFFFFF;}
	.st32{clip-path:url(#SVGID_10_);}
	.st33{clip-path:url(#SVGID_10_);fill:#FFFFFF;}
	.st34{clip-path:url(#SVGID_12_);}
	.st35{clip-path:url(#SVGID_12_);fill:#FFFFFF;}
</style>
<g>
	<g>
		<g>
			<path class="st0" d="M26.6,10.6c-6.8,13-1.8,24.6-4.3,31.1S5.5,55.9,16.9,70.1s31.5,17,43.8,3.9c15-16.1,9.8-54-2.5-67.2
				S30.9,2.4,26.6,10.6z M57.4,8.7C69,21.2,73.8,57,59.7,72.2c-11.6,12.5-30.3,9.5-41.4-3.6c-10.1-11.8,3.4-20.9,5.8-27
				c2.4-6.1-3.1-17,3.4-29.2C31.5,4.6,45.7-3.7,57.4,8.7z"/>
		</g>
	</g>
	<g>
		<path class="st0" d="M69.4,52.1c2.9-2.1,12.9-7.1,14.7-7.2c1.8-0.1,4.6,2.6,7.4,3.4c2.8,0.8,5-2.7,4.7-4.6c-0.4-2-3.2-4.5-7.7-3.5
			c-4.5,1.1-18.8,8.4-18.8,8.4L69.4,52.1z"/>
	</g>
	<g>
		<path class="st0" d="M22.1,42.9c-1.9-3.1-9.3-11.4-10.9-12.2C9.5,30,5.9,31.3,3,31.1s-3.6-4.4-2.6-6c1.1-1.7,4.6-3,8.4-0.3
			s14.3,14.9,14.3,14.9L22.1,42.9z"/>
	</g>
	<g>
		<path class="st0" d="M41.6,81.8c3.7,3.3,6,6.1,7.4,10.4c1.9,6.1-1.3,13,0.1,15.1c1.3,1.9,8.8,3.1,11.3,0.4s0.6-5.3-2-5.5
			c-1.9-0.1-3,0.1-3.9,0.2c-0.4,0.1-0.8-0.3-0.8-0.7c0-2.4-0.1-7.7-2.2-12c-2-4.2-5.5-8.4-5.8-8.4C45.4,81.4,40.1,80.4,41.6,81.8z"
			/>
	</g>
	<g>
		<path class="st0" d="M29.9,78.9c-0.2,0.7-1.4,6.7-4.2,9.6c-4.2,4.5-7.9,4.5-11.5,1.2c-3.7-3.5-3.9-7.1-3.3-8.7
			c0.6-1.6,3.4-2.9,5.5-1.7c2.2,1.2,3.3,3.6,2.2,6.3c-0.7,1.8,1.6,6.1,5,0c1.4-2.5,2.5-7.7,3-8.3C27.3,76.8,30.4,77.4,29.9,78.9z"/>
	</g>
	<g>
		<g>
			<path class="st0" d="M38,24.2c0.5,0,0.9,0.4,0.9,0.9c0.1,3.6,2.9,6.7,6.7,7c3.7,0.3,7-2.2,7.8-5.8c0.1-0.5,0.6-0.8,1.1-0.8h0
				c0.6,0.1,1,0.6,0.9,1.2c-1,4.5-5.2,7.8-9.9,7.3c-4.7-0.4-8.3-4.3-8.5-9C36.9,24.6,37.4,24.1,38,24.2L38,24.2z"/>
		</g>
	</g>
	<g>
		<ellipse transform="matrix(0.3515 -0.9362 0.9362 0.3515 14.1736 59.3208)" class="st0" cx="49.9" cy="19.4" rx="1.8" ry="1.3"/>
	</g>
	<g>
		<ellipse transform="matrix(0.3515 -0.9362 0.9362 0.3515 10.8482 52.0338)" class="st0" cx="43" cy="18.2" rx="1.9" ry="1.7"/>
	</g>
</g>
</svg>
