<?xml version="1.0" encoding="utf-8"?>
<!-- Generator: Adobe Illustrator 24.0.1, SVG Export Plug-In . SVG Version: 6.00 Build 0)  -->
<svg version="1.1" id="Layer_1" xmlns="http://www.w3.org/2000/svg" xmlns:xlink="http://www.w3.org/1999/xlink" x="0px" y="0px"
	 viewBox="0 0 262.8 239" style="enable-background:new 0 0 262.8 239;" xml:space="preserve">
<style type="text/css">
	.st0{fill:#F27D16;}
	.st1{fill:#4D4D4D;}
	.st2{fill:#FFFFFF;}
	.st3{fill:#F2F2F2;}
	.st4{fill:#F2CB05;}
	.st5{fill:#9450F2;}
	.st6{fill:#96D9C6;}
	.st7{fill:#3068D9;}
	.st8{clip-path:url(#SVGID_2_);}
	.st9{clip-path:url(#SVGID_2_);fill:#FFFFFF;}
	.st10{clip-path:url(#SVGID_4_);}
	.st11{clip-path:url(#SVGID_4_);fill:#FFFFFF;}
	.st12{clip-path:url(#SVGID_6_);}
	.st13{clip-path:url(#SVGID_6_);fill:#FFFFFF;}
	.st14{opacity:0.99;fill:#FFFFFF;}
	.st15{opacity:0.66;}
	.st16{fill:#FD9951;}
	.st17{fill:#F7DE65;}
	.st18{fill:#DBC1F7;}
	.st19{fill:#6A98E4;}
	.st20{fill:#CC5B00;}
	.st21{fill:#4B2477;}
	.st22{fill:#61A795;}
	.st23{fill:#365A51;}
	.st24{fill:#0A2C5C;}
	.st25{fill:#7496DE;}
	.st26{fill:#B2C4E4;}
	.st27{fill:#72A495;}
	.st28{fill:#F9C800;}
	.st29{fill:#106AE0;}
	.st30{clip-path:url(#SVGID_8_);}
	.st31{clip-path:url(#SVGID_8_);fill:#FFFFFF;}
	.st32{clip-path:url(#SVGID_10_);}
	.st33{clip-path:url(#SVGID_10_);fill:#FFFFFF;}
	.st34{clip-path:url(#SVGID_12_);}
	.st35{clip-path:url(#SVGID_12_);fill:#FFFFFF;}
</style>
<g>
	<g>
		<path class="st6" d="M167,231.3c-58.7,21.7-122.5-5.5-147.9-43.6c-29.4-44.2-27.6-87.4,24.7-112.5c28.2-13.5,58.8-15.2,78.6-27.7
			C144.7,33.7,179.7-6,217,9.8C303.9,46.5,255.7,198.6,167,231.3z"/>
	</g>
	<g>
		<g>
			<path class="st6" d="M29.9,13.2C40.2,13.3,44.2,24,42.2,35.6c-2.3,13-15.4,26.3-23.8,24.8c-8-1.4-13.6-13.9-11.5-25.2
				C9.5,21.3,20.6,13,29.9,13.2z"/>
		</g>
		<g>
			<circle class="st6" cx="51.5" cy="8.1" r="8.1"/>
		</g>
	</g>
</g>
</svg>
