<?xml version="1.0" encoding="utf-8"?>
<!-- Generator: Adobe Illustrator 24.0.1, SVG Export Plug-In . SVG Version: 6.00 Build 0)  -->
<svg version="1.1" id="Layer_1" xmlns="http://www.w3.org/2000/svg" xmlns:xlink="http://www.w3.org/1999/xlink" x="0px" y="0px"
	 viewBox="0 0 337.8 302.3" style="enable-background:new 0 0 337.8 302.3;" xml:space="preserve">
<style type="text/css">
	.st0{fill:#F27D16;}
	.st1{fill:#4D4D4D;}
	.st2{fill:#FFFFFF;}
	.st3{fill:#F2F2F2;}
	.st4{fill:#F2CB05;}
	.st5{fill:#9450F2;}
	.st6{fill:#96D9C6;}
	.st7{fill:#3068D9;}
	.st8{clip-path:url(#SVGID_2_);}
	.st9{clip-path:url(#SVGID_2_);fill:#FFFFFF;}
	.st10{clip-path:url(#SVGID_4_);}
	.st11{clip-path:url(#SVGID_4_);fill:#FFFFFF;}
	.st12{clip-path:url(#SVGID_6_);}
	.st13{clip-path:url(#SVGID_6_);fill:#FFFFFF;}
	.st14{opacity:0.99;fill:#FFFFFF;}
	.st15{opacity:0.66;}
	.st16{fill:#FD9951;}
	.st17{fill:#F7DE65;}
	.st18{fill:#DBC1F7;}
	.st19{fill:#6A98E4;}
	.st20{fill:#CC5B00;}
	.st21{fill:#4B2477;}
	.st22{fill:#61A795;}
	.st23{fill:#365A51;}
	.st24{fill:#0A2C5C;}
	.st25{fill:#7496DE;}
	.st26{fill:#B2C4E4;}
	.st27{fill:#72A495;}
	.st28{fill:#F9C800;}
	.st29{fill:#106AE0;}
	.st30{clip-path:url(#SVGID_8_);}
	.st31{clip-path:url(#SVGID_8_);fill:#FFFFFF;}
	.st32{clip-path:url(#SVGID_10_);}
	.st33{clip-path:url(#SVGID_10_);fill:#FFFFFF;}
	.st34{clip-path:url(#SVGID_12_);}
	.st35{clip-path:url(#SVGID_12_);fill:#FFFFFF;}
</style>
<g>
	<g>
		<g>
			<path class="st6" d="M3.4,239.4c-16.6-49.3,31.7-57.8,43-80.6c9-18.1,2.9-66.2,31.1-75.7c44.4-15,69.9,38.9,99,50.4
				c18.8,7.4,50.4-25.1,87.8-14.3c44.9,13,76.3,59.7,73.1,109.1c-3.2,49.4-44.8,68-66.3,72.8c-38.8,8.5-88.6-34.9-137.7-39.9
				C104.1,258.3,27.6,310.9,3.4,239.4z"/>
		</g>
	</g>
	<g>
		<g>
			<g>
				<g>
					<path class="st5" d="M211.8,64.7c-0.9,0.2-1.6,1.1-1.6,2c0.4,7-4.4,13.5-11.6,14.8c-7.2,1.3-14-3-16.1-9.7
						c-0.3-0.9-1.2-1.5-2.2-1.3l0,0c-1.1,0.2-1.9,1.4-1.5,2.5c2.7,8.6,11.4,14,20.5,12.3s15.3-9.8,14.7-18.9
						C214.1,65.4,213,64.5,211.8,64.7L211.8,64.7z"/>
				</g>
			</g>
		</g>
		<g>
			<g>
				<ellipse transform="matrix(0.4618 -0.887 0.887 0.4618 50.5831 197.682)" class="st5" cx="188.2" cy="57.2" rx="4" ry="3.4"/>
			</g>
		</g>
		<g>
			<g>
				<ellipse transform="matrix(0.9582 -0.2862 0.2862 0.9582 -8.2049 59.9905)" class="st5" cx="201.1" cy="58.1" rx="3.4" ry="4"/>
			</g>
		</g>
	</g>
	<g>
		<g>
			<path class="st5" d="M262.6,133.7c9.8-53.1-28.6-116.4-57.3-123.2c-24-5.7-42.8,9.6-52.6,30.7c-8.4,18.1-6.1,34.3-9.5,48.5
				c-2.7,11.6-18.9,38.3-20.9,58.1c-2.2,22.6,14.6,42.9,52.9,52C213.4,208.8,252.8,186.8,262.6,133.7z M176.8,193.7
				c-35.7-8.5-50.3-27.1-48.2-48.2c1.8-18.4,18-43.2,20.6-54.1c3.2-13.2-1.2-28.9,6.6-45.9c9.2-19.7,26.8-34,49.2-28.7
				c26.9,6.4,61.6,65.7,52.4,115.4C248.2,181.9,212.5,202.2,176.8,193.7z"/>
		</g>
	</g>
	<g>
		<g>
			<path class="st5" d="M143.2,87.7c-1.8-0.5-7.5-2.5-10.7-5.9c-3.1-3.4-4.4-8.1-4.9-9.7c-0.4-1.2,1.6-6.4,0.6-10.6
				c-0.9-3.7-7.3-6.2-11.3-4.3c-3.8,1.8-5.2,7.8-2.9,10.9c2.2,3.1,6.7,3.7,7.4,5.2c0.4,0.9,4.5,9.2,8.3,13c3.9,3.8,8.9,6.2,12.2,7
				C145.3,94.1,145.9,88.5,143.2,87.7z"/>
		</g>
	</g>
	<g>
		<g>
			<path class="st5" d="M260.8,101.1c1.7-0.8,7-3.8,9.5-7.7c2.5-3.9,2.9-9.1,3.1-10.7c0.2-1.2-2.7-5.7-2.4-10
				c0.2-3.9,6-7.4,10.3-6.2c4,1.1,6.5,6.8,4.8,10.2s-6,4.8-6.4,6.4c-0.2,0.9-2.8,9.8-5.9,14.2c-3.1,4.4-7.7,7.7-10.8,9
				C259.9,107.7,258.4,102.2,260.8,101.1z"/>
		</g>
	</g>
	<g>
		<g>
			<path class="st5" d="M153.1,187.9c-0.4,1.2-5.6,11.5-7.1,21.4c-1.6,10.1-1.8,24.8-3.8,31.8c-1.1,4-10.6,8.2-15.5,4.8
				c-3.9-2.7-4.2-6.5-2.1-9.9c2.2-3.4,10.8-1.8,11.8-4.7c1.7-4.8,1.3-14.8,2.1-24.2c0.8-9.4,4.9-19.6,6.9-22.5
				C147.4,181.8,154.2,183.8,153.1,187.9z"/>
		</g>
	</g>
	<g>
		<g>
			<path class="st5" d="M225,191.8c0.5,6.3,1.4,12.6,6.8,23s16.9,14.9,20.1,15.6c3.2,0.7,6.8,3.5,9.2,4.2c4.4,1.4,8.1,1.1,9.2-3.6
				c1.1-4.7-0.1-12-6.8-12.1c-3.9-0.1-8.3,6.5-10.9,5.9c-2.6-0.6-8.3-1.4-13.2-10.9c-4.9-9.5-6.4-23.1-6.1-26.8
				C233.6,183.6,224.5,185.6,225,191.8z"/>
		</g>
	</g>
	<g>
		<g>
			<path class="st6" d="M255.9,56.9c-0.8-3.2-3.8-6.7-6.6-7.5C243.4,32.3,223.1-1.7,192,0.1c-15.5,0.9-28.8,10.7-38.7,28.2
				c-4.2,7.5-7,15.1-8.7,21c-4.1,1.1-5.3,6-5.9,10.4c-0.7,5.8,2.8,11.7,6.9,11.7c6.4,0.1,8-8.2,7.7-12.4c-0.2-2.9-1.1-6.6-3.3-8.6
				c4.8-15.8,17.6-43.5,42.3-44.9c17.4-0.9,30.6,11.2,38.6,21.6c6.4,8.3,10.8,17.3,13,23.5c-3.9,2.7-4.3,8.2-3.4,12.8
				c0.4,1.7,1.1,3.4,2.1,4.7c-2.1,4.6-5.4,10-11.3,13.7c-2.9,1.9-10.3,5.9-15.3,8.4c-1.9-0.7-4.7-1.1-7.8-0.7
				c-5.8,0.7-7.6,4.9-7.2,7.6c0.4,2.4,4.3,5.2,11,2.4c3.1-1.2,4.7-2.6,5.7-3.8c5-2.6,13.4-7,16.7-9.2c6.6-4.2,10.5-10,12.9-15
				c1.4,0.4,2.9,0.4,4.3-0.2C256.1,69.4,256.9,60.7,255.9,56.9z"/>
		</g>
	</g>
</g>
</svg>
