<?xml version="1.0" encoding="utf-8"?>
<!-- Generator: Adobe Illustrator 24.0.1, SVG Export Plug-In . SVG Version: 6.00 Build 0)  -->
<svg version="1.1" id="Layer_1" xmlns="http://www.w3.org/2000/svg" xmlns:xlink="http://www.w3.org/1999/xlink" x="0px" y="0px"
	 viewBox="0 0 174.1 227" style="enable-background:new 0 0 174.1 227;" xml:space="preserve">
<style type="text/css">
	.st0{fill:#F27D16;}
	.st1{fill:#4D4D4D;}
	.st2{fill:#FFFFFF;}
	.st3{fill:#F2F2F2;}
	.st4{fill:#F2CB05;}
	.st5{fill:#9450F2;}
	.st6{fill:#96D9C6;}
	.st7{fill:#3068D9;}
	.st8{clip-path:url(#SVGID_2_);}
	.st9{clip-path:url(#SVGID_2_);fill:#FFFFFF;}
	.st10{clip-path:url(#SVGID_4_);}
	.st11{clip-path:url(#SVGID_4_);fill:#FFFFFF;}
	.st12{clip-path:url(#SVGID_6_);}
	.st13{clip-path:url(#SVGID_6_);fill:#FFFFFF;}
	.st14{opacity:0.99;fill:#FFFFFF;}
	.st15{opacity:0.66;}
	.st16{fill:#FD9951;}
	.st17{fill:#F7DE65;}
	.st18{fill:#DBC1F7;}
	.st19{fill:#6A98E4;}
	.st20{fill:#CC5B00;}
	.st21{fill:#4B2477;}
	.st22{fill:#61A795;}
	.st23{fill:#365A51;}
	.st24{fill:#0A2C5C;}
	.st25{fill:#7496DE;}
	.st26{fill:#B2C4E4;}
	.st27{fill:#72A495;}
	.st28{fill:#F9C800;}
	.st29{fill:#106AE0;}
	.st30{clip-path:url(#SVGID_8_);}
	.st31{clip-path:url(#SVGID_8_);fill:#FFFFFF;}
	.st32{clip-path:url(#SVGID_10_);}
	.st33{clip-path:url(#SVGID_10_);fill:#FFFFFF;}
	.st34{clip-path:url(#SVGID_12_);}
	.st35{clip-path:url(#SVGID_12_);fill:#FFFFFF;}
</style>
<g>
	<g>
		<g>
			<path class="st6" d="M102.8,62.8c-1.1,0.1-2,1-2,2.1c-0.2,8.1-6.4,14.9-14.7,15.7c-8.2,0.8-15.6-4.8-17.3-12.7
				c-0.2-1.1-1.2-1.8-2.3-1.7h0c-1.3,0.1-2.3,1.4-2,2.7c2.2,10,11.5,17.1,22,16.2c10.5-1,18.4-9.6,18.7-19.9
				C105.3,63.7,104.1,62.6,102.8,62.8L102.8,62.8z"/>
		</g>
	</g>
	<g>
		<path class="st6" d="M145.4,127.5c14.2-51-17.6-116.1-45.1-125.3C77.4-5.5,57.7,7.8,46.2,27.6c-9.8,16.9-9,32.9-13.5,46.5
			C29,85.1,10.9,109.7,7.2,128.8c-4.2,21.8,10.5,43.2,47,55.4C90.7,196.5,131.1,178.5,145.4,127.5z M56.4,178.5
			C22.3,167,9.6,147.6,13.5,127.2c3.4-17.8,21.4-40.6,24.9-51c4.2-12.6,1.3-28.3,10.5-44.1C59.6,13.6,78,1.2,99.4,8.4
			C125,17,153.6,78,140.3,125.6C127.1,173.2,90.4,189.9,56.4,178.5z"/>
	</g>
	<g>
		<path class="st6" d="M33,72.1c-1.7-0.7-7.1-3.1-9.9-6.7c-2.8-3.6-3.6-8.3-4-9.9c-0.3-1.2,2.2-6.1,1.5-10.3
			c-0.6-3.7-6.5-6.7-10.6-5.2c-3.8,1.5-5.7,7.2-3.8,10.4c1.9,3.2,6.2,4.2,6.8,5.7c0.3,0.9,3.6,9.3,7,13.4s8.2,6.8,11.3,7.9
			S35.4,73,33,72.1z"/>
	</g>
	<g>
		<path class="st6" d="M146.5,95.5c1.7-0.6,7.1-3.1,9.9-6.7c2.8-3.6,3.6-8.6,4-10.2c0.3-1.2-2.2-5.8-1.5-10
			c0.6-3.7,6.6-6.7,10.6-5.1c3.8,1.5,5.7,7.2,3.8,10.4c-1.9,3.2-6.2,4.2-6.8,5.7c-0.3,0.9-3.6,9.3-7,13.4c-3.5,4-8.2,6.8-11.3,7.9
			C145,101.9,144.1,96.5,146.5,95.5z"/>
	</g>
	<g>
		<path class="st6" d="M33.7,170.7c-0.4,1.2-6.5,10.7-8.8,20.2c-2.4,9.7-3.9,24-6.5,30.7c-1.5,3.8-11.1,7-15.5,3.3
			c-3.6-3-3.6-6.7-1.2-9.9s10.7-0.8,11.9-3.5c2.1-4.5,2.6-14.3,4.2-23.4s6.5-18.7,8.7-21.3C28.7,164.2,35.2,166.8,33.7,170.7z"/>
	</g>
	<g>
		<path class="st6" d="M103.6,180.9c-0.1,6.2,0.2,12.4,4.6,23s15.2,16,18.2,17.1c3,1,6.3,4,8.6,4.9c4.2,1.7,7.8,1.7,9.3-2.7
			s1-11.7-5.6-12.4c-3.8-0.4-8.7,5.7-11.2,4.8c-2.5-0.8-8-2.1-11.9-11.8c-3.9-9.7-4.2-23.1-3.6-26.7
			C112.6,173.6,103.7,174.8,103.6,180.9z"/>
	</g>
	<g>
		<ellipse transform="matrix(0.54 -0.8417 0.8417 0.54 -8.2535 88.2883)" class="st6" cx="76.6" cy="51.7" rx="4.6" ry="3.9"/>
	</g>
	<g>
		<ellipse transform="matrix(0.9801 -0.1985 0.1985 0.9801 -8.9137 19.2008)" class="st6" cx="91.3" cy="54.1" rx="3.9" ry="4.6"/>
	</g>
</g>
</svg>
