<?xml version="1.0" encoding="utf-8"?>
<!-- Generator: Adobe Illustrator 24.0.1, SVG Export Plug-In . SVG Version: 6.00 Build 0)  -->
<svg version="1.1" id="Layer_1" xmlns="http://www.w3.org/2000/svg" xmlns:xlink="http://www.w3.org/1999/xlink" x="0px" y="0px"
	 viewBox="0 0 170.4 234.9" style="enable-background:new 0 0 170.4 234.9;" xml:space="preserve">
<style type="text/css">
	.st0{fill:#F27D16;}
	.st1{fill:#4D4D4D;}
	.st2{fill:#FFFFFF;}
	.st3{fill:#F2F2F2;}
	.st4{fill:#F2CB05;}
	.st5{fill:#9450F2;}
	.st6{fill:#96D9C6;}
	.st7{fill:#3068D9;}
	.st8{clip-path:url(#SVGID_2_);}
	.st9{clip-path:url(#SVGID_2_);fill:#FFFFFF;}
	.st10{clip-path:url(#SVGID_4_);}
	.st11{clip-path:url(#SVGID_4_);fill:#FFFFFF;}
	.st12{clip-path:url(#SVGID_6_);}
	.st13{clip-path:url(#SVGID_6_);fill:#FFFFFF;}
	.st14{opacity:0.99;fill:#FFFFFF;}
	.st15{opacity:0.66;}
	.st16{fill:#FD9951;}
	.st17{fill:#F7DE65;}
	.st18{fill:#DBC1F7;}
	.st19{fill:#6A98E4;}
	.st20{fill:#CC5B00;}
	.st21{fill:#4B2477;}
	.st22{fill:#61A795;}
	.st23{fill:#365A51;}
	.st24{fill:#0A2C5C;}
	.st25{fill:#7496DE;}
	.st26{fill:#B2C4E4;}
	.st27{fill:#72A495;}
	.st28{fill:#F9C800;}
	.st29{fill:#106AE0;}
	.st30{clip-path:url(#SVGID_8_);}
	.st31{clip-path:url(#SVGID_8_);fill:#FFFFFF;}
	.st32{clip-path:url(#SVGID_10_);}
	.st33{clip-path:url(#SVGID_10_);fill:#FFFFFF;}
	.st34{clip-path:url(#SVGID_12_);}
	.st35{clip-path:url(#SVGID_12_);fill:#FFFFFF;}
</style>
<g>
	<g>
		<g>
			<path class="st7" d="M71.8,60.7c1.1,0.2,1.8,1.2,1.7,2.3c-0.8,8,4.6,15.6,12.7,17.3c8.1,1.8,16.1-2.9,18.7-10.5
				c0.4-1,1.5-1.6,2.5-1.4h0c1.3,0.3,2.1,1.6,1.6,2.9c-3.4,9.7-13.5,15.6-23.8,13.3S68.2,72.9,69.1,62.6
				C69.3,61.3,70.5,60.4,71.8,60.7L71.8,60.7z"/>
		</g>
	</g>
	<g>
		<path class="st7" d="M105.2,187.2c37.7-7.7,54.9-27.1,53.4-49.3c-1.3-19.4-16.3-46-18.6-57.5c-2.9-14-0.1-29.8-7.7-47.8
			c-8.9-21-26.9-36.6-50.6-31.7c-28.4,5.8-67.9,66.6-60,118.9C29.6,172.1,67.5,194.9,105.2,187.2z M26.9,118.5
			C19.5,69.6,55.3,12.6,81.8,7.1c22.1-4.5,38.9,10,47.3,29.7c7.1,16.8,2.3,32,5,45.1c2.2,10.7,17.2,35.5,18.5,53.6
			c1.4,20.7-13.5,38.5-48.7,45.7C68.6,188.4,34.3,167.3,26.9,118.5z"/>
	</g>
	<g>
		<path class="st7" d="M140,78.5c1.8-0.4,7.4-2.2,10.6-5.4c3.2-3.2,4.6-7.8,5.1-9.3c0.4-1.2-1.4-6.3-0.2-10.4
			c1.1-3.6,7.3-5.9,11.2-3.8c3.6,1.9,4.8,7.8,2.5,10.8c-2.3,2.9-6.7,3.4-7.4,4.8c-0.5,0.9-4.7,8.8-8.6,12.4
			c-3.9,3.6-8.9,5.8-12.2,6.4S137.4,79.1,140,78.5z"/>
	</g>
	<g>
		<path class="st7" d="M24.4,87.9c-1.6-0.9-6.7-3.9-9-7.8s-2.6-9-2.7-10.6c-0.1-1.2,2.8-5.5,2.7-9.7c-0.2-3.8-5.7-7.4-9.9-6.4
			c-4,1-6.5,6.5-5,9.8s5.7,4.9,6.1,6.5c0.2,1,2.4,9.7,5.4,14.1s7.3,7.8,10.3,9.2C25.1,94.3,26.7,89.1,24.4,87.9z"/>
	</g>
	<g>
		<path class="st7" d="M127.2,176.3c0.3,1.2,5.1,11.4,6.3,21.2c1.2,10,1,24.3,2.7,31.2c1,3.9,10.1,8.3,15,5.2
			c3.9-2.5,4.4-6.2,2.4-9.7c-2-3.4-10.5-2.1-11.4-4.9c-1.5-4.8-0.8-14.5-1.3-23.7c-0.5-9.2-4.2-19.4-6-22.2
			C133,170.4,126.2,172.2,127.2,176.3z"/>
	</g>
	<g>
		<path class="st7" d="M56.6,177.9c-0.7,6.1-1.7,12.3-7.4,22.3c-5.7,10-17,14.1-20.2,14.7c-3.1,0.6-6.7,3.2-9.1,3.8
			c-4.4,1.2-8,0.8-8.9-3.8c-0.9-4.6,0.4-11.7,7.1-11.6c3.8,0.1,7.9,6.7,10.5,6.2s8.2-1.1,13.3-10.3s7-22.4,6.8-26
			C48.6,169.5,57.3,171.8,56.6,177.9z"/>
	</g>
	<g>
		<ellipse transform="matrix(0.4332 -0.9013 0.9013 0.4332 0.1506 106.0065)" class="st7" cx="84.4" cy="52.9" rx="4.6" ry="3.9"/>
	</g>
	<g>
		<ellipse transform="matrix(0.9485 -0.3167 0.3167 0.9485 -11.8168 34.1635)" class="st7" cx="99.2" cy="53.4" rx="3.9" ry="4.6"/>
	</g>
</g>
</svg>
