<?xml version="1.0" encoding="utf-8"?>
<!-- Generator: Adobe Illustrator 24.0.1, SVG Export Plug-In . SVG Version: 6.00 Build 0)  -->
<svg version="1.1" id="Layer_1" xmlns="http://www.w3.org/2000/svg" xmlns:xlink="http://www.w3.org/1999/xlink" x="0px" y="0px"
	 viewBox="0 0 267.9 220" style="enable-background:new 0 0 267.9 220;" xml:space="preserve">
<style type="text/css">
	.st0{fill:#F27D16;}
	.st1{fill:#4D4D4D;}
	.st2{fill:#FFFFFF;}
	.st3{fill:#F2F2F2;}
	.st4{fill:#F2CB05;}
	.st5{fill:#9450F2;}
	.st6{fill:#96D9C6;}
	.st7{fill:#3068D9;}
	.st8{clip-path:url(#SVGID_2_);}
	.st9{clip-path:url(#SVGID_2_);fill:#FFFFFF;}
	.st10{clip-path:url(#SVGID_4_);}
	.st11{clip-path:url(#SVGID_4_);fill:#FFFFFF;}
	.st12{clip-path:url(#SVGID_6_);}
	.st13{clip-path:url(#SVGID_6_);fill:#FFFFFF;}
	.st14{opacity:0.99;fill:#FFFFFF;}
	.st15{opacity:0.66;}
	.st16{fill:#FD9951;}
	.st17{fill:#F7DE65;}
	.st18{fill:#DBC1F7;}
	.st19{fill:#6A98E4;}
	.st20{fill:#CC5B00;}
	.st21{fill:#4B2477;}
	.st22{fill:#61A795;}
	.st23{fill:#365A51;}
	.st24{fill:#0A2C5C;}
	.st25{fill:#7496DE;}
	.st26{fill:#B2C4E4;}
	.st27{fill:#72A495;}
	.st28{fill:#F9C800;}
	.st29{fill:#106AE0;}
	.st30{clip-path:url(#SVGID_8_);}
	.st31{clip-path:url(#SVGID_8_);fill:#FFFFFF;}
	.st32{clip-path:url(#SVGID_10_);}
	.st33{clip-path:url(#SVGID_10_);fill:#FFFFFF;}
	.st34{clip-path:url(#SVGID_12_);}
	.st35{clip-path:url(#SVGID_12_);fill:#FFFFFF;}
</style>
<g>
	<g>
		<path class="st4" d="M0,109.5c0,22.3,16.6,60,44.6,68.5c33.3,10,50.3,1.2,61,3.8c26.3,6.3,46.1,41,86.1,38.1
			c40-2.9,77.1-51.9,76.1-112.3C266.9,47.1,240.3,0.5,202.7,0s-75.4,64.5-98.9,67.9c-18.7,2.7-39.1-14.1-67.7-13.6
			C7.6,54.7,0,91.4,0,109.5z"/>
	</g>
	<g>
		<path class="st7" d="M80.5,34.8c1.4-1.7,90.6-23.5,92-23.2s56,39,56.6,40.8c1.3,3.6-61.4,130.6-62,130.8
			c-0.6,0.2-115.8-82.7-116.6-85.8C50.2,96.1,79.5,36,80.5,34.8z"/>
	</g>
	<g>
		<path class="st2" d="M85.6,41.6c1-1,36-9.7,35.5-8.9c-0.5,0.8-17.3,44.8-19.7,48.2c-0.7,1-35,10.7-39.5,9.9
			C61,90.6,84.3,42.9,85.6,41.6z"/>
	</g>
	<g>
		<path class="st2" d="M128.9,31.3c1.1-0.4,38.5,30.6,38,31.3c-1.6,2.1-56,14.6-56.5,14.2S128.9,31.3,128.9,31.3z"/>
	</g>
	<g>
		<path class="st2" d="M136.5,29.1c0.8-0.7,34.2-8.9,35.1-8.8s43.9,30.6,44.1,31.4c0.2,0.8-35.9,11.5-38.6,10.7
			C172.8,61.2,136.5,29.1,136.5,29.1z"/>
	</g>
	<g>
		<path class="st2" d="M110.8,86.9c0-2.1,58.7-18.1,60.2-15.2c1,1.9-7.7,92.8-8.3,93.7C162.1,166.4,110.8,91.6,110.8,86.9z"/>
	</g>
	<g>
		<path class="st2" d="M179.2,69.7c1.8-2.9,38.4-11.7,38.5-9.7c0.2,3.6-45.2,95.4-46.2,95.7C170.4,156,177.5,72.4,179.2,69.7z"/>
	</g>
	<g>
		<path class="st2" d="M64,98.9c-0.6-0.9,34.6-11.7,38.3-9.6c3.4,2,48.2,71,48.2,71.7C150.4,161.7,65.7,101.3,64,98.9z"/>
	</g>
	<g>
		<g>
			<g>
				
					<rect x="174.4" y="33.5" transform="matrix(0.5832 -0.8123 0.8123 0.5832 38.7583 163.5051)" class="st17" width="8.6" height="21"/>
			</g>
			<g>
				<circle class="st17" cx="170.2" cy="37.9" r="4.3"/>
			</g>
			<g>
				<circle class="st17" cx="187.2" cy="50" r="4.3"/>
			</g>
		</g>
		<g>
			<circle class="st17" cx="161.3" cy="31.5" r="4.3"/>
		</g>
	</g>
	<g>
		<g>
			
				<rect x="176.2" y="85.2" transform="matrix(0.3047 -0.9525 0.9525 0.3047 45.1789 242.5871)" class="st17" width="25" height="10.3"/>
		</g>
		<g>
			<circle class="st17" cx="184.9" cy="102.2" r="5.2"/>
		</g>
		<g>
			<circle class="st17" cx="192.5" cy="78.5" r="5.2"/>
		</g>
	</g>
</g>
</svg>
