<?xml version="1.0" encoding="utf-8"?>
<!-- Generator: Adobe Illustrator 24.0.1, SVG Export Plug-In . SVG Version: 6.00 Build 0)  -->
<svg version="1.1" id="Layer_1" xmlns="http://www.w3.org/2000/svg" xmlns:xlink="http://www.w3.org/1999/xlink" x="0px" y="0px"
	 viewBox="0 0 67.8 57.1" style="enable-background:new 0 0 67.8 57.1;" xml:space="preserve">
<style type="text/css">
	.st0{fill:#F27D16;}
	.st1{fill:#4D4D4D;}
	.st2{fill:#FFFFFF;}
	.st3{fill:#F2F2F2;}
	.st4{fill:#F2CB05;}
	.st5{fill:#9450F2;}
	.st6{fill:#96D9C6;}
	.st7{fill:#3068D9;}
	.st8{clip-path:url(#SVGID_2_);}
	.st9{clip-path:url(#SVGID_2_);fill:#FFFFFF;}
	.st10{clip-path:url(#SVGID_4_);}
	.st11{clip-path:url(#SVGID_4_);fill:#FFFFFF;}
	.st12{clip-path:url(#SVGID_6_);}
	.st13{clip-path:url(#SVGID_6_);fill:#FFFFFF;}
	.st14{opacity:0.99;fill:#FFFFFF;}
	.st15{opacity:0.66;}
	.st16{fill:#FD9951;}
	.st17{fill:#F7DE65;}
	.st18{fill:#DBC1F7;}
	.st19{fill:#6A98E4;}
	.st20{fill:#CC5B00;}
	.st21{fill:#4B2477;}
	.st22{fill:#61A795;}
	.st23{fill:#365A51;}
	.st24{fill:#0A2C5C;}
	.st25{fill:#7496DE;}
	.st26{fill:#B2C4E4;}
	.st27{fill:#72A495;}
	.st28{fill:#F9C800;}
	.st29{fill:#106AE0;}
	.st30{clip-path:url(#SVGID_8_);}
	.st31{clip-path:url(#SVGID_8_);fill:#FFFFFF;}
	.st32{clip-path:url(#SVGID_10_);}
	.st33{clip-path:url(#SVGID_10_);fill:#FFFFFF;}
	.st34{clip-path:url(#SVGID_12_);}
	.st35{clip-path:url(#SVGID_12_);fill:#FFFFFF;}
</style>
<g>
	<g>
		<path class="st4" d="M67.7,34.4l0-0.1c-1.1-3.4-2.1-6.9-3.2-10.4c-1.1-3.5-2.3-7-4-10.6c-0.5-0.9-0.9-1.8-1.7-2.8
			c-0.2-0.2-0.4-0.5-0.6-0.7l-0.4-0.4L57.4,9c-0.1-0.1-0.3-0.3-0.6-0.4c-0.2-0.1-0.4-0.2-0.7-0.4C55.8,8.1,55.5,8,55.2,8
			c-0.3-0.1-0.7-0.1-1-0.1c-0.3,0-0.7,0.1-1,0.2c-0.2,0-0.3,0.1-0.4,0.1l-0.3,0.2c-0.2,0.1-0.4,0.2-0.6,0.3
			c-0.2,0.1-0.3,0.2-0.5,0.3c-0.6,0.5-1,0.9-1.4,1.4c-0.7,0.9-1.3,1.8-1.8,2.6c-1,1.7-1.8,3.4-2.6,5c-0.2,0.5-0.5,1-0.7,1.4
			l-2.1-2.1c-1.6-1.6-3.2-3.1-5-4.7c-1.7-1.5-3.5-3-5.7-4.3c-1.1-0.7-2.2-1.3-3.8-1.7c-0.7-0.2-1.7-0.4-2.7-0.3
			c-1,0.1-2.3,0.6-3.1,1.4c-0.9,0.8-1.2,1.6-1.6,2.4c-0.3,0.7-0.5,1.5-0.6,2.1c-0.2,1.3-0.3,2.6-0.3,3.8c0,2.4,0.2,4.7,0.5,7
			c0.3,2.3,0.6,4.5,0.9,6.7l0.5,3.2c0,0.1,0,0.1,0,0.2l-2.8-0.6c-2-0.4-4-0.8-6.1-0.9c-1.1-0.1-2.2-0.1-3.3,0
			c-0.6,0.1-1.2,0.2-1.8,0.4c-0.6,0.2-1.3,0.5-2,1.1c-0.6,0.6-1.1,1.5-1.1,2.3c-0.1,0.8,0,1.5,0.2,2.1c0.3,1.2,0.8,2.2,1.3,3.1
			c1.1,1.8,2.3,3.5,3.6,5c1.3,1.6,2.6,3.1,4,4.5c2.8,2.9,5.7,5.6,8.6,8.3c-2.5-3.2-5-6.2-7.4-9.4c-2.4-3.2-4.8-6.4-6.3-9.8
			c-0.4-0.8-0.7-1.7-0.8-2.4c-0.1-0.4-0.1-0.7,0-0.9c0-0.2,0.1-0.2,0.2-0.3c0.1-0.1,0.3-0.2,0.6-0.2c0.3-0.1,0.7-0.1,1.1-0.1
			c0.8,0,1.7,0.1,2.6,0.2c1.8,0.3,3.7,0.8,5.6,1.2l2.9,0.8l1.5,0.4c0.5,0.1,1,0.3,1.8,0.4l0,0c1.2,0.1,2.3-0.7,2.5-2l0-0.1
			c0.1-1,0-1.5,0-2.1c0-0.6-0.1-1.2-0.1-1.7l-0.3-3.3c-0.2-2.2-0.5-4.4-0.7-6.5c-0.2-2.1-0.3-4.3-0.2-6.3c0-1,0.1-2,0.3-2.8
			c0.1-0.4,0.2-0.8,0.3-1.1c0.1-0.1,0.1-0.2,0.1-0.3c0.1,0,0.3,0,0.5,0.1c0.6,0.2,1.4,0.6,2.2,1.1c1.6,1,3.2,2.4,4.8,3.8
			c1.6,1.4,3.1,2.9,4.7,4.5l2.3,2.4l1.2,1.2l0.7,0.6c0.3,0.2,0.5,0.5,1,0.8l0,0c1.2,0.8,2.8,0.6,3.8-0.5c1.7-2,2.4-3.7,3.3-5.3
			c0.8-1.7,1.6-3.3,2.4-4.7c0.4-0.7,0.8-1.4,1.2-1.9c0.4,0.5,0.7,1.1,1.1,1.7c1.6,2.9,2.8,6.3,4,9.7c1,2.8,1.9,5.6,3,8.5
			c-3,1.6-5.9,3.2-8.9,4.9L43,45.1c-3.5,2.1-7,4.2-10.5,6.4c-3.4,2.2-6.9,4.4-10.1,7c1.7-1,3.6-2,5.4-2.9c1.8-0.9,3.7-1.8,5.5-2.7
			c3.7-1.8,7.4-3.5,11.1-5.3l22.1-10.5C67.6,36.7,68.1,35.5,67.7,34.4z M26.2,12.1C26.3,12,26.3,12,26.2,12.1
			C26.3,12,26.3,12.1,26.2,12.1z M53.9,13.5C53.9,13.5,53.9,13.5,53.9,13.5C53.8,13.5,53.8,13.5,53.9,13.5z M55,13.6
			C55,13.6,55,13.6,55,13.6C55,13.6,55,13.6,55,13.6C55,13.6,55,13.6,55,13.6z"/>
	</g>
	<g>
		<path class="st4" d="M1.7,30.5c-0.9,0-1.7,0.7-1.7,1.7c0,0.9,0.7,1.7,1.7,1.7c0.9,0,1.7-0.7,1.7-1.7C3.3,31.3,2.6,30.5,1.7,30.5z"
			/>
	</g>
	<g>
		<path class="st4" d="M21.2,4.4c1.4,0,2.5-1.1,2.5-2.5s-1.1-2.5-2.5-2.5s-2.5,1.1-2.5,2.5S19.8,4.4,21.2,4.4z"/>
	</g>
	<g>
		<path class="st4" d="M54.4,6c0.9,0,1.7-0.7,1.7-1.7c0-0.9-0.7-1.7-1.7-1.7c-0.9,0-1.7,0.7-1.7,1.7C52.8,5.3,53.5,6,54.4,6z"/>
	</g>
</g>
</svg>
