<?xml version="1.0" encoding="utf-8"?>
<!-- Generator: Adobe Illustrator 24.0.1, SVG Export Plug-In . SVG Version: 6.00 Build 0)  -->
<svg version="1.1" id="Layer_1" xmlns="http://www.w3.org/2000/svg" xmlns:xlink="http://www.w3.org/1999/xlink" x="0px" y="0px"
	 viewBox="0 0 187.8 220.8" style="enable-background:new 0 0 187.8 220.8;" xml:space="preserve">
<style type="text/css">
	.st0{fill:#F27D16;}
	.st1{fill:#4D4D4D;}
	.st2{fill:#FFFFFF;}
	.st3{fill:#F2F2F2;}
	.st4{fill:#F2CB05;}
	.st5{fill:#9450F2;}
	.st6{fill:#96D9C6;}
	.st7{fill:#3068D9;}
	.st8{clip-path:url(#SVGID_2_);}
	.st9{clip-path:url(#SVGID_2_);fill:#FFFFFF;}
	.st10{clip-path:url(#SVGID_4_);}
	.st11{clip-path:url(#SVGID_4_);fill:#FFFFFF;}
	.st12{clip-path:url(#SVGID_6_);}
	.st13{clip-path:url(#SVGID_6_);fill:#FFFFFF;}
	.st14{opacity:0.99;fill:#FFFFFF;}
	.st15{opacity:0.66;}
	.st16{fill:#FD9951;}
	.st17{fill:#F7DE65;}
	.st18{fill:#DBC1F7;}
	.st19{fill:#6A98E4;}
	.st20{fill:#CC5B00;}
	.st21{fill:#4B2477;}
	.st22{fill:#61A795;}
	.st23{fill:#365A51;}
	.st24{fill:#0A2C5C;}
	.st25{fill:#7496DE;}
	.st26{fill:#B2C4E4;}
	.st27{fill:#72A495;}
	.st28{fill:#F9C800;}
	.st29{fill:#106AE0;}
	.st30{clip-path:url(#SVGID_8_);}
	.st31{clip-path:url(#SVGID_8_);fill:#FFFFFF;}
	.st32{clip-path:url(#SVGID_10_);}
	.st33{clip-path:url(#SVGID_10_);fill:#FFFFFF;}
	.st34{clip-path:url(#SVGID_12_);}
	.st35{clip-path:url(#SVGID_12_);fill:#FFFFFF;}
</style>
<g>
	<g>
		<path class="st5" d="M171.3,108.1c-3.8-9.4-18.5-40.1-27.9-65.3C135,20.3,114.8,0.4,97.3,0C75.1-0.5,46.3,35,46.3,80.3
			c0,45.3,12.8,85.3,72.2,85.3C177.9,165.6,177.9,124.4,171.3,108.1z M118,160.2c-55.5,0-65.9-37.4-65.9-79.7S77.4,5,98.1,5.4
			c16.4,0.4,33.8,19,41.6,40c8.8,23.5,22.5,52.2,26.1,61C171.9,121.6,173.4,160.2,118,160.2z"/>
	</g>
	<g>
		<ellipse class="st5" cx="86.8" cy="39.3" rx="3.7" ry="4.2"/>
	</g>
	<g>
		<ellipse class="st5" cx="103" cy="38.4" rx="4.1" ry="5.3"/>
	</g>
	<g>
		<path class="st5" d="M82.5,57.3c1.3-3.5,23.6-7.4,24.7-6.3c1.1,1.1,1.8,30.6-9.6,33.6S81.1,61.3,82.5,57.3z"/>
	</g>
	<g>
		<path class="st5" d="M154.2,71.2c3.4-4.9,18.3-25.7,19-29.5S174,31,178.3,29s9.6,1.2,9.5,5.4s-7.4,8.4-9.7,10.8
			s-19.7,26.3-21.4,30.8C155,80.6,153.3,72.5,154.2,71.2z"/>
	</g>
	<g>
		<path class="st5" d="M48.5,79.8c-3-3-28-18.6-31-21.7c-1.9-1.9-1.5-6.3-4-10.3S2.2,43,0.6,47.3S0.3,55,9.7,59.5
			s36.7,22.6,38.8,27.8C50.6,92.5,51,82.3,48.5,79.8z"/>
	</g>
	<g>
		<path class="st5" d="M88.2,160.5c-3.4,6.7-9.4,23.1-10.3,29.2c-0.9,6.1,2,17.4,1,19.6s-4.9,4.6-3.5,8.6s7.1,3.9,10.3-0.6
			c3.2-4.5,1.9-7.7,0.9-9c-1-1.3-4.6-11.3-3.6-18.7c1-7.4,10.3-26,10.6-27.6C93.9,160.4,89.9,157,88.2,160.5z"/>
	</g>
	<g>
		<path class="st5" d="M142.1,162c3.2,4.1,15.7,11.4,15.5,18.8s-5,18.3-2.3,23s15.6,2.5,15.6-3.8s-8.9-5.6-10.2-6.3
			c-1.3-0.7,2.2-7.8,1.5-14.7c-0.6-6-8-18.5-10.9-20.1C148.4,157.3,139,158,142.1,162z"/>
	</g>
</g>
</svg>
