<?xml version="1.0" encoding="utf-8"?>
<!-- Generator: Adobe Illustrator 24.0.1, SVG Export Plug-In . SVG Version: 6.00 Build 0)  -->
<svg version="1.1" id="Layer_1" xmlns="http://www.w3.org/2000/svg" xmlns:xlink="http://www.w3.org/1999/xlink" x="0px" y="0px"
	 viewBox="0 0 186.5 221.8" style="enable-background:new 0 0 186.5 221.8;" xml:space="preserve">
<style type="text/css">
	.st0{fill:#F27D16;}
	.st1{fill:#4D4D4D;}
	.st2{fill:#FFFFFF;}
	.st3{fill:#F2F2F2;}
	.st4{fill:#F2CB05;}
	.st5{fill:#9450F2;}
	.st6{fill:#96D9C6;}
	.st7{fill:#3068D9;}
	.st8{clip-path:url(#SVGID_2_);}
	.st9{clip-path:url(#SVGID_2_);fill:#FFFFFF;}
	.st10{clip-path:url(#SVGID_4_);}
	.st11{clip-path:url(#SVGID_4_);fill:#FFFFFF;}
	.st12{clip-path:url(#SVGID_6_);}
	.st13{clip-path:url(#SVGID_6_);fill:#FFFFFF;}
	.st14{opacity:0.99;fill:#FFFFFF;}
	.st15{opacity:0.66;}
	.st16{fill:#FD9951;}
	.st17{fill:#F7DE65;}
	.st18{fill:#DBC1F7;}
	.st19{fill:#6A98E4;}
	.st20{fill:#CC5B00;}
	.st21{fill:#4B2477;}
	.st22{fill:#61A795;}
	.st23{fill:#365A51;}
	.st24{fill:#0A2C5C;}
	.st25{fill:#7496DE;}
	.st26{fill:#B2C4E4;}
	.st27{fill:#72A495;}
	.st28{fill:#F9C800;}
	.st29{fill:#106AE0;}
	.st30{clip-path:url(#SVGID_8_);}
	.st31{clip-path:url(#SVGID_8_);fill:#FFFFFF;}
	.st32{clip-path:url(#SVGID_10_);}
	.st33{clip-path:url(#SVGID_10_);fill:#FFFFFF;}
	.st34{clip-path:url(#SVGID_12_);}
	.st35{clip-path:url(#SVGID_12_);fill:#FFFFFF;}
</style>
<g>
	<g>
		<path class="st5" d="M77.2,167c59.1-5.6,68.1-46.6,63.8-91.7c-4.3-45.1-36.3-77.7-58.3-75.1c-17.4,2-35.6,23.8-41.9,47
			c-7,25.9-18.7,57.9-21.6,67.6C14.2,131.6,18.1,172.6,77.2,167z M24.5,112.6c2.7-9.1,13.6-38.9,20.2-63.2
			C50.5,27.7,66,7.5,82.3,5.6c20.6-2.4,49,28.2,53,70.3s-2.9,80.3-58.1,85.6S19.8,128.3,24.5,112.6z"/>
	</g>
	<g>
		<g>
			<ellipse transform="matrix(0.9917 -0.129 0.129 0.9917 -4.2331 13.4357)" class="st5" cx="101.6" cy="39.4" rx="3.7" ry="4.2"/>
		</g>
		<g>
			<ellipse transform="matrix(0.9917 -0.129 0.129 0.9917 -4.5205 11.3542)" class="st5" cx="85.4" cy="40.6" rx="4.1" ry="5.3"/>
		</g>
	</g>
	<g>
		<path class="st5" d="M78.5,56.7c1.7-3.3,24.4-4.3,25.3-3c1,1.2-2.1,30.6-13.8,32.1S76.6,60.5,78.5,56.7z"/>
	</g>
	<g>
		<path class="st5" d="M33.6,72.2c-3.4-4.9-18.3-25.7-19-29.5C14,38.9,13.8,32,9.5,30s-9.6,1.2-9.5,5.4s7.4,8.4,9.7,10.8
			c2.4,2.4,19.7,26.3,21.4,30.8C32.8,81.6,34.5,73.5,33.6,72.2z"/>
	</g>
	<g>
		<path class="st5" d="M138,81.8c3-3,28-18.6,31-21.7c1.9-1.9,1.5-6.3,4-10.3c2.5-4,11.2-4.8,12.8-0.5s0.3,7.8-9.1,12.2
			c-9.4,4.4-36.7,22.6-38.8,27.8S135.5,84.3,138,81.8z"/>
	</g>
	<g>
		<g>
			<path class="st5" d="M97.6,161.5c3.4,6.7,9.4,23.1,10.3,29.2s-2,17.4-1,19.6c1,2.2,4.9,4.6,3.5,8.6c-1.5,3.9-7.1,3.9-10.3-0.6
				c-3.2-4.5-1.9-7.7-0.9-9s4.6-11.3,3.6-18.7c-1-7.4-10.3-26-10.6-27.6C91.9,161.4,95.9,158,97.6,161.5z"/>
		</g>
		<g>
			<path class="st5" d="M43.7,163c-3.2,4.1-15.7,11.4-15.5,18.8s5,18.3,2.3,23s-15.6,2.5-15.6-3.8c0-6.3,8.9-5.6,10.2-6.3
				c1.3-0.7-2.2-7.8-1.5-14.7c0.6-6,8-18.5,10.9-20.1C37.5,158.3,46.8,159,43.7,163z"/>
		</g>
	</g>
</g>
</svg>
