<?xml version="1.0" encoding="utf-8"?>
<!-- Generator: Adobe Illustrator 24.0.1, SVG Export Plug-In . SVG Version: 6.00 Build 0)  -->
<svg version="1.1" id="Layer_1" xmlns="http://www.w3.org/2000/svg" xmlns:xlink="http://www.w3.org/1999/xlink" x="0px" y="0px"
	 viewBox="0 0 249.9 241.2" style="enable-background:new 0 0 249.9 241.2;" xml:space="preserve">
<style type="text/css">
	.st0{fill:#F27D16;}
	.st1{fill:#4D4D4D;}
	.st2{fill:#FFFFFF;}
	.st3{fill:#F2F2F2;}
	.st4{fill:#F2CB05;}
	.st5{fill:#9450F2;}
	.st6{fill:#96D9C6;}
	.st7{fill:#3068D9;}
	.st8{clip-path:url(#SVGID_2_);}
	.st9{clip-path:url(#SVGID_2_);fill:#FFFFFF;}
	.st10{clip-path:url(#SVGID_4_);}
	.st11{clip-path:url(#SVGID_4_);fill:#FFFFFF;}
	.st12{clip-path:url(#SVGID_6_);}
	.st13{clip-path:url(#SVGID_6_);fill:#FFFFFF;}
	.st14{opacity:0.99;fill:#FFFFFF;}
	.st15{opacity:0.66;}
	.st16{fill:#FD9951;}
	.st17{fill:#F7DE65;}
	.st18{fill:#DBC1F7;}
	.st19{fill:#6A98E4;}
	.st20{fill:#CC5B00;}
	.st21{fill:#4B2477;}
	.st22{fill:#61A795;}
	.st23{fill:#365A51;}
	.st24{fill:#0A2C5C;}
	.st25{fill:#7496DE;}
	.st26{fill:#B2C4E4;}
	.st27{fill:#72A495;}
	.st28{fill:#F9C800;}
	.st29{fill:#106AE0;}
	.st30{clip-path:url(#SVGID_8_);}
	.st31{clip-path:url(#SVGID_8_);fill:#FFFFFF;}
	.st32{clip-path:url(#SVGID_10_);}
	.st33{clip-path:url(#SVGID_10_);fill:#FFFFFF;}
	.st34{clip-path:url(#SVGID_12_);}
	.st35{clip-path:url(#SVGID_12_);fill:#FFFFFF;}
</style>
<g>
	<g>
		<g>
			<path class="st25" d="M105.7,50.1c-1.5,0-2.8,1.2-2.8,2.8c0,1.5,1.2,2.8,2.8,2.8c1.5,0,2.8-1.2,2.8-2.8S107.3,50.1,105.7,50.1z"
				/>
		</g>
	</g>
	<g>
		<g>
			<path class="st26" d="M99.6,47.4C99.6,47.4,99.6,47.4,99.6,47.4c-6.5-1.9-10-1.9-16.5,0l0,0l0,0c0,0,0,0-0.1,0c0,0,0,0,0,0
				c-1.8,0.6-2.7,2.3-2.2,3.7c0.6,1.4,2.2,2,3.7,1.6c0,0,0,0,0,0c5.3-1.5,8.2-1.5,13.5,0l0,0l0,0c0,0,0,0,0,0c0,0,0,0,0,0
				c1.5,0.4,3.1-0.2,3.7-1.6C102.4,49.7,101.5,48,99.6,47.4z"/>
		</g>
	</g>
</g>
<g>
	<g>
		<path class="st5" d="M56.6,236.4c-39.1-16.7-17.9-50.8-25.7-70.1c-6.1-15.3-38.8-37.8-29.2-60.2c15.1-35.3,61.8-21.4,84.6-32.9
			c14.7-7.4,12.1-44.4,39.2-61.3c32.3-20.3,78-14,106.4,14.9s17.1,64.4,8.2,80.1c-15.9,28.3-69.6,35-99.3,62.3
			C122.9,185.3,113.3,260.7,56.6,236.4z"/>
	</g>
	<g>
		<g>
			<path class="st24" d="M81.1,137.8c-1.1,0-1.9,0-9.8-2.7c-7.7-2.6-8.5-2.9-9.9-4.5c-1.8-2.1-1.8-2.9-1.9-10.9c0-1.1,0-2.5,0-3.6
				c-1-0.9-2.2-2-3.2-2.8c-1.1,0.1-2.3,0.2-3.4,0.2c-3.2,0.2-5.2,0.4-6.4,0.4c-0.8,0-2.7,0-4.6-1.3c-1.3-0.9-1.8-1.2-6-9
				c-3.7-6.8-5.1-9.4-3.7-12.9c0.8-1.8,5.7-7.4,8.5-10.5c0-1-0.1-2.1-0.1-3.1c-3.1-2.4-7.8-6.3-8.8-7.8c-2-3.2-1.2-5.5,1.5-13.3
				c2.5-7.3,3.1-8.3,3.3-8.6c2.2-3.9,5.4-4,13.9-4.2c0.6,0,1.3,0,1.9-0.1c0.9-1.1,1.9-2.4,2.7-3.4c-0.1-0.7-0.2-1.6-0.3-2.3
				c-0.9-6.7-1.2-8.9,0.6-11.5c1-1.5,1.7-2.1,9.5-6.1c7.9-4,8.5-4,10.1-4.1c0,0,0,0,0,0c3.3,0,4.5,1.1,10.9,7.3c0.5,0.4,1,1,1.5,1.4
				c1.3-0.1,2.8-0.2,4-0.3c7-8.7,7.8-9.7,11.2-9.9l0.2,0h0.2c1.1,0,1.6,0,9.5,2.6c8,2.7,8.9,3.1,10.2,4.6c1.3,1.4,2.5,2.7,2.4,14.9
				c1,0.9,2.3,2,3.3,2.8c0.9-0.1,2-0.3,2.9-0.4c3.2-0.5,5.2-0.8,6.7-0.8c1.2,0,2.2,0.2,3.2,0.6c2.6,1.1,3.9,2.9,7.4,10.1
				c3.7,7.7,3.9,9.1,3.4,11.3c-0.5,2.4-1.5,3.5-6.5,8.8c-0.6,0.7-1.4,1.5-2.1,2.2c0,1.3,0.1,3,0.2,4.3c1,0.9,2.3,1.9,3.2,2.7
				c2.9,2.4,3.9,3.3,4.6,4c3.3,3.5,1.9,8.1,0.8,11.9c-3.2,10.8-5.1,12.9-8.6,13.8c-0.9,0.2-1.6,0.3-6.6,0.6
				c-1.4,0.1-3.4,0.2-4.9,0.3c-1,1-2.2,2.2-3.1,3.3c0.1,1.2,0.3,2.6,0.4,3.6c0.8,7.2,1,8.7-0.7,11.1c-1.1,1.5-1.6,2-9.2,5.8
				c-7.4,3.6-8.3,3.8-9.9,3.8h-0.7l-0.7-0.1c-2.2-0.5-2.9-1.1-9.3-7c-0.5-0.4-1.1-1-1.6-1.4c-0.1,0-0.1,0-0.2,0
				c-1.6,0-3.1,0-4.3,0.1c-6.2,8.1-6.9,8.9-9.2,9.7l-1.2,0.4L81.1,137.8z M91.3,64.9c-3.5,0-6.8,1.7-8.8,4.6c-1.6,2.3-2.2,5.2-1.7,8
				c0.5,2.8,2.1,5.2,4.4,6.9c1.8,1.3,3.9,1.9,6.1,1.9c3.5,0,6.8-1.7,8.8-4.6c1.6-2.3,2.2-5.2,1.7-8c-0.5-2.8-2.1-5.2-4.4-6.9
				C95.6,65.5,93.5,64.9,91.3,64.9z"/>
		</g>
	</g>
	<g>
		<path class="st2" d="M66.7,126c0.2,0.2,13.8,4.9,14.4,4.7c0.6-0.2,7.4-9.3,7.8-9.7c0.4-0.4,10.5-0.6,11-0.3c0.5,0.2,9,8.3,9.5,8.4
			c0.6,0.1,13-6,13.3-6.5c0.3-0.5-1.4-12.5-1-13.2c0.3-0.8,6.8-7.2,7.1-7.5c0.4-0.3,12.3-0.8,13-1c0.8-0.2,5.2-13,4.3-14
			c-1-1-8.9-7.4-9.3-8.1c-0.4-0.7-0.9-9.7-0.3-10.7c0.6-1,8.3-8.7,8.4-9.4c0.1-0.7-5.6-13.1-6.6-13.5c-1-0.4-11.4,1.7-12.3,1.2
			c-0.9-0.4-8.2-6.6-8.2-7.2c0-0.5,0-12.5-0.5-13c-0.5-0.5-14.1-4.9-14.5-4.9c-0.5,0-7.5,9-7.9,9.4c-0.4,0.4-9.9,1-10.3,1
			c-0.4,0-9.2-8.9-9.8-8.9c-0.6,0-13.4,6.4-13.8,7.1s1.4,10.9,1.1,11.7s-5.9,7.9-6.6,8.3c-0.6,0.4-12.7,0.3-13.1,1
			c-0.4,0.7-5.2,14.2-4.9,14.7c0.3,0.5,9.2,7.6,9.5,7.8c0.3,0.2,0.8,9.3,0.5,9.7c-0.3,0.3-8.7,9.7-9,10.3s6.8,13.1,7.2,13.4
			c0.4,0.3,12.6-0.9,13-0.6c0.4,0.3,7.4,6.4,7.6,6.7C66.6,113.2,66.5,125.7,66.7,126z M76.7,65.4c5.6-8,16.7-10,24.7-4.4
			s10,16.7,4.4,24.7c-5.6,8-16.7,10-24.7,4.4C73.1,84.5,71.1,73.4,76.7,65.4z"/>
	</g>
	<g>
		<g>
			<path class="st24" d="M176.6,189.8c-0.9,0-1.6,0-8-2.2c-6.4-2.1-7-2.4-8.1-3.7c-1.5-1.7-1.5-2.4-1.6-8.9c0-0.9,0-2,0-3
				c-0.8-0.7-1.8-1.6-2.6-2.3c-0.9,0.1-1.9,0.1-2.8,0.2c-2.6,0.2-4.3,0.3-5.3,0.3c-0.7,0-2.2,0-3.8-1.1c-1.1-0.7-1.4-1-4.9-7.4
				c-3.1-5.6-4.2-7.7-3-10.6c0.6-1.5,4.7-6.1,7-8.6c0-0.8-0.1-1.7-0.1-2.5c-2.5-2-6.4-5.2-7.2-6.4c-1.6-2.6-1-4.5,1.2-10.9
				c2.1-6,2.5-6.8,2.7-7.1c1.8-3.2,4.4-3.3,11.4-3.5c0.5,0,1,0,1.6-0.1c0.7-0.9,1.6-2,2.2-2.8c-0.1-0.6-0.2-1.3-0.2-1.9
				c-0.7-5.5-1-7.3,0.5-9.5c0.8-1.2,1.4-1.7,7.8-5c6.5-3.3,7-3.3,8.3-3.3c0,0,0,0,0,0c2.7,0,3.7,0.9,8.9,6c0.4,0.4,0.8,0.8,1.2,1.2
				c1.1-0.1,2.3-0.2,3.3-0.3c5.8-7.2,6.4-7.9,9.2-8.1l0.2,0h0.2c0.9,0,1.3,0,7.8,2.2c6.6,2.2,7.3,2.6,8.4,3.7c1.1,1.2,2,2.2,2,12.3
				c0.8,0.7,1.9,1.6,2.7,2.3c0.8-0.1,1.7-0.2,2.4-0.3c2.6-0.4,4.3-0.6,5.5-0.6c1,0,1.8,0.2,2.6,0.5c2.1,0.9,3.2,2.4,6,8.3
				c3,6.3,3.2,7.4,2.8,9.2c-0.4,2-1.2,2.9-5.4,7.3c-0.5,0.5-1.2,1.2-1.7,1.8c0,1,0.1,2.4,0.2,3.5c0.8,0.7,1.9,1.6,2.6,2.2
				c2.3,2,3.2,2.7,3.8,3.3c2.7,2.8,1.6,6.7,0.6,9.8c-2.6,8.9-4.2,10.6-7,11.3c-0.7,0.2-1.3,0.2-5.4,0.5c-1.2,0.1-2.8,0.2-4,0.3
				c-0.8,0.8-1.8,1.8-2.6,2.7c0.1,1,0.2,2.1,0.3,3c0.7,5.9,0.8,7.1-0.6,9.1c-0.9,1.2-1.3,1.7-7.5,4.7c-6.1,3-6.8,3.1-8.2,3.1h-0.6
				l-0.6-0.1c-1.8-0.4-2.4-0.9-7.6-5.7c-0.4-0.4-0.9-0.8-1.3-1.2c0,0-0.1,0-0.1,0c-1.3,0-2.6,0-3.5,0.1c-5.1,6.6-5.7,7.3-7.6,7.9
				l-1,0.3L176.6,189.8z M185,130c-2.9,0-5.6,1.4-7.2,3.8c-1.3,1.9-1.8,4.2-1.4,6.5c0.4,2.3,1.7,4.3,3.6,5.6c1.5,1,3.2,1.6,5,1.6
				c2.9,0,5.6-1.4,7.2-3.8c1.3-1.9,1.8-4.2,1.4-6.5c-0.4-2.3-1.7-4.3-3.6-5.6C188.5,130.5,186.8,130,185,130z"/>
		</g>
	</g>
	<g>
		<path class="st2" d="M164.8,180.1c0.2,0.2,11.3,4.1,11.8,3.9c0.5-0.2,6.1-7.6,6.4-8c0.3-0.4,8.7-0.5,9-0.3
			c0.4,0.2,7.4,6.8,7.8,6.9c0.5,0.1,10.7-5,11-5.4c0.3-0.4-1.1-10.2-0.9-10.8c0.3-0.6,5.5-6,5.9-6.2c0.3-0.2,10.1-0.7,10.7-0.8
			s4.3-10.7,3.6-11.5c-0.8-0.9-7.3-6-7.6-6.6c-0.3-0.6-0.8-8-0.3-8.8c0.5-0.8,6.8-7.1,6.9-7.7c0.1-0.6-4.6-10.7-5.4-11.1
			c-0.8-0.3-9.4,1.4-10.1,1s-6.8-5.4-6.7-5.9c0-0.4,0-10.3-0.4-10.7c-0.4-0.4-11.6-4.1-11.9-4c-0.4,0-6.2,7.4-6.5,7.7
			c-0.3,0.3-8.2,0.8-8.5,0.8c-0.3,0-7.5-7.3-8-7.3c-0.5,0-11,5.3-11.4,5.8s1.1,9,0.9,9.6s-4.9,6.5-5.4,6.8
			c-0.5,0.3-10.4,0.2-10.7,0.8s-4.3,11.6-4,12c0.2,0.4,7.5,6.3,7.8,6.4c0.2,0.2,0.6,7.7,0.4,7.9c-0.3,0.3-7.1,7.9-7.4,8.4
			c-0.2,0.5,5.5,10.8,5.9,11c0.3,0.2,10.3-0.7,10.7-0.5c0.3,0.2,6.1,5.3,6.3,5.5S164.6,179.9,164.8,180.1z M173,130.4
			c4.6-6.6,13.7-8.2,20.3-3.6s8.2,13.7,3.6,20.3c-4.6,6.6-13.7,8.2-20.3,3.6S168.4,137,173,130.4z"/>
	</g>
	<g>
		<g>
			<g>
				<path class="st25" d="M210.5,144.6c-0.5-1.4-2.1-2.2-3.5-1.6c-1.4,0.5-2.2,2.1-1.6,3.5c0.5,1.4,2.1,2.2,3.5,1.6
					C210.3,147.6,211,146,210.5,144.6z"/>
			</g>
		</g>
		<g>
			<g>
				<path class="st26" d="M210.8,138C210.8,138,210.8,138,210.8,138c-0.5-6.7-1.8-10-5.7-15.5l0,0l0,0c0,0,0,0,0-0.1c0,0,0,0,0,0
					c-1.1-1.5-3.1-1.8-4.2-0.7c-1.1,1-1.1,2.8-0.2,4c0,0,0,0,0,0c3.3,4.4,4.3,7.2,4.7,12.6l0,0l0,0c0,0,0,0,0,0c0,0,0,0,0,0
					c0.1,1.5,1.3,2.9,2.8,2.9C209.7,141.4,211,139.9,210.8,138z"/>
			</g>
		</g>
	</g>
	<g>
		<g>
			<path class="st24" d="M79.8,212.7c-0.7-0.2-1.2-0.4-5.3-3.7c-4.1-3.2-4.5-3.6-5-4.8c-0.6-1.6-0.5-2.1,1.2-7
				c0.2-0.7,0.5-1.5,0.7-2.2c-0.4-0.8-0.9-1.7-1.3-2.4c-0.7-0.2-1.4-0.4-2.1-0.6c-2-0.5-3.2-0.9-3.9-1.1c-0.5-0.2-1.6-0.6-2.5-1.8
				c-0.6-0.8-0.8-1.1-1.7-6.7c-0.8-4.9-1.1-6.7,0.5-8.6c0.8-0.9,5-3.2,7.3-4.5c0.2-0.6,0.4-1.3,0.6-1.9c-1.3-2.1-3.4-5.5-3.6-6.6
				c-0.5-2.3,0.5-3.6,3.7-7.7c3.1-3.9,3.6-4.3,3.8-4.5c2.1-1.9,4.1-1.2,9.3,0.4c0.4,0.1,0.8,0.2,1.2,0.4c0.7-0.5,1.7-1,2.4-1.5
				c0.1-0.5,0.2-1,0.3-1.4c0.9-4.2,1.2-5.6,2.8-6.8c0.9-0.7,1.5-0.9,7-1.6c5.6-0.7,6-0.6,6.9-0.3c0,0,0,0,0,0c2,0.7,2.4,1.6,5,6.7
				c0.2,0.4,0.4,0.8,0.6,1.2c0.8,0.2,1.7,0.5,2.5,0.7c6.1-3.8,6.8-4.2,8.9-3.6l0.1,0l0.1,0.1c0.7,0.2,1,0.3,5.2,3.6
				c4.3,3.3,4.7,3.8,5.2,4.9c0.5,1.1,0.9,2.1-1.7,9.5c0.4,0.8,1,1.7,1.4,2.4c0.6,0.1,1.3,0.3,1.8,0.4c2,0.4,3.3,0.7,4.2,1
				c0.7,0.3,1.3,0.6,1.8,1c1.3,1.2,1.7,2.6,2.3,7.7c0.6,5.4,0.4,6.3-0.3,7.5c-0.8,1.4-1.7,1.8-5.8,3.9c-0.5,0.3-1.2,0.6-1.7,0.9
				c-0.3,0.8-0.6,1.8-0.8,2.6c0.4,0.7,1,1.7,1.4,2.3c1.2,2,1.7,2.8,1.9,3.4c1.2,2.8-0.6,5.3-2.1,7.3c-4.2,5.8-5.8,6.7-8.1,6.5
				c-0.6-0.1-1-0.2-4.1-1c-0.9-0.2-2.1-0.6-3-0.9c-0.8,0.4-1.8,0.9-2.6,1.3c-0.2,0.7-0.4,1.6-0.5,2.3c-1.1,4.5-1.3,5.4-2.8,6.5
				c-1,0.7-1.4,0.9-6.8,1.5c-5.2,0.6-5.8,0.5-6.8,0.2l-0.4-0.2l-0.4-0.2c-1.3-0.8-1.5-1.3-4.1-6.2c-0.2-0.4-0.4-0.8-0.6-1.2
				c0,0-0.1,0-0.1,0c-1-0.3-1.9-0.6-2.6-0.9c-5.5,3.5-6.1,3.9-7.6,3.9l-0.8,0L79.8,212.7z M101.5,171c-2.1-0.7-4.4-0.4-6.3,0.9
				c-1.5,1.1-2.5,2.6-2.7,4.4c-0.3,1.8,0.1,3.6,1.2,5.1c0.8,1.1,1.9,2,3.3,2.4c2.1,0.7,4.4,0.4,6.3-0.9c1.5-1.1,2.5-2.6,2.7-4.4
				c0.3-1.8-0.1-3.6-1.2-5.1C103.9,172.3,102.8,171.4,101.5,171z"/>
		</g>
	</g>
	<g>
		<path class="st2" d="M73.7,202.6c0.1,0.2,7.3,5.9,7.7,5.9c0.4,0,6.5-4,6.8-4.2c0.3-0.2,6.5,1.9,6.7,2.1c0.2,0.2,3.6,6.9,3.9,7.1
			c0.3,0.2,9.1-0.9,9.4-1.1s1.8-7.8,2.2-8.2c0.4-0.4,5.6-2.9,5.9-3c0.3-0.1,7.6,2.1,8,2.2s5.9-6.7,5.6-7.5c-0.4-0.8-3.8-6.3-3.9-6.8
			c-0.1-0.5,1.5-6.1,2.1-6.5c0.6-0.5,6.8-3.5,7.1-3.9c0.2-0.4-0.6-9.1-1.1-9.5c-0.5-0.5-7.2-1.4-7.7-1.9c-0.4-0.4-3.6-5.7-3.4-6.1
			c0.1-0.3,2.6-7.5,2.5-7.9c-0.2-0.4-7.4-6-7.7-6c-0.3-0.1-6.5,3.8-6.8,4c-0.3,0.2-6.2-1.5-6.4-1.6c-0.2-0.1-3.6-7.3-4-7.4
			c-0.4-0.1-9.4,1-9.8,1.3c-0.4,0.3-1.5,6.9-1.8,7.3c-0.3,0.4-5.3,3.5-5.7,3.6c-0.5,0.1-7.7-2.5-8.1-2.2c-0.4,0.3-6.1,7.4-6.1,7.8
			c0.1,0.4,3.9,6.5,4,6.7c0.1,0.2-1.5,5.8-1.8,5.9c-0.3,0.1-7.3,4-7.6,4.3s1.3,9.4,1.5,9.6c0.2,0.3,7.7,2.1,7.9,2.4
			c0.2,0.3,3.1,5.4,3.2,5.7C76.3,194.9,73.6,202.4,73.7,202.6z M92.6,168.2c5.1-3.7,12.2-2.5,15.8,2.6c3.7,5.1,2.5,12.2-2.6,15.8
			c-5.1,3.7-12.2,2.5-15.8-2.6C86.4,178.9,87.5,171.9,92.6,168.2z"/>
	</g>
	<g>
		<g>
			<g>
				<path class="st25" d="M81.6,173.1c0.2,0.9,1.2,1.5,2.1,1.2c0.9-0.2,1.5-1.2,1.2-2.1c-0.2-0.9-1.2-1.5-2.1-1.2
					C81.9,171.2,81.3,172.2,81.6,173.1z"/>
			</g>
		</g>
		<g>
			<g>
				<path class="st26" d="M80.9,177.2C80.9,177.2,80.9,177.2,80.9,177.2c-0.1,4.2,0.5,6.4,2.7,10l0,0l0,0c0,0,0,0,0,0c0,0,0,0,0,0
					c0.6,1,1.8,1.3,2.6,0.7c0.8-0.6,0.9-1.7,0.4-2.5c0,0,0,0,0,0c-1.8-3-2.3-4.7-2.2-8.2l0,0l0,0c0,0,0,0,0,0c0,0,0,0,0,0
					c0-1-0.6-1.9-1.6-2C81.9,175.2,81,176,80.9,177.2z"/>
			</g>
		</g>
	</g>
	<g>
		<circle class="st5" cx="154.8" cy="205.5" r="7"/>
	</g>
	<g>
		<path class="st5" d="M191.1,209.8c6.3,5.1,2.3,17.4-5.2,22.1c-9,5.7-27.2,7.8-29.6-1.6c-2.6-10.2,13.2-8.6,18.1-13.8
			C180.5,210,187.1,206.5,191.1,209.8z"/>
	</g>
</g>
</svg>
