<?xml version="1.0" encoding="utf-8"?>
<!-- Generator: Adobe Illustrator 24.0.1, SVG Export Plug-In . SVG Version: 6.00 Build 0)  -->
<svg version="1.1" id="Layer_1" xmlns="http://www.w3.org/2000/svg" xmlns:xlink="http://www.w3.org/1999/xlink" x="0px" y="0px"
	 viewBox="0 0 227.6 252.6" style="enable-background:new 0 0 227.6 252.6;" xml:space="preserve">
<style type="text/css">
	.st0{fill:#F27D16;}
	.st1{fill:#4D4D4D;}
	.st2{fill:#FFFFFF;}
	.st3{fill:#F2F2F2;}
	.st4{fill:#F2CB05;}
	.st5{fill:#9450F2;}
	.st6{fill:#96D9C6;}
	.st7{fill:#3068D9;}
	.st8{clip-path:url(#SVGID_2_);}
	.st9{clip-path:url(#SVGID_2_);fill:#FFFFFF;}
	.st10{clip-path:url(#SVGID_4_);}
	.st11{clip-path:url(#SVGID_4_);fill:#FFFFFF;}
	.st12{clip-path:url(#SVGID_6_);}
	.st13{clip-path:url(#SVGID_6_);fill:#FFFFFF;}
	.st14{opacity:0.99;fill:#FFFFFF;}
	.st15{opacity:0.66;}
	.st16{fill:#FD9951;}
	.st17{fill:#F7DE65;}
	.st18{fill:#DBC1F7;}
	.st19{fill:#6A98E4;}
	.st20{fill:#CC5B00;}
	.st21{fill:#4B2477;}
	.st22{fill:#61A795;}
	.st23{fill:#365A51;}
	.st24{fill:#0A2C5C;}
	.st25{fill:#7496DE;}
	.st26{fill:#B2C4E4;}
	.st27{fill:#72A495;}
	.st28{fill:#F9C800;}
	.st29{fill:#106AE0;}
	.st30{clip-path:url(#SVGID_8_);}
	.st31{clip-path:url(#SVGID_8_);fill:#FFFFFF;}
	.st32{clip-path:url(#SVGID_10_);}
	.st33{clip-path:url(#SVGID_10_);fill:#FFFFFF;}
	.st34{clip-path:url(#SVGID_12_);}
	.st35{clip-path:url(#SVGID_12_);fill:#FFFFFF;}
</style>
<g>
	<g>
		<path class="st4" d="M95.6,13.2C64.5,41.6,45.4,128.9,77.3,169.3c26,33,73.4,30,102.7-0.7s-2.5-51.6-7.1-67.1
			c-4.6-15.5,9.2-41.7-4.2-73.2C160.1,8.1,126.8-15.2,95.6,13.2z M166.3,32.2c12.7,29.8-2,54.1,2.3,68.7c4.3,14.7,34,38.2,8.3,63.9
			c-28.4,28.4-72.5,31.9-97.1,0.7C49.8,127.4,67.8,44.8,97.3,18C126.7-8.9,158.3,13.2,166.3,32.2z"/>
	</g>
	<g>
		<path class="st4" d="M60.9,116.7c-6.5-5.5-28.7-19-32.9-19.5c-4.2-0.5-11.3,5.1-17.9,6.4C3.6,105-1,96.4,0.2,92
			c1.2-4.6,8.2-10,18.5-6.6S61,108.6,61,108.6L60.9,116.7z"/>
	</g>
	<g>
		<path class="st4" d="M173,104.2c5.1-6.8,23.8-24.9,27.8-26.3s12.1,2.5,18.8,2.3c6.7-0.1,9.2-9.5,7.2-13.5
			c-2.2-4.2-10.2-7.9-19.5-2.4s-36.1,31.9-36.1,31.9L173,104.2z"/>
	</g>
	<g>
		<path class="st4" d="M120.1,191.2c-9.2,6.9-15.2,13-19.2,22.8c-5.5,13.8,0.7,30.5-3,35.1c-3.3,4.1-21.2,5.7-26.5-1.2
			s-0.5-12.5,5.7-12.4c4.6,0.1,6.9,0.8,9,1.3c1,0.3,2-0.5,2.1-1.5c0.4-5.6,1.8-18,7.4-27.4c5.6-9.3,14.3-18.6,15.1-18.4
			S124,188.4,120.1,191.2z"/>
	</g>
	<g>
		<path class="st4" d="M148,186.7c0.4,1.6,2,15.8,7.9,23.2c8.9,11.3,17.5,12,26.5,4.9c9.4-7.4,10.4-15.7,9.3-19.7
			c-1.2-3.9-7.4-7.4-12.6-5s-8.3,7.8-6.4,14.3c1.2,4.4-4.9,13.8-11.6-0.8c-2.8-6.1-4.4-18.5-5.5-20
			C154.6,182.2,147.1,183.1,148,186.7z"/>
	</g>
	<g>
		<g>
			<path class="st4" d="M139.4,57.6c-1.2,0-2.2,0.9-2.3,2c-0.9,8.5-8.1,15.1-16.9,15.2c-8.7,0.1-16-6.5-17.1-14.9
				c-0.1-1.2-1.1-2-2.3-2l0,0c-1.4,0-2.5,1.2-2.3,2.6c1.4,10.8,10.6,19.1,21.7,19s20.2-8.5,21.5-19.3
				C141.9,58.8,140.8,57.6,139.4,57.6L139.4,57.6z"/>
		</g>
	</g>
	<g>
		<g>
			<ellipse transform="matrix(0.275 -0.9614 0.9614 0.275 51.4675 156.8968)" class="st4" cx="129.8" cy="44.3" rx="4.2" ry="3.1"/>
		</g>
		<g>
			<ellipse transform="matrix(0.275 -0.9614 0.9614 0.275 41.1334 140.0044)" class="st4" cx="113.4" cy="42.7" rx="4.5" ry="3.9"/>
		</g>
	</g>
</g>
</svg>
