<?xml version="1.0" encoding="utf-8"?>
<!-- Generator: Adobe Illustrator 24.0.1, SVG Export Plug-In . SVG Version: 6.00 Build 0)  -->
<svg version="1.1" id="Layer_1" xmlns="http://www.w3.org/2000/svg" xmlns:xlink="http://www.w3.org/1999/xlink" x="0px" y="0px"
	 viewBox="0 0 225 255.3" style="enable-background:new 0 0 225 255.3;" xml:space="preserve">
<style type="text/css">
	.st0{fill:#F27D16;}
	.st1{fill:#4D4D4D;}
	.st2{fill:#FFFFFF;}
	.st3{fill:#F2F2F2;}
	.st4{fill:#F2CB05;}
	.st5{fill:#9450F2;}
	.st6{fill:#96D9C6;}
	.st7{fill:#3068D9;}
	.st8{clip-path:url(#SVGID_2_);}
	.st9{clip-path:url(#SVGID_2_);fill:#FFFFFF;}
	.st10{clip-path:url(#SVGID_4_);}
	.st11{clip-path:url(#SVGID_4_);fill:#FFFFFF;}
	.st12{clip-path:url(#SVGID_6_);}
	.st13{clip-path:url(#SVGID_6_);fill:#FFFFFF;}
	.st14{opacity:0.99;fill:#FFFFFF;}
	.st15{opacity:0.66;}
	.st16{fill:#FD9951;}
	.st17{fill:#F7DE65;}
	.st18{fill:#DBC1F7;}
	.st19{fill:#6A98E4;}
	.st20{fill:#CC5B00;}
	.st21{fill:#4B2477;}
	.st22{fill:#61A795;}
	.st23{fill:#365A51;}
	.st24{fill:#0A2C5C;}
	.st25{fill:#7496DE;}
	.st26{fill:#B2C4E4;}
	.st27{fill:#72A495;}
	.st28{fill:#F9C800;}
	.st29{fill:#106AE0;}
	.st30{clip-path:url(#SVGID_8_);}
	.st31{clip-path:url(#SVGID_8_);fill:#FFFFFF;}
	.st32{clip-path:url(#SVGID_10_);}
	.st33{clip-path:url(#SVGID_10_);fill:#FFFFFF;}
	.st34{clip-path:url(#SVGID_12_);}
	.st35{clip-path:url(#SVGID_12_);fill:#FFFFFF;}
</style>
<g>
	<g>
		<path class="st6" d="M62.1,24.9C46.2,55.2,57.8,82.4,52,97.5s-39.2,33.3-12.4,66.3s73.7,39.8,102.3,9c35-37.7,23-126.2-5.7-157
			S72.2,5.5,62.1,24.9z M134.1,20.4c27.2,29.1,38.5,112.9,5.4,148.5c-27.1,29.1-70.8,22.1-96.8-8.5c-23.5-27.7,7.9-48.8,13.4-63.1
			c5.5-14.3-7.2-39.6,7.9-68.3C73.7,10.7,106.9-8.7,134.1,20.4z"/>
	</g>
	<g>
		<path class="st6" d="M162.4,121.7c6.9-4.9,30.1-16.6,34.4-16.8c4.2-0.2,10.8,6,17.3,7.9c6.4,1.9,11.7-6.3,10.9-10.8
			c-0.8-4.7-7.4-10.6-17.9-8.1c-10.5,2.5-44,19.7-44,19.7L162.4,121.7z"/>
	</g>
	<g>
		<path class="st6" d="M51.6,100.2C47.1,93.1,29.9,73.5,26,71.8s-12.3,1.5-19,0.8S-1.4,62.4,1,58.6c2.5-4,10.8-7.1,19.7-0.8
			s33.4,34.7,33.4,34.7L51.6,100.2z"/>
	</g>
	<g>
		<path class="st6" d="M97.3,191.2c8.7,7.6,14.1,14.2,17.3,24.3c4.4,14.2-3.1,30.3,0.2,35.2c3,4.4,20.7,7.4,26.5,0.9
			c5.8-6.4,1.5-12.4-4.7-12.8c-4.5-0.3-7,0.2-9,0.5c-1,0.2-2-0.6-2-1.7c0.1-5.6-0.3-18.1-5.2-27.9c-4.8-9.7-12.8-19.7-13.6-19.6
			C106.1,190.3,93.8,188.1,97.3,191.2z"/>
	</g>
	<g>
		<path class="st6" d="M69.9,184.5c-0.6,1.6-3.3,15.6-9.7,22.5c-9.8,10.5-18.4,10.6-26.8,2.8c-8.8-8.1-9.1-16.5-7.6-20.4
			c1.5-3.8,7.9-6.8,13-4c5.1,2.8,7.6,8.4,5.2,14.8c-1.6,4.2,3.8,14.2,11.6,0.1c3.3-5.9,5.9-18.1,7-19.5
			C63.7,179.5,71.1,181,69.9,184.5z"/>
	</g>
	<g>
		<g>
			<path class="st6" d="M88.9,56.5c1.2,0.1,2.1,1,2.1,2.2c0.3,8.5,6.9,15.7,15.6,16.5c8.7,0.8,16.5-5.2,18.2-13.5
				c0.2-1.1,1.3-1.9,2.5-1.8l0,0c1.4,0.1,2.4,1.4,2.1,2.8c-2.2,10.6-12.1,18.1-23.2,17.2S86.7,69.8,86.3,58.9
				C86.3,57.5,87.5,56.4,88.9,56.5L88.9,56.5z"/>
		</g>
	</g>
	<g>
		
			<ellipse transform="matrix(0.3515 -0.9362 0.9362 0.3515 33.1404 138.7023)" class="st6" cx="116.7" cy="45.4" rx="4.2" ry="3.1"/>
	</g>
	<g>
		<ellipse transform="matrix(0.3515 -0.9362 0.9362 0.3515 25.365 121.6639)" class="st6" cx="100.5" cy="42.5" rx="4.5" ry="3.9"/>
	</g>
</g>
</svg>
