<svg id="Layer_1" data-name="Layer 1" xmlns="http://www.w3.org/2000/svg" viewBox="0 0 262.78 239.04"><defs><style>.cls-1{fill:#9450f2;}.cls-2{fill:#0a2c5c;}.cls-3{fill:#fff;}.cls-4{fill:#f2cb05;}.cls-5{fill:#61a795;}.cls-6{fill:#f7de65;}.cls-7{fill:#3068d9;}.cls-8{fill:#6a98e4;}.cls-9{fill:#96d9c6;}</style></defs><title>14-day-trial-assets</title><path class="cls-1" d="M167,231.35C108.28,253,44.48,225.87,19.12,187.79-10.28,143.63-8.53,100.4,43.79,75.32,72,61.81,102.63,60.11,122.44,47.66,144.75,33.65,179.72-6,217,9.78,303.92,46.52,255.68,198.62,167,231.35Z"/><path class="cls-1" d="M29.92,13.15C40.15,13.34,44.25,24,42.18,35.64,39.87,48.68,26.79,62,18.4,60.48c-8-1.42-13.56-13.91-11.48-25.16C9.51,21.35,20.61,13,29.92,13.15Z"/><circle class="cls-1" cx="51.46" cy="8.07" r="8.07"/><path class="cls-2" d="M123.13,232.49c-7.42,0-13.79-5.32-15.51-12.92l-.06-.23,0-.23c-1.17-7.83-1.3-16-1.43-23.86-.16-10-.31-19.49-2.43-28.13-2.72-11.11-9.35-20.29-16.35-30-2.08-2.89-4.24-5.88-6.29-8.93l-.18-.26-.15-.29a2,2,0,0,0-.86-.8,43,43,0,0,0-7,9.06c-.9,1.42-1.91,3-3.21,4.92A12.81,12.81,0,0,1,59,145.94a13.81,13.81,0,0,1-5.67-1.19C39.53,139,29.22,127,20.12,116.3c-2.53-3-4.92-5.77-7.32-8.37-3.19-3.49-4.53-7.47-3.8-11.21a10.36,10.36,0,0,1,5.19-7C24,82.21,32,73.47,40.41,64.22,50,53.7,59.94,42.83,72.84,33.85L77,31l3.72,3.45a55.19,55.19,0,0,0,37.45,15,51.83,51.83,0,0,0,10.26-1c10.85-2.2,20.82-15.8,28.83-39.33l1.19-3.5,3.63-.67a34.59,34.59,0,0,1,6.26-.59c9.36,0,16.19,4,22.8,7.81a62.89,62.89,0,0,0,11.18,5.55c6.85,2.32,14.46,2.64,21.67,2.64,2.12,0,4.25,0,6.36-.06s4.29-.06,6.41-.06c1.52,0,3,0,4.52.05h.2l.2,0a11.77,11.77,0,0,1,8.24,4.58,12.3,12.3,0,0,1,2.32,9.59l-1.89,11c-2.06,12-4.19,24.36-6.22,36.54A12.45,12.45,0,0,1,232,92.59h0a10.8,10.8,0,0,1-1.39-.08c-5.19-.54-8.75-.83-12.87-1.17-2.2-.18-4.5-.37-7.24-.62,8.67,18.27,12.5,37.2,16.2,55.52,2.16,10.67,4.4,21.71,7.57,32.49a15.44,15.44,0,0,1-1.94,12.89,17.78,17.78,0,0,1-12.67,7.61c-34,4-56.07,14.36-88.26,30.93A16.44,16.44,0,0,1,123.13,232.49Z"/><path class="cls-3" d="M241.11,26.51c-13.35-.37-28,1.44-40.81-2.91C187,19.08,178.89,8.16,163.24,11.06,157.71,27.32,147.17,51,129.69,54.55,111.39,58.26,91.53,53,76.45,39,53.06,55.31,39.68,78.34,17.59,95c-3.12,1.5-3.42,5.06-.15,8.64,11.24,12.2,22.44,28.73,38.4,35.32,2.91,1.35,7,.55,8.55-1.73,4.44-6.49,5.38-9.42,11.55-15.43,2.89-2.81,8.19-1.13,10.32,2.85,8.92,13.24,19.65,25.11,23.54,41,4.06,16.55,1.43,35.57,4,52.56,1.55,6.87,8.53,10.17,14.6,6.47,31.83-16.38,54.87-27.47,90.51-31.66,6.91-.91,11-6.61,9.37-12.47-8.8-29.92-10.14-59.78-23.91-88.12-2.15-4.18.51-8.53,4.78-8.13,9.13.83,13.41,1.06,22.27,2a6.08,6.08,0,0,0,6.53-5.31c2.64-15.89,5.4-31.76,8.12-47.64A5.72,5.72,0,0,0,241.11,26.51Z"/><path class="cls-4" d="M161.69,150.43c2.95,2.31,9.65,4,13.67,1.19,4.77-3.36,5.35-6.52,6.81-7.68,3.55-2.81,10.19-1.84,14-7.42s1.13-15.55-7-21.68-17-7.44-20.95-2.52.72,16.64-1.27,20.09c-1.59,2.75-5.92,3.7-8.81,7.52S159.31,148.56,161.69,150.43Z"/><path class="cls-5" d="M118.82,98.48c6.35.61,4.42,9.87,8.7,11.9s13,.26,17.28,3.81c6,5.06,6.53,14.38-1.48,23.11-7.7,8.38-20.33,1.63-23.36-8.67-1.68-5.73-16.64-2.54-18.19-7.86s3.87-8.58,8.39-11.6S112.21,97.84,118.82,98.48Z"/><ellipse class="cls-6" cx="179.33" cy="126.69" rx="5.07" ry="8.36" transform="translate(-36.81 88.05) rotate(-25.1)"/><path class="cls-7" d="M158.1,67.63c8.22,1.39,13.79,8.76,14.19,14.84.47,7-2.6,11.93-10.31,11.35-4.15-.31-7.8-2.14-10.91-2-3.51.14-10.18,2.4-13.44-1.9C130,79.9,145.69,65.53,158.1,67.63Z"/><ellipse class="cls-8" cx="150.26" cy="77.83" rx="8.79" ry="5.33" transform="translate(-17.55 99.62) rotate(-34.78)"/><ellipse class="cls-9" cx="113.74" cy="116.73" rx="6.69" ry="4.05" transform="translate(-20.7 24.6) rotate(-11.32)"/></svg>