<svg id="Layer_1" data-name="Layer 1" xmlns="http://www.w3.org/2000/svg" viewBox="0 0 271.23 226.35"><defs><style>.cls-1{fill:#96d9c6;}.cls-2{fill:#0a2c5c;}.cls-3{fill:#fff;}.cls-4{fill:#3068d9;}.cls-5{fill:#b2c4e4;}.cls-6{fill:#6a98e4;}.cls-7{fill:#7496de;}</style></defs><title>14-day-trial-assets</title><path class="cls-1" d="M60.21,205.84C7.08,171.79-9.87,104,5.35,60.42,23,9.93,58.83-14.94,110.8,11.9c28,14.46,48,38.07,70.06,46.44,24.83,9.42,78,13.45,88,53C292.1,203.62,140.44,257.28,60.21,205.84Z"/><rect class="cls-2" x="29.14" y="36.9" width="212.94" height="123.38" rx="6.61"/><rect class="cls-3" x="36.37" y="44.37" width="198.48" height="108.44" rx="4.06"/><ellipse class="cls-4" cx="77.24" cy="78.26" rx="20.22" ry="22.32"/><path class="cls-4" d="M105.34,131.1c0,13.39-56.2,13.39-56.2,0s12.58-24.25,28.1-24.25S105.34,117.71,105.34,131.1Z"/><path class="cls-5" d="M64.79,118.15a15.32,15.32,0,0,0-7.13,8.15l-4-1.78c2.23-5,4.17-7.25,8.86-10.13Z"/><path class="cls-5" d="M65.86,115.08a2.61,2.61,0,0,1-4.34,2.68,2.56,2.56,0,0,1,4.34-2.68Z"/><path class="cls-5" d="M56.85,123.1a2.61,2.61,0,0,1-2.08,4.66,2.56,2.56,0,0,1,2.08-4.66Z"/><circle class="cls-6" cx="68.74" cy="113.31" r="1.96"/><rect class="cls-6" x="125.58" y="86.14" width="95.98" height="13.19" rx="6.6"/><rect class="cls-6" x="155.58" y="109.53" width="65.97" height="5.65" rx="2.82"/><rect class="cls-6" x="155.58" y="119.8" width="65.97" height="5.65" rx="2.82"/><path class="cls-7" d="M94.14,77.86a2.39,2.39,0,1,0-.36,3.36A2.39,2.39,0,0,0,94.14,77.86Z"/><path class="cls-5" d="M92.63,72.32h0c-2.27-5.36-4.2-7.75-9-11.11h0l-.06,0h0a2.52,2.52,0,0,0-3.65.54,2.67,2.67,0,0,0,.91,3.36h0a18,18,0,0,1,7.34,9.08h0v0h0a2.68,2.68,0,0,0,3.11,1.62A2.52,2.52,0,0,0,92.63,72.32Z"/><circle class="cls-5" cx="134.67" cy="92.74" r="4.29"/><circle class="cls-5" cx="217.69" cy="112.35" r="1.73"/></svg>