<?xml version="1.0" encoding="utf-8"?>
<!-- Generator: Adobe Illustrator 24.0.1, SVG Export Plug-In . SVG Version: 6.00 Build 0)  -->
<svg version="1.1" id="Layer_1" xmlns="http://www.w3.org/2000/svg" xmlns:xlink="http://www.w3.org/1999/xlink" x="0px" y="0px"
	 viewBox="0 0 262.8 261.4" style="enable-background:new 0 0 262.8 261.4;" xml:space="preserve">
<style type="text/css">
	.st0{fill:#F27D16;}
	.st1{fill:#4D4D4D;}
	.st2{fill:#FFFFFF;}
	.st3{fill:#F2F2F2;}
	.st4{fill:#F2CB05;}
	.st5{fill:#9450F2;}
	.st6{fill:#96D9C6;}
	.st7{fill:#3068D9;}
	.st8{clip-path:url(#SVGID_2_);}
	.st9{clip-path:url(#SVGID_2_);fill:#FFFFFF;}
	.st10{clip-path:url(#SVGID_4_);}
	.st11{clip-path:url(#SVGID_4_);fill:#FFFFFF;}
	.st12{clip-path:url(#SVGID_6_);}
	.st13{clip-path:url(#SVGID_6_);fill:#FFFFFF;}
	.st14{opacity:0.99;fill:#FFFFFF;}
	.st15{opacity:0.66;}
	.st16{fill:#FD9951;}
	.st17{fill:#F7DE65;}
	.st18{fill:#DBC1F7;}
	.st19{fill:#6A98E4;}
	.st20{fill:#CC5B00;}
	.st21{fill:#4B2477;}
	.st22{fill:#61A795;}
	.st23{fill:#365A51;}
	.st24{fill:#0A2C5C;}
	.st25{fill:#7496DE;}
	.st26{fill:#B2C4E4;}
	.st27{fill:#72A495;}
	.st28{fill:#F9C800;}
	.st29{fill:#106AE0;}
	.st30{clip-path:url(#SVGID_8_);}
	.st31{clip-path:url(#SVGID_8_);fill:#FFFFFF;}
	.st32{clip-path:url(#SVGID_10_);}
	.st33{clip-path:url(#SVGID_10_);fill:#FFFFFF;}
	.st34{clip-path:url(#SVGID_12_);}
	.st35{clip-path:url(#SVGID_12_);fill:#FFFFFF;}
</style>
<g>
	<g>
		<path class="st0" d="M167,253.7c-58.7,21.7-122.5-5.5-147.9-43.6C-10.3,166-8.5,122.8,43.8,97.7c28.2-13.5,58.8-15.2,78.6-27.7
			c22.3-14,57.3-53.7,94.6-37.9C303.9,68.9,255.7,221,167,253.7z"/>
	</g>
	<g>
		<g>
			<path class="st0" d="M29.9,35.5C40.2,35.7,44.2,46.4,42.2,58c-2.3,13-15.4,26.3-23.8,24.8C10.4,81.5,4.8,69,6.9,57.7
				C9.5,43.7,20.6,35.4,29.9,35.5z"/>
		</g>
		<g>
			<circle class="st0" cx="51.5" cy="30.5" r="8.1"/>
		</g>
	</g>
	<g>
		<g>
			<path class="st21" d="M172.9,92.8c-0.1-9.6-0.2-35.2-0.2-42.6c0-16.8-6.4-26.4-15.6-35.5c-10-10-23-14.7-35-14.7
				c-12.5,0-26.3,4.7-36.5,14.9C76.5,24,72.1,33.4,72.1,50.2c0,4.1,0,29.5,0,40.3c-22.6,15.6-37.4,41.6-37.4,71.1
				c0,47.6,38.6,86.3,86.3,86.3s86.3-38.6,86.3-86.3C207.2,133.6,193.7,108.6,172.9,92.8z M155.3,82.5c-1.5-0.5-18.8-7.1-33.2-7.1
				c-15.5,0-30.4,5.2-32.6,5.9c0-2.3,0-21,0-31.1c0-17.2,14.3-33.3,31.9-33.3c20.6,0,33.9,16.5,33.9,33.3
				C155.3,66.2,155.3,74.4,155.3,82.5z"/>
		</g>
	</g>
	<circle class="st2" cx="120.9" cy="161.7" r="76.3"/>
	<g>
		<g>
			<g>
				<rect x="161.3" y="59.3" class="st16" width="6.8" height="16.4"/>
			</g>
			<g>
				<circle class="st16" cx="164.7" cy="59.3" r="3.4"/>
			</g>
			<g>
				<circle class="st16" cx="164.7" cy="75.6" r="3.4"/>
			</g>
		</g>
		<g>
			<circle class="st16" cx="164.7" cy="50.7" r="3.4"/>
		</g>
	</g>
	<g>
		<path class="st16" d="M96.7,21.1C96.7,21.1,96.7,21.1,96.7,21.1c1.6-1.2,2.5-3.2,1.8-5c-0.8-1.8-3.5-2.4-5.8-0.8c0,0,0,0,0,0
			c-4.4,3.1-6.2,5.2-8.4,10.1c0,0,0,0,0,0c0,0,0,0.1-0.1,0.1c-1.2,2.6-0.1,5.2,1.8,5.7c1.9,0.4,3.8-0.9,4.6-2.7c0,0,0-0.1,0-0.1
			c0,0,0,0,0,0C92.3,24.9,93.6,23.3,96.7,21.1z"/>
	</g>
	<g>
		<g>
			<path class="st16" d="M129.9,206v6.3c0,1.5-1.2,2.7-2.7,2.7h-10.4c-1.5,0-2.7-1.2-2.7-2.7v-6.1c0-1.3-1-2.5-2.3-2.7
				c-10.9-1.5-19.3-5.4-25.8-10.8c-1.1-0.9-1.3-2.5-0.5-3.6l9.8-14c0.9-1.3,2.7-1.5,3.9-0.5c6.1,5,14.4,8.6,24.2,8.6
				c4.7,0,9.1-1.6,9.1-4.8c0-3.2-3.4-4.8-11.6-6.3c-13.5-2.5-34.2-5.7-34.2-26.2c0-11.9,8.5-22.9,25.1-25.8c1.3-0.2,2.2-1.4,2.2-2.7
				V111c0-1.5,1.2-2.7,2.7-2.7h10.4c1.5,0,2.7,1.2,2.7,2.7v6.8c0,1.3,0.9,2.4,2.2,2.6c8,1.4,15.2,4.3,21.4,8.8
				c1.2,0.9,1.4,2.6,0.5,3.8L144,146.4c-0.8,1.1-2.4,1.4-3.6,0.6c-6.8-4.5-14.9-6.7-20.8-6.7c-6.1,0-7.5,2.2-7.5,4.3
				c0,3.2,3.3,4.3,12,5.8c13.5,2.3,33.6,6.3,33.6,25.2c0,15.2-9.4,24.9-25.5,27.7C130.8,203.6,129.9,204.7,129.9,206z"/>
		</g>
	</g>
	<g>
		<g>
			<g>
				<path class="st16" d="M76.9,204.2c5.7,5.8,9,8.3,16.3,11.9c-1.4,2.9-2.2,4.4-3.6,7.3c-8.3-4.1-12.1-6.9-18.5-13.5
					C73.4,207.6,74.6,206.4,76.9,204.2z"/>
				<path class="st16" d="M71.1,203.7c1.7-1.4,4.3-1.2,5.9,0.5c1.6,1.7,1.8,4.2,0.3,5.9c-1.5,1.7-4.3,1.6-6.1-0.3
					C69.3,208,69.4,205.2,71.1,203.7z"/>
				<path class="st16" d="M87.4,217.5c1.1-1.9,3.7-2.5,5.7-1.5c2.1,1,3.1,3.4,2.3,5.5c-0.9,2.1-3.5,2.9-5.9,1.8
					C87.2,222.1,86.3,219.5,87.4,217.5z"/>
			</g>
			<path class="st16" d="M64.5,194.3c1.9-1.1,4.5-0.3,5.8,1.6s1,4.5-0.7,5.9c-1.8,1.4-4.5,0.8-6-1.4C62,198.2,62.5,195.4,64.5,194.3
				z"/>
			<path class="st16" d="M103.6,224.3c0.6-2.2,2.8-3.4,5.2-3s4,2.4,3.8,4.6c-0.2,2.2-2.6,3.8-5.2,3.3
				C104.7,228.7,103.1,226.4,103.6,224.3z"/>
		</g>
	</g>
	<g>
		<path class="st16" d="M170.9,125.3C170.9,125.3,170.9,125.3,170.9,125.3c0.9,1.8,2.8,3,4.7,2.5c1.9-0.5,2.8-3.1,1.6-5.6
			c0,0,0,0,0,0c-2.4-4.8-4.3-6.9-8.7-9.8c0,0,0,0,0,0c0,0-0.1-0.1-0.1-0.1c-2.4-1.5-5.2-0.9-5.9,1c-0.7,1.8,0.3,3.9,2,5
			c0,0,0.1,0,0.1,0c0,0,0,0,0,0C167.9,120.4,169.2,121.9,170.9,125.3z"/>
	</g>
</g>
</svg>
