<?xml version="1.0" encoding="utf-8"?>
<!-- Generator: Adobe Illustrator 24.0.1, SVG Export Plug-In . SVG Version: 6.00 Build 0)  -->
<svg version="1.1" id="Layer_1" xmlns="http://www.w3.org/2000/svg" xmlns:xlink="http://www.w3.org/1999/xlink" x="0px" y="0px"
	 viewBox="0 0 587.4 538.3" style="enable-background:new 0 0 587.4 538.3;" xml:space="preserve">
<style type="text/css">
	.st0{fill:#F27D16;}
	.st1{fill:#4D4D4D;}
	.st2{fill:#FFFFFF;}
	.st3{fill:#F2F2F2;}
	.st4{fill:#F2CB05;}
	.st5{fill:#9450F2;}
	.st6{fill:#96D9C6;}
	.st7{fill:#3068D9;}
	.st8{clip-path:url(#SVGID_2_);}
	.st9{clip-path:url(#SVGID_2_);fill:#FFFFFF;}
	.st10{clip-path:url(#SVGID_4_);}
	.st11{clip-path:url(#SVGID_4_);fill:#FFFFFF;}
	.st12{clip-path:url(#SVGID_6_);}
	.st13{clip-path:url(#SVGID_6_);fill:#FFFFFF;}
	.st14{opacity:0.99;fill:#FFFFFF;}
	.st15{opacity:0.66;}
	.st16{fill:#FD9951;}
	.st17{fill:#F7DE65;}
	.st18{fill:#DBC1F7;}
	.st19{fill:#6A98E4;}
	.st20{fill:#CC5B00;}
	.st21{fill:#4B2477;}
	.st22{fill:#61A795;}
	.st23{fill:#365A51;}
	.st24{fill:#0A2C5C;}
	.st25{fill:#7496DE;}
	.st26{fill:#B2C4E4;}
	.st27{fill:#72A495;}
	.st28{fill:#F9C800;}
	.st29{fill:#106AE0;}
	.st30{clip-path:url(#SVGID_8_);}
	.st31{clip-path:url(#SVGID_8_);fill:#FFFFFF;}
	.st32{clip-path:url(#SVGID_10_);}
	.st33{clip-path:url(#SVGID_10_);fill:#FFFFFF;}
	.st34{clip-path:url(#SVGID_12_);}
	.st35{clip-path:url(#SVGID_12_);fill:#FFFFFF;}
</style>
<g>
	<g>
		<g>
			<path class="st0" d="M41.1,45c0,12.1,0,12.1,12.1,12.1c12.1,0,12.1,0,12.1-11.4c0-28.1,0-28.1,0-28.1c0-8.8,0-17.6,13.2-17.6h11
				c13.2,0,13.2,8.8,13.2,17.6v120.8c0,8.8,0,17.6-13.2,17.6h-11c-13.2,0-13.2-8.8-13.2-17.6v-32.9c0-14.5-0.9-15.4-12.1-15.4h-2.4
				c-7,0-9.7,0-9.7,11.2v4.2c0,32.9,0,32.9,0,32.9c0,8.8,0,17.6-13.2,17.6h-11c-13.2,0-13.2-8.8-13.2-17.6V17.6
				C3.7,8.8,3.7,0,16.9,0h11c13.2,0,13.2,8.8,13.2,17.6V45z"/>
		</g>
	</g>
	<g>
		<g>
			<path class="st4" d="M231.7,144.9c0,10.1-6.8,11-19.3,11h-11.6c-13.6,0-6.8-32.9-15.6-32.9h-17.6c-8.8,0-3.7,32.9-16.9,32.9
				h-10.3c-11.4,0-18.2-0.9-18.2-11c0-13.2,5.3-24.8,22.4-127.4c1.8-11,6.1-17.6,14.9-17.6h33.8c8.8,0,13.2,6.6,15.4,17.6
				C223.5,107.6,231.7,131.7,231.7,144.9z M167.8,86.5c0,3.5,1.5,3.5,8.6,3.5c6.8,0,8.6,0,8.6-3.3c0-0.9,0-2-0.2-3.5
				c-2.6-21.5-3.5-48.1-8.3-48.1c-4.6,0-6.2,26.3-8.3,48.1C167.8,84.5,167.8,85.6,167.8,86.5z"/>
		</g>
	</g>
	<g>
		<g>
			<path class="st5" d="M288.6,106.1v32.3c0,8.8,0,17.6-13.2,17.6h-11c-13.2,0-13.2-8.8-13.2-17.6V17.6c0-8.8,0-17.6,13.2-17.6h47.7
				c23.7,0,37.1,19.3,37.1,50.1c0,12.3-3.5,28.8-6.8,35.6c-7,14.9-27.9,17.1-40.2,17.1c-5.5,0-8.1-0.4-8.1-0.4
				C288.8,102.3,288.6,104.1,288.6,106.1z M288.3,40.4c0,2.9,0.2,6.6,0.2,11.2c0,4.4-0.2,8.3-0.2,11c0,7.2,1.3,8.6,10.1,8.6
				c11.6,0,12.1-9.7,12.1-19.5c0-9.9-2.2-22-12.1-22C289.7,29.6,288.3,32.5,288.3,40.4z"/>
		</g>
	</g>
	<g>
		<g>
			<path class="st6" d="M405,106.1v32.3c0,8.8,0,17.6-13.2,17.6h-11c-13.2,0-13.2-8.8-13.2-17.6V17.6c0-8.8,0-17.6,13.2-17.6h47.7
				c23.7,0,37.1,19.3,37.1,50.1c0,12.3-3.5,28.8-6.8,35.6c-7,14.9-27.9,17.1-40.2,17.1c-5.5,0-8.1-0.4-8.1-0.4
				C405.2,102.3,405,104.1,405,106.1z M404.7,40.4c0,2.9,0.2,6.6,0.2,11.2c0,4.4-0.2,8.3-0.2,11c0,7.2,1.3,8.6,10.1,8.6
				c11.6,0,12.1-9.7,12.1-19.5c0-9.9-2.2-22-12.1-22C406.1,29.6,404.7,32.5,404.7,40.4z"/>
		</g>
	</g>
	<path class="st7" d="M528.4,155.9c-13.2,0-13.2-8.8-13.2-17.6v-33.2c0-11.9-11.4-39.3-15.4-48.5l-0.7-1.5
		c-4.4-9.9-17.3-43.3-17.3-49.4c0-5.7,4.8-5.7,6.4-5.7h25c7,0,9.2,9.4,11,17.6c1.5,7,8.8,31.6,9.2,33.6c0.2,1.5,1.3,2.4,2.2,2.4
		c1.1,0,2-0.7,2.2-2.2c0.2-2,6.8-26.8,8.6-33.8C548.4,9.4,551,0,558.9,0h19.5c6.6,0,9,0,9,5.7c0,6.1-12.7,39.7-17.1,49.4
		c-2,4.4-5.7,14.5-10.3,25.9c-6.8,17.1-7.5,19.3-7.5,38.6v19.5c0,8.6,0,16.7-13.2,16.7H528.4z"/>
	<g>
		<g>
			<path class="st1" d="M86.5,264.1c0,0.5,0.2,0.9,0.9,1.1c16.5,5.5,22.5,23.6,22.5,39.7c0,9-2.3,17.9-6.2,25.3
				c-11.3,20.7-20.9,21.1-35.8,21.1H16.6c-13.8,0-13.8-9.2-13.8-18.4V206.7c0-9.2,0-18.4,13.8-18.4H66c29.6,0,39.5,19.7,39.5,40.9
				c0,13.5-5.5,27.1-18.1,33.8C86.7,263.2,86.5,263.7,86.5,264.1z M41.9,235c0,11.5,0,15.4,11.5,15.4c9.2,0,11.5-7.3,11.5-15.4
				s-2.3-15.6-11.5-15.6C41.9,219.4,41.9,223.5,41.9,235z M41.9,299.7c0,13.8,0,20.7,12.6,20.7c11.5,0,12.6-10.3,12.6-20.7
				c0-10.3,0-20.2-12.6-20.2C41.9,279.5,41.9,286,41.9,299.7z"/>
		</g>
		<g>
			<path class="st1" d="M169.8,309.4c0.5,5.1,5.1,7.6,9.6,7.6c13.1,0,17.4-0.5,22.3-0.5c9.6,0,12.6,2.8,12.6,9.6v16.1
				c0,6.9-2.3,9.2-9.2,9.2h-60.6c-13.8,0-13.8-13.8-13.8-18.4V206.7c0-9.2,0-18.4,13.8-18.4h59.2c5.7,0,10.8,2.3,10.8,6.9v19.5
				c0,5.5-4.6,5.7-10.3,5.7c-9,0-16.1-0.5-21.8-0.5c-12.6,0-12.6,4.6-12.6,11.9c0,14.9,0,18.8,11.5,18.8c14.2,0,16.5-0.5,21.8-0.5
				c8,0,8.5,8,8.5,10.6v14.7c0,6.9-4.8,7.3-10.6,7.3c-11.7,0-19.1-0.5-23.9-0.5c-7.4,0-7.4,3.2-7.4,10.8V309.4z"/>
		</g>
		<g>
			<path class="st1" d="M349.1,339.9c0,10.6-7.1,11.5-20.2,11.5h-12.2c-14.2,0-7.1-34.4-16.3-34.4h-18.4c-9.2,0-3.9,34.4-17.7,34.4
				h-10.8c-11.9,0-19.1-0.9-19.1-11.5c0-13.8,5.5-25.9,23.4-133.2c1.8-11.5,6.4-18.4,15.6-18.4h35.4c9.2,0,13.8,6.9,16.1,18.4
				C340.6,300.9,349.1,326.1,349.1,339.9z M282.3,278.8c0,3.7,1.6,3.7,9,3.7c7.1,0,9,0,9-3.4c0-0.9,0-2.1-0.2-3.7
				c-2.8-22.5-3.7-50.3-8.7-50.3c-4.8,0-6.4,27.6-8.7,50.3C282.3,276.8,282.3,277.9,282.3,278.8z"/>
		</g>
		<g>
			<path class="st1" d="M440.7,261.8c0.7,0,1.1-0.7,1.1-2.3v-52.8c0-9.2,0-18.4,13.8-18.4h11.5c13.8,0,13.8,9.2,13.8,18.4V333
				c0,9.2,0,18.4-13.8,18.4c-20.7,0-22.3-3.7-25.5-10.6l-30.5-66.4c-0.7-1.4-1.4-2.3-1.8-2.3c-0.7,0-0.9,0.9-0.9,2.3l0.2,58.6
				c0,9.2,0,18.4-13.8,18.4h-11.5c-13.8,0-13.8-9.2-13.8-18.4V206.7c0-9.2,0-18.4,13.8-18.4h12.2c7.6,0,10.1,0.9,13.5,8l29.6,63.1
				C439.3,261.2,440,261.8,440.7,261.8z"/>
		</g>
		<g>
			<path class="st1" d="M550.7,187.2c19.1,0,31.9,3.4,31.9,9.9v17.7c0,2.5-0.9,6.9-8.7,6.9h-1.8c-3.7,0-11.9-2.5-18.6-2.5
				c-5.5,0-9.9,1.8-9.9,9.2c0,7.1,2.1,10.8,11,18.1c27.3,22.5,32.8,38.6,32.8,57.2c0,10.6-0.2,20.2-6.2,29.2
				c-7.6,11.5-19.5,15.8-24.6,17.2c-6.2,1.6-14.9,2.5-22,2.5c-17,0-33.5-3.2-33.5-12.4v-17.7c0-2.8,2.3-5.5,8.5-5.5
				c6,0,11,3.4,24.1,3.4c6.4,0,15.2-5.1,15.2-12.2c0-5.3-0.2-9.2-14.2-23c-21.4-20.9-31.5-30.5-31.5-49.4
				C503.2,190.7,532.3,187.2,550.7,187.2z"/>
		</g>
	</g>
	<g>
		<g>
			<path class="st2" d="M47.4,388.1c45.8,0,52,29.1,52,73.9c0,42.7-4.2,73.9-52,73.9H16.2c-12.5,0-12.5-8.3-12.5-16.7V404.7
				c0-8.3,0-16.7,12.5-16.7H47.4z M38.9,422.6c0,23.5,0.2,49.1,0.2,73.7c0,5.4,0.4,10.4,4.2,10.4c15.6,0,16.7-12.5,16.7-45.8
				c0-29.1-1-44.8-16.7-44.8C39.5,416.2,38.9,418.3,38.9,422.6z"/>
			<path class="st1" d="M47.4,537.3H16.2c-13.9,0-13.9-10-13.9-18.1V404.7c0-8.1,0-18.1,13.9-18.1h31.2c49.5,0,53.5,34.1,53.5,75.3
				C100.9,504.6,96.9,537.3,47.4,537.3z M16.2,389.5c-10.5,0-11,5.8-11,15.2v114.5c0,9.4,0.5,15.2,11,15.2h31.2
				c47,0,50.6-30,50.6-72.4c0-48-7.8-72.4-50.6-72.4H16.2z M43.2,508.2c-5.6,0-5.6-7.7-5.6-11.9c0-12.4-0.1-25.1-0.1-37.6
				c-0.1-12.3-0.1-24.4-0.1-36.1c0-4,0.4-7.9,5.8-7.9c17.2,0,18.1,17.6,18.1,46.2C61.3,493.7,60.6,508.2,43.2,508.2z M43.2,417.6
				c-2.2,0-2.9,0.4-2.9,5c0,11.6,0.1,23.8,0.1,36c0.1,12.5,0.1,25.2,0.1,37.6c0,6.4,0.8,9,2.7,9c14,0,15.2-10.8,15.2-44.3
				C58.4,430.8,57,417.6,43.2,417.6z"/>
		</g>
		<g>
			<path class="st2" d="M154,497.8c0.4,4.6,4.6,6.9,8.7,6.9c11.9,0,15.8-0.4,20.2-0.4c8.7,0,11.4,2.5,11.4,8.7v14.6
				c0,6.2-2.1,8.3-8.3,8.3h-54.9c-12.5,0-12.5-12.5-12.5-16.7V404.7c0-8.3,0-16.7,12.5-16.7h53.7c5.2,0,9.8,2.1,9.8,6.2V412
				c0,5-4.2,5.2-9.4,5.2c-8.1,0-14.6-0.4-19.8-0.4c-11.4,0-11.4,4.2-11.4,10.8c0,13.5,0,17.1,10.4,17.1c12.9,0,15-0.4,19.8-0.4
				c7.3,0,7.7,7.3,7.7,9.6v13.3c0,6.2-4.4,6.7-9.6,6.7c-10.6,0-17.3-0.4-21.6-0.4c-6.7,0-6.7,2.9-6.7,9.8V497.8z"/>
			<path class="st1" d="M186,537.3h-55c-9.3,0-13.9-6.1-13.9-18.1V404.7c0-8.1,0-18.1,13.9-18.1h53.7c6.7,0,11.2,3.1,11.2,7.7V412
				c0,6.7-6.3,6.7-10.8,6.7c-4.5,0-8.6-0.1-12.1-0.2c-2.9-0.1-5.4-0.2-7.7-0.2c-10,0-10,2.7-10,9.4c0,13.5,0,15.6,9,15.6
				c8,0,11.9-0.2,14.7-0.3c1.8-0.1,3.2-0.1,5.1-0.1c5.7,0,9.2,4.1,9.2,11v13.3c0,8.1-6.6,8.1-11,8.1c-6.5,0-11.4-0.2-15.4-0.3
				c-2.5-0.1-4.5-0.1-6.2-0.1c-5.1,0-5.2,1.2-5.2,8.3v14.5c0.4,3.8,3.9,5.5,7.3,5.5c7.4,0,11.7-0.2,14.9-0.3c2-0.1,3.6-0.1,5.3-0.1
				c9.3,0,12.9,2.9,12.9,10.2v14.6C195.8,534.6,193.1,537.3,186,537.3z M131.1,389.5c-10.5,0-11,5.8-11,15.2v114.5
				c0,6.5,1.1,15.2,11,15.2h55c5.5,0,6.9-1.4,6.9-6.9V513c0-4.9-1.5-7.3-10-7.3c-1.6,0-3.2,0.1-5.2,0.1c-3.2,0.1-7.6,0.3-15,0.3
				c-4.5,0-9.7-2.6-10.2-8.2l0-0.1v-14.6c0-6.8,0-11.2,8.1-11.2c1.7,0,3.8,0.1,6.3,0.1c4,0.1,8.9,0.3,15.3,0.3c6,0,8.1-0.8,8.1-5.2
				v-13.3c0-3.7-1.1-8.1-6.2-8.1c-1.8,0-3.2,0.1-4.9,0.1c-2.9,0.1-6.8,0.3-14.8,0.3c-11.9,0-11.9-5-11.9-18.5
				c0-6.6,0-12.3,12.9-12.3c2.3,0,4.9,0.1,7.8,0.2c3.5,0.1,7.5,0.2,12,0.2c5.9,0,7.9-0.5,7.9-3.7v-17.7c0-3.3-4.2-4.8-8.3-4.8H131.1
				z"/>
		</g>
		<g>
			<path class="st2" d="M257.4,387c17.3,0,28.9,3.1,28.9,8.9v16c0,2.3-0.8,6.2-7.9,6.2h-1.7c-3.3,0-10.8-2.3-16.9-2.3
				c-5,0-9,1.7-9,8.3c0,6.5,1.9,9.8,10,16.4c24.8,20.4,29.8,35,29.8,51.8c0,9.6-0.2,18.3-5.6,26.4c-6.9,10.4-17.7,14.4-22.3,15.6
				c-5.6,1.5-13.5,2.3-20,2.3c-15.4,0-30.4-2.9-30.4-11.2v-16c0-2.5,2.1-5,7.7-5c5.4,0,10,3.1,21.9,3.1c5.8,0,13.7-4.6,13.7-11
				c0-4.8-0.2-8.3-12.9-20.8c-19.4-18.9-28.5-27.7-28.5-44.7C214.3,390.2,240.8,387,257.4,387z"/>
			<path class="st1" d="M242.8,538.3c-9.6,0-31.8-1.2-31.8-12.7v-16c0-3.1,2.4-6.5,9.2-6.5c2.4,0,4.5,0.5,7,1.2
				c3.5,0.9,7.9,2,14.8,2c4.9,0,12.3-4,12.3-9.6c0-4.4,0-7.5-12.5-19.8l-0.7-0.7c-18.8-18.4-28.2-27.6-28.2-45.1
				c0-40.9,25.4-45.6,44.5-45.6c9.1,0,30.4,1,30.4,10.4v16c0,2.3-0.9,7.7-9.4,7.7h-1.7c-1.6,0-3.8-0.4-6.4-0.9
				c-3.4-0.6-7.2-1.4-10.5-1.4c-5.3,0-7.5,2-7.5,6.9c0,5.7,1.4,8.7,9.5,15.3c25.2,20.8,30.3,35.7,30.3,53c0,8.6,0,18.4-5.9,27.2
				c-7.2,10.9-18.5,15-23.1,16.2C257.7,537.4,249.7,538.3,242.8,538.3z M220.1,506.1c-3.9,0-6.2,1.3-6.2,3.5v16
				c0,7.2,14.9,9.8,28.9,9.8c6.7,0,14.4-0.9,19.6-2.2c4.2-1.1,14.8-4.9,21.4-15c5-7.5,5.4-15.3,5.4-25.6c0-16.4-4.9-30.7-29.2-50.7
				c-8.3-6.8-10.5-10.6-10.5-17.6c0-6.5,3.5-9.8,10.4-9.8c3.6,0,7.6,0.8,11,1.4c2.3,0.4,4.5,0.9,5.8,0.9h1.7c5.8,0,6.5-2.7,6.5-4.8
				v-16c0-3.7-8.5-7.5-27.5-7.5c-36.9,0-41.6,22.8-41.6,42.7c0,16.2,8.6,24.6,27.3,43l0.7,0.7c12.7,12.5,13.3,16.4,13.3,21.9
				c0,7.6-9,12.5-15.2,12.5c-7.3,0-11.8-1.1-15.5-2.1C224.1,506.6,222.2,506.1,220.1,506.1z"/>
		</g>
		<g>
			<path class="st2" d="M344.4,519.2c0,8.3,0,16.7-12.5,16.7h-10.4c-12.5,0-12.5-8.3-12.5-16.7V404.7c0-8.3,0-16.7,12.5-16.7h10.4
				c12.5,0,12.5,8.3,12.5,16.7V519.2z"/>
			<path class="st1" d="M331.9,537.3h-10.4c-13.9,0-13.9-10-13.9-18.1V404.7c0-8.1,0-18.1,13.9-18.1h10.4c13.9,0,13.9,10,13.9,18.1
				v114.5C345.9,527.3,345.9,537.3,331.9,537.3z M321.5,389.5c-10.5,0-11,5.8-11,15.2v114.5c0,9.4,0.5,15.2,11,15.2h10.4
				c10.5,0,11-5.8,11-15.2V404.7c0-9.4-0.5-15.2-11-15.2H321.5z"/>
		</g>
		<g>
			<path class="st2" d="M430.6,478.8c0-6.5-3.7-6.7-7.7-6.7c-6.9,0-7.7-3.3-7.7-8.9v-2.1c0-16.9,0.2-17.9,10-17.9h29.8
				c9,0,9,4.4,9,8.3v64.9c0,20.4-20.2,20.4-32.1,20.4c-33.1,0-69.1-15-69.1-76.4c0-59.7,38.3-73.5,63.9-73.5
				c21.6,0,30.4,2.3,30.4,8.7v16.4c0,3.7-2.7,5-6,5c-6.5,0-12.9-2.7-22.3-2.7c-26.4,0-29.6,36.8-29.6,45.4
				c0,17.1,3.1,46.8,24.4,46.8c4.2,0,7.1-2.1,7.1-9.4V478.8z"/>
			<path class="st1" d="M431.8,538.3c-19.9,0-36.1-5.2-47.9-15.5c-15-13.1-22.6-34-22.6-62.3c0-27,7.7-47.3,22.9-60.2
				c15-12.8,33-14.7,42.5-14.7c19.7,0,31.8,1.7,31.8,10.2v16.4c0,4.1-2.7,6.4-7.5,6.4c-3.1,0-6.1-0.6-9.3-1.2
				c-3.7-0.7-8-1.5-12.9-1.5c-27.8,0-28.1,43.5-28.1,43.9c0,39.5,14.3,45.4,22.9,45.4c2.9,0,5.6-1,5.6-7.9v-18.5
				c0-5-2.1-5.2-6.2-5.2c-8.5,0-9.2-4.9-9.2-10.4v-2.1c0-16.4,0-19.4,11.4-19.4h29.8c10.4,0,10.4,5.9,10.4,9.8v64.9
				C465.3,538.3,443.5,538.3,431.8,538.3z M426.6,388.5c-14.6,0-62.4,5.2-62.4,72c0,61.9,36.8,74.9,67.6,74.9
				c15.5,0,30.6-1.5,30.6-18.9v-64.9c0-4,0-6.9-7.5-6.9h-29.8c-8.5,0-8.5,0-8.5,16.4v2.1c0,5.7,0.9,7.5,6.2,7.5c3.4,0,9.2,0,9.2,8.1
				v18.5c0,7.2-2.9,10.8-8.5,10.8c-9.6,0-25.8-6.3-25.8-48.3c0-16.2,6.5-46.8,31-46.8c5.3,0,9.6,0.8,13.5,1.6c3.2,0.6,6,1.1,8.8,1.1
				c4.1,0,4.6-1.9,4.6-3.5v-16.4C455.6,390.6,447.2,388.5,426.6,388.5z"/>
		</g>
		<g>
			<path class="st2" d="M547.8,454.7c0.6,0,1-0.6,1-2.1v-47.9c0-8.3,0-16.7,12.5-16.7h10.4c12.5,0,12.5,8.3,12.5,16.7v114.5
				c0,8.3,0,16.7-12.5,16.7c-18.7,0-20.2-3.3-23.1-9.6l-27.7-60.2c-0.6-1.2-1.2-2.1-1.7-2.1c-0.6,0-0.8,0.8-0.8,2.1l0.2,53.1
				c0,8.3,0,16.7-12.5,16.7h-10.4c-12.5,0-12.5-8.3-12.5-16.7V404.7c0-8.3,0-16.7,12.5-16.7h11c6.9,0,9.2,0.8,12.3,7.3l26.9,57.2
				C546.5,454.1,547.1,454.7,547.8,454.7z"/>
			<path class="st1" d="M571.7,537.3c-18.7,0-21.1-3.3-24.4-10.3l-27.4-59.6l0.2,51.8c0,8.1,0,18.1-13.9,18.1h-10.4
				c-13.9,0-13.9-10-13.9-18.1V404.7c0-8.1,0-18.1,13.9-18.1h11c7.4,0,10.2,1.1,13.6,8.1l26.9,57.3c0,0.1,0.1,0.2,0.1,0.3v-47.6
				c0-8.1,0-18.1,13.9-18.1h10.4c13.9,0,13.9,10,13.9,18.1v114.5C585.6,527.3,585.6,537.3,571.7,537.3z M519.2,462.6
				c1.1,0,2,0.9,3,2.9l27.7,60.2c2.8,6,4.1,8.7,21.8,8.7c10.5,0,11-5.8,11-15.2V404.7c0-9.4-0.5-15.2-11-15.2h-10.4
				c-10.5,0-11,5.8-11,15.2v47.9c0,3.3-1.9,3.5-2.5,3.5c-1.9,0-2.9-2.2-3.2-3L517.7,396c-2.8-5.9-4.6-6.4-11-6.4h-11
				c-10.5,0-11,5.8-11,15.2v114.5c0,9.4,0.5,15.2,11,15.2h10.4c10.5,0,11-5.8,11-15.2l-0.2-53.1C517,463.2,518.2,462.6,519.2,462.6z
				 M518.7,465.3L518.7,465.3L518.7,465.3z"/>
		</g>
	</g>
</g>
</svg>
