<?xml version="1.0" encoding="utf-8"?>
<!-- Generator: Adobe Illustrator 24.0.1, SVG Export Plug-In . SVG Version: 6.00 Build 0)  -->
<svg version="1.1" id="Layer_1" xmlns="http://www.w3.org/2000/svg" xmlns:xlink="http://www.w3.org/1999/xlink" x="0px" y="0px"
	 viewBox="0 0 940.4 88.6" style="enable-background:new 0 0 940.4 88.6;" xml:space="preserve">
<style type="text/css">
	.st0{fill:#F27D16;}
	.st1{fill:#4D4D4D;}
	.st2{fill:#FFFFFF;}
	.st3{fill:#F2F2F2;}
	.st4{fill:#F2CB05;}
	.st5{fill:#9450F2;}
	.st6{fill:#96D9C6;}
	.st7{fill:#3068D9;}
	.st8{clip-path:url(#SVGID_2_);}
	.st9{clip-path:url(#SVGID_2_);fill:#FFFFFF;}
	.st10{clip-path:url(#SVGID_4_);}
	.st11{clip-path:url(#SVGID_4_);fill:#FFFFFF;}
	.st12{clip-path:url(#SVGID_6_);}
	.st13{clip-path:url(#SVGID_6_);fill:#FFFFFF;}
	.st14{opacity:0.99;fill:#FFFFFF;}
	.st15{opacity:0.66;}
	.st16{fill:#FD9951;}
	.st17{fill:#F7DE65;}
	.st18{fill:#DBC1F7;}
	.st19{fill:#6A98E4;}
	.st20{fill:#CC5B00;}
	.st21{fill:#4B2477;}
	.st22{fill:#61A795;}
	.st23{fill:#365A51;}
	.st24{fill:#0A2C5C;}
	.st25{fill:#7496DE;}
	.st26{fill:#B2C4E4;}
	.st27{fill:#72A495;}
	.st28{fill:#F9C800;}
	.st29{fill:#106AE0;}
	.st30{clip-path:url(#SVGID_8_);}
	.st31{clip-path:url(#SVGID_8_);fill:#FFFFFF;}
	.st32{clip-path:url(#SVGID_10_);}
	.st33{clip-path:url(#SVGID_10_);fill:#FFFFFF;}
	.st34{clip-path:url(#SVGID_12_);}
	.st35{clip-path:url(#SVGID_12_);fill:#FFFFFF;}
</style>
<g>
	<g>
		<g>
			<path class="st0" d="M21,25.7c0,6.6,0,6.6,6.6,6.6c6.6,0,6.6,0,6.6-6.2c0-15.4,0-15.4,0-15.4c0-4.8,0-9.6,7.2-9.6h6
				c7.2,0,7.2,4.8,7.2,9.6v66c0,4.8,0,9.6-7.2,9.6h-6c-7.2,0-7.2-4.8-7.2-9.6v-18c0-7.9-0.5-8.4-6.6-8.4h-1.3c-3.8,0-5.3,0-5.3,6.1
				v2.3c0,18,0,18,0,18c0,4.8,0,9.6-7.2,9.6h-6c-7.2,0-7.2-4.8-7.2-9.6v-66c0-4.8,0-9.6,7.2-9.6h6c7.2,0,7.2,4.8,7.2,9.6V25.7z"/>
		</g>
	</g>
	<g>
		<g>
			<path class="st4" d="M118.7,80.3c0,5.5-3.7,6-10.6,6h-6.4c-7.4,0-3.7-18-8.5-18h-9.6c-4.8,0-2,18-9.2,18h-5.6c-6.2,0-10-0.5-10-6
				c0-7.2,2.9-13.6,12.2-69.6c1-6,3.4-9.6,8.2-9.6h18.5c4.8,0,7.2,3.6,8.4,9.6C114.3,59.9,118.7,73.1,118.7,80.3z M83.8,48.4
				c0,1.9,0.8,1.9,4.7,1.9c3.7,0,4.7,0,4.7-1.8c0-0.5,0-1.1-0.1-1.9c-1.4-11.8-1.9-26.3-4.6-26.3c-2.5,0-3.4,14.4-4.6,26.3
				C83.8,47.3,83.8,47.9,83.8,48.4z"/>
		</g>
	</g>
	<g>
		<g>
			<path class="st5" d="M143.4,59.1v17.6c0,4.8,0,9.6-7.2,9.6h-6c-7.2,0-7.2-4.8-7.2-9.6v-66c0-4.8,0-9.6,7.2-9.6h26
				c13,0,20.3,10.6,20.3,27.4c0,6.7-1.9,15.7-3.7,19.4c-3.8,8.2-15.2,9.4-22,9.4c-3,0-4.4-0.2-4.4-0.2
				C143.5,57.1,143.4,58,143.4,59.1z M143.3,23.2c0,1.6,0.1,3.6,0.1,6.1c0,2.4-0.1,4.6-0.1,6c0,4,0.7,4.7,5.5,4.7
				c6.4,0,6.6-5.3,6.6-10.7c0-5.4-1.2-12-6.6-12C144,17.3,143.3,18.9,143.3,23.2z"/>
		</g>
	</g>
	<g>
		<g>
			<path class="st6" d="M200.9,59.1v17.6c0,4.8,0,9.6-7.2,9.6h-6c-7.2,0-7.2-4.8-7.2-9.6v-66c0-4.8,0-9.6,7.2-9.6h26
				c13,0,20.3,10.6,20.3,27.4c0,6.7-1.9,15.7-3.7,19.4c-3.8,8.2-15.2,9.4-22,9.4c-3,0-4.4-0.2-4.4-0.2
				C201.1,57.1,200.9,58,200.9,59.1z M200.8,23.2c0,1.6,0.1,3.6,0.1,6.1c0,2.4-0.1,4.6-0.1,6c0,4,0.7,4.7,5.5,4.7
				c6.4,0,6.6-5.3,6.6-10.7c0-5.4-1.2-12-6.6-12C201.5,17.3,200.8,18.9,200.8,23.2z"/>
		</g>
	</g>
	<path class="st7" d="M260.7,86.3c-7.2,0-7.2-4.8-7.2-9.6V58.6c0-6.5-6.2-21.5-8.4-26.5l-0.4-0.8c-2.4-5.4-9.5-23.6-9.5-27
		c0-3.1,2.6-3.1,3.5-3.1h13.7c3.8,0,5,5.2,6,9.6c0.8,3.8,4.8,17.3,5,18.4c0.1,0.8,0.7,1.3,1.2,1.3c0.6,0,1.1-0.4,1.2-1.2
		c0.1-1.1,3.7-14.6,4.7-18.5c1.1-4.4,2.5-9.6,6.8-9.6H288c3.6,0,4.9,0,4.9,3.1c0,3.4-7,21.7-9.4,27c-1.1,2.4-3.1,7.9-5.6,14.2
		c-3.7,9.4-4.1,10.6-4.1,21.1v10.7c0,4.7,0,9.1-7.2,9.1H260.7z"/>
	<g>
		<g>
			<path class="st1" d="M368.5,40.7c0,0.2,0.1,0.5,0.5,0.6c8.6,2.9,11.8,12.4,11.8,20.8c0,4.7-1.2,9.4-3.2,13.2
				c-5.9,10.8-10.9,11-18.7,11h-26.8c-7.2,0-7.2-4.8-7.2-9.6v-66c0-4.8,0-9.6,7.2-9.6h25.8c15.5,0,20.6,10.3,20.6,21.4
				c0,7.1-2.9,14.2-9.5,17.6C368.7,40.3,368.5,40.5,368.5,40.7z M345.3,25.5c0,6,0,8,6,8c4.8,0,6-3.8,6-8c0-4.2-1.2-8.2-6-8.2
				C345.3,17.3,345.3,19.5,345.3,25.5z M345.3,59.3c0,7.2,0,10.8,6.6,10.8c6,0,6.6-5.4,6.6-10.8s0-10.6-6.6-10.6
				C345.3,48.8,345.3,52.1,345.3,59.3z"/>
		</g>
		<g>
			<path class="st1" d="M405.6,64.4c0.2,2.6,2.6,4,5,4c6.8,0,9.1-0.2,11.6-0.2c5,0,6.6,1.4,6.6,5v8.4c0,3.6-1.2,4.8-4.8,4.8h-31.7
				c-7.2,0-7.2-7.2-7.2-9.6v-66c0-4.8,0-9.6,7.2-9.6h31c3,0,5.6,1.2,5.6,3.6v10.2c0,2.9-2.4,3-5.4,3c-4.7,0-8.4-0.2-11.4-0.2
				c-6.6,0-6.6,2.4-6.6,6.2c0,7.8,0,9.8,6,9.8c7.4,0,8.6-0.2,11.4-0.2c4.2,0,4.4,4.2,4.4,5.5v7.7c0,3.6-2.5,3.8-5.5,3.8
				c-6.1,0-10-0.2-12.5-0.2c-3.8,0-3.8,1.7-3.8,5.6V64.4z"/>
		</g>
		<g>
			<path class="st1" d="M492.9,80.3c0,5.5-3.7,6-10.6,6H476c-7.4,0-3.7-18-8.5-18h-9.6c-4.8,0-2,18-9.2,18H443c-6.2,0-10-0.5-10-6
				c0-7.2,2.9-13.6,12.2-69.6c1-6,3.4-9.6,8.2-9.6h18.5c4.8,0,7.2,3.6,8.4,9.6C488.5,59.9,492.9,73.1,492.9,80.3z M458,48.4
				c0,1.9,0.8,1.9,4.7,1.9c3.7,0,4.7,0,4.7-1.8c0-0.5,0-1.1-0.1-1.9c-1.4-11.8-1.9-26.3-4.6-26.3c-2.5,0-3.4,14.4-4.6,26.3
				C458,47.3,458,47.9,458,48.4z"/>
		</g>
		<g>
			<path class="st1" d="M534.4,39.5c0.4,0,0.6-0.4,0.6-1.2V10.7c0-4.8,0-9.6,7.2-9.6h6c7.2,0,7.2,4.8,7.2,9.6v66
				c0,4.8,0,9.6-7.2,9.6c-10.8,0-11.6-1.9-13.3-5.5l-16-34.7c-0.4-0.7-0.7-1.2-1-1.2c-0.4,0-0.5,0.5-0.5,1.2l0.1,30.6
				c0,4.8,0,9.6-7.2,9.6h-6c-7.2,0-7.2-4.8-7.2-9.6v-66c0-4.8,0-9.6,7.2-9.6h6.4c4,0,5.3,0.5,7.1,4.2l15.5,33
				C533.7,39.2,534,39.5,534.4,39.5z"/>
		</g>
		<g>
			<path class="st1" d="M585.5,0.5c10,0,16.7,1.8,16.7,5.2v9.2c0,1.3-0.5,3.6-4.6,3.6h-1c-1.9,0-6.2-1.3-9.7-1.3
				c-2.9,0-5.2,1-5.2,4.8c0,3.7,1.1,5.6,5.8,9.5c14.3,11.8,17.2,20.2,17.2,29.9c0,5.5-0.1,10.6-3.2,15.2c-4,6-10.2,8.3-12.8,9
				c-3.2,0.8-7.8,1.3-11.5,1.3c-8.9,0-17.5-1.7-17.5-6.5v-9.2c0-1.4,1.2-2.9,4.4-2.9c3.1,0,5.8,1.8,12.6,1.8c3.4,0,7.9-2.6,7.9-6.4
				c0-2.8-0.1-4.8-7.4-12c-11.2-10.9-16.4-16-16.4-25.8C560.7,2.3,575.9,0.5,585.5,0.5z"/>
		</g>
	</g>
	<g>
		<g>
			<path class="st1" d="M662.1,1.1c26.4,0,30,16.8,30,42.6c0,24.6-2.4,42.6-30,42.6h-18c-7.2,0-7.2-4.8-7.2-9.6v-66
				c0-4.8,0-9.6,7.2-9.6H662.1z M657.2,21.1c0,13.6,0.1,28.3,0.1,42.5c0,3.1,0.2,6,2.4,6c9,0,9.6-7.2,9.6-26.4
				c0-16.8-0.6-25.8-9.6-25.8C657.5,17.3,657.2,18.5,657.2,21.1z"/>
		</g>
		<g>
			<path class="st1" d="M716.9,64.4c0.2,2.6,2.6,4,5,4c6.8,0,9.1-0.2,11.6-0.2c5,0,6.6,1.4,6.6,5v8.4c0,3.6-1.2,4.8-4.8,4.8h-31.7
				c-7.2,0-7.2-7.2-7.2-9.6v-66c0-4.8,0-9.6,7.2-9.6h31c3,0,5.6,1.2,5.6,3.6v10.2c0,2.9-2.4,3-5.4,3c-4.7,0-8.4-0.2-11.4-0.2
				c-6.6,0-6.6,2.4-6.6,6.2c0,7.8,0,9.8,6,9.8c7.4,0,8.6-0.2,11.4-0.2c4.2,0,4.4,4.2,4.4,5.5v7.7c0,3.6-2.5,3.8-5.5,3.8
				c-6.1,0-10-0.2-12.5-0.2c-3.8,0-3.8,1.7-3.8,5.6V64.4z"/>
		</g>
		<g>
			<path class="st1" d="M770.2,0.5c10,0,16.7,1.8,16.7,5.2v9.2c0,1.3-0.5,3.6-4.6,3.6h-1c-1.9,0-6.2-1.3-9.7-1.3
				c-2.9,0-5.2,1-5.2,4.8c0,3.7,1.1,5.6,5.8,9.5c14.3,11.8,17.2,20.2,17.2,29.9c0,5.5-0.1,10.6-3.2,15.2c-4,6-10.2,8.3-12.8,9
				c-3.2,0.8-7.8,1.3-11.5,1.3c-8.9,0-17.5-1.7-17.5-6.5v-9.2c0-1.4,1.2-2.9,4.4-2.9c3.1,0,5.8,1.8,12.6,1.8c3.4,0,7.9-2.6,7.9-6.4
				c0-2.8-0.1-4.8-7.4-12c-11.2-10.9-16.4-16-16.4-25.8C745.4,2.3,760.6,0.5,770.2,0.5z"/>
		</g>
		<g>
			<path class="st1" d="M814,76.7c0,4.8,0,9.6-7.2,9.6h-6c-7.2,0-7.2-4.8-7.2-9.6v-66c0-4.8,0-9.6,7.2-9.6h6c7.2,0,7.2,4.8,7.2,9.6
				V76.7z"/>
		</g>
		<g>
			<path class="st1" d="M857.2,53.5c0-3.7-2.2-3.8-4.4-3.8c-4,0-4.4-1.9-4.4-5.2v-1.2c0-9.7,0.1-10.3,5.8-10.3h17.2
				c5.2,0,5.2,2.5,5.2,4.8v37.4c0,11.8-11.6,11.8-18.5,11.8c-19.1,0-39.8-8.6-39.8-44c0-34.4,22.1-42.4,36.8-42.4
				c12.5,0,17.5,1.3,17.5,5v9.5c0,2.2-1.6,2.9-3.5,2.9c-3.7,0-7.4-1.6-12.8-1.6c-15.2,0-17,21.2-17,26.2c0,9.8,1.8,27,14,27
				c2.4,0,4.1-1.2,4.1-5.4V53.5z"/>
		</g>
		<g>
			<path class="st1" d="M918.7,39.5c0.4,0,0.6-0.4,0.6-1.2V10.7c0-4.8,0-9.6,7.2-9.6h6c7.2,0,7.2,4.8,7.2,9.6v66
				c0,4.8,0,9.6-7.2,9.6c-10.8,0-11.6-1.9-13.3-5.5l-16-34.7c-0.4-0.7-0.7-1.2-1-1.2c-0.4,0-0.5,0.5-0.5,1.2l0.1,30.6
				c0,4.8,0,9.6-7.2,9.6h-6c-7.2,0-7.2-4.8-7.2-9.6v-66c0-4.8,0-9.6,7.2-9.6h6.4c4,0,5.3,0.5,7.1,4.2l15.5,33
				C918,39.2,918.3,39.5,918.7,39.5z"/>
		</g>
	</g>
</g>
</svg>
