<?xml version="1.0" encoding="utf-8"?>
<!-- Generator: Adobe Illustrator 24.0.1, SVG Export Plug-In . SVG Version: 6.00 Build 0)  -->
<svg version="1.1" id="Layer_1" xmlns="http://www.w3.org/2000/svg" xmlns:xlink="http://www.w3.org/1999/xlink" x="0px" y="0px"
	 viewBox="0 0 49.9 53.2" style="enable-background:new 0 0 49.9 53.2;" xml:space="preserve">
<style type="text/css">
	.st0{fill:#F27D16;}
	.st1{fill:#4D4D4D;}
	.st2{fill:#FFFFFF;}
	.st3{fill:#F2F2F2;}
	.st4{fill:#F2CB05;}
	.st5{fill:#9450F2;}
	.st6{fill:#96D9C6;}
	.st7{fill:#3068D9;}
	.st8{clip-path:url(#SVGID_2_);}
	.st9{clip-path:url(#SVGID_2_);fill:#FFFFFF;}
	.st10{clip-path:url(#SVGID_4_);}
	.st11{clip-path:url(#SVGID_4_);fill:#FFFFFF;}
	.st12{clip-path:url(#SVGID_6_);}
	.st13{clip-path:url(#SVGID_6_);fill:#FFFFFF;}
	.st14{opacity:0.99;fill:#FFFFFF;}
	.st15{opacity:0.66;}
	.st16{fill:#FD9951;}
	.st17{fill:#F7DE65;}
	.st18{fill:#DBC1F7;}
	.st19{fill:#6A98E4;}
	.st20{fill:#CC5B00;}
	.st21{fill:#4B2477;}
	.st22{fill:#61A795;}
	.st23{fill:#365A51;}
	.st24{fill:#0A2C5C;}
	.st25{fill:#7496DE;}
	.st26{fill:#B2C4E4;}
	.st27{fill:#72A495;}
	.st28{fill:#F9C800;}
	.st29{fill:#106AE0;}
	.st30{clip-path:url(#SVGID_8_);}
	.st31{clip-path:url(#SVGID_8_);fill:#FFFFFF;}
	.st32{clip-path:url(#SVGID_10_);}
	.st33{clip-path:url(#SVGID_10_);fill:#FFFFFF;}
	.st34{clip-path:url(#SVGID_12_);}
	.st35{clip-path:url(#SVGID_12_);fill:#FFFFFF;}
</style>
<g id="Group_672" transform="translate(437.001 8172.52)">
	<g id="Path_1164">
		<path class="st5" d="M-418.3-8134.8c-2.4-0.8-5-0.8-7.5-0.1c-3.5,1.1-5.8,5-7.3,5c-1.3,0-4.5-3.2-4-5.3s2.3-2.1,3.3-0.9
			c0.5,0.6,0.9,1.2,1.2,1.9c0.1,0.2,0.3,0.3,0.6,0.2c0,0,0,0,0.1,0c1.9-1.4,4.1-2.4,6.5-2.9c2-0.3,4-0.3,6,0
			C-419.3-8136.8-417.1-8134.5-418.3-8134.8z"/>
	</g>
	<g id="Path_1165">
		<path class="st5" d="M-413.3-8130.7c-0.4,0.2-3.8,1.1-5.4,2.8c-2.4,2.6-2.3,4.8-0.2,6.7c2.2,2,4.3,2,5.2,1.5
			c1.1-0.7,1.5-2.2,0.8-3.3c-0.8-1.3-2.4-1.7-3.8-1c-1,0.5-3.6-0.7-0.2-2.9c1.4-0.9,4.4-1.8,4.7-2.1S-412.4-8131.1-413.3-8130.7z"/>
	</g>
	<g id="Group_671" transform="translate(626.237 -6330.745)">
		<g id="Path_1166">
			<path class="st5" d="M-1023.6-1826.6c-0.3,0-0.5,0.2-0.5,0.5c-0.2,2-1.9,3.4-3.9,3.4c-2,0-3.6-1.5-3.8-3.5c0-0.3-0.3-0.5-0.5-0.5
				l0,0c-0.3,0-0.5,0.2-0.5,0.5c0,0,0,0,0,0.1c0.3,2.5,2.4,4.4,4.9,4.4c2.5,0,4.6-1.8,5-4.3
				C-1023-1826.3-1023.2-1826.5-1023.6-1826.6C-1023.6-1826.6-1023.6-1826.6-1023.6-1826.6L-1023.6-1826.6z"/>
		</g>
	</g>
	<g id="Path_1167">
		<path class="st5" d="M-387.4-8143.2c2.3-12.5-6.7-27.4-13.5-29.1c-5.7-1.3-10.1,2.3-12.4,7.2c-2,4.3-1.4,8.1-2.2,11.4
			c-0.7,2.7-4.5,9-4.9,13.7c-0.5,5.3,3.5,10.1,12.5,12.3S-389.7-8130.7-387.4-8143.2z M-407.7-8129c-8.4-2-11.9-6.4-11.4-11.4
			c0.4-4.3,4.2-10.2,4.9-12.8c0.7-3.1-0.3-6.8,1.6-10.8c2.2-4.7,6.3-8,11.6-6.8c6.3,1.5,14.5,15.5,12.4,27.2
			S-399.3-8127.1-407.7-8129z"/>
	</g>
	<g id="Path_1168">
		<path class="st5" d="M-388-8150.9c-1,0-1.9-0.3-2.8-0.8c-0.7-0.5-1.3-1.2-1.7-1.9c-0.2-0.3,0-1.6-0.5-2.5c-0.7-0.8-1.9-1-2.8-0.4
			c-0.7,0.7-0.8,1.9-0.1,2.7c0.7,0.6,1.7,0.5,2,0.8c0.8,1,1.6,1.8,2.6,2.5c1,0.6,2.1,0.9,3.2,0.9
			C-387.1-8149.6-387.3-8150.9-388-8150.9z"/>
	</g>
	<g id="Path_1169">
		<path class="st5" d="M-415.9-8150.7c1,0.1,1.9,0,2.8-0.3c0.8-0.4,1.4-1,2-1.7c0.2-0.2,0.1-1.5,0.7-2.3c0.9-0.7,2.1-0.7,3,0.1
			c0.6,0.8,0.5,2-0.3,2.6c-0.8,0.5-1.8,0.2-2.1,0.5c-0.9,0.8-1.9,1.5-3,2.1c-1,0.4-2.2,0.6-3.3,0.4
			C-416.9-8149.5-416.5-8150.8-415.9-8150.7z"/>
	</g>
	<g id="Path_1170">
		<path class="st5" d="M-402-8159.6c-0.4,0.5-1.1,0.7-1.7,0.5c-0.5-0.2-0.2-0.8,0.1-1.4c0.2-0.5,0.8-0.8,1.3-0.6
			C-401.8-8160.7-401.7-8160.1-402-8159.6z"/>
	</g>
	<g id="Path_1171">
		<path class="st5" d="M-398.3-8160c0.2,0.6,0.2,1.1-0.3,1.3c-0.6,0.1-1.2-0.2-1.5-0.7c-0.2-0.5,0-1.1,0.6-1.3
			C-399-8161-398.4-8160.6-398.3-8160z"/>
	</g>
</g>
</svg>
