<?xml version="1.0" encoding="utf-8"?>
<!-- Generator: Adobe Illustrator 24.0.1, SVG Export Plug-In . SVG Version: 6.00 Build 0)  -->
<svg version="1.1" id="Layer_1" xmlns="http://www.w3.org/2000/svg" xmlns:xlink="http://www.w3.org/1999/xlink" x="0px" y="0px"
	 viewBox="0 0 270.2 220" style="enable-background:new 0 0 270.2 220;" xml:space="preserve">
<style type="text/css">
	.st0{fill:#F27D16;}
	.st1{fill:#4D4D4D;}
	.st2{fill:#FFFFFF;}
	.st3{fill:#F2F2F2;}
	.st4{fill:#F2CB05;}
	.st5{fill:#9450F2;}
	.st6{fill:#96D9C6;}
	.st7{fill:#3068D9;}
	.st8{clip-path:url(#SVGID_2_);}
	.st9{clip-path:url(#SVGID_2_);fill:#FFFFFF;}
	.st10{clip-path:url(#SVGID_4_);}
	.st11{clip-path:url(#SVGID_4_);fill:#FFFFFF;}
	.st12{clip-path:url(#SVGID_6_);}
	.st13{clip-path:url(#SVGID_6_);fill:#FFFFFF;}
	.st14{opacity:0.99;fill:#FFFFFF;}
	.st15{opacity:0.66;}
	.st16{fill:#FD9951;}
	.st17{fill:#F7DE65;}
	.st18{fill:#DBC1F7;}
	.st19{fill:#6A98E4;}
	.st20{fill:#CC5B00;}
	.st21{fill:#4B2477;}
	.st22{fill:#61A795;}
	.st23{fill:#365A51;}
	.st24{fill:#0A2C5C;}
	.st25{fill:#7496DE;}
	.st26{fill:#B2C4E4;}
	.st27{fill:#72A495;}
	.st28{fill:#F9C800;}
	.st29{fill:#106AE0;}
	.st30{clip-path:url(#SVGID_8_);}
	.st31{clip-path:url(#SVGID_8_);fill:#FFFFFF;}
	.st32{clip-path:url(#SVGID_10_);}
	.st33{clip-path:url(#SVGID_10_);fill:#FFFFFF;}
	.st34{clip-path:url(#SVGID_12_);}
	.st35{clip-path:url(#SVGID_12_);fill:#FFFFFF;}
</style>
<g>
	<g>
		<path class="st6" d="M135.7,0.6c83.2-8,121,61.9,121.1,93.2c0.3,91.2-203,142.4-242.3,85.9C-38.4,103.4,64.6,7.5,135.7,0.6z"/>
	</g>
	<g>
		<g>
			<path class="st24" d="M83,202.2c55,34.2,101.9,12.8,108.9-11.1c4.6-15.7-11-28.6,1.6-49.5c12.4-20.6,72.8,11.3,76.5-8.9
				c2.7-14.7-20.6-60.7-88.4-83.9C113.9,25.7,63,43.3,37.4,86.3C18.8,117.5,29.7,169.1,83,202.2z M171.9,97.6
				c5.4-7.2,14-8.8,19.2-6.1c5.7,3,5.1,10.1,0.6,16.1c-5,6.7-16.1,10.6-20.4,7.4C167.3,112,167.6,103.4,171.9,97.6z"/>
		</g>
	</g>
	<g>
		<g>
			<path class="st2" d="M86.6,191.3c50,28.4,90.8,7.9,96.2-13.6c3.5-14.1-10.7-25-0.3-44c10.2-18.7,64.9,7.5,67.6-10.5
				c1.9-13.1-20.4-53.1-81.3-71.3C107.9,33.7,63.4,51.1,42.1,90.1C26.7,118.5,38.2,163.8,86.6,191.3z M169.5,96.3
				c6.7-9,17.5-11,24-7.6c7.2,3.7,6.3,12.7,0.8,20.2c-6.2,8.4-20.1,13.2-25.5,9.2C163.7,114.3,164.1,103.5,169.5,96.3z"/>
		</g>
	</g>
	<g>
		<path class="st27" d="M67.2,96.4C67.2,96.4,67.2,96.4,67.2,96.4C67.3,96.3,67.3,96.3,67.2,96.4c2.1-3.6,2.6-8.3,0-11.1
			c-2.5-2.8-8.5-1.5-11.7,3.8c0,0,0,0,0,0c-9.3,15.1-9.3,34.3-0.1,49.4l0,0c0,0,0,0,0,0c0,0.1,0.1,0.1,0.1,0.2c0,0,0,0,0,0
			c3.3,5.2,9.2,6.5,11.7,3.7c2.6-2.8,2.1-7.4,0.1-11c0,0,0,0,0,0C60.7,120.8,60.7,107.1,67.2,96.4C67.2,96.4,67.2,96.4,67.2,96.4
			L67.2,96.4z"/>
	</g>
	<g>
		<circle class="st27" cx="74.1" cy="154.2" r="6.9"/>
	</g>
	<g>
		<path class="st4" d="M107.8,166.1c0,4,3,10.7,8,12.3c6,1.8,9,0.2,10.9,0.7c4.7,1.1,8.3,7.3,15.4,6.8c7.2-0.5,13.8-9.3,13.6-20.1
			c-0.2-10.8-4.9-19.2-11.7-19.2s-13.5,11.6-17.7,12.2c-3.4,0.5-7-2.5-12.1-2.4C109.2,156.3,107.8,162.9,107.8,166.1z"/>
	</g>
	<g>
		<path class="st5" d="M92.3,88.5c6.6,1.6,3.2,11.1,7.5,13.8s13.8,2.1,17.7,6.5c5.6,6.2,4.8,16.1-4.9,24.2
			c-9.3,7.8-21.7-1.2-23.4-12.5c-1-6.3-17.2-5.1-18.1-10.9c-0.9-5.8,5.3-8.5,10.5-11.1C86.9,96,85.4,86.9,92.3,88.5z"/>
	</g>
	<g>
		<ellipse transform="matrix(0.451 -0.8925 0.8925 0.451 -74.9185 224.22)" class="st17" cx="144.8" cy="173" rx="9.4" ry="5.7"/>
	</g>
	<g>
		<path class="st7" d="M138.3,61.5c8.5,2.7,13.3,11.2,12.9,17.7c-0.5,7.5-4.5,12.2-12.5,10.5c-4.3-0.9-7.9-3.4-11.2-3.7
			c-3.7-0.4-11.1,1.1-13.9-3.9C106.8,70.5,125.5,57.5,138.3,61.5z"/>
	</g>
	<g>
		
			<ellipse transform="matrix(0.8906 -0.4547 0.4547 0.8906 -18.3145 66.2312)" class="st19" cx="128.5" cy="71.2" rx="9.4" ry="5.7"/>
	</g>
	<g>
		
			<ellipse transform="matrix(0.998 -6.253325e-02 6.253325e-02 0.998 -6.5306 5.4838)" class="st18" cx="84.3" cy="107.1" rx="7.1" ry="4.3"/>
	</g>
</g>
</svg>
