<?xml version="1.0" encoding="utf-8"?>
<!-- Generator: Adobe Illustrator 24.0.1, SVG Export Plug-In . SVG Version: 6.00 Build 0)  -->
<svg version="1.1" id="Layer_1" xmlns="http://www.w3.org/2000/svg" xmlns:xlink="http://www.w3.org/1999/xlink" x="0px" y="0px"
	 viewBox="0 0 223 237.6" style="enable-background:new 0 0 223 237.6;" xml:space="preserve">
<style type="text/css">
	.st0{fill:#F27D16;}
	.st1{fill:#4D4D4D;}
	.st2{fill:#FFFFFF;}
	.st3{fill:#F2F2F2;}
	.st4{fill:#F2CB05;}
	.st5{fill:#9450F2;}
	.st6{fill:#96D9C6;}
	.st7{fill:#3068D9;}
	.st8{clip-path:url(#SVGID_2_);}
	.st9{clip-path:url(#SVGID_2_);fill:#FFFFFF;}
	.st10{clip-path:url(#SVGID_4_);}
	.st11{clip-path:url(#SVGID_4_);fill:#FFFFFF;}
	.st12{clip-path:url(#SVGID_6_);}
	.st13{clip-path:url(#SVGID_6_);fill:#FFFFFF;}
	.st14{opacity:0.99;fill:#FFFFFF;}
	.st15{opacity:0.66;}
	.st16{fill:#FD9951;}
	.st17{fill:#F7DE65;}
	.st18{fill:#DBC1F7;}
	.st19{fill:#6A98E4;}
	.st20{fill:#CC5B00;}
	.st21{fill:#4B2477;}
	.st22{fill:#61A795;}
	.st23{fill:#365A51;}
	.st24{fill:#0A2C5C;}
	.st25{fill:#7496DE;}
	.st26{fill:#B2C4E4;}
	.st27{fill:#72A495;}
	.st28{fill:#F9C800;}
	.st29{fill:#106AE0;}
	.st30{clip-path:url(#SVGID_8_);}
	.st31{clip-path:url(#SVGID_8_);fill:#FFFFFF;}
	.st32{clip-path:url(#SVGID_10_);}
	.st33{clip-path:url(#SVGID_10_);fill:#FFFFFF;}
	.st34{clip-path:url(#SVGID_12_);}
	.st35{clip-path:url(#SVGID_12_);fill:#FFFFFF;}
</style>
<g>
	<g>
		<path class="st7" d="M83.7,168.3c-12.5-3.1-22.1-3.9-33.3-0.4c-15.8,5-25.9,22.2-32.5,22.2C12,190.2-2,175.8,0.2,166.4
			s10.4-9.2,14.7-3.9c3.2,4,4.3,6.5,5.2,8.7c0.5,1.1,1.8,1.4,2.8,0.7c5.1-3.6,16.8-11.2,29-13c12-1.8,26.2-0.8,26.6,0
			C79,159.7,88.9,169.6,83.7,168.3z"/>
	</g>
	<g>
		<path class="st7" d="M105.8,186.8c-1.7,0.7-17.1,4.9-24.3,12.6c-10.9,11.7-10.3,21.3-1,30.1c9.8,9.1,19.2,8.9,23.3,6.9
			c4.2-2,6.9-9.4,3.4-14.8c-3.5-5.4-10-7.8-16.9-4.7c-4.6,2.1-16.1-3.1-1-13c6.3-4.1,19.7-8,21.1-9.4S109.7,185.2,105.8,186.8z"/>
	</g>
	<g>
		<g>
			<path class="st7" d="M177.1,67.9c-1.2,0-2.2,0.9-2.4,2c-1.1,8.6-8.5,15.3-17.4,15.2c-8.9-0.1-16.2-6.8-17.1-15.5
				c-0.1-1.2-1.1-2.1-2.3-2.1l0,0c-1.4,0-2.6,1.2-2.4,2.6c1.2,11,10.5,19.5,21.8,19.6s20.7-8.3,22.1-19.3
				C179.6,69.2,178.5,67.9,177.1,67.9L177.1,67.9z"/>
		</g>
	</g>
	<g>
		<g>
			<path class="st7" d="M221.4,131C231.7,75.1,191.2,8.5,161,1.3c-25.3-6-45.1,10.1-55.4,32.4c-8.8,19.1-6.4,36.1-9.9,51.1
				c-2.9,12.2-19.9,40.3-22,61.1c-2.4,23.7,15.4,45.2,55.7,54.8C169.5,210.1,211.1,187,221.4,131z M131,194.2
				c-37.6-8.9-53-28.5-50.8-50.7c1.9-19.4,19-45.6,21.7-57c3.3-13.9-1.3-30.5,6.9-48.3C118.5,17.4,137,2.4,160.6,8
				c28.3,6.7,64.8,69.2,55.2,121.5C206.2,181.7,168.6,203.1,131,194.2z"/>
		</g>
	</g>
	<g>
		<path class="st7" d="M219.1,96.4c-2-0.1-8.3-0.7-12.4-3.4c-4-2.7-6.5-7.2-7.4-8.7c-0.7-1.2,0.1-6.9-2-11c-1.9-3.6-9-4.6-12.6-1.6
			c-3.4,2.8-3.4,9.3-0.3,11.9s7.8,2.1,8.9,3.5c0.7,0.8,6.8,8.3,11.7,11.2s10.7,4.2,14.2,4.2S221.9,96.5,219.1,96.4z"/>
	</g>
	<g>
		<path class="st7" d="M94.3,97.4c1.9,0.2,8.3,0.5,12.7-1.5s7.7-6.5,8.8-7.8c0.9-1,0.2-6.6,3-10.3c2.4-3.3,10.1-3.2,13.2,0.3
			c3,3.3,1.9,9.7-1.5,11.8c-3.4,2.1-8,0.9-9.3,2.1c-0.8,0.7-8,7.2-13.3,9.3c-5.3,2.2-11.2,2.5-14.7,2
			C89.8,102.8,91.5,97.1,94.3,97.4z"/>
	</g>
	<g>
		<path class="st7" d="M156.6,57.7c-1.3,2.4-5.7,3.3-7.8,2.3c-2-1.1-0.8-3.6,0.4-6.1s3.9-3.6,6-2.5
			C157.2,52.4,157.8,55.3,156.6,57.7z"/>
	</g>
	<g>
		<path class="st7" d="M172.8,55.7c0.8,2.6,0.8,5.1-1.3,5.7c-2.2,0.7-5.8-0.7-6.6-3.3c-0.8-2.6,0.3-5.3,2.5-6S172,53.1,172.8,55.7z"
			/>
	</g>
</g>
</svg>
