<?xml version="1.0" encoding="utf-8"?>
<!-- Generator: Adobe Illustrator 24.0.1, SVG Export Plug-In . SVG Version: 6.00 Build 0)  -->
<svg version="1.1" id="Layer_1" xmlns="http://www.w3.org/2000/svg" xmlns:xlink="http://www.w3.org/1999/xlink" x="0px" y="0px"
	 viewBox="0 0 78.2 90.8" style="enable-background:new 0 0 78.2 90.8;" xml:space="preserve">
<style type="text/css">
	.st0{fill:#F27D16;}
	.st1{fill:#4D4D4D;}
	.st2{fill:#FFFFFF;}
	.st3{fill:#F2F2F2;}
	.st4{fill:#F2CB05;}
	.st5{fill:#9450F2;}
	.st6{fill:#96D9C6;}
	.st7{fill:#3068D9;}
	.st8{clip-path:url(#SVGID_2_);}
	.st9{clip-path:url(#SVGID_2_);fill:#FFFFFF;}
	.st10{clip-path:url(#SVGID_4_);}
	.st11{clip-path:url(#SVGID_4_);fill:#FFFFFF;}
	.st12{clip-path:url(#SVGID_6_);}
	.st13{clip-path:url(#SVGID_6_);fill:#FFFFFF;}
	.st14{opacity:0.99;fill:#FFFFFF;}
	.st15{opacity:0.66;}
	.st16{fill:#FD9951;}
	.st17{fill:#F7DE65;}
	.st18{fill:#DBC1F7;}
	.st19{fill:#6A98E4;}
	.st20{fill:#CC5B00;}
	.st21{fill:#4B2477;}
	.st22{fill:#61A795;}
	.st23{fill:#365A51;}
	.st24{fill:#0A2C5C;}
	.st25{fill:#7496DE;}
	.st26{fill:#B2C4E4;}
	.st27{fill:#72A495;}
	.st28{fill:#F9C800;}
	.st29{fill:#106AE0;}
	.st30{clip-path:url(#SVGID_8_);}
	.st31{clip-path:url(#SVGID_8_);fill:#FFFFFF;}
	.st32{clip-path:url(#SVGID_10_);}
	.st33{clip-path:url(#SVGID_10_);fill:#FFFFFF;}
	.st34{clip-path:url(#SVGID_12_);}
	.st35{clip-path:url(#SVGID_12_);fill:#FFFFFF;}
</style>
<g>
	<g>
		<path class="st6" d="M52.2,16.8l-2.1-0.5c-2.4-0.6-2.6-0.5-4.3,0.7l-0.2,0.2c-4.3,3-5.9,3-6.1,4c-0.2,1,1.2,3.4,2,3.6
			c0.3,0.1,0.6,0,1-0.2c0.5-0.3,2.7-1.4,2.9-1.3c0.2,0,0.1,0.5-0.1,1.1L45.3,25l-3.6,15.2c-0.3,1.1-0.5,2.3,1.7,2.8l2.1,0.5
			c2.3,0.5,2.6-0.6,2.8-1.7l5.1-21.5C53.7,18.8,54.1,17.3,52.2,16.8z"/>
	</g>
	<g>
		<path class="st6" d="M77.7,24.7c-0.7-4-2.4-7.8-4.8-11.1C68.2,7,61.1,2.7,53.7,0.9C49.9,0.1,46-0.2,42.1,0.2
			c-3.9,0.4-7.8,1.5-11.3,3.4c-3.5,1.9-6.7,4.6-9.2,7.8c-2.4,3.3-4.1,7.1-5,11.1c-0.8,4-0.7,8.1,0.1,12c0.8,3.9,2.4,7.6,4.5,10.9
			c0.5,0.8,1,1.5,1.6,2.3c-1.7,1.4-3.4,2.9-5,4.5c-1.8,1.7-3.5,3.4-5.2,5.1c-1.7,1.7-3.3,3.5-4.9,5.3C6.1,64.3,4.5,66.1,3,68l-3,3.8
			l4.7-0.3c2.5-0.2,5-0.4,7.5-0.6c1.2-0.1,2.5-0.2,3.7-0.4c0.9-0.1,1.8-0.2,2.7-0.3c0.4,2,0.8,4,1.1,6.1c0.2,1.2,0.3,2.5,0.5,3.7
			c0.1,1.2,0.2,2.5,0.3,3.7l0.1,1.6l1.2-1.2c1.9-2,4-3.8,5.9-5.7c2-1.9,3.8-3.9,5.5-6.1c1.7-2.1,3.4-4.3,5-6.5
			c0.4-0.6,0.8-1.2,1.2-1.7c0.1,0.7,0.2,1.3,0.4,2c0.5,2.7,1.1,5.3,1.8,7.9c0.7,2.6,1.4,5.2,2.4,7.7c1,2.5,2.1,5,3,7.5l0.6,1.6
			l0.8-1.5c0.6-1.1,1.2-2.2,1.8-3.3c0.7-1.1,1.3-2.1,2-3.2c1.1-1.7,2.3-3.4,3.6-5.1c0.8,0.5,1.5,1,2.3,1.4c1.1,0.7,2.1,1.3,3.2,1.9
			c2.2,1.2,4.3,2.5,6.5,3.7l4.1,2.3l-1.2-4.7c-0.6-2.3-1.2-4.6-1.9-6.9c-0.7-2.3-1.5-4.5-2.3-6.8c-0.8-2.2-1.6-4.5-2.5-6.7
			c-0.7-1.7-1.4-3.3-2.1-5c0.5-0.3,1-0.5,1.5-0.8c3.5-2.1,6.6-4.9,9.1-8.2c2.5-3.3,4.2-7.1,5.2-11.1C78.3,33,78.4,28.8,77.7,24.7z
			 M36.1,64c-2,1.9-3.8,3.9-5.7,5.9c-1.8,2-3.6,4.1-5.2,6.4c-1.3,1.8-2.5,3.6-3.7,5.3c-0.1-0.6-0.2-1.3-0.2-1.9
			c-0.1-1.2-0.3-2.5-0.3-3.7c-0.2-2.5-0.2-5-0.2-7.5l0-1.1l-1.3-0.1c-1.3-0.1-2.5-0.1-3.7-0.2c-1.2,0-2.5,0-3.7,0
			c-0.9,0-1.8,0-2.7,0c0.6-0.7,1.1-1.3,1.7-2c1.5-1.9,3-3.8,4.5-5.7c1.5-1.9,2.9-3.9,4.3-5.9c1.2-1.8,2.5-3.7,3.6-5.6
			c3.9,5,9.3,8.8,15.4,10.8c0.1,0.8,0.2,1.6,0.3,2.5C38,62.2,37,63.1,36.1,64z M39.6,59.2C39.7,59.2,39.7,59.3,39.6,59.2
			c0.5,0.1,0.9,0.3,1.4,0.4c-0.3,0.2-0.6,0.5-0.9,0.7C40,60,39.8,59.6,39.6,59.2z M61.5,62.7c0.4,2.4,0.9,4.7,1.4,7
			c0.5,2.3,1,4.7,1.6,7c0.2,0.8,0.4,1.6,0.7,2.4c-0.8-0.4-1.7-0.8-2.5-1.2c-1.1-0.5-2.3-1.1-3.4-1.5c-1.1-0.5-2.3-1-3.5-1.4
			l-1.2-0.5l-0.5,1c-1.1,2.3-2.1,4.5-3.3,6.7c-0.6,1.1-1.2,2.2-1.9,3.2c-0.3,0.5-0.7,1.1-1,1.6c-0.4-2.1-0.7-4.2-1.1-6.3
			c-0.5-2.7-1.2-5.3-2-7.8c-0.8-2.6-1.7-5.1-2.6-7.6c-0.5-1.2-0.9-2.3-1.4-3.5c0.4-0.7,0.8-1.3,1.2-2c3.2,0.6,6.4,0.8,9.7,0.4
			c3.1-0.4,6.2-1.3,9.1-2.7C61,59.3,61.2,61,61.5,62.7z M73.3,36c-1.7,6.9-6,13.2-12.1,17.1c-6.1,3.9-13.6,5.4-20.9,4.1
			c-3.6-0.7-7.2-2.1-10.3-4.3c-3.1-2.1-5.7-5-7.6-8.2c-1.9-3.2-3.1-6.9-3.4-10.6c-0.4-3.7,0-7.4,1-10.9c1-3.5,2.5-6.8,4.6-9.7
			c2.1-3,4.6-5.6,7.6-7.7c3-2.1,6.4-3.8,10.1-4.6c3.7-0.8,7.6-0.8,11.3,0.1l2.7,0.8c0.9,0.4,1.8,0.7,2.6,1.1
			c0.8,0.4,1.7,0.9,2.5,1.4c0.8,0.5,1.5,1.1,2.3,1.7c2.9,2.4,5.3,5.4,7,8.6C74,21.5,75,29,73.3,36z"/>
	</g>
	<g>
		<path class="st6" d="M60.8,10.4c-2.6-1.7-5.6-2.8-8.6-3.4c-6-1.1-12.2,0.2-17.4,3.2c-2.6,1.5-4.9,3.5-6.9,5.8
			c-2,2.3-3.5,5.1-4.3,8.1c-0.8,3-1,6.2-0.5,9.3c0.5,3.1,1.9,6,3.7,8.5c1.8,2.5,4.2,4.5,6.7,6.1c2.5,1.6,5.3,2.7,8.1,3.4
			c5.7,1.4,11.9,1,17.5-1.7c2.8-1.4,5.3-3.4,7.2-5.9c1.9-2.5,3.4-5.4,4.1-8.5c1.6-6.2,0.3-13-3.1-18.3
			C65.6,14.4,63.4,12.1,60.8,10.4z M66.3,34.3c-0.6,2.6-1.6,5-3.1,7.2c-1.5,2.2-3.3,4.2-5.5,5.9c-2.2,1.7-4.7,3-7.5,3.6
			c-2.8,0.7-5.7,0.7-8.5,0c-2.8-0.7-5.5-2-7.6-3.8c-2.2-1.8-3.9-4.1-5.1-6.6c-2.4-5-3.1-10.4-2.1-15.7c0.5-2.6,1.4-5.2,2.9-7.6
			c1.4-2.4,3.4-4.4,5.8-6c2.4-1.5,5.1-2.5,7.9-2.9C46.2,8,49,8.3,51.7,9.1c5.3,1.7,9.7,5.3,12.4,9.9C66.8,23.7,67.5,29.2,66.3,34.3z
			"/>
	</g>
</g>
</svg>
