<?xml version="1.0" encoding="utf-8"?>
<!-- Generator: Adobe Illustrator 24.0.1, SVG Export Plug-In . SVG Version: 6.00 Build 0)  -->
<svg version="1.1" id="Layer_1" xmlns="http://www.w3.org/2000/svg" xmlns:xlink="http://www.w3.org/1999/xlink" x="0px" y="0px"
	 viewBox="0 0 253 254.5" style="enable-background:new 0 0 253 254.5;" xml:space="preserve">
<style type="text/css">
	.st0{fill:#F27D16;}
	.st1{fill:#4D4D4D;}
	.st2{fill:#FFFFFF;}
	.st3{fill:#F2F2F2;}
	.st4{fill:#F2CB05;}
	.st5{fill:#9450F2;}
	.st6{fill:#96D9C6;}
	.st7{fill:#3068D9;}
	.st8{clip-path:url(#SVGID_2_);}
	.st9{clip-path:url(#SVGID_2_);fill:#FFFFFF;}
	.st10{clip-path:url(#SVGID_4_);}
	.st11{clip-path:url(#SVGID_4_);fill:#FFFFFF;}
	.st12{clip-path:url(#SVGID_6_);}
	.st13{clip-path:url(#SVGID_6_);fill:#FFFFFF;}
	.st14{opacity:0.99;fill:#FFFFFF;}
	.st15{opacity:0.66;}
	.st16{fill:#FD9951;}
	.st17{fill:#F7DE65;}
	.st18{fill:#DBC1F7;}
	.st19{fill:#6A98E4;}
	.st20{fill:#CC5B00;}
	.st21{fill:#4B2477;}
	.st22{fill:#61A795;}
	.st23{fill:#365A51;}
	.st24{fill:#0A2C5C;}
	.st25{fill:#7496DE;}
	.st26{fill:#B2C4E4;}
	.st27{fill:#72A495;}
	.st28{fill:#F9C800;}
	.st29{fill:#106AE0;}
	.st30{clip-path:url(#SVGID_8_);}
	.st31{clip-path:url(#SVGID_8_);fill:#FFFFFF;}
	.st32{clip-path:url(#SVGID_10_);}
	.st33{clip-path:url(#SVGID_10_);fill:#FFFFFF;}
	.st34{clip-path:url(#SVGID_12_);}
	.st35{clip-path:url(#SVGID_12_);fill:#FFFFFF;}
</style>
<g>
	<g>
		<g>
			<path class="st6" d="M133.7,38c82-7.9,119.2,61,119.3,91.8c0.3,89.8-200,140.3-238.7,84.6C-37.8,139.3,63.7,44.7,133.7,38z"/>
		</g>
	</g>
	<g>
		<g>
			<g>
				<path class="st5" d="M186.9,134.4c-4.1-10-19.7-42.8-29.8-69.6c-9-24-30.5-45.3-49.2-45.7c-23.7-0.5-54.3,37.3-54.3,85.7
					c0,48.3,13.7,91,77,91C193.9,195.8,193.9,151.8,186.9,134.4z M130,190c-59.2,0-70.3-39.9-70.3-85s27-80.5,49.2-80
					c17.5,0.4,36,20.2,44.4,42.7c9.4,25.1,24,55.7,27.8,65.1C187.6,148.9,189.2,190,130,190z"/>
			</g>
		</g>
	</g>
	<g>
		<g>
			<ellipse class="st5" cx="94.1" cy="63" rx="3.7" ry="5.5"/>
		</g>
	</g>
	<g>
		<g>
			<ellipse class="st5" cx="110.6" cy="61.9" rx="4.1" ry="6.9"/>
		</g>
	</g>
	<g>
		<g>
			<path class="st5" d="M92.2,80.2c1.3-3.7,25.2-7.9,26.4-6.7c1.2,1.2,2,32.7-10.2,35.8S90.6,84.5,92.2,80.2z"/>
		</g>
	</g>
	<g>
		<g>
			<path class="st5" d="M168.7,95.1c3.6-5.2,19.5-27.4,20.2-31.4s0.8-11.5,5.5-13.6s10.3,1.3,10.2,5.8s-7.8,9-10.4,11.5
				c-2.5,2.5-21,28-22.8,32.9C169.5,105.1,167.7,96.5,168.7,95.1z"/>
		</g>
	</g>
	<g>
		<g>
			<path class="st5" d="M55.9,104.2c-3.2-3.2-29.8-19.8-33.1-23.1c-2-2-1.6-6.7-4.3-11S6.5,65,4.8,69.5c-1.7,4.6-0.3,8.3,9.7,13
				s39.1,24.1,41.4,29.7C58.2,117.8,58.6,106.9,55.9,104.2z"/>
		</g>
	</g>
	<g>
		<g>
			<path class="st5" d="M98.2,190.3c-3.6,7.2-10.1,24.6-11,31.1s2.2,18.6,1.1,20.9s-5.3,5-3.7,9.1s7.6,4.2,11-0.6s2-8.2,0.9-9.6
				s-5-12.1-3.9-20s11-27.7,11.3-29.4S100.1,186.6,98.2,190.3z"/>
		</g>
	</g>
	<g>
		<g>
			<path class="st5" d="M155.8,191.9c3.4,4.4,16.8,12.1,16.6,20s-5.4,19.5-2.5,24.5s16.7,2.6,16.7-4s-9.5-6-10.9-6.7
				s2.3-8.3,1.6-15.7c-0.6-6.4-8.6-19.8-11.7-21.4C162.4,186.9,152.4,187.6,155.8,191.9z"/>
		</g>
	</g>
	<g>
		<g>
			<g>
				<path class="st4" d="M140.5,23.7L140.5,23.7c-2-0.2-3.5-2-3.3-4l1.7-16.4c0.2-2,2-3.5,4-3.3l0,0c2,0.2,3.5,2,3.3,4l-1.6,16.4
					C144.4,22.5,142.5,23.9,140.5,23.7z"/>
			</g>
		</g>
		<g>
			<g>
				<path class="st4" d="M157.8,35.8L157.8,35.8c-0.9-1.8-0.2-4,1.6-5l14.7-7.4c1.8-0.9,4-0.2,5,1.6l0,0c0.9,1.8,0.2,4-1.6,5
					l-14.7,7.4C160.9,38.3,158.7,37.6,157.8,35.8z"/>
			</g>
		</g>
		<g>
			<g>
				<path class="st4" d="M159.4,47.7L159.4,47.7c0.2-2,2.1-3.5,4.1-3.2l14.6,1.7c2,0.2,3.5,2.1,3.2,4.1l0,0c-0.2,2-2.1,3.5-4.1,3.2
					l-14.6-1.7C160.6,51.5,159.2,49.7,159.4,47.7z"/>
			</g>
		</g>
		<g>
			<g>
				<path class="st4" d="M150.5,26.8L150.5,26.8c-1.6-1.2-2-3.5-0.8-5.2l6.2-8.4c1.2-1.6,3.5-2,5.2-0.8l0,0c1.6,1.2,2,3.5,0.8,5.2
					l-6.2,8.4C154.4,27.7,152.1,28.1,150.5,26.8z"/>
			</g>
		</g>
	</g>
	<g>
		<g>
			<g>
				<path class="st4" d="M50,56.3L50,56.3c0.3,2.1-1.2,4.1-3.3,4.4l-17.3,2.5c-2.1,0.3-4.1-1.2-4.4-3.3l0,0
					c-0.3-2.1,1.2-4.1,3.3-4.4L45.5,53C47.7,52.7,49.6,54.2,50,56.3z"/>
			</g>
		</g>
		<g>
			<g>
				<path class="st4" d="M58,35.4L58,35.4c-1.6,1.4-4.1,1.2-5.5-0.4L41.1,21.8c-1.4-1.6-1.2-4.1,0.4-5.5l0,0
					c1.6-1.4,4.1-1.2,5.5,0.4L58.4,30C59.8,31.5,59.6,34,58,35.4z"/>
			</g>
		</g>
		<g>
			<g>
				<path class="st4" d="M69.8,30.7L69.8,30.7c-2.2,0.3-4.1-1.3-4.4-3.4l-1.9-15.5c-0.3-2.2,1.3-4.1,3.4-4.4l0,0
					c2.2-0.3,4.1,1.3,4.4,3.4l1.9,15.5C73.5,28.5,72,30.4,69.8,30.7z"/>
			</g>
		</g>
		<g>
			<g>
				<path class="st4" d="M50.6,45.2L50.6,45.2c-0.8,2-3.1,2.9-5.1,2.1L35.2,43c-2-0.8-2.9-3.1-2.1-5.1l0,0c0.8-2,3.1-2.9,5.1-2.1
					l10.3,4.3C50.5,40.9,51.5,43.2,50.6,45.2z"/>
			</g>
		</g>
	</g>
</g>
</svg>
