<?xml version="1.0" encoding="utf-8"?>
<!-- Generator: Adobe Illustrator 24.0.1, SVG Export Plug-In . SVG Version: 6.00 Build 0)  -->
<svg version="1.1" id="Layer_1" xmlns="http://www.w3.org/2000/svg" xmlns:xlink="http://www.w3.org/1999/xlink" x="0px" y="0px"
	 viewBox="0 0 243.2 253.6" style="enable-background:new 0 0 243.2 253.6;" xml:space="preserve">
<style type="text/css">
	.st0{fill:#F27D16;}
	.st1{fill:#4D4D4D;}
	.st2{fill:#FFFFFF;}
	.st3{fill:#F2F2F2;}
	.st4{fill:#F2CB05;}
	.st5{fill:#9450F2;}
	.st6{fill:#96D9C6;}
	.st7{fill:#3068D9;}
	.st8{clip-path:url(#SVGID_2_);}
	.st9{clip-path:url(#SVGID_2_);fill:#FFFFFF;}
	.st10{clip-path:url(#SVGID_4_);}
	.st11{clip-path:url(#SVGID_4_);fill:#FFFFFF;}
	.st12{clip-path:url(#SVGID_6_);}
	.st13{clip-path:url(#SVGID_6_);fill:#FFFFFF;}
	.st14{opacity:0.99;fill:#FFFFFF;}
	.st15{opacity:0.66;}
	.st16{fill:#FD9951;}
	.st17{fill:#F7DE65;}
	.st18{fill:#DBC1F7;}
	.st19{fill:#6A98E4;}
	.st20{fill:#CC5B00;}
	.st21{fill:#4B2477;}
	.st22{fill:#61A795;}
	.st23{fill:#365A51;}
	.st24{fill:#0A2C5C;}
	.st25{fill:#7496DE;}
	.st26{fill:#B2C4E4;}
	.st27{fill:#72A495;}
	.st28{fill:#F9C800;}
	.st29{fill:#106AE0;}
	.st30{clip-path:url(#SVGID_8_);}
	.st31{clip-path:url(#SVGID_8_);fill:#FFFFFF;}
	.st32{clip-path:url(#SVGID_10_);}
	.st33{clip-path:url(#SVGID_10_);fill:#FFFFFF;}
	.st34{clip-path:url(#SVGID_12_);}
	.st35{clip-path:url(#SVGID_12_);fill:#FFFFFF;}
</style>
<g>
	<g>
		<g>
			<path class="st0" d="M48,221.4C5.6,194.2-7.9,140.2,4.3,105.5c14.1-40.2,42.6-60.1,84-38.7c22.3,11.5,38.3,30.3,55.8,37
				c19.8,7.5,62.1,10.7,70.1,42.3C232.8,219.6,111.9,262.4,48,221.4z"/>
		</g>
	</g>
	<g>
		<g>
			<g>
				<g>
					<path class="st7" d="M81.4,24.7c-15.8,30.1-4.2,57.1-10,72.1S32.5,129.9,59,162.7s73.2,39.5,101.6,8.9
						c34.8-37.4,22.8-125.3-5.7-155.9S91.5,5.5,81.4,24.7z M153,20.3c27,28.9,38.3,112.1,5.4,147.5c-26.9,28.9-70.3,21.9-96.1-8.5
						c-23.3-27.5,7.9-48.5,13.4-62.6c5.5-14.2-7.1-39.4,7.8-67.9C93,10.6,126-8.7,153,20.3z"/>
				</g>
			</g>
		</g>
		<g>
			<g>
				<path class="st7" d="M181,120.9c6.8-4.9,29.9-16.5,34.1-16.7c4.2-0.2,10.8,5.9,17.2,7.8s11.6-6.3,10.8-10.7
					c-0.8-4.7-7.4-10.5-17.8-8c-10.5,2.5-43.7,19.6-43.7,19.6L181,120.9z"/>
			</g>
		</g>
		<g>
			<g>
				<path class="st7" d="M71,99.6C66.5,92.5,49.5,73,45.6,71.3c-3.8-1.7-12.2,1.5-18.8,0.8s-8.4-10.2-6-14c2.5-4,10.8-7,19.5-0.8
					s33.2,34.5,33.2,34.5L71,99.6z"/>
			</g>
		</g>
		<g>
			<g>
				<path class="st7" d="M116.5,189.9c8.6,7.6,14,14.1,17.2,24.1c4.4,14.1-3.1,30.1,0.2,35c3,4.4,20.6,7.3,26.3,0.9
					c5.7-6.4,1.5-12.3-4.6-12.7c-4.5-0.3-6.9,0.2-9,0.5c-1,0.2-2-0.6-2-1.7c0.1-5.5-0.3-17.9-5.2-27.8c-4.8-9.7-12.7-19.6-13.5-19.4
					C125.1,189,112.9,186.8,116.5,189.9z"/>
			</g>
		</g>
		<g>
			<g>
				<path class="st7" d="M89.2,183.3c-0.5,1.6-3.3,15.5-9.7,22.4c-9.7,10.4-18.3,10.5-26.6,2.7c-8.7-8.1-9.1-16.4-7.6-20.2
					s7.9-6.7,12.9-4c5,2.8,7.6,8.3,5.2,14.7c-1.6,4.2,3.8,14.1,11.6,0.1c3.3-5.8,5.9-17.9,7-19.3C83.1,178.3,90.4,179.7,89.2,183.3z
					"/>
			</g>
		</g>
		<g>
			<g>
				<g>
					<path class="st7" d="M108.1,56.1c1.2,0.1,2.1,1,2.1,2.2c0.3,8.5,6.8,15.6,15.5,16.4c8.7,0.8,16.4-5.1,18.1-13.4
						c0.2-1.1,1.3-1.9,2.4-1.8l0,0c1.4,0.1,2.4,1.4,2.1,2.8c-2.2,10.5-12,18-23,17.1s-19.4-10-19.7-20.8
						C105.5,57.1,106.7,56,108.1,56.1L108.1,56.1z"/>
				</g>
			</g>
		</g>
		<g>
			<g>
				
					<ellipse transform="matrix(0.3515 -0.9362 0.9362 0.3515 45.8138 156.2054)" class="st7" cx="135.7" cy="45" rx="4.2" ry="3.1"/>
			</g>
		</g>
		<g>
			<g>
				
					<ellipse transform="matrix(0.3515 -0.9362 0.9362 0.3515 38.0603 139.2765)" class="st7" cx="119.6" cy="42.2" rx="4.4" ry="3.9"/>
			</g>
		</g>
	</g>
</g>
</svg>
