<?xml version="1.0" encoding="utf-8"?>
<!-- Generator: Adobe Illustrator 24.0.1, SVG Export Plug-In . SVG Version: 6.00 Build 0)  -->
<svg version="1.1" id="Layer_1" xmlns="http://www.w3.org/2000/svg" xmlns:xlink="http://www.w3.org/1999/xlink" x="0px" y="0px"
	 viewBox="0 0 242.5 262.9" style="enable-background:new 0 0 242.5 262.9;" xml:space="preserve">
<style type="text/css">
	.st0{fill:#F27D16;}
	.st1{fill:#4D4D4D;}
	.st2{fill:#FFFFFF;}
	.st3{fill:#F2F2F2;}
	.st4{fill:#F2CB05;}
	.st5{fill:#9450F2;}
	.st6{fill:#96D9C6;}
	.st7{fill:#3068D9;}
	.st8{clip-path:url(#SVGID_2_);}
	.st9{clip-path:url(#SVGID_2_);fill:#FFFFFF;}
	.st10{clip-path:url(#SVGID_4_);}
	.st11{clip-path:url(#SVGID_4_);fill:#FFFFFF;}
	.st12{clip-path:url(#SVGID_6_);}
	.st13{clip-path:url(#SVGID_6_);fill:#FFFFFF;}
	.st14{opacity:0.99;fill:#FFFFFF;}
	.st15{opacity:0.66;}
	.st16{fill:#FD9951;}
	.st17{fill:#F7DE65;}
	.st18{fill:#DBC1F7;}
	.st19{fill:#6A98E4;}
	.st20{fill:#CC5B00;}
	.st21{fill:#4B2477;}
	.st22{fill:#61A795;}
	.st23{fill:#365A51;}
	.st24{fill:#0A2C5C;}
	.st25{fill:#7496DE;}
	.st26{fill:#B2C4E4;}
	.st27{fill:#72A495;}
	.st28{fill:#F9C800;}
	.st29{fill:#106AE0;}
	.st30{clip-path:url(#SVGID_8_);}
	.st31{clip-path:url(#SVGID_8_);fill:#FFFFFF;}
	.st32{clip-path:url(#SVGID_10_);}
	.st33{clip-path:url(#SVGID_10_);fill:#FFFFFF;}
	.st34{clip-path:url(#SVGID_12_);}
	.st35{clip-path:url(#SVGID_12_);fill:#FFFFFF;}
</style>
<g>
	<g>
		<g>
			<path class="st7" d="M14.6,63.4C1.8,79.8-7.5,117,8.3,139.1c18.7,26.4,36.2,29.5,42.6,37.6c15.7,19.6,10.4,56.4,41.4,77.1
				s86.1,5.9,119.9-38.9s40.8-94.3,13.5-116.1s-92.1,4.3-111.3-6.6c-15.3-8.7-20.6-32.7-41.8-48.6S24.9,50.2,14.6,63.4z"/>
		</g>
	</g>
	<g>
		<g>
			<path class="st6" d="M56.9,36.2c0.2-4.9,0.8-12.8-5.1-11.2c-5.9,1.7-16.4,7.1-17.5,9s22.5,11.3,23.3,14.3
				c3.1-2.5,3.1-2.5,4.1-4.4C61,41,56.7,41.1,56.9,36.2z M55.9,45.5c-0.6-2.2-16.5-9.3-15.7-10.7s6.9-5.5,11.3-6.8
				c4.4-1.2,4,4.7,3.8,8.4c-0.2,3.6,3,3.6,3.6,5.8C58.2,43.7,58.2,43.7,55.9,45.5z"/>
		</g>
	</g>
	<g>
		<g>
			<path class="st6" d="M71.9,21.6c-1.4-0.8-23.2-5.5-25.6-1.3c-2.4,4.3,4.8,21.5,6.9,24.6c2.1,3,0.6,2.2,2.1,3
				c1.4,0.8,17-16.8,18.6-19.7C75.4,25.4,73.3,22.4,71.9,21.6z M55.3,45.2c-1.2-0.7,0,0-1.7-2.6c-1.7-2.5-5.3-16.5-3.3-20.1
				s17.9-0.2,19.1,0.5s2.9,3.2,1.6,5.6S56.5,45.9,55.3,45.2z"/>
		</g>
	</g>
	<g>
		<g>
			<path class="st6" d="M84.4,27.7c-2.6-3.8-25.8-5.7-28.3-4.1c-4.6,2.9-6.8,26.8-4.8,26.2c2.8-0.8,7.3-1.3,11.9-1.1
				C67.7,49,86.9,31.5,84.4,27.7z M62,48.1c-3.8-0.2-7.9-0.6-10.2,0.1c-1.6,0.5,0.7-18.4,4.4-20.7c2-1.3,17.2,2.7,19.3,5.8
				C77.7,36.4,65.8,48.3,62,48.1z"/>
		</g>
	</g>
	<g>
		<g>
			<path class="st6" d="M59.1,52.9c0-1.9,0-1.9-1.3-5.2c-1.9,1.9-24.9-1.2-24.9,0.7s6.5,10.9,10.4,14.7c3.8,3.8,6.8-2.5,8.8-6.4
				S57.2,54.8,59.1,52.9z M56.2,53c-1.4,1.4-3.9,0-5.3,2.9s-3.7,7.7-6.6,4.8c-2.9-2.9-5.8-8.6-5.8-10.1c0-1.4,15.3,0,16.7-1.5
				C56.2,51.6,56.2,51.6,56.2,53z"/>
		</g>
	</g>
	<g>
		<g>
			<path class="st6" d="M61.5,70.1c0-2.9-4.3-23.2-5.8-23.2c-1.4,0,0,0-2.9,1.4c-2.9,1.6-20.3,11.7-20.3,16
				c0,4.3,23.2,10.2,24.6,10.2C58.6,74.5,61.5,73,61.5,70.1z M59.5,68.7c0,2.4-2.4,3.7-3.7,3.7c-1.2,0-17.1-4.9-17.1-8.5
				c0-3.7,11-12.2,13.4-13.4s1.2-1.2,2.4-1.2S59.5,66.2,59.5,68.7z"/>
		</g>
	</g>
	<g>
		<g>
			<path class="st6" d="M58.2,57.4c-2-2.6-2.9-8.2-3.6-10.1c-0.5-1.4-14.3,12.2-14.1,16.1c0.1,2.1,10.5,15.1,13.8,15.1
				C57.6,78.5,60.2,60.1,58.2,57.4z M54.2,70.3c-2.7,0-11.4-6.7-11.4-8.4C42.7,58.7,54,47.5,54.4,48.7c0.5,1.6,1.3,6.2,3,8.3
				C59,59.2,56.9,70.3,54.2,70.3z"/>
		</g>
	</g>
	<g>
		<g>
			<path class="st6" d="M207.2,74.8c0.9,1.6,2.8-0.9,5.4,1.2c0.7-2.5,19.6-11.7,18.7-13.2c-0.9-1.6-7.6-6.1-12.5-7.5s-7.5,5-7.3,9.1
				C211.7,68.3,209.3,68.8,207.2,74.8z M211.5,70.8c0.5-1.8,3.2-1.8,3-4.8c-0.2-3-0.5-8,3.2-6.9c3.7,1,8.7,4.4,9.3,5.6
				c0.7,1.2-12.4,7-13,8.9C212.1,72,212.1,72,211.5,70.8z"/>
		</g>
	</g>
	<g>
		<g>
			<path class="st6" d="M199.2,59.3c1.3,2.4,14.2,16.9,15.4,16.3c1.2-0.7,0,0,1.7-2.5s9.7-18.7,7.8-22.3c-2-3.5-23,0.2-24.9,2.1
				C198.2,53.8,197.9,56.9,199.2,59.3z M201.5,59.6c-1.1-2,0.3-4.1,1.3-4.7c1-0.6,16.2-3.9,17.9-0.9s-3.4,15-4.8,17.1
				c-1.4,2.1-0.4,1.6-1.4,2.1S202.6,61.6,201.5,59.6z"/>
		</g>
	</g>
	<g>
		<g>
			<path class="st6" d="M208,76.2c3.8-0.2,9.7,2.5,12,3.1c1.6,0.5-2.4-21.6-6.2-23.9c-2-1.3-21.2,0.3-23.4,3.4
				C188.3,62,204.2,76.4,208,76.2z M198.8,62c1.7-2.6,13.3-4.5,14.9-3.4c3.1,2,6.4,20.1,5.1,19.7c-1.9-0.5-6.8-2.7-9.9-2.6
				C205.8,75.8,197,64.6,198.8,62z"/>
		</g>
	</g>
	<g>
		<g>
			<path class="st6" d="M218,88.5c2,4.1,4.8,9.3,9.9,3.8c4-4.2,8.2-12.2,8.2-14.3s-21.6,0-23.6-2.1c-1.4,3.4-1.4,3.4-1.4,5.5
				C213.1,83.5,215.9,84.4,218,88.5z M215.2,77.5c1.5,1.5,15.7,1.5,15.7,3s-1,6.2-4.1,9.2c-3.1,3.1-5.4-2-7-5.1
				c-1.5-3.1-4.1-1.6-5.6-3.1C214.2,80.1,214.2,80.1,215.2,77.5z"/>
		</g>
	</g>
	<g>
		<g>
			<path class="st6" d="M209.9,107.6c1.5,0,24.7-9.3,24.7-13.9s-13.8-15.4-16.9-16.9c-3.1-1.5-1.5-1.5-3.1-1.5
				c-1.5,0-9.3,24.7-9.3,27.7C205.3,106,208.4,107.6,209.9,107.6z M215.8,77.5c1.3,0,0,0,2.6,1.3s14.2,10.3,14.2,14.2
				s-16.8,9.1-18.1,9.1s-3.9-1.3-3.9-3.9S214.5,77.5,215.8,77.5z"/>
		</g>
	</g>
	<g>
		<g>
			<path class="st6" d="M216.4,109.4c3.5,0,14.4-16.6,14.5-18.8c0.1-4.1-14.5-18.5-15-17.1c-0.7,2.1-1.7,8-3.8,10.8
				C209.9,87.1,212.9,109.4,216.4,109.4z M212.9,83.9c1.7-2.3,2.6-7.1,3.1-8.8c0.4-1.2,9.1,11.6,9,15c-0.1,1.8-5.4,9.5-8.3,9.5
				C213.9,99.5,211.2,86.2,212.9,83.9z"/>
		</g>
	</g>
	<g>
		<g>
			<g>
				<g>
					<path class="st0" d="M149.4,66c-1.1,0.1-2.1,0.9-2.2,2.1c-0.6,8.3-7.3,15.1-15.9,15.5s-15.9-5.7-17.3-13.9
						c-0.2-1.1-1.2-1.9-2.3-1.9l0,0c-1.4,0.1-2.4,1.3-2.2,2.7c1.8,10.5,11.1,18.2,22,17.7s19.5-9.1,20.2-19.7
						C151.9,67.1,150.8,66,149.4,66L149.4,66z"/>
				</g>
			</g>
		</g>
		<g>
			<g>
				<path class="st0" d="M190.4,134.9c17.1-52-12.8-120.8-40.7-131.6c-23.3-9-47.1,1.5-59.9,21.4c-10.9,17-8,35.9-13.3,49.6
					c-4.4,11.3-23.1,25.8-27.8,45.3c-5.3,22.3,7.7,55.2,44.8,69.6C130.7,203.6,173.3,186.9,190.4,134.9z M96.1,183.4
					c-34.7-13.4-45.7-44.2-40.7-65.1c4.4-18.3,22.9-30.9,26.9-41.4c5-12.9-0.1-31.5,10.1-47.4c11.9-18.6,34.3-28.3,56.1-19.9
					c26.1,10.1,52.8,74.4,36.8,123C169.4,181.3,130.7,196.8,96.1,183.4z"/>
			</g>
		</g>
		<g>
			<g>
				<path class="st0" d="M76.9,72.4c-1.7-0.8-7.2-3.5-9.9-7.4c-2.7-3.8-3.4-8.7-3.6-10.4c-0.2-1.3,2.5-6.2,2-10.6
					c-0.4-3.9-6.4-7.2-10.7-5.8c-4,1.3-6.2,7.2-4.4,10.5c1.9,3.4,6.2,4.6,6.7,6.2c0.3,1,3.2,9.8,6.6,14.1c3.4,4.3,8.1,7.4,11.3,8.7
					C78.1,79.1,79.3,73.5,76.9,72.4z"/>
			</g>
		</g>
		<g>
			<g>
				<path class="st0" d="M193.1,101.9c1.8-0.6,7.5-2.9,10.5-6.4c3-3.6,4.2-8.7,4.6-10.3c0.3-1.2-2-6.1-1-10.4
					c0.8-3.8,7.1-6.6,11.2-4.8c3.9,1.7,5.6,7.7,3.4,10.9c-2.2,3.2-6.6,4-7.3,5.5c-0.4,0.9-4.1,9.5-7.9,13.5s-8.8,6.7-12.1,7.6
					S190.5,102.8,193.1,101.9z"/>
			</g>
		</g>
		<g>
			<g>
				<path class="st0" d="M73,174.4c-0.5,1.2-7.2,10.8-10.1,20.5c-2.9,9.9-5.2,24.7-8.1,31.4c-1.7,3.9-11.8,6.7-16.2,2.7
					c-3.5-3.2-3.4-7.1-0.8-10.3c2.6-3.1,11.1-0.3,12.5-3.1c2.3-4.6,3.4-14.6,5.4-24c2.1-9.3,7.6-19,10-21.6
					C68.1,167.4,74.7,170.4,73,174.4z"/>
			</g>
		</g>
		<g>
			<g>
				<path class="st0" d="M144.8,188.2c-0.4,6.4-0.4,12.8,3.7,24c4,11.2,14.9,17.3,18,18.5s6.3,4.4,8.6,5.5c4.2,2,8,2.2,9.7-2.4
					c1.8-4.5,1.6-12-5.2-13.1c-3.9-0.6-9.2,5.5-11.8,4.5c-2.5-1-8.2-2.6-11.8-12.7c-3.6-10.2-3.3-24-2.5-27.7
					C154.4,181,145.1,181.8,144.8,188.2z"/>
			</g>
		</g>
		<g>
			<g>
				<ellipse transform="matrix(0.5773 -0.8166 0.8166 0.5773 8.4058 122.9623)" class="st0" cx="123" cy="53.4" rx="4.8" ry="4"/>
			</g>
		</g>
		<g>
			<g>
				<ellipse transform="matrix(0.988 -0.1543 0.1543 0.988 -7.0559 21.9733)" class="st0" cx="138" cy="56.4" rx="4" ry="4.8"/>
			</g>
		</g>
	</g>
</g>
</svg>
