<?xml version="1.0" encoding="utf-8"?>
<!-- Generator: Adobe Illustrator 24.0.1, SVG Export Plug-In . SVG Version: 6.00 Build 0)  -->
<svg version="1.1" id="Layer_1" xmlns="http://www.w3.org/2000/svg" xmlns:xlink="http://www.w3.org/1999/xlink" x="0px" y="0px"
	 viewBox="0 0 205.5 284.6" style="enable-background:new 0 0 205.5 284.6;" xml:space="preserve">
<style type="text/css">
	.st0{fill:#F27D16;}
	.st1{fill:#4D4D4D;}
	.st2{fill:#FFFFFF;}
	.st3{fill:#F2F2F2;}
	.st4{fill:#F2CB05;}
	.st5{fill:#9450F2;}
	.st6{fill:#96D9C6;}
	.st7{fill:#3068D9;}
	.st8{clip-path:url(#SVGID_2_);}
	.st9{clip-path:url(#SVGID_2_);fill:#FFFFFF;}
	.st10{clip-path:url(#SVGID_4_);}
	.st11{clip-path:url(#SVGID_4_);fill:#FFFFFF;}
	.st12{clip-path:url(#SVGID_6_);}
	.st13{clip-path:url(#SVGID_6_);fill:#FFFFFF;}
	.st14{opacity:0.99;fill:#FFFFFF;}
	.st15{opacity:0.66;}
	.st16{fill:#FD9951;}
	.st17{fill:#F7DE65;}
	.st18{fill:#DBC1F7;}
	.st19{fill:#6A98E4;}
	.st20{fill:#CC5B00;}
	.st21{fill:#4B2477;}
	.st22{fill:#61A795;}
	.st23{fill:#365A51;}
	.st24{fill:#0A2C5C;}
	.st25{fill:#7496DE;}
	.st26{fill:#B2C4E4;}
	.st27{fill:#72A495;}
	.st28{fill:#F9C800;}
	.st29{fill:#106AE0;}
	.st30{clip-path:url(#SVGID_8_);}
	.st31{clip-path:url(#SVGID_8_);fill:#FFFFFF;}
	.st32{clip-path:url(#SVGID_10_);}
	.st33{clip-path:url(#SVGID_10_);fill:#FFFFFF;}
	.st34{clip-path:url(#SVGID_12_);}
	.st35{clip-path:url(#SVGID_12_);fill:#FFFFFF;}
</style>
<g>
	<g>
		<path class="st4" d="M52.2,84c-11.5,28.6,1.4,52-2.4,66c-3.8,14.1-32.1,33.4-5.1,60.6s69.7,28.9,92.5-1.3
			c27.9-37,9.1-115.2-19.5-140.2S59.6,65.8,52.2,84z M116.4,73.5c27,23.6,44.8,97.7,18.4,132.6c-21.6,28.6-61.4,26.3-87.5,1.2
			c-23.6-22.7,2.7-44.5,6.3-57.8c3.6-13.3-10-34.9,0.8-62C61.4,70.3,89.4,49.8,116.4,73.5z"/>
	</g>
	<g>
		<path class="st4" d="M151,161.7c5.7-5,25.5-17.7,29.3-18.2c3.8-0.5,10.3,4.4,16.2,5.5c5.9,1.1,9.9-6.7,8.8-10.7
			c-1.2-4.1-7.6-8.8-16.8-5.6c-9.2,3.2-37.6,21.7-37.6,21.7L151,161.7z"/>
	</g>
	<g>
		<path class="st4" d="M49.8,152.6c-4.7-6-21.9-22-25.5-23.2s-10.9,2.4-16.9,2.5c-6.1,0-8.5-8.4-6.7-12.1c1.9-3.8,9.1-7.3,17.6-2.5
			s33.1,28.1,33.1,28.1L49.8,152.6z"/>
	</g>
	<g>
		<path class="st4" d="M99.1,230c8.5,6.1,14,11.5,17.7,20.2c5.3,12.3,0,27.5,3.4,31.5c3.1,3.7,19.2,4.7,23.8-1.6
			c4.6-6.3,0.2-11.2-5.3-11c-4.1,0.2-6.2,0.8-8,1.3c-0.9,0.3-1.8-0.4-1.9-1.3c-0.4-5-2-16.2-7.2-24.6c-5.2-8.3-13.2-16.5-13.9-16.3
			C106.8,228.3,95.6,227.5,99.1,230z"/>
	</g>
	<g>
		<path class="st4" d="M73.9,226.5c-0.3,1.5-1.5,14.3-6.7,21.1c-7.8,10.3-15.5,11.2-23.8,4.9c-8.6-6.5-9.7-14-8.7-17.6
			c1-3.6,6.5-6.8,11.3-4.8s7.6,6.8,6,12.8c-1,3.9,4.7,12.4,10.4-1c2.4-5.6,3.7-16.7,4.5-18.1S74.6,223.2,73.9,226.5z"/>
	</g>
	<g>
		<g>
			<path class="st4" d="M79.2,110c1.1,0,2,0.8,2.1,1.8c1,7.6,7.6,13.5,15.5,13.3c7.9-0.1,14.3-6.1,15.1-13.8c0.1-1,1-1.8,2-1.9h0
				c1.3,0,2.3,1.1,2.1,2.3c-1,9.7-9.2,17.4-19.2,17.5s-18.4-7.3-19.7-16.9C76.9,111.1,77.9,110,79.2,110L79.2,110z"/>
		</g>
	</g>
	<g>
		<ellipse transform="matrix(0.2548 -0.967 0.967 0.2548 -17.4596 172.3246)" class="st4" cx="103.1" cy="97.5" rx="3.8" ry="2.8"/>
	</g>
	<g>
		<ellipse transform="matrix(0.2548 -0.967 0.967 0.2548 -27.3821 157.1964)" class="st4" cx="88.3" cy="96.4" rx="4" ry="3.5"/>
	</g>
</g>
<g>
	<path class="st7" d="M38.7,69.9c-17.6,32.9-5.2,73.9,27.7,91.5c32.9,17.6,73.9,5.2,91.5-27.7c17.6-32.9,5.2-73.9-27.7-91.5
		C97.3,24.6,56.3,37,38.7,69.9z M127.9,46.5c30.6,16.4,42,54.4,25.7,85c-16.4,30.6-54.4,42-85,25.7c-30.6-16.4-42-54.4-25.7-85
		C59.3,41.6,97.3,30.1,127.9,46.5z"/>
	
		<rect x="151.3" y="8.2" transform="matrix(-0.7977 -0.603 0.603 -0.7977 256.6126 151.9456)" class="st7" width="5" height="49.5"/>
	<rect x="40" y="7.2" transform="matrix(-0.8078 0.5895 -0.5895 -0.8078 95.6006 32.7757)" class="st7" width="5" height="49.5"/>
	<circle class="st7" cx="171.9" cy="9.6" r="7.2"/>
	<circle class="st7" cx="26" cy="7.7" r="7.2"/>
</g>
</svg>
