<?xml version="1.0" encoding="utf-8"?>
<!-- Generator: Adobe Illustrator 24.0.1, SVG Export Plug-In . SVG Version: 6.00 Build 0)  -->
<svg version="1.1" id="Layer_1" xmlns="http://www.w3.org/2000/svg" xmlns:xlink="http://www.w3.org/1999/xlink" x="0px" y="0px"
	 viewBox="0 0 206.9 285.6" style="enable-background:new 0 0 206.9 285.6;" xml:space="preserve">
<style type="text/css">
	.st0{fill:#F27D16;}
	.st1{fill:#4D4D4D;}
	.st2{fill:#FFFFFF;}
	.st3{fill:#F2F2F2;}
	.st4{fill:#F2CB05;}
	.st5{fill:#9450F2;}
	.st6{fill:#96D9C6;}
	.st7{fill:#3068D9;}
	.st8{clip-path:url(#SVGID_2_);}
	.st9{clip-path:url(#SVGID_2_);fill:#FFFFFF;}
	.st10{clip-path:url(#SVGID_4_);}
	.st11{clip-path:url(#SVGID_4_);fill:#FFFFFF;}
	.st12{clip-path:url(#SVGID_6_);}
	.st13{clip-path:url(#SVGID_6_);fill:#FFFFFF;}
	.st14{opacity:0.99;fill:#FFFFFF;}
	.st15{opacity:0.66;}
	.st16{fill:#FD9951;}
	.st17{fill:#F7DE65;}
	.st18{fill:#DBC1F7;}
	.st19{fill:#6A98E4;}
	.st20{fill:#CC5B00;}
	.st21{fill:#4B2477;}
	.st22{fill:#61A795;}
	.st23{fill:#365A51;}
	.st24{fill:#0A2C5C;}
	.st25{fill:#7496DE;}
	.st26{fill:#B2C4E4;}
	.st27{fill:#72A495;}
	.st28{fill:#F9C800;}
	.st29{fill:#106AE0;}
	.st30{clip-path:url(#SVGID_8_);}
	.st31{clip-path:url(#SVGID_8_);fill:#FFFFFF;}
	.st32{clip-path:url(#SVGID_10_);}
	.st33{clip-path:url(#SVGID_10_);fill:#FFFFFF;}
	.st34{clip-path:url(#SVGID_12_);}
	.st35{clip-path:url(#SVGID_12_);fill:#FFFFFF;}
</style>
<g>
	<g>
		<path class="st4" d="M98.4,75C66,94.9,34.3,168.9,55.6,210c17.4,33.6,59.9,39.1,91,16.9s6.6-46.1,5.2-60.6
			c-1.4-14.5,15.2-35.3,8.8-65.5C156.4,81.5,130.8,55.2,98.4,75z M157.8,103.9c6.1,28.5-11,47.5-9.6,61.2c1.3,13.7,23.6,39.6-3.5,58
			C114.7,243.4,75,239,58.5,207.2C38.4,168.3,68.4,98.3,99.1,79.5C129.7,60.8,153.9,85.7,157.8,103.9z"/>
	</g>
	<g>
		<path class="st4" d="M50.1,160.7c-4.8-5.9-22.2-21.7-25.8-22.9c-3.6-1.2-10.9,2.6-16.9,2.7s-8.6-8.3-6.9-12
			c1.8-3.9,9-7.4,17.5-2.7c8.5,4.7,33.4,27.7,33.4,27.7L50.1,160.7z"/>
	</g>
	<g>
		<path class="st4" d="M151.4,168.8c5.7-5.1,25.3-17.9,29.1-18.5c3.8-0.6,10.3,4.2,16.3,5.3s9.8-6.8,8.7-10.8
			c-1.2-4.1-7.7-8.7-16.9-5.4s-37.4,22.1-37.4,22.1L151.4,168.8z"/>
	</g>
	<g>
		<path class="st4" d="M89.8,236.7c-9.4,4.5-15.7,8.9-20.8,16.9c-7.3,11.2-4.6,27.1-8.7,30.5c-3.7,3.1-19.7,1.4-23.2-5.6
			s1.7-11.1,7.1-10c4,0.8,6,1.8,7.7,2.7c0.9,0.4,1.9-0.1,2.1-1c1.3-4.9,4.7-15.6,11.3-23c6.5-7.3,15.8-14,16.5-13.7
			C82.4,233.8,93.6,234.9,89.8,236.7z"/>
	</g>
	<g>
		<path class="st4" d="M115.2,237.5c0.1,1.5-0.9,14.3,3,21.9c5.9,11.5,13.4,13.6,22.6,8.9c9.6-5,11.9-12.2,11.5-15.8
			s-5.2-7.8-10.3-6.6c-5.1,1.2-8.6,5.5-8.1,11.6c0.4,4.1-6.7,11.4-10.1-2.7c-1.4-5.9-0.8-17.1-1.4-18.6
			C121.8,234.6,115,234.2,115.2,237.5z"/>
	</g>
	<g>
		<g>
			<path class="st4" d="M129.6,121.8c-1-0.2-2.1,0.4-2.4,1.4c-2.3,7.3-9.8,12-17.5,10.5c-7.7-1.4-13.1-8.5-12.5-16.1
				c0.1-1-0.7-2-1.7-2.2l0,0c-1.2-0.2-2.4,0.7-2.5,1.9c-0.6,9.8,6.1,18.7,16,20.5s19.4-4.1,22.3-13.4
				C131.6,123.3,130.9,122,129.6,121.8L129.6,121.8z"/>
		</g>
	</g>
	<g>
		
			<ellipse transform="matrix(0.9961 -8.808151e-02 8.808151e-02 0.9961 -8.87 9.9371)" class="st4" cx="108.2" cy="105.5" rx="2.8" ry="3.8"/>
	</g>
	<g>
		
			<ellipse transform="matrix(0.9961 -8.808151e-02 8.808151e-02 0.9961 -8.9343 11.242)" class="st4" cx="122.9" cy="106.9" rx="3.5" ry="4"/>
	</g>
</g>
<g>
	<path class="st7" d="M90.8,46.4c-35.4,11.8-54.5,50.1-42.7,85.5c11.8,35.4,50.1,54.5,85.5,42.7c35.4-11.8,54.5-50.1,42.7-85.5
		C164.5,53.7,126.2,34.6,90.8,46.4z M171.7,90.6c11,32.9-6.8,68.4-39.6,79.4c-32.9,11-68.4-6.8-79.4-39.6C41.7,97.5,59.4,62,92.3,51
		C125.2,40,160.7,57.8,171.7,90.6z"/>
	<rect x="66.6" y="8.6" transform="matrix(0.888 -0.4599 0.4599 0.888 -7.5766 35.4856)" class="st7" width="5" height="49.5"/>
	
		<rect x="176.5" y="26.4" transform="matrix(0.6969 0.7172 -0.7172 0.6969 90.9077 -112.8518)" class="st7" width="5" height="49.5"/>
	<circle class="st7" cx="55.1" cy="7.2" r="7.2"/>
	<circle class="st7" cx="199.2" cy="30" r="7.2"/>
</g>
</svg>
