<?xml version="1.0" encoding="utf-8"?>
<!-- Generator: Adobe Illustrator 24.0.1, SVG Export Plug-In . SVG Version: 6.00 Build 0)  -->
<svg version="1.1" id="Layer_1" xmlns="http://www.w3.org/2000/svg" xmlns:xlink="http://www.w3.org/1999/xlink" x="0px" y="0px"
	 viewBox="0 0 110.1 136.7" style="enable-background:new 0 0 110.1 136.7;" xml:space="preserve">
<style type="text/css">
	.st0{fill:#F27D16;}
	.st1{fill:#4D4D4D;}
	.st2{fill:#FFFFFF;}
	.st3{fill:#F2F2F2;}
	.st4{fill:#F2CB05;}
	.st5{fill:#9450F2;}
	.st6{fill:#96D9C6;}
	.st7{fill:#3068D9;}
	.st8{clip-path:url(#SVGID_2_);}
	.st9{clip-path:url(#SVGID_2_);fill:#FFFFFF;}
	.st10{clip-path:url(#SVGID_4_);}
	.st11{clip-path:url(#SVGID_4_);fill:#FFFFFF;}
	.st12{clip-path:url(#SVGID_6_);}
	.st13{clip-path:url(#SVGID_6_);fill:#FFFFFF;}
	.st14{opacity:0.99;fill:#FFFFFF;}
	.st15{opacity:0.66;}
	.st16{fill:#FD9951;}
	.st17{fill:#F7DE65;}
	.st18{fill:#DBC1F7;}
	.st19{fill:#6A98E4;}
	.st20{fill:#CC5B00;}
	.st21{fill:#4B2477;}
	.st22{fill:#61A795;}
	.st23{fill:#365A51;}
	.st24{fill:#0A2C5C;}
	.st25{fill:#7496DE;}
	.st26{fill:#B2C4E4;}
	.st27{fill:#72A495;}
	.st28{fill:#F9C800;}
	.st29{fill:#106AE0;}
	.st30{clip-path:url(#SVGID_8_);}
	.st31{clip-path:url(#SVGID_8_);fill:#FFFFFF;}
	.st32{clip-path:url(#SVGID_10_);}
	.st33{clip-path:url(#SVGID_10_);fill:#FFFFFF;}
	.st34{clip-path:url(#SVGID_12_);}
	.st35{clip-path:url(#SVGID_12_);fill:#FFFFFF;}
</style>
<g>
	<g id="Group_263">
		<g id="Group_260">
			<g id="Path_574">
				<path class="st6" d="M56.2,0C30.4,0,9.4,21,9.4,46.8s21,46.8,46.8,46.8s46.8-21,46.8-46.8v0C103,20.9,82,0,56.2,0z M56.2,85.1
					c-21.1,0-38.3-17.1-38.3-38.3S35,8.5,56.2,8.5s38.3,17.1,38.3,38.3c0,0,0,0,0,0l0,0C94.5,67.9,77.4,85,56.2,85.1L56.2,85.1z"/>
			</g>
		</g>
		<g id="Group_262">
			<g id="Group_261">
				<g id="Path_575">
					<path class="st6" d="M64.2,57.8c3,0,3,2.7,3,3.7v1.8c0,1.8,0,3.2-3.3,3.2h-19c-3.2,0-3.2-1.8-3.2-3.6v-3.6
						c0-1.8,2.5-3.4,6.2-7.2c2.2-2.1,4.1-4.4,5.7-6.9c1.8-2.9,2.4-4.9,2.4-9.3c0-2.5-1.2-4-2.6-4c-2,0-2.7,2.9-2.7,4.6
						c0,0.3,0.2,2.3,0.2,2.7c0,0.7-0.1,1.8-1.8,1.8h-5.3c-1.8,0-1.8-1.4-1.8-2.7v-2.2c0-2.2,0.3-6.1,2-8.5c2.6-3.7,6.8-3.8,10.2-3.8
						c2.7,0,6,0.2,8.4,2c3,2.2,4.4,6.9,4.4,10.7s-0.2,8.2-3.5,12.1c-4.4,5.3-9.2,8.8-9.2,9.2c0,0.2,0.1,0.2,0.2,0.2
						c1,0,3.8-0.1,4.8-0.1C59.7,57.9,63.2,57.8,64.2,57.8z"/>
				</g>
			</g>
		</g>
	</g>
	<g id="Revisions">
		<g>
			<g>
				<path class="st6" d="M7.9,114.5c4.6,0,5.9,3.3,5.9,7c0,2.2,0,3.7-1.8,5.2c-0.9,0.8-1.4,0.3-1.4,1.5c0,1.2,0.4,2.8,1.4,2.8
					c0.3,0,0.7-0.1,1-0.1c1,0,1.1,0.8,1.1,2.3c0,0.7,0,1.5,0,2.4c0,0.6-0.2,1.2-1.9,1.2c-2.8,0-4.3-2.1-4.9-4.4
					c-0.8-2.9-1.7-3.4-1.9-3.4s-0.2,0.5-0.2,0.8v4.4c0,1.2,0,2.5-1.9,2.5H1.2c-1.2,0-1.2-1.3-1.2-2.5V117c0-1.2,0-2.5,1.9-2.5
					L7.9,114.5z M5.2,120c0,0.4,0,1.1,0,1.8s0,1.2,0,1.6c0,1,0.2,1.2,1.4,1.2c1.4,0,1.7-1.4,1.7-2.8s-0.3-3.1-1.7-3.1
					C5.4,118.7,5.2,118.9,5.2,120z"/>
			</g>
			<g>
				<path class="st6" d="M20.3,130.9c0.1,0.6,0.7,1.1,1.3,1c1.8,0,2.4-0.1,3-0.1c1.3,0,1.7,0.4,1.7,1.3v2.2c0,0.9-0.3,1.2-1.2,1.2
					h-8.2c-1.9,0-1.9-1.9-1.9-2.5v-17c0-1.2,0-2.5,1.9-2.5h8c0.8,0,1.5,0.3,1.5,0.9v2.6c0,0.8-0.6,0.8-1.4,0.8c-1.2,0-2.2-0.1-3-0.1
					c-1.7,0-1.7,0.6-1.7,1.6c0,2,0,2.5,1.5,2.5c1.9,0,2.2-0.1,2.9-0.1c1.1,0,1.1,1.1,1.1,1.4v2c0,0.9-0.6,1-1.4,1
					c-1.6,0-2.6-0.1-3.2-0.1c-1,0-1,0.4-1,1.5L20.3,130.9z"/>
			</g>
			<g>
				<path class="st6" d="M38.7,114.5h1.2c1.3,0,2.1,0.2,2.1,1.4c0,1-0.8,4.7-3.4,18.2c-0.3,1.6-0.9,2.5-2.2,2.5h-3.9
					c-1.2,0-1.9-0.9-2.1-2.5c-2.4-13.5-3.2-17.2-3.2-18.2c0-1.3,0.8-1.4,2.3-1.4h1.3c1.6,0,2,0.5,2.5,5.4c0.9,8.2,1,11.2,1.5,11.2
					c0.4,0,0.6-3,1-6.5C37,115.2,36.6,114.5,38.7,114.5z"/>
			</g>
			<g>
				<path class="st6" d="M48.1,134.1c0,1.2,0,2.5-1.9,2.5h-1.5c-1.9,0-1.9-1.2-1.9-2.5V117c0-1.2,0-2.5,1.9-2.5h1.5
					c1.9,0,1.9,1.2,1.9,2.5V134.1z"/>
			</g>
			<g>
				<path class="st6" d="M55.7,114.4c2.6,0,4.3,0.5,4.3,1.3v2.4c0,0.3-0.1,0.9-1.2,0.9h-0.2c-0.5,0-1.6-0.3-2.5-0.3
					c-0.8,0-1.3,0.2-1.3,1.2s0.3,1.5,1.5,2.4c3.7,3,4.4,5.2,4.4,7.7c0.1,1.4-0.2,2.7-0.8,3.9c-0.8,1.1-2,2-3.3,2.3
					c-1,0.2-2,0.3-3,0.3c-2.3,0-4.5-0.4-4.5-1.7v-2.4c0-0.4,0.3-0.8,1.1-0.8c1.1,0.2,2.2,0.4,3.3,0.5c0.9,0,2-0.7,2-1.6
					c0-0.7,0-1.2-1.9-3.1c-2.9-2.8-4.2-4.1-4.2-6.7C49.3,114.8,53.2,114.4,55.7,114.4z"/>
			</g>
			<g>
				<path class="st6" d="M66.8,134.1c0,1.2,0,2.5-1.9,2.5h-1.5c-1.9,0-1.9-1.2-1.9-2.5V117c0-1.2,0-2.5,1.9-2.5h1.6
					c1.9,0,1.9,1.2,1.9,2.5L66.8,134.1z"/>
			</g>
			<g>
				<path class="st6" d="M67.8,123c0-5,0.5-8.7,7-8.7c6.2,0,6.7,3.6,6.7,8.5c0,1.9,0.1,3.7,0.1,5.3c0,4.9-0.8,8.5-6.8,8.5
					c-6.5,0-7-3.7-7-8.6c0-0.8,0-1.7,0-2.6S67.8,123.8,67.8,123z M73.1,120.4v9.8c0,0.9,0,2.2,1.6,2.2s1.6-1.2,1.6-2.2v-9.8
					c0-0.8,0-1.7-1.6-1.7S73.1,119.6,73.1,120.4L73.1,120.4z"/>
			</g>
			<g>
				<path class="st6" d="M92.1,124.4c0.1,0,0.2-0.1,0.2-0.3V117c0-1.2,0-2.5,1.9-2.5h1.6c1.9,0,1.9,1.2,1.9,2.5v17
					c0,1.2,0,2.5-1.9,2.5c-2.8,0-3-0.5-3.4-1.4l-4.1-9c-0.1-0.2-0.2-0.3-0.2-0.3s-0.1,0.1-0.1,0.3v7.9c0,1.2,0,2.5-1.9,2.5h-1.5
					c-1.9,0-1.9-1.2-1.9-2.5v-17c0-1.2,0-2.5,1.9-2.5H86c1,0,1.4,0.1,1.8,1.1l4,8.5C91.9,124.4,92,124.4,92.1,124.4z"/>
			</g>
			<g>
				<path class="st6" d="M105.1,114.4c2.6,0,4.3,0.5,4.3,1.3v2.4c0,0.3-0.1,0.9-1.2,0.9H108c-0.5,0-1.6-0.3-2.5-0.3
					c-0.7,0-1.3,0.2-1.3,1.2s0.3,1.5,1.5,2.4c3.7,3,4.4,5.2,4.4,7.7c0.1,1.4-0.2,2.7-0.8,3.9c-0.8,1.1-2,2-3.3,2.3
					c-1,0.2-2,0.3-3,0.3c-2.3,0-4.5-0.4-4.5-1.7v-2.4c0-0.4,0.3-0.8,1.2-0.8c1.1,0.2,2.2,0.4,3.2,0.5c0.9,0,2-0.7,2-1.6
					c0-0.7,0-1.2-1.9-3.1c-2.9-2.8-4.2-4.1-4.2-6.7C98.7,114.8,102.6,114.4,105.1,114.4z"/>
			</g>
		</g>
	</g>
</g>
</svg>
