<?xml version="1.0" encoding="utf-8"?>
<!-- Generator: Adobe Illustrator 24.0.1, SVG Export Plug-In . SVG Version: 6.00 Build 0)  -->
<svg version="1.1" id="Layer_1" xmlns="http://www.w3.org/2000/svg" xmlns:xlink="http://www.w3.org/1999/xlink" x="0px" y="0px"
	 viewBox="0 0 115.7 133.6" style="enable-background:new 0 0 115.7 133.6;" xml:space="preserve">
<style type="text/css">
	.st0{fill:#F27D16;}
	.st1{fill:#4D4D4D;}
	.st2{fill:#FFFFFF;}
	.st3{fill:#F2F2F2;}
	.st4{fill:#F2CB05;}
	.st5{fill:#9450F2;}
	.st6{fill:#96D9C6;}
	.st7{fill:#3068D9;}
	.st8{clip-path:url(#SVGID_2_);}
	.st9{clip-path:url(#SVGID_2_);fill:#FFFFFF;}
	.st10{clip-path:url(#SVGID_4_);}
	.st11{clip-path:url(#SVGID_4_);fill:#FFFFFF;}
	.st12{clip-path:url(#SVGID_6_);}
	.st13{clip-path:url(#SVGID_6_);fill:#FFFFFF;}
	.st14{opacity:0.99;fill:#FFFFFF;}
	.st15{opacity:0.66;}
	.st16{fill:#FD9951;}
	.st17{fill:#F7DE65;}
	.st18{fill:#DBC1F7;}
	.st19{fill:#6A98E4;}
	.st20{fill:#CC5B00;}
	.st21{fill:#4B2477;}
	.st22{fill:#61A795;}
	.st23{fill:#365A51;}
	.st24{fill:#0A2C5C;}
	.st25{fill:#7496DE;}
	.st26{fill:#B2C4E4;}
	.st27{fill:#72A495;}
	.st28{fill:#F9C800;}
	.st29{fill:#106AE0;}
	.st30{clip-path:url(#SVGID_8_);}
	.st31{clip-path:url(#SVGID_8_);fill:#FFFFFF;}
	.st32{clip-path:url(#SVGID_10_);}
	.st33{clip-path:url(#SVGID_10_);fill:#FFFFFF;}
	.st34{clip-path:url(#SVGID_12_);}
	.st35{clip-path:url(#SVGID_12_);fill:#FFFFFF;}
</style>
<g>
	<g id="Group_267">
		<g id="Path_576">
			<path class="st4" d="M58.7,0C32.9,0,12,21,12,46.8s21,46.7,46.8,46.7c25.8,0,46.7-21,46.7-46.8C105.5,20.9,84.6,0,58.7,0L58.7,0z
				 M58.7,85.1c-21.1,0-38.3-17.1-38.3-38.3S37.6,8.5,58.7,8.5S97,25.6,97,46.8c0,0,0,0,0,0l0,0C97,67.9,79.9,85,58.7,85.1
				L58.7,85.1z"/>
		</g>
		<g id="Group_266">
			<g id="Group_265">
				<g id="Path_577">
					<path class="st4" d="M53.8,40.5c4.3,0,4.9-2.5,4.9-4.1c0-1.3-0.1-4.5-4.1-4.5c-1.4,0-2.7,0.6-3.5,1.8c-1,1.1-1.3,1.7-2,1.7
						c-0.6-0.1-1.1-0.4-1.5-0.9l-2.2-1.8c-0.6-0.5-1.3-1-1.3-1.8c0-0.5,0.2-1,0.5-1.4c3.7-5.1,7-6,12.6-6c3.2,0,7.6,1.1,9.6,4.1
						c1.1,1.6,1.7,3.6,1.8,5.6c0,7.6-3.6,9-3.6,9.8c0,0.6,1.1,1.3,1.7,1.7c3.5,2.7,3.5,6.4,3.5,9c0,8.3-4.5,12.9-14.9,12.9
						c-4.2,0-6.2-0.6-8.4-1.8c-0.9-0.5-3.7-3-3.7-4.5c0-0.7,0.4-1.3,1.3-2.2l2.7-2.6c0.3-0.4,0.8-0.6,1.3-0.6c0.4,0,0.8,0.2,1.1,0.5
						c1.4,1.8,3.6,2.8,5.8,2.8c3.5,0,4.7-2,4.7-4.6c0-3.7-1.6-5.2-5.4-5.2c-0.6,0.1-1.2,0.1-1.8,0.2c-1.5,0-1.7-2.1-1.7-3.7v-0.6
						c0-1.7,0.1-3.7,1.9-3.7L53.8,40.5z"/>
				</g>
			</g>
		</g>
	</g>
	<g id="Approval">
		<g>
			<g>
				<path class="st4" d="M15.5,131.9c0,1.4-1,1.6-2.7,1.6h-1.6c-1.9,0-1-4.6-2.2-4.6H6.4c-1.2,0-0.5,4.6-2.4,4.6H2.6
					c-1.6,0-2.6-0.1-2.6-1.6c0-1.9,0.7-3.5,3.2-18c0.2-1.6,0.9-2.5,2.1-2.5h4.8c1.2,0,1.9,0.9,2.2,2.5
					C14.3,126.6,15.5,130,15.5,131.9z M6.5,123.6c0,0.5,0.2,0.5,1.2,0.5s1.2,0,1.2-0.5c0-0.2,0-0.3,0-0.5c-0.4-3-0.5-6.8-1.2-6.8
					s-0.9,3.7-1.2,6.8C6.5,123.3,6.5,123.5,6.5,123.6L6.5,123.6z"/>
			</g>
			<g>
				<path class="st4" d="M21.6,126.4v4.6c0,1.2,0,2.5-1.9,2.5h-1.5c-1.9,0-1.9-1.2-1.9-2.5v-17.1c0-1.2,0-2.5,1.9-2.5H25
					c3.4,0,5.2,2.7,5.2,7.1c0,1.7-0.4,3.4-1,5c-1,2.1-3.9,2.4-5.7,2.4c-0.4,0-0.8,0-1.1-0.1C21.7,125.9,21.6,126.1,21.6,126.4z
					 M21.6,117.1c0,0.4,0,0.9,0,1.6s0,1.2,0,1.6c0,1,0.2,1.2,1.4,1.2c1.6,0,1.7-1.4,1.7-2.8s-0.3-3.1-1.7-3.1
					C21.8,115.6,21.6,116,21.6,117.1L21.6,117.1z"/>
			</g>
			<g>
				<path class="st4" d="M36.2,126.4v4.6c0,1.2,0,2.5-1.9,2.5h-1.5c-1.9,0-1.9-1.2-1.9-2.5v-17.1c0-1.2,0-2.5,1.9-2.5h6.7
					c3.3,0,5.2,2.7,5.2,7.1c0,1.7-0.4,3.4-1,5c-1,2.1-3.9,2.4-5.7,2.4c-0.4,0-0.8,0-1.2-0.1C36.2,125.9,36.2,126.1,36.2,126.4z
					 M36.2,117.1c0,0.4,0,0.9,0,1.6s0,1.2,0,1.6c0,1,0.2,1.2,1.4,1.2c1.7,0,1.7-1.4,1.7-2.8s-0.3-3.1-1.7-3.1
					C36.4,115.6,36.2,116,36.2,117.1L36.2,117.1z"/>
			</g>
			<g>
				<path class="st4" d="M53.4,111.4c4.6,0,5.9,3.3,5.9,7c0,2.2,0,3.7-1.8,5.2c-0.9,0.7-1.4,0.3-1.4,1.5s0.4,2.8,1.4,2.8
					c0.3,0,0.7-0.1,1-0.2c1,0,1.2,0.8,1.2,2.3c0,0.7,0,1.5,0,2.4c0,0.6-0.2,1.2-1.9,1.2c-2.9,0-4.3-2.1-4.9-4.4
					c-0.8-2.9-1.7-3.4-1.9-3.4s-0.2,0.5-0.2,0.7v4.4c0,1.2,0,2.5-1.9,2.5h-2.2c-1.2,0-1.2-1.2-1.2-2.5v-17.1c0-1.2,0-2.5,1.9-2.5
					H53.4z M50.8,117c0,0.4,0,1.1,0,1.8s0,1.2,0,1.6c0,1,0.2,1.2,1.4,1.2c1.4,0,1.7-1.4,1.7-2.8s-0.3-3.1-1.7-3.1
					C50.9,115.6,50.8,115.8,50.8,117z"/>
			</g>
			<g>
				<path class="st4" d="M60.4,119.9c0-5,0.5-8.7,7-8.7c6.2,0,6.7,3.6,6.7,8.5c0,1.9,0.1,3.7,0.1,5.3c0,4.9-0.8,8.5-6.8,8.5
					c-6.5,0-7-3.7-7-8.6c0-0.8,0-1.7,0-2.5S60.4,120.7,60.4,119.9z M65.7,117.3v9.8c0,0.9,0,2.2,1.6,2.2s1.6-1.2,1.6-2.2v-9.8
					c0-0.8,0-1.7-1.6-1.7S65.7,116.6,65.7,117.3z"/>
			</g>
			<g>
				<path class="st4" d="M86.4,111.4h1.2c1.3,0,2.1,0.2,2.1,1.4c0,1-0.8,4.7-3.4,18.2c-0.3,1.6-0.9,2.5-2.2,2.5h-3.9
					c-1.2,0-1.9-0.9-2.1-2.5c-2.4-13.5-3.2-17.2-3.2-18.2c0-1.3,0.8-1.4,2.3-1.4h1.3c1.6,0,2,0.5,2.5,5.5c0.9,8.2,1,11.2,1.5,11.2
					c0.4,0,0.6-3,1-6.5C84.7,112.1,84.4,111.4,86.4,111.4z"/>
			</g>
			<g>
				<path class="st4" d="M104,131.9c0,1.4-1,1.6-2.7,1.6h-1.6c-1.9,0-1-4.6-2.2-4.6H95c-1.2,0-0.5,4.6-2.4,4.6h-1.5
					c-1.6,0-2.6-0.1-2.6-1.6c0-1.9,0.7-3.5,3.2-18c0.2-1.6,0.9-2.5,2.1-2.5h4.8c1.2,0,1.9,0.9,2.2,2.5
					C102.9,126.6,104,130,104,131.9z M95,123.6c0,0.5,0.2,0.5,1.2,0.5s1.2,0,1.2-0.5c0-0.2,0-0.3,0-0.5c-0.4-3-0.5-6.8-1.2-6.8
					s-0.9,3.7-1.2,6.8C95,123.3,95,123.5,95,123.6z"/>
			</g>
			<g>
				<path class="st4" d="M114.2,129c1.3,0,1.5,0.7,1.5,1.6v0.4c0,1.2,0,2.5-1.9,2.5h-7c-1.9,0-1.9-1.2-1.9-2.5v-17.1
					c0-1.2,0-2.5,1.9-2.5h1.6c1.9,0,1.9,1.2,1.9,2.5v13.4c0,0.7,0,1.7,1,1.7C112.8,129,113.6,129,114.2,129z"/>
			</g>
		</g>
	</g>
</g>
</svg>
