<?xml version="1.0" encoding="utf-8"?>
<!-- Generator: Adobe Illustrator 24.0.1, SVG Export Plug-In . SVG Version: 6.00 Build 0)  -->
<svg version="1.1" id="Layer_1" xmlns="http://www.w3.org/2000/svg" xmlns:xlink="http://www.w3.org/1999/xlink" x="0px" y="0px"
	 viewBox="0 0 128.7 132.5" style="enable-background:new 0 0 128.7 132.5;" xml:space="preserve">
<style type="text/css">
	.st0{fill:#F27D16;}
	.st1{fill:#4D4D4D;}
	.st2{fill:#FFFFFF;}
	.st3{fill:#F2F2F2;}
	.st4{fill:#F2CB05;}
	.st5{fill:#9450F2;}
	.st6{fill:#96D9C6;}
	.st7{fill:#3068D9;}
	.st8{clip-path:url(#SVGID_2_);}
	.st9{clip-path:url(#SVGID_2_);fill:#FFFFFF;}
	.st10{clip-path:url(#SVGID_4_);}
	.st11{clip-path:url(#SVGID_4_);fill:#FFFFFF;}
	.st12{clip-path:url(#SVGID_6_);}
	.st13{clip-path:url(#SVGID_6_);fill:#FFFFFF;}
	.st14{opacity:0.99;fill:#FFFFFF;}
	.st15{opacity:0.66;}
	.st16{fill:#FD9951;}
	.st17{fill:#F7DE65;}
	.st18{fill:#DBC1F7;}
	.st19{fill:#6A98E4;}
	.st20{fill:#CC5B00;}
	.st21{fill:#4B2477;}
	.st22{fill:#61A795;}
	.st23{fill:#365A51;}
	.st24{fill:#0A2C5C;}
	.st25{fill:#7496DE;}
	.st26{fill:#B2C4E4;}
	.st27{fill:#72A495;}
	.st28{fill:#F9C800;}
	.st29{fill:#106AE0;}
	.st30{clip-path:url(#SVGID_8_);}
	.st31{clip-path:url(#SVGID_8_);fill:#FFFFFF;}
	.st32{clip-path:url(#SVGID_10_);}
	.st33{clip-path:url(#SVGID_10_);fill:#FFFFFF;}
	.st34{clip-path:url(#SVGID_12_);}
	.st35{clip-path:url(#SVGID_12_);fill:#FFFFFF;}
</style>
<g>
	<g id="Group_258">
		<g id="Group_255">
			<g id="Path_572">
				<path class="st5" d="M66.3,0C40.5,0,19.6,20.9,19.6,46.6s20.9,46.6,46.6,46.6s46.6-20.9,46.6-46.6l0,0l0,0
					C112.9,20.9,92.1,0,66.3,0C66.3,0,66.3,0,66.3,0L66.3,0z M66.3,84.8c-21.1,0-38.2-17.1-38.2-38.2S45.2,8.5,66.3,8.5
					s38.2,17.1,38.2,38.2l0,0C104.4,67.7,87.4,84.8,66.3,84.8C66.3,84.8,66.3,84.8,66.3,84.8L66.3,84.8z"/>
			</g>
		</g>
		<g id="Group_257">
			<g id="Group_256">
				<g id="Path_573">
					<path class="st5" d="M64.2,37.9v-0.8c0-0.8-0.1-1.6-0.3-1.6c-0.4,0-3.2,2.4-4,2.9c-0.4,0.4-0.9,0.6-1.4,0.6
						c-1.3,0-4.4-3.1-4.4-4.7s2.5-2.2,7.7-8.2l0.2-0.3c2.1-2.4,2.3-2.6,6.1-2.6h3.4c3,0,3,2.4,3,4.8v33.9c0,1.7,0,3.6-3.7,3.6h-3.2
						c-3.6,0-3.6-1.8-3.6-3.6v-24L64.2,37.9z"/>
				</g>
			</g>
		</g>
	</g>
	<g id="Submission">
		<g>
			<g>
				<path class="st5" d="M6.7,110.2c2.6,0,4.3,0.5,4.3,1.3v2.4c0,0.3-0.1,0.9-1.2,0.9H9.6c-0.5,0-1.6-0.3-2.5-0.3s-1.3,0.2-1.3,1.2
					s0.3,1.5,1.5,2.4c3.7,3,4.4,5.2,4.4,7.7c0.1,1.4-0.2,2.7-0.8,3.9c-0.8,1.1-2,2-3.3,2.3c-1,0.2-2,0.3-3,0.3
					c-2.3,0-4.5-0.5-4.5-1.7v-2.4c0-0.4,0.3-0.7,1.1-0.7c1.1,0.2,2.2,0.4,3.2,0.5c0.9,0,2-0.7,2-1.7c0-0.7,0-1.2-1.9-3.1
					c-2.9-2.8-4.2-4.1-4.2-6.7C0.3,110.6,4.2,110.2,6.7,110.2z"/>
			</g>
			<g>
				<path class="st5" d="M26.1,126c0,3.8-0.4,6.4-6.7,6.4c-6.5,0-7-2.6-7-6.7c0-9.8,0-13,0-13c0-1.2,0-2.5,1.9-2.5h1.6
					c1.9,0,1.9,1.2,1.9,2.5v13.6c0,0.9,0,1.7,1.7,1.7c1.4,0,1.4-0.8,1.4-1.7v-13.7c0-1.2,0-2.4,1.9-2.4h1.5c1.9,0,1.9,1.2,1.9,2.4
					L26.1,126z"/>
			</g>
			<g>
				<path class="st5" d="M38.5,120.5c0,0.1,0,0.1,0.1,0.2c2.2,0.8,3,3.2,3,5.4c0,1.2-0.3,2.4-0.8,3.4c-1.5,2.8-2.8,2.9-4.8,2.9H29
					c-1.9,0-1.9-1.2-1.9-2.5v-17c0-1.2,0-2.5,1.9-2.5h6.7c4,0,5.3,2.7,5.3,5.5c0.1,1.9-0.9,3.6-2.5,4.6
					C38.5,120.4,38.5,120.5,38.5,120.5z M32.5,116.6c0,1.6,0,2.1,1.5,2.1c1.2,0,1.5-1,1.5-2.1s-0.3-2.1-1.5-2.1
					C32.5,114.5,32.5,115.1,32.5,116.6L32.5,116.6z M32.5,125.3c0,1.9,0,2.8,1.7,2.8s1.7-1.4,1.7-2.8s0-2.7-1.7-2.7
					S32.5,123.5,32.5,125.3L32.5,125.3z"/>
			</g>
			<g>
				<path class="st5" d="M54.5,112c0.7-1.6,1.4-1.7,2.5-1.7h1.7c1.9,0,1.9,1.2,1.9,2.5v17c0,1.2,0,2.5-1.9,2.5h-1.5
					c-1.9,0-1.9-1.2-1.9-2.5v-8.5c0-0.2-0.1-0.3-0.2-0.3s-0.2,0.1-0.3,0.3c-2.2,4.4-2.3,5.4-3.3,5.4s-1.1-1-3.3-5.4
					c-0.1-0.2-0.2-0.3-0.3-0.3s-0.2,0.1-0.2,0.3v8.5c0,1.2,0,2.5-1.9,2.5h-1.5c-1.9,0-1.9-1.2-1.9-2.5v-17c0-1.2,0-2.5,1.9-2.5h1.6
					c1.2-0.2,2.3,0.6,2.5,1.7l2.4,5.5c0.2,0.6,0.4,0.9,0.6,0.9s0.4-0.3,0.6-0.9L54.5,112z"/>
			</g>
			<g>
				<path class="st5" d="M67,129.8c0,1.2,0,2.5-1.9,2.5h-1.6c-1.9,0-1.9-1.2-1.9-2.5v-17c0-1.2,0-2.5,1.9-2.5h1.5
					c1.9,0,1.9,1.2,1.9,2.5L67,129.8z"/>
			</g>
			<g>
				<path class="st5" d="M74.5,110.2c2.6,0,4.3,0.5,4.3,1.3v2.4c0,0.3-0.1,0.9-1.2,0.9h-0.2c-0.5,0-1.6-0.3-2.5-0.3
					s-1.3,0.2-1.3,1.2s0.3,1.5,1.5,2.4c3.7,3,4.4,5.2,4.4,7.7c0.1,1.4-0.2,2.7-0.8,3.9c-0.8,1.1-2,2-3.3,2.3c-1,0.2-2,0.3-3,0.3
					c-2.3,0-4.5-0.4-4.5-1.7v-2.4c0-0.4,0.3-0.7,1.1-0.7c1.1,0.2,2.2,0.4,3.3,0.5c0.9,0,2-0.7,2-1.7c0-0.7,0-1.2-1.9-3.1
					c-2.9-2.8-4.2-4.1-4.2-6.7C68.1,110.6,72,110.2,74.5,110.2z"/>
			</g>
			<g>
				<path class="st5" d="M86.8,110.2c2.6,0,4.3,0.5,4.3,1.3v2.4c0,0.3-0.1,0.9-1.2,0.9h-0.2c-0.5,0-1.6-0.3-2.5-0.3
					c-0.7,0-1.3,0.2-1.3,1.2s0.3,1.5,1.5,2.4c3.7,3,4.4,5.2,4.4,7.7c0.1,1.4-0.2,2.7-0.8,3.9c-0.8,1.1-2,2-3.3,2.3
					c-1,0.2-2,0.3-3,0.3c-2.3,0-4.5-0.4-4.5-1.7v-2.4c0-0.4,0.3-0.7,1.2-0.7c1.1,0.2,2.2,0.4,3.3,0.5c0.9,0,2-0.7,2-1.7
					c0-0.7,0-1.2-1.9-3.1c-2.9-2.8-4.2-4.1-4.2-6.7C80.4,110.6,84.3,110.2,86.8,110.2z"/>
			</g>
			<g>
				<path class="st5" d="M97.9,129.8c0,1.2,0,2.5-1.9,2.5h-1.6c-1.9,0-1.9-1.2-1.9-2.5v-17c0-1.2,0-2.5,1.9-2.5H96
					c1.9,0,1.9,1.2,1.9,2.5L97.9,129.8z"/>
			</g>
			<g>
				<path class="st5" d="M98.9,118.8c0-5,0.5-8.7,7-8.7c6.2,0,6.7,3.6,6.7,8.5c0,1.9,0.1,3.7,0.1,5.3c0,4.9-0.8,8.5-6.8,8.5
					c-6.6,0-7-3.7-7-8.6c0-0.8,0-1.7,0-2.6S98.9,119.6,98.9,118.8z M104.2,116.2v9.8c0,0.9,0,2.2,1.6,2.2s1.6-1.2,1.6-2.2v-9.8
					c0-0.8,0-1.7-1.6-1.7S104.2,115.4,104.2,116.2z"/>
			</g>
			<g>
				<path class="st5" d="M123.2,120.2c0.1,0,0.2-0.1,0.2-0.3v-7.1c0-1.2,0-2.5,1.9-2.5h1.6c1.9,0,1.9,1.2,1.9,2.5v17
					c0,1.2,0,2.5-1.9,2.5c-2.8,0-3-0.5-3.4-1.4l-4.1-9c-0.1-0.2-0.2-0.3-0.2-0.3s-0.1,0.1-0.1,0.3v7.9c0,1.2,0,2.5-1.9,2.5h-1.6
					c-1.9,0-1.9-1.2-1.9-2.5v-17c0-1.2,0-2.5,1.9-2.5h1.7c1,0,1.4,0.1,1.8,1.1l4,8.5C123,120.1,123.1,120.2,123.2,120.2z"/>
			</g>
		</g>
	</g>
</g>
</svg>
