<?xml version="1.0" encoding="utf-8"?>
<!-- Generator: Adobe Illustrator 24.0.1, SVG Export Plug-In . SVG Version: 6.00 Build 0)  -->
<svg version="1.1" id="Layer_1" xmlns="http://www.w3.org/2000/svg" xmlns:xlink="http://www.w3.org/1999/xlink" x="0px" y="0px"
	 viewBox="0 0 236.8 325.2" style="enable-background:new 0 0 236.8 325.2;" xml:space="preserve">
<style type="text/css">
	.st0{fill:#F27D16;}
	.st1{fill:#4D4D4D;}
	.st2{fill:#FFFFFF;}
	.st3{fill:#F2F2F2;}
	.st4{fill:#F2CB05;}
	.st5{fill:#9450F2;}
	.st6{fill:#96D9C6;}
	.st7{fill:#3068D9;}
	.st8{clip-path:url(#SVGID_2_);}
	.st9{clip-path:url(#SVGID_2_);fill:#FFFFFF;}
	.st10{clip-path:url(#SVGID_4_);}
	.st11{clip-path:url(#SVGID_4_);fill:#FFFFFF;}
	.st12{clip-path:url(#SVGID_6_);}
	.st13{clip-path:url(#SVGID_6_);fill:#FFFFFF;}
	.st14{opacity:0.99;fill:#FFFFFF;}
	.st15{opacity:0.66;}
	.st16{fill:#FD9951;}
	.st17{fill:#F7DE65;}
	.st18{fill:#DBC1F7;}
	.st19{fill:#6A98E4;}
	.st20{fill:#CC5B00;}
	.st21{fill:#4B2477;}
	.st22{fill:#61A795;}
	.st23{fill:#365A51;}
	.st24{fill:#0A2C5C;}
	.st25{fill:#7496DE;}
	.st26{fill:#B2C4E4;}
	.st27{fill:#72A495;}
	.st28{fill:#F9C800;}
	.st29{fill:#106AE0;}
	.st30{clip-path:url(#SVGID_8_);}
	.st31{clip-path:url(#SVGID_8_);fill:#FFFFFF;}
	.st32{clip-path:url(#SVGID_10_);}
	.st33{clip-path:url(#SVGID_10_);fill:#FFFFFF;}
	.st34{clip-path:url(#SVGID_12_);}
	.st35{clip-path:url(#SVGID_12_);fill:#FFFFFF;}
</style>
<g>
	<g>
		<defs>
			<path id="SVGID_1_" d="M169.3,224.6c7.2,18.7,17.3,55.4,9.8,61c-7.6,5.6-46.7-2.1-49.8-7.2c-5.6-9.1,5.2-5.5,22-20
				C168.1,243.9,167.9,221,169.3,224.6z"/>
		</defs>
		<clipPath id="SVGID_2_">
			<use xlink:href="#SVGID_1_"  style="overflow:visible;"/>
		</clipPath>
		<g class="st8">
			<path class="st5" d="M169.3,224.6c7.2,18.7,17.3,55.4,9.8,61c-7.6,5.6-46.7-2.1-49.8-7.2c-5.6-9.1,5.2-5.5,22-20
				C168.1,243.9,167.9,221,169.3,224.6z"/>
		</g>
		<path class="st9" d="M174.8,246.3c-0.2,0.3-0.4,0.5-0.7,0.7c-1,0.8-2,1.7-3,2.5c-0.3,0.2-0.4,0.5-0.3,0.9c0.1,1.4,0.3,2.8,0.4,4.2
			c0,0.4-0.1,0.8-0.5,1c-0.4,0.2-0.7,0.1-1.1-0.1c-1.2-0.7-2.4-1.5-3.6-2.2c-0.3-0.2-0.7-0.2-1.1-0.1c-1.3,0.6-2.6,1.1-3.9,1.6
			c-0.4,0.2-0.7,0.2-1-0.1c-0.4-0.3-0.4-0.7-0.3-1.1c0.3-1.4,0.7-2.7,1-4c0.1-0.4,0.1-0.7-0.2-1c-0.9-1.1-1.9-2.2-2.8-3.3
			c-0.3-0.3-0.3-0.6-0.2-1c0.1-0.4,0.4-0.6,0.8-0.6c1.5-0.1,3-0.2,4.4-0.3c0.3,0,0.6-0.2,0.7-0.4c0.7-1.2,1.4-2.4,2.1-3.6
			c0.4-0.7,1-0.9,1.5-0.5c0.2,0.2,0.3,0.4,0.4,0.6c0.5,1.3,1,2.6,1.5,3.8c0.2,0.4,0.5,0.6,0.9,0.7c1.3,0.3,2.6,0.6,3.9,0.9
			c0.5,0.1,0.7,0.3,0.9,0.8C174.8,246,174.8,246.1,174.8,246.3z"/>
		<path class="st9" d="M159.2,272.1c-0.2,0.3-0.4,0.5-0.7,0.7c-1,0.8-2,1.7-3,2.5c-0.3,0.2-0.4,0.5-0.3,0.9c0.1,1.4,0.3,2.8,0.4,4.2
			c0,0.4-0.1,0.8-0.5,1c-0.4,0.2-0.7,0.1-1.1-0.1c-1.2-0.7-2.4-1.5-3.6-2.2c-0.3-0.2-0.7-0.2-1.1-0.1c-1.3,0.6-2.6,1.1-3.9,1.6
			c-0.4,0.2-0.7,0.2-1-0.1c-0.4-0.3-0.4-0.7-0.3-1.1c0.3-1.4,0.7-2.7,1-4c0.1-0.4,0.1-0.7-0.2-1c-0.9-1.1-1.9-2.2-2.8-3.3
			c-0.3-0.3-0.3-0.6-0.2-1c0.1-0.4,0.4-0.6,0.8-0.6c1.5-0.1,3-0.2,4.4-0.3c0.3,0,0.6-0.2,0.7-0.4c0.7-1.2,1.4-2.4,2.1-3.6
			c0.4-0.7,1-0.9,1.5-0.5c0.2,0.2,0.3,0.4,0.4,0.6c0.5,1.3,1,2.6,1.5,3.8c0.2,0.4,0.5,0.6,0.9,0.7c1.3,0.3,2.6,0.6,3.9,0.9
			c0.5,0.1,0.7,0.3,0.9,0.8C159.2,271.8,159.2,271.9,159.2,272.1z"/>
		<path class="st9" d="M188.4,272.1c-0.2,0.3-0.4,0.5-0.7,0.7c-1,0.8-2,1.7-3,2.5c-0.3,0.2-0.4,0.5-0.3,0.9c0.1,1.4,0.3,2.8,0.4,4.2
			c0,0.4-0.1,0.8-0.5,1c-0.4,0.2-0.7,0.1-1.1-0.1c-1.2-0.7-2.4-1.5-3.6-2.2c-0.3-0.2-0.7-0.2-1.1-0.1c-1.3,0.6-2.6,1.1-3.9,1.6
			c-0.4,0.2-0.7,0.2-1-0.1c-0.4-0.3-0.4-0.7-0.3-1.1c0.3-1.4,0.7-2.7,1-4c0.1-0.4,0.1-0.7-0.2-1c-0.9-1.1-1.9-2.2-2.8-3.3
			c-0.3-0.3-0.3-0.6-0.2-1c0.1-0.4,0.4-0.6,0.8-0.6c1.5-0.1,3-0.2,4.4-0.3c0.3,0,0.6-0.2,0.7-0.4c0.7-1.2,1.4-2.4,2.1-3.6
			c0.4-0.7,1-0.9,1.5-0.5c0.2,0.2,0.3,0.4,0.4,0.6c0.5,1.3,1,2.6,1.5,3.8c0.2,0.4,0.5,0.6,0.9,0.7c1.3,0.3,2.6,0.6,3.9,0.9
			c0.5,0.1,0.7,0.3,0.9,0.8C188.4,271.8,188.4,271.9,188.4,272.1z"/>
	</g>
	<g>
		<defs>
			<path id="SVGID_3_" d="M53.6,167.7c-10.7,5.7-46.8,35.7-52.8,53.8s22.4,25.1,49.3,37c13,5.7-11.8-24.7-10.7-45.6
				C40.4,193.6,67.9,160.2,53.6,167.7z"/>
		</defs>
		<clipPath id="SVGID_4_">
			<use xlink:href="#SVGID_3_"  style="overflow:visible;"/>
		</clipPath>
		<g class="st10">
			<path class="st5" d="M53.6,167.7c-10.7,5.7-46.8,35.7-52.8,53.8s22.4,25.1,49.3,37c13,5.7-11.8-24.7-10.7-45.6
				C40.4,193.6,67.9,160.2,53.6,167.7z"/>
		</g>
		<path class="st11" d="M38.3,201.4c-0.2,0.3-0.4,0.5-0.7,0.7c-1,0.8-2,1.7-3,2.5c-0.3,0.2-0.4,0.5-0.3,0.9c0.1,1.4,0.3,2.8,0.4,4.2
			c0,0.4-0.1,0.8-0.5,1c-0.4,0.2-0.7,0.1-1.1-0.1c-1.2-0.7-2.4-1.5-3.6-2.2c-0.3-0.2-0.7-0.2-1.1-0.1c-1.3,0.6-2.6,1.1-3.9,1.6
			c-0.4,0.2-0.7,0.2-1-0.1c-0.4-0.3-0.4-0.7-0.3-1.1c0.3-1.4,0.7-2.7,1-4c0.1-0.4,0.1-0.7-0.2-1c-0.9-1.1-1.9-2.2-2.8-3.3
			c-0.3-0.3-0.3-0.6-0.2-1c0.1-0.4,0.4-0.6,0.8-0.6c1.5-0.1,3-0.2,4.4-0.3c0.3,0,0.6-0.2,0.7-0.4c0.7-1.2,1.4-2.4,2.1-3.6
			c0.4-0.7,1-0.9,1.5-0.5c0.2,0.2,0.3,0.4,0.4,0.6c0.5,1.3,1,2.6,1.5,3.8c0.2,0.4,0.5,0.6,0.9,0.7c1.3,0.3,2.6,0.6,3.9,0.9
			c0.5,0.1,0.7,0.3,0.9,0.8C38.3,201.1,38.3,201.3,38.3,201.4z"/>
		<path class="st11" d="M11.8,229.3c-0.2,0.3-0.4,0.5-0.7,0.7c-1,0.8-2,1.7-3,2.5c-0.3,0.2-0.4,0.5-0.3,0.9c0.1,1.4,0.3,2.8,0.4,4.2
			c0,0.4-0.1,0.8-0.5,1c-0.4,0.2-0.7,0.1-1.1-0.1c-1.2-0.7-2.4-1.5-3.6-2.2c-0.3-0.2-0.7-0.2-1.1-0.1c-1.3,0.6-2.6,1.1-3.9,1.6
			c-0.4,0.2-0.7,0.2-1-0.1c-0.4-0.3-0.4-0.7-0.3-1.1c0.3-1.4,0.7-2.7,1-4c0.1-0.4,0.1-0.7-0.2-1c-0.9-1.1-1.9-2.2-2.8-3.3
			c-0.3-0.3-0.3-0.6-0.2-1c0.1-0.4,0.4-0.6,0.8-0.6c1.5-0.1,3-0.2,4.4-0.3c0.3,0,0.6-0.2,0.7-0.4c0.7-1.2,1.4-2.4,2.1-3.6
			c0.4-0.7,1-0.9,1.5-0.5c0.2,0.2,0.3,0.4,0.4,0.6c0.5,1.3,1,2.6,1.5,3.8c0.2,0.4,0.5,0.6,0.9,0.7c1.3,0.3,2.6,0.6,3.9,0.9
			c0.5,0.1,0.7,0.3,0.9,0.8C11.8,229,11.8,229.1,11.8,229.3z"/>
		<path class="st11" d="M43.7,230.7c-0.2,0.3-0.4,0.5-0.7,0.7c-1,0.8-2,1.7-3,2.5c-0.3,0.2-0.4,0.5-0.3,0.9c0.1,1.4,0.3,2.8,0.4,4.2
			c0,0.4-0.1,0.8-0.5,1c-0.4,0.2-0.7,0.1-1.1-0.1c-1.2-0.7-2.4-1.5-3.6-2.2c-0.3-0.2-0.7-0.2-1.1-0.1c-1.3,0.6-2.6,1.1-3.9,1.6
			c-0.4,0.2-0.7,0.2-1-0.1c-0.4-0.3-0.4-0.7-0.3-1.1c0.3-1.4,0.7-2.7,1-4c0.1-0.4,0.1-0.7-0.2-1c-0.9-1.1-1.9-2.2-2.8-3.3
			c-0.3-0.3-0.3-0.6-0.2-1c0.1-0.4,0.4-0.6,0.8-0.6c1.5-0.1,3-0.2,4.4-0.3c0.3,0,0.6-0.2,0.7-0.4c0.7-1.2,1.4-2.4,2.1-3.6
			c0.4-0.7,1-0.9,1.5-0.5c0.2,0.2,0.3,0.4,0.4,0.6c0.5,1.3,1,2.6,1.5,3.8c0.2,0.4,0.5,0.6,0.9,0.7c1.3,0.3,2.6,0.6,3.9,0.9
			c0.5,0.1,0.7,0.3,0.9,0.8C43.7,230.3,43.7,230.5,43.7,230.7z"/>
	</g>
	<g>
		<g>
			<path class="st6" d="M176.1,167.1C172.9,102,140.8,60,105.5,69c-43.7,11.2-39.9,68.1-45,87c-4,15.1-20.8,30.6-23.8,58.8
				c-2.8,26.1,18.4,68.5,65.3,68.5C162.8,283.3,179.2,232.3,176.1,167.1z M102.5,274.7c-43.2,0-60.6-39.1-58-63.1
				c2.8-25.9,20.3-39.5,24-53.4c4.6-17.4-3.1-70.4,37.2-80.7c32.4-8.3,60.6,30.3,63.5,90.3S158.3,274.7,102.5,274.7z"/>
		</g>
	</g>
	<g>
		<path class="st6" d="M126.2,279.5c3.2,6.9,6.5,17.8,6.3,24c-0.3,6.2-0.8,22.5,7.1,21.7c7.9-0.8,15.8-6.6,12.1-12.8
			c-3.7-6.2-10.5-0.6-12-15.1c-0.9-8.4-5-16.9-5.9-20.8C133,272.4,124.5,275.8,126.2,279.5z"/>
	</g>
	<g>
		<path class="st6" d="M44.6,250.7c-1.3,4.5-8.5,36.4-13.9,40.1c-5.4,3.7-13.5,4.2-16.8,8.5c-3.3,4.4-2.5,14.4,10.5,12.6
			s11.1-11.6,13-19.6c3-12.5,15.9-27.6,17.7-29.6C57,260.6,46.2,244.9,44.6,250.7z"/>
	</g>
	<g>
		<path class="st6" d="M55.6,167.1c-4.3-3.1-18.7-19.2-20.9-31.4c-2.2-12.2-0.7-14.1-2.2-14.4c-1.5-0.2-11.8-0.6-12.1-9.9
			s6.4-11.6,11.3-11.4s10.2,6.2,10.7,10.5c1,9.7-1,21,2,29.5c3.4,9.7,12.2,19,14.4,20.7C60.9,162.5,60.7,170.7,55.6,167.1z"/>
	</g>
	<g>
		<path class="st6" d="M173.5,201.4c3.9-2.6,16.8-11.1,22.2-17.1c5.6-6.1,9.3-10.6,8.4-11.5c-3.9-3.9-8.5-16.5,3.1-17
			c11.6-0.5,12.9,9.8,8.5,16.5c-4.4,6.7-10.1,13.7-17,20.7c-7,7-21.3,18.7-24.4,18.4C171.2,211.2,169.7,203.9,173.5,201.4z"/>
	</g>
	<g>
		<path class="st5" d="M212.9,198.4h-5.1c-0.6,0-1-0.5-1-1V136c0-0.6,0.5-1,1-1h5.1c0.6,0,1,0.5,1,1v61.4
			C213.9,198,213.4,198.4,212.9,198.4z"/>
	</g>
	<g>
		<path class="st5" d="M171.9,168.7c-4.7,2.9-58.8,31.8-63.2,31.5c-4.4-0.3-39.9-37.3-46.7-45.1c-2.1-2.4-3.2,2.9-3.2,5.3
			c0,2.2,35.9,37.3,44.8,43.1c-2.9,2.1-8.2,5.8-8.3,6.3c-0.2,0.5-0.2,4.7,0.4,4.3c2.1-1.3,11.5-7,12.5-6.8c1,0.2,8,6.8,8.9,7.8
			c0.9,1,5-3,4.2-3.8c-0.7-0.6-3.2-3-6.5-5.8c10.9-3.6,55-28.5,59-30.4c1.8-0.8,3.2-1.1,3.2-4C176.7,167.7,174.6,167,171.9,168.7z"
			/>
	</g>
	<g>
		
			<ellipse transform="matrix(0.9964 -8.471601e-02 8.471601e-02 0.9964 -9.094 10.7499)" class="st6" cx="122.1" cy="112.5" rx="4.3" ry="4.6"/>
	</g>
	<g>
		<ellipse class="st6" cx="109.4" cy="114.4" rx="4" ry="4.5"/>
	</g>
	<g>
		<g>
			<path class="st6" d="M132.5,119.2c-1.5-0.4-30.7,4.2-29.3,10c0.4,1.7,9.5,15.7,22,12.1C138.6,137.5,134,119.6,132.5,119.2z
				 M124,136.1c-10.1,2.9-14.2-5.2-14.6-6.6c-1.2-4.7,17.1-6.3,18.3-6C129,123.8,134.8,133,124,136.1z"/>
		</g>
	</g>
	<g>
		<g>
			<path class="st4" d="M197.6,123.5l-2.8,2.7c-0.4,0.4-1.2,0.4-1.6,0l-12.3-12.7c-0.4-0.4-0.4-1.2,0-1.6l2.8-2.7
				c0.4-0.4,1.2-0.4,1.6,0l12.3,12.7C198.1,122.4,198.1,123.1,197.6,123.5z"/>
		</g>
		<g>
			<path class="st4" d="M215.1,120.8l-3.8-0.9c-0.6-0.1-1-0.8-0.8-1.4l4.1-17.2c0.1-0.6,0.8-1,1.4-0.8l3.8,0.9
				c0.6,0.1,1,0.8,0.8,1.4l-4.1,17.2C216.3,120.6,215.7,120.9,215.1,120.8z"/>
		</g>
		<g>
			<path class="st4" d="M223,127.1l-2.7-2.9c-0.4-0.5-0.4-1.2,0.1-1.6l11.8-11c0.5-0.4,1.2-0.4,1.6,0.1l2.7,2.9
				c0.4,0.5,0.4,1.2-0.1,1.6l-11.8,11C224.2,127.6,223.4,127.6,223,127.1z"/>
		</g>
		<g>
			<path class="st4" d="M205.5,119.7l-3.8,0.9c-0.6,0.1-1.2-0.2-1.4-0.8l-2.9-12.3c-0.1-0.6,0.2-1.2,0.8-1.4l3.8-0.9
				c0.6-0.1,1.2,0.2,1.4,0.8l2.9,12.3C206.4,119,206.1,119.6,205.5,119.7z"/>
		</g>
	</g>
	<g>
		<defs>
			<path id="SVGID_5_" d="M74.5,5c-0.6,8.2-7.7,86.5-5.6,92.5s27,2.1,38.5-2.6c11.6-4.7,27.3-17.2,27.7-21.5
				c0.4-4.3-48.2-62.9-51.2-66.7C76.9-2.2,75-1.7,74.5,5z"/>
		</defs>
		<clipPath id="SVGID_6_">
			<use xlink:href="#SVGID_5_"  style="overflow:visible;"/>
		</clipPath>
		<g class="st12">
			<path class="st5" d="M74.5,5c-0.6,8.2-7.7,86.5-5.6,92.5s27,2.1,38.5-2.6c11.6-4.7,27.3-17.2,27.7-21.5
				c0.4-4.3-48.2-62.9-51.2-66.7C76.9-2.2,75-1.7,74.5,5z"/>
		</g>
		<path class="st13" d="M98,73c-0.2,0.5-0.6,0.8-1,1.1c-1.4,1.4-2.8,2.8-4.2,4.1c-0.4,0.4-0.5,0.8-0.4,1.3c0.4,2.1,0.7,4.1,1.1,6.2
			c0.1,0.6,0,1.2-0.6,1.6c-0.5,0.4-1.1,0.3-1.6,0c-1.9-1-3.7-1.9-5.6-2.9c-0.5-0.3-1-0.3-1.6,0c-1.8,1-3.7,1.9-5.6,2.9
			c-0.5,0.3-1,0.4-1.5,0c-0.6-0.4-0.7-0.9-0.6-1.6c0.3-2.1,0.7-4.1,1.1-6.2c0.1-0.6,0-1-0.4-1.5c-1.5-1.5-3-3.1-4.6-4.5
			c-0.4-0.4-0.6-0.9-0.4-1.5c0.2-0.6,0.6-0.9,1.1-1c2.2-0.3,4.4-0.7,6.6-1c0.5-0.1,0.8-0.3,1-0.7c0.9-1.9,1.8-3.7,2.8-5.6
			c0.5-1.1,1.4-1.4,2.2-0.9c0.3,0.2,0.5,0.6,0.7,0.9c0.9,1.8,1.8,3.7,2.7,5.6c0.3,0.6,0.9,0.8,1.5,0.9c2,0.3,4,0.6,5.9,0.9
			c0.7,0.1,1.1,0.4,1.4,1.1C98,72.5,98,72.7,98,73z"/>
		<path class="st13" d="M108.7,54.5c-0.2,0.2-0.5,0.2-0.7,0.3c-1,0.3-2,0.7-2.9,1c-0.3,0.1-0.4,0.3-0.5,0.5
			c-0.3,1.1-0.6,2.1-0.9,3.2c-0.1,0.3-0.3,0.6-0.6,0.6c-0.3,0.1-0.6-0.1-0.7-0.4c-0.7-0.9-1.3-1.8-2-2.7c-0.2-0.3-0.4-0.4-0.8-0.4
			c-1.1,0-2.2,0.1-3.3,0.1c-0.3,0-0.6-0.1-0.7-0.3c-0.2-0.3-0.1-0.6,0.1-0.9c0.6-0.9,1.3-1.8,1.9-2.7c0.2-0.3,0.2-0.5,0.1-0.8
			c-0.4-1.1-0.7-2.2-1.2-3.2c-0.1-0.3-0.1-0.6,0.1-0.8c0.2-0.2,0.5-0.3,0.8-0.2c1.1,0.3,2.2,0.7,3.4,1.1c0.2,0.1,0.5,0,0.7-0.1
			c0.9-0.7,1.7-1.3,2.6-2c0.5-0.4,1-0.4,1.3,0.1c0.1,0.2,0.1,0.4,0.1,0.6c0,1.1,0,2.2,0,3.3c0,0.4,0.2,0.6,0.5,0.8
			c0.9,0.6,1.7,1.2,2.6,1.8c0.3,0.2,0.4,0.5,0.4,0.8C108.8,54.2,108.7,54.3,108.7,54.5z"/>
		<path class="st13" d="M106.3,17.4c0,0.5-0.3,1-0.5,1.4c-0.8,1.8-1.6,3.6-2.4,5.4c-0.2,0.5-0.1,1,0.1,1.4c1.1,1.8,2.2,3.6,3.3,5.4
			c0.3,0.5,0.4,1.1,0.1,1.7c-0.3,0.5-0.9,0.6-1.5,0.6c-2.1-0.2-4.2-0.4-6.3-0.6c-0.6-0.1-1.1,0.1-1.5,0.6c-1.4,1.6-2.7,3.2-4.1,4.8
			c-0.4,0.4-0.8,0.7-1.4,0.6c-0.6-0.1-1-0.6-1.1-1.2c-0.4-2-0.9-4.1-1.3-6.1c-0.1-0.6-0.4-1-0.9-1.2c-2-0.8-4-1.7-6-2.5
			c-0.5-0.2-0.9-0.6-0.9-1.2c-0.1-0.6,0.2-1,0.7-1.3c1.9-1.1,3.8-2.3,5.7-3.4c0.4-0.2,0.6-0.6,0.7-1.1c0.2-2.1,0.3-4.1,0.5-6.2
			c0.1-1.2,0.7-1.8,1.8-1.7c0.4,0.1,0.7,0.3,0.9,0.6c1.5,1.4,3.1,2.8,4.6,4.1c0.5,0.5,1.1,0.4,1.7,0.3c1.9-0.5,3.9-0.9,5.8-1.4
			c0.7-0.2,1.2,0,1.7,0.5C106.1,16.9,106.2,17.1,106.3,17.4z"/>
	</g>
</g>
</svg>
