<?xml version="1.0" encoding="utf-8"?>
<!-- Generator: Adobe Illustrator 24.0.1, SVG Export Plug-In . SVG Version: 6.00 Build 0)  -->
<svg version="1.1" id="Layer_1" xmlns="http://www.w3.org/2000/svg" xmlns:xlink="http://www.w3.org/1999/xlink" x="0px" y="0px"
	 viewBox="0 0 196.7 223.3" style="enable-background:new 0 0 196.7 223.3;" xml:space="preserve">
<style type="text/css">
	.st0{fill:#F27D16;}
	.st1{fill:#4D4D4D;}
	.st2{fill:#FFFFFF;}
	.st3{fill:#F2F2F2;}
	.st4{fill:#F2CB05;}
	.st5{fill:#9450F2;}
	.st6{fill:#96D9C6;}
	.st7{fill:#3068D9;}
	.st8{clip-path:url(#SVGID_2_);}
	.st9{clip-path:url(#SVGID_2_);fill:#FFFFFF;}
	.st10{clip-path:url(#SVGID_4_);}
	.st11{clip-path:url(#SVGID_4_);fill:#FFFFFF;}
	.st12{clip-path:url(#SVGID_6_);}
	.st13{clip-path:url(#SVGID_6_);fill:#FFFFFF;}
	.st14{opacity:0.99;fill:#FFFFFF;}
	.st15{opacity:0.66;}
	.st16{fill:#FD9951;}
	.st17{fill:#F7DE65;}
	.st18{fill:#DBC1F7;}
	.st19{fill:#6A98E4;}
	.st20{fill:#CC5B00;}
	.st21{fill:#4B2477;}
	.st22{fill:#61A795;}
	.st23{fill:#365A51;}
	.st24{fill:#0A2C5C;}
	.st25{fill:#7496DE;}
	.st26{fill:#B2C4E4;}
	.st27{fill:#72A495;}
	.st28{fill:#F9C800;}
	.st29{fill:#106AE0;}
	.st30{clip-path:url(#SVGID_8_);}
	.st31{clip-path:url(#SVGID_8_);fill:#FFFFFF;}
	.st32{clip-path:url(#SVGID_10_);}
	.st33{clip-path:url(#SVGID_10_);fill:#FFFFFF;}
	.st34{clip-path:url(#SVGID_12_);}
	.st35{clip-path:url(#SVGID_12_);fill:#FFFFFF;}
</style>
<g>
	<g>
		<defs>
			<path id="SVGID_7_" d="M162,98.9c13.1,8,36.5,25.6,34.5,32.5c-2,6.9-29.4,20.6-33.7,19c-7.7-2.9,0.6-5.8,4-22.5
				C170.3,111.2,159.5,97.3,162,98.9z"/>
		</defs>
		<clipPath id="SVGID_2_">
			<use xlink:href="#SVGID_7_"  style="overflow:visible;"/>
		</clipPath>
		<g class="st8">
			<path class="st5" d="M162,98.9c13.1,8,36.5,25.6,34.5,32.5c-2,6.9-29.4,20.6-33.7,19c-7.7-2.9,0.6-5.8,4-22.5
				C170.3,111.2,159.5,97.3,162,98.9z"/>
		</g>
		<path class="st9" d="M175.5,109.5c0,0.3,0,0.5-0.1,0.8c-0.2,1-0.4,2-0.6,2.9c-0.1,0.3,0,0.5,0.2,0.7c0.7,0.8,1.5,1.6,2.2,2.4
			c0.2,0.2,0.3,0.5,0.2,0.8c-0.1,0.3-0.4,0.4-0.7,0.4c-1.1,0.1-2.1,0.2-3.2,0.3c-0.3,0-0.5,0.2-0.7,0.4c-0.5,0.9-1.1,1.9-1.6,2.8
			c-0.1,0.3-0.3,0.4-0.7,0.4c-0.3,0-0.6-0.2-0.7-0.5c-0.4-1-0.9-2-1.3-2.9c-0.1-0.3-0.3-0.5-0.6-0.5c-1.1-0.2-2.2-0.5-3.3-0.7
			c-0.3-0.1-0.5-0.2-0.6-0.5c-0.1-0.3,0-0.5,0.2-0.7c0.9-0.8,1.7-1.5,2.6-2.3c0.2-0.2,0.3-0.4,0.2-0.6c-0.1-1.1-0.2-2.1-0.4-3.2
			c-0.1-0.6,0.2-1,0.7-1c0.2,0,0.4,0.1,0.5,0.2c0.9,0.5,1.8,1.1,2.7,1.6c0.3,0.2,0.6,0.1,0.9,0c0.9-0.4,1.9-0.9,2.8-1.3
			c0.3-0.2,0.6-0.1,0.9,0.1C175.4,109.3,175.5,109.4,175.5,109.5z"/>
		<path class="st9" d="M178.1,132.5c0,0.3,0,0.5-0.1,0.8c-0.2,1-0.4,2-0.6,2.9c-0.1,0.3,0,0.5,0.2,0.7c0.7,0.8,1.5,1.6,2.2,2.4
			c0.2,0.2,0.3,0.5,0.2,0.8c-0.1,0.3-0.4,0.4-0.7,0.4c-1.1,0.1-2.1,0.2-3.2,0.3c-0.3,0-0.5,0.2-0.7,0.4c-0.5,0.9-1.1,1.9-1.6,2.8
			c-0.1,0.3-0.3,0.4-0.7,0.4c-0.3,0-0.6-0.2-0.7-0.5c-0.4-1-0.9-2-1.3-2.9c-0.1-0.3-0.3-0.5-0.6-0.5c-1.1-0.2-2.2-0.5-3.3-0.7
			c-0.3-0.1-0.5-0.2-0.6-0.5c-0.1-0.3,0-0.5,0.2-0.7c0.9-0.8,1.7-1.5,2.6-2.3c0.2-0.2,0.3-0.4,0.2-0.6c-0.1-1.1-0.2-2.1-0.4-3.2
			c-0.1-0.6,0.2-1,0.7-1c0.2,0,0.4,0.1,0.5,0.2c0.9,0.5,1.8,1.1,2.7,1.6c0.3,0.2,0.6,0.1,0.9,0c0.9-0.4,1.9-0.9,2.8-1.3
			c0.3-0.2,0.6-0.1,0.9,0.1C178,132.3,178.1,132.4,178.1,132.5z"/>
		<path class="st9" d="M195.9,118.8c0,0.3,0,0.5-0.1,0.8c-0.2,1-0.4,2-0.6,2.9c-0.1,0.3,0,0.5,0.2,0.7c0.7,0.8,1.5,1.6,2.2,2.4
			c0.2,0.2,0.3,0.5,0.2,0.8c-0.1,0.3-0.4,0.4-0.7,0.4c-1.1,0.1-2.1,0.2-3.2,0.3c-0.3,0-0.5,0.2-0.7,0.4c-0.5,0.9-1.1,1.9-1.6,2.8
			c-0.1,0.3-0.3,0.4-0.7,0.4c-0.3,0-0.6-0.2-0.7-0.5c-0.4-1-0.9-2-1.3-2.9c-0.1-0.3-0.3-0.5-0.6-0.5c-1.1-0.2-2.2-0.5-3.3-0.7
			c-0.3-0.1-0.5-0.2-0.6-0.5c-0.1-0.3,0-0.5,0.2-0.7c0.9-0.8,1.7-1.5,2.6-2.3c0.2-0.2,0.3-0.4,0.2-0.6c-0.1-1.1-0.2-2.1-0.4-3.2
			c-0.1-0.6,0.2-1,0.7-1c0.2,0,0.4,0.1,0.5,0.2c0.9,0.5,1.8,1.1,2.7,1.6c0.3,0.2,0.6,0.1,0.9,0c0.9-0.4,1.9-0.9,2.8-1.3
			c0.3-0.2,0.6-0.1,0.9,0.1C195.8,118.6,195.8,118.7,195.9,118.8z"/>
	</g>
	<g>
		<defs>
			<path id="SVGID_9_" d="M65,118.5c-3.8,8.4-11.7,43.7-6.9,57.4c4.8,13.8,25.4,4.8,47.3-0.6c10.6-2.6-18.8-9.5-27.9-22.7
				C69.1,140.5,70.2,107.3,65,118.5z"/>
		</defs>
		<clipPath id="SVGID_4_">
			<use xlink:href="#SVGID_9_"  style="overflow:visible;"/>
		</clipPath>
		<g class="st10">
			<path class="st5" d="M65,118.5c-3.8,8.4-11.7,43.7-6.9,57.4c4.8,13.8,25.4,4.8,47.3-0.6c10.6-2.6-18.8-9.5-27.9-22.7
				C69.1,140.5,70.2,107.3,65,118.5z"/>
		</g>
		<path class="st11" d="M71.5,146.2c0,0.3,0,0.5-0.1,0.8c-0.2,1-0.4,2-0.6,2.9c-0.1,0.3,0,0.5,0.2,0.7c0.7,0.8,1.5,1.6,2.2,2.4
			c0.2,0.2,0.3,0.5,0.2,0.8c-0.1,0.3-0.4,0.4-0.7,0.4c-1.1,0.1-2.1,0.2-3.2,0.3c-0.3,0-0.5,0.2-0.7,0.4c-0.5,0.9-1.1,1.9-1.6,2.8
			c-0.1,0.3-0.3,0.4-0.7,0.4c-0.3,0-0.6-0.2-0.7-0.5c-0.4-1-0.9-2-1.3-2.9c-0.1-0.3-0.3-0.5-0.6-0.5c-1.1-0.2-2.2-0.5-3.3-0.7
			c-0.3-0.1-0.5-0.2-0.6-0.5c-0.1-0.3,0-0.5,0.2-0.7c0.9-0.8,1.7-1.5,2.6-2.3c0.2-0.2,0.3-0.4,0.2-0.6c-0.1-1.1-0.2-2.1-0.4-3.2
			c-0.1-0.6,0.2-1,0.7-1c0.2,0,0.4,0.1,0.5,0.2c0.9,0.5,1.8,1.1,2.7,1.6c0.3,0.2,0.6,0.1,0.9,0c0.9-0.4,1.9-0.9,2.8-1.3
			c0.3-0.2,0.6-0.1,0.9,0.1C71.4,146,71.4,146.1,71.5,146.2z"/>
		<path class="st11" d="M68.5,175.6c0,0.3,0,0.5-0.1,0.8c-0.2,1-0.4,2-0.6,2.9c-0.1,0.3,0,0.5,0.2,0.7c0.7,0.8,1.5,1.6,2.2,2.4
			c0.2,0.2,0.3,0.5,0.2,0.8c-0.1,0.3-0.4,0.4-0.7,0.4c-1.1,0.1-2.1,0.2-3.2,0.3c-0.3,0-0.5,0.2-0.7,0.4c-0.5,0.9-1.1,1.9-1.6,2.8
			c-0.1,0.3-0.3,0.4-0.7,0.4c-0.3,0-0.6-0.2-0.7-0.5c-0.4-1-0.9-2-1.3-2.9c-0.1-0.3-0.3-0.5-0.6-0.5c-1.1-0.2-2.2-0.5-3.3-0.7
			c-0.3-0.1-0.5-0.2-0.6-0.5c-0.1-0.3,0-0.5,0.2-0.7c0.9-0.8,1.7-1.5,2.6-2.3c0.2-0.2,0.3-0.4,0.2-0.6c-0.1-1.1-0.2-2.1-0.4-3.2
			c-0.1-0.6,0.2-1,0.7-1c0.2,0,0.4,0.1,0.5,0.2c0.9,0.5,1.8,1.1,2.7,1.6c0.3,0.2,0.6,0.1,0.9,0c0.9-0.4,1.9-0.9,2.8-1.3
			c0.3-0.2,0.6-0.1,0.9,0.1C68.3,175.4,68.4,175.5,68.5,175.6z"/>
		<path class="st11" d="M88.5,161.4c0,0.3,0,0.5-0.1,0.8c-0.2,1-0.4,2-0.6,2.9c-0.1,0.3,0,0.5,0.2,0.7c0.7,0.8,1.5,1.6,2.2,2.4
			c0.2,0.2,0.3,0.5,0.2,0.8c-0.1,0.3-0.4,0.4-0.7,0.4c-1.1,0.1-2.1,0.2-3.2,0.3c-0.3,0-0.5,0.2-0.7,0.4c-0.5,0.9-1.1,1.9-1.6,2.8
			c-0.1,0.3-0.3,0.4-0.7,0.4c-0.3,0-0.6-0.2-0.7-0.5c-0.4-1-0.9-2-1.3-2.9c-0.1-0.3-0.3-0.5-0.6-0.5c-1.1-0.2-2.2-0.5-3.3-0.7
			c-0.3-0.1-0.5-0.2-0.6-0.5c-0.1-0.3,0-0.5,0.2-0.7c0.9-0.8,1.7-1.5,2.6-2.3c0.2-0.2,0.3-0.4,0.2-0.6c-0.1-1.1-0.2-2.1-0.4-3.2
			c-0.1-0.6,0.2-1,0.7-1c0.2,0,0.4,0.1,0.5,0.2c0.9,0.5,1.8,1.1,2.7,1.6c0.3,0.2,0.6,0.1,0.9,0c0.9-0.4,1.9-0.9,2.8-1.3
			c0.3-0.2,0.6-0.1,0.9,0.1C88.4,161.2,88.4,161.3,88.5,161.4z"/>
	</g>
	<g>
		<g>
			<path class="st6" d="M139.2,60.8c-32.5-38.1-71.7-48.6-88.9-26.6c-21.3,27.3,7.6,60.1,13.4,74c4.6,11.1,1.7,28.3,13.1,46.9
				c10.5,17.2,43.3,33,71.9,11C185.6,137.7,171.6,98.9,139.2,60.8z M144.9,160.7c-26.3,20.2-55.2,4.7-64.8-11.2
				c-10.5-17.1-6.2-33.5-10.4-43.7c-5.4-12.8-34.9-41.4-15.2-66.5c15.8-20.2,51.1-10,80.9,25.1S178.8,134.5,144.9,160.7z"/>
		</g>
	</g>
	<g>
		<path class="st6" d="M161.5,152.4c5.2,2.7,12.3,7.8,15.1,11.7c2.7,3.9,10.1,14,14.5,9.8c4.4-4.2,6.5-11.4,1.4-13.5
			c-5.1-2.1-6.7,4.5-14.4-3.6c-4.5-4.7-11-7.9-13.3-9.9C162.4,145,158.8,151,161.5,152.4z"/>
	</g>
	<g>
		<path class="st6" d="M98.4,173.2c1.3,3.4,11.9,26.1,10.4,30.9c-1.5,4.8-6.3,8.9-6.2,13.1c0,4.2,5.3,9.9,12.3,2.7s1.3-12.2-1.3-18
			c-4-9-3.3-24.2-3.1-26.3S96.7,168.9,98.4,173.2z"/>
	</g>
	<g>
		<path class="st6" d="M65.9,117.2c-4.1,0.1-20.4-2.9-27.4-9.3c-7-6.4-7.1-8.3-8.1-7.7c-1,0.5-7.5,5.2-12-0.3
			C14,94.4,17,89.8,20,87.7s9.1-1,11.4,1.4c5.1,5.4,9.3,13.2,15,17c6.6,4.3,16.3,5.8,18.5,5.8C67,111.9,70.7,117,65.9,117.2z"/>
	</g>
	<g>
		<path class="st6" d="M153.7,82.8c1.2-3.4,5-14.6,5.5-20.8c0.6-6.3,0.7-10.8-0.3-10.9c-4.2-0.5-12.9-6-6.1-11.8
			c6.8-5.7,12.4-0.1,12.9,6c0.5,6.1,0.3,13.1-0.7,20.6c-1,7.5-4.2,21.3-6.2,22.6C156.9,89.8,152.6,86.2,153.7,82.8z"/>
	</g>
	<g>
		<path class="st5" d="M176.2,62.6l-3.1,2.4c-0.3,0.3-0.8,0.2-1.1-0.1l-28.8-37.3c-0.3-0.3-0.2-0.8,0.1-1.1l3.1-2.4
			c0.3-0.3,0.8-0.2,1.1,0.1l28.8,37.3C176.7,61.8,176.6,62.3,176.2,62.6z"/>
	</g>
	<g>
		<path class="st5" d="M137.4,63.7c-1.5,4-20.8,46.9-23.7,48.8c-2.8,1.9-41.8-4-49.5-5.5c-2.4-0.5-0.6,3.3,0.5,4.7
			c1,1.3,39.3,5.8,47.4,5.2c-0.8,2.6-2.3,7.4-2.1,7.7c0.2,0.4,2.1,3,2.3,2.4c0.6-1.8,3.7-9.6,4.4-10c0.7-0.4,8.1,0.4,9.1,0.6
			c1,0.2,1.6-4.2,0.7-4.3c-0.7,0-3.3-0.4-6.7-0.5c5-7.3,20.1-43.1,21.6-46.2c0.7-1.4,1.5-2.2,0-3.9
			C139.9,60.8,138.3,61.4,137.4,63.7z"/>
	</g>
	<g>
		<ellipse transform="matrix(0.7374 -0.6754 0.6754 0.7374 -14.4922 68.4648)" class="st6" cx="80.8" cy="52.9" rx="3.3" ry="3.5"/>
	</g>
	<g>
		<ellipse transform="matrix(0.792 -0.6105 0.6105 0.792 -21.2123 57.6304)" class="st6" cx="74" cy="59.9" rx="3.1" ry="3.5"/>
	</g>
	<g>
		<g>
			<path class="st6" d="M90.2,52C89.1,52.5,73.5,69,77.1,71.9c1.1,0.9,13.1,5.1,19.1-3C102.5,60.3,91.4,51.6,90.2,52z M93,66.3
				c-4.8,6.5-11.1,3.5-12,2.8c-2.9-2.3,7.4-11.9,8.3-12.2C90.3,56.5,98.1,59.4,93,66.3z"/>
		</g>
	</g>
	<g>
		<g>
			<path class="st4" d="M131.9,24.2l-0.4,3c-0.1,0.5-0.5,0.8-1,0.7l-13.4-1.9c-0.5-0.1-0.8-0.5-0.7-1l0.4-3c0.1-0.5,0.5-0.8,1-0.7
				l13.4,1.9C131.6,23.3,131.9,23.7,131.9,24.2z"/>
		</g>
		<g>
			<path class="st4" d="M141.2,14.3l-2.7,1.2c-0.4,0.2-1,0-1.1-0.4l-5.6-12.3c-0.2-0.4,0-1,0.4-1.1l2.7-1.2c0.4-0.2,1,0,1.1,0.4
				l5.6,12.3C141.9,13.6,141.7,14.1,141.2,14.3z"/>
		</g>
		<g>
			<path class="st4" d="M149,14.5l-3-0.5c-0.5-0.1-0.8-0.5-0.7-1l2-12.2c0.1-0.5,0.5-0.8,1-0.7l3,0.5c0.5,0.1,0.8,0.5,0.7,1l-2,12.2
				C149.9,14.2,149.5,14.5,149,14.5z"/>
		</g>
		<g>
			<path class="st4" d="M134.9,18.2l-1.9,2.3c-0.3,0.4-0.8,0.4-1.2,0.1l-7.5-6.1c-0.4-0.3-0.4-0.8-0.1-1.2L126,11
				c0.3-0.4,0.8-0.4,1.2-0.1l7.5,6.1C135.1,17.3,135.2,17.8,134.9,18.2z"/>
		</g>
	</g>
	<g>
		<defs>
			<path id="SVGID_11_" d="M1.4,9.8c3.5,5.2,35.8,56.2,40,58.8c4.1,2.6,17.4-11.3,22.2-19.6s8.5-23.2,6.8-26S11.6,7.4,8,6.5
				C-0.5,4.3-1.4,5.5,1.4,9.8z"/>
		</defs>
		<clipPath id="SVGID_6_">
			<use xlink:href="#SVGID_11_"  style="overflow:visible;"/>
		</clipPath>
		<g class="st12">
			<path class="st5" d="M1.4,9.8c3.5,5.2,35.8,56.2,40,58.8c4.1,2.6,17.4-11.3,22.2-19.6s8.5-23.2,6.8-26S11.6,7.4,8,6.5
				C-0.5,4.3-1.4,5.5,1.4,9.8z"/>
		</g>
		<path class="st13" d="M47.6,40.1c0.1,0.4,0,0.8-0.1,1.1c-0.2,1.5-0.4,3-0.6,4.5c-0.1,0.4,0.1,0.7,0.4,1c1.2,1.1,2.4,2.2,3.6,3.3
			c0.4,0.3,0.5,0.7,0.4,1.2c-0.1,0.5-0.5,0.7-1,0.7c-1.6,0.3-3.2,0.6-4.7,0.8c-0.5,0.1-0.8,0.3-1,0.7c-0.7,1.5-1.4,2.9-2,4.4
			c-0.2,0.4-0.5,0.7-0.9,0.7c-0.5,0-0.9-0.2-1.1-0.7c-0.8-1.4-1.5-2.8-2.2-4.2c-0.2-0.4-0.5-0.6-0.9-0.7c-1.6-0.2-3.3-0.4-4.9-0.6
			c-0.4,0-0.8-0.3-0.9-0.7c-0.2-0.4-0.1-0.8,0.2-1.1c1.2-1.2,2.4-2.5,3.5-3.7c0.3-0.3,0.3-0.6,0.3-0.9c-0.3-1.6-0.6-3.1-0.9-4.7
			c-0.2-0.9,0.2-1.5,0.9-1.6c0.3,0,0.6,0.1,0.8,0.2c1.4,0.7,2.8,1.4,4.3,2.1c0.5,0.2,0.9,0.1,1.3-0.2c1.3-0.8,2.7-1.5,4-2.3
			c0.5-0.3,0.9-0.3,1.3,0C47.4,39.9,47.5,40,47.6,40.1z"/>
		<path class="st13" d="M45.4,23.9c0,0.2-0.2,0.4-0.3,0.5c-0.4,0.7-0.9,1.3-1.3,2c-0.1,0.2-0.1,0.4-0.1,0.6c0.3,0.8,0.6,1.6,0.9,2.4
			c0.1,0.2,0.1,0.5-0.1,0.7c-0.2,0.2-0.4,0.2-0.6,0.1c-0.8-0.2-1.6-0.5-2.5-0.7c-0.2-0.1-0.4,0-0.6,0.1c-0.7,0.5-1.3,1.1-2,1.6
			c-0.2,0.1-0.4,0.2-0.6,0.1c-0.3-0.1-0.4-0.3-0.4-0.6c0-0.8-0.1-1.7-0.1-2.5c0-0.2-0.1-0.4-0.3-0.6c-0.7-0.5-1.5-1-2.2-1.4
			C35.1,26.1,35,26,35,25.7c0-0.2,0.1-0.4,0.4-0.5c0.8-0.3,1.7-0.6,2.5-0.9c0.2-0.1,0.3-0.2,0.3-0.4c0.2-0.8,0.4-1.6,0.6-2.5
			c0.1-0.5,0.4-0.7,0.8-0.5c0.2,0.1,0.2,0.2,0.3,0.3c0.5,0.7,1,1.3,1.5,2c0.2,0.2,0.4,0.2,0.7,0.2c0.8-0.1,1.6-0.1,2.4-0.1
			c0.3,0,0.5,0.1,0.6,0.3C45.4,23.7,45.4,23.8,45.4,23.9z"/>
		<path class="st13" d="M26.6,2.4c0.2,0.3,0.3,0.7,0.4,1.1c0.3,1.5,0.7,2.9,1.1,4.4c0.1,0.4,0.4,0.6,0.7,0.8c1.5,0.6,3,1.1,4.5,1.7
			c0.5,0.2,0.8,0.5,0.8,1c0,0.5-0.2,0.8-0.6,1c-1.4,0.8-2.7,1.7-4.1,2.5c-0.4,0.2-0.6,0.6-0.6,1c-0.1,1.6-0.2,3.2-0.3,4.8
			c0,0.4-0.2,0.8-0.6,1c-0.5,0.2-0.9,0.1-1.3-0.2c-1.2-1-2.4-2.1-3.7-3.1c-0.3-0.3-0.7-0.4-1.1-0.3c-1.6,0.4-3.2,0.8-4.8,1.3
			c-0.4,0.1-0.8,0-1.1-0.3c-0.3-0.3-0.4-0.7-0.2-1.1c0.6-1.6,1.3-3.2,1.9-4.7c0.1-0.4,0.1-0.7-0.1-1c-0.9-1.3-1.7-2.7-2.6-4
			c-0.5-0.7-0.4-1.5,0.3-1.8c0.3-0.1,0.6-0.1,0.8-0.1c1.6,0.1,3.2,0.2,4.7,0.4c0.5,0,0.9-0.3,1.2-0.6c1-1.2,1.9-2.4,2.9-3.6
			c0.3-0.4,0.7-0.6,1.3-0.5C26.3,2.2,26.4,2.3,26.6,2.4z"/>
	</g>
</g>
</svg>
