<svg id="Layer_1" data-name="Layer 1" xmlns="http://www.w3.org/2000/svg" xmlns:xlink="http://www.w3.org/1999/xlink" viewBox="0 0 1920 853.63"><defs><style>.cls-1{fill:none;}.cls-2{clip-path:url(#clip-path);}.cls-3{fill:#f2f2f2;}.cls-4{fill:#fff;opacity:0.99;isolation:isolate;}</style><clipPath id="clip-path"><path class="cls-1" d="M1920,236.13c0-93.5-58.7-235.5-181-235.5-161,0-225.5,147-383,135-224-17-264.6-115-509-115-279,0-290.5,220.3-510.5,220.3C105.3,240.93,115-18.37,0,12.63v791c150,0,249.3-178.8,458.8-178.8,184,0,357.2,228.8,714.2,228.8,299.7,0,466.8-159.1,747-155.5v-462Z"/></clipPath></defs><title>process-bg-desktop</title><g id="Group_462" data-name="Group 462"><g class="cls-2"><g id="Group_459" data-name="Group 459"><path id="background" class="cls-3" d="M1920,236.13c0-93.5-58.7-235.5-181-235.5-161,0-225.5,147-383,135-224-17-264.6-115-509-115-279,0-290.5,220.3-510.5,220.3C105.3,240.93,115-18.37,0,12.63v791c150,0,249.3-178.8,458.8-178.8,184,0,357.2,228.8,714.2,228.8,299.7,0,466.8-159.1,747-155.5v-462Z"/></g></g><g class="cls-2"><g id="hash-right"><g id="Group_460" data-name="Group 460"><path id="Path_728" data-name="Path 728" class="cls-4" d="M1581.4,284.13c.2-.2.4-.3.6-.5.5-.4.9-.8,1.4-1.2.3-.2.5-.5.8-.7,1.4-1.3,2.8-2.5,4.3-3.8,3-2.6,5.9-5.3,8.9-7.9,5.9-5.2,11.7-10.4,17.6-15.6q17.55-15.6,35.2-31.2,35.7-31.8,71.4-63.5,71.85-63.9,143.7-128Q1936-31.12,2006.5-94l30.2-26.9c5.1-4.6,10.3-9.2,15.4-13.7,2.6-2.3,5.2-4.6,7.8-7,1.1-1,2.3-2,3.4-3a38.76,38.76,0,0,1,3.1-2.6,2,2,0,0,1,2.8.7.1.1,0,0,0,.1.1,1.84,1.84,0,0,1,.2,1.6,1.46,1.46,0,0,1-.6.9h0a9.27,9.27,0,0,1-1.4,1.4c-.6.5-1.2,1.1-1.8,1.6-1.4,1.2-2.7,2.4-4.1,3.7-3.1,2.8-6.2,5.5-9.3,8.3-5.8,5.2-11.6,10.3-17.4,15.5-11.7,10.4-23.4,20.9-35.1,31.3l-69.9,62.4-143.1,127.8q-71.55,63.75-142.9,127.6c-10,8.9-20,17.9-30,26.9l-14.6,13.1c-2.5,2.3-5.1,4.5-7.6,6.8-1.2,1.1-2.4,2.1-3.6,3.2-.3.2-.5.5-.8.7s-.6.5-.9.8-.7.6-1,.9a2.09,2.09,0,0,1-.6.4,2.3,2.3,0,0,1-1.4.4,3.18,3.18,0,0,1-2-.8,2.9,2.9,0,0,1,0-4Z"/><path id="Path_729" data-name="Path 729" class="cls-4" d="M1651.1,342.13q16.8-15,33.6-29.9l33.9-30.3q34.5-30.75,68.9-61.5l137.4-122.7q68.4-61,136.9-122.3c4-3.6,8-7.1,12-10.7,2-1.7,3.9-3.5,5.9-5.2,1.1-1,2.2-1.9,3.3-2.9a6.89,6.89,0,0,1,1.3-1.1c.5-.4,1.1-.8,1.6-1.2a2.42,2.42,0,0,1,3.1-.2l2.4-2.1c9.3-8.2,18.7-16.4,28-24.7.3-.3.7.2.4.4-10.1,9-20.1,18.1-30.1,27.1a2.27,2.27,0,0,1-.4,2.8,9.27,9.27,0,0,1-1.4,1.4l-.6.6c-.4.4-.9.8-1.3,1.2-1.3,1.2-2.6,2.3-3.8,3.5-2.8,2.5-5.6,5.1-8.4,7.6-5.7,5.1-11.3,10.1-17,15.1-11.4,10.2-22.9,20.4-34.3,30.5Q1988.3,48,1954,78.43q-68.85,61.35-137.6,122.5L1679.3,323c-8.3,7.4-16.5,14.8-24.8,22.2a2.36,2.36,0,0,1-1.6.7,2,2,0,0,1-1.6-.7,2.36,2.36,0,0,1-.7-1.6,1.24,1.24,0,0,1,.5-1.5Z"/><path id="Path_730" data-name="Path 730" class="cls-4" d="M1594.9,391.13c2.9-2.8,5.9-5.5,8.9-8.1,3.2-2.9,6.4-5.7,9.6-8.6,6.3-5.6,12.6-11.1,18.8-16.7,12.8-11.3,25.5-22.7,38.3-34q38.4-34.2,76.9-68.3,76.8-68.4,153.6-136.9,76.5-68.25,153.3-136.4l29.9-26.6c1.3-1.2,2.6-2.3,3.9-3.5l25.2-22.5a2.41,2.41,0,0,1,1.8-.7,2.87,2.87,0,0,1,1.8.7,2.74,2.74,0,0,1,0,3.6c-8.6,7.7-17.3,15.4-25.9,23.1-3.9,3.5-7.8,6.9-11.7,10.4-12.8,11.4-25.6,22.9-38.4,34.3q-38.4,34.35-76.8,68.6-76.5,68.4-153.2,136.7-38.25,34.05-76.3,68.2-38.4,34.35-76.7,68.7c-9.9,8.8-19.7,17.6-29.6,26.5l-14.2,12.7c-2.5,2.2-4.9,4.4-7.4,6.6s-5,4.5-7.6,6.6c-.2.2-.4.3-.6.5a2.82,2.82,0,0,1-1.5.4,3.08,3.08,0,0,1-3-3,3.64,3.64,0,0,1,.9-2.3Z"/><path id="Path_731" data-name="Path 731" class="cls-4" d="M1650.2,278a2.38,2.38,0,0,1,.6-1.1h0c8.2-7.5,16.5-14.9,24.8-22.3,8.5-7.6,17.1-15.2,25.6-22.8,17.1-15.3,34.2-30.5,51.3-45.8L1856,93.93c10.1-9,20.2-18,30.4-27l8.7-7.8,30.9-27.6c5.1-4.6,10.3-9.2,15.4-13.7,2.5-2.2,5-4.5,7.5-6.7,1.3-1.2,2.6-2.4,4-3.5s2.5-2.3,3.8-3.3c.2-.1.3-.3.5-.4s.2-.1.4-.2l5.4-4.8a2.09,2.09,0,0,1,.6-.4c11.9-10.6,23.8-21.1,35.7-31.7a2,2,0,0,1,2.9.1,1.93,1.93,0,0,1,0,2.8q-17.85,16-35.7,31.9a1.38,1.38,0,0,1-.3.4l-5.5,4.9a2.65,2.65,0,0,1-.5.6c-1.8,1.8-3.8,3.5-5.7,5.2-2.2,1.9-4.4,3.9-6.5,5.8-4.2,3.8-8.5,7.6-12.7,11.3-8.6,7.7-17.2,15.3-25.8,23-7.6,6.8-15.3,13.6-22.9,20.4-9.7,8.6-19.3,17.3-29,25.9q-51.6,46.2-103.3,92.2c-16.8,15-33.5,29.9-50.3,44.8l-25.1,22.4c-8.1,7.3-16.3,14.6-24.5,21.7a2.84,2.84,0,0,1-1.7.7,2.44,2.44,0,0,1-2.1-1.2,2.66,2.66,0,0,1-.3-1.2c-.2-.1-.2-.3-.1-.5Z"/><path id="Path_732" data-name="Path 732" class="cls-4" d="M1553.4,256c10.6-9.4,21.1-18.8,31.7-28.2a2.34,2.34,0,0,1,.7-.7L1694.9,130q54.6-48.6,109.2-97.4c14.3-12.7,28.6-25.5,42.9-38.2l21.3-18.9c2.9-2.5,5.7-5.1,8.6-7.6,3.2-2.8,6.4-5.7,9.5-8.5,12.3-10.9,24.6-21.9,36.9-32.8a2.39,2.39,0,0,1,3.4-.2l.2.2a2.54,2.54,0,0,1,.1,3.6l-.1.1c-8.8,7.9-17.6,15.8-26.5,23.7l-19.7,17.6a4.35,4.35,0,0,1-.7.6c-4.5,4-9,8-13.5,12.1-9.1,8.1-18.2,16.3-27.3,24.4-18.2,16.3-36.5,32.5-54.7,48.8q-54.6,48.75-109.3,97.4-42.9,38.25-85.8,76.6a2.18,2.18,0,0,1-.8.5c-7.7,6.9-15.4,13.7-23.1,20.6l-8.3,7.4a2.84,2.84,0,0,1-4,0,3.23,3.23,0,0,1-.8-2.1,4.35,4.35,0,0,1,1-1.9Z"/><path id="Path_733" data-name="Path 733" class="cls-4" d="M1631.2,448.43c1.1-1.1,2.3-2.1,3.5-3.2,1.4-1.2,2.7-2.4,4.1-3.7,2.7-2.4,5.3-4.8,8-7.2,5.4-4.8,10.8-9.6,16.1-14.4,10.7-9.6,21.5-19.1,32.2-28.7q32.1-28.65,64.3-57.5c18.4-16.4,36.8-32.9,55.3-49.3h0a1.8,1.8,0,0,1,.9-.6c1.1-1,2.3-2,3.4-3,5-4.4,9.9-8.9,14.9-13.3a2.41,2.41,0,0,1,1.8-.7,2.87,2.87,0,0,1,1.8.7,2.74,2.74,0,0,1,0,3.6c-5.2,4.8-10.6,9.5-15.8,14.2l-2.6,2.3a1.79,1.79,0,0,1-.5.7c-21.2,19.1-42.6,38.1-63.9,57.1q-32.25,28.65-64.4,57.3c-9.3,8.2-18.5,16.5-27.7,24.7-4.6,4.1-9.2,8.2-13.9,12.3-2.3,2.1-4.7,4.2-7,6.3-1.2,1-2.3,2.1-3.5,3.1s-2.1,1.9-3.2,2.8a2.73,2.73,0,0,1-1.9.8,2.69,2.69,0,0,1-2.7-2.7,2.47,2.47,0,0,1,.8-1.6Z"/><path id="Path_736" data-name="Path 736" class="cls-4" d="M1643.3,113c.9-.9,1.8-1.7,2.7-2.5a4.13,4.13,0,0,1,.7-1.1c.6-.6,1.3-1.2,1.9-1.7s1.4-1.2,2.1-1.9c1.5-1.3,3-2.7,4.5-4,2.9-2.5,5.7-5.1,8.6-7.6l17.1-15.3c11.5-10.3,23-20.5,34.5-30.8l69-61.5q34.5-30.6,68.8-61.3c3.7-3.3,7.4-6.5,11-9.8,1.8-1.6,3.7-3.2,5.5-4.8s3.8-3.5,5.8-5.1a3.49,3.49,0,0,1,2.4-1,3.69,3.69,0,0,1,2.4,1,3.32,3.32,0,0,1,0,4.7h0c-1.3,1.3-2.7,2.5-4,3.7-1.5,1.3-2.9,2.6-4.4,4-2.8,2.6-5.7,5.1-8.6,7.7-5.7,5.1-11.4,10.2-17.2,15.3l-34.3,30.7q-34.35,30.75-68.8,61.4l-69,61.5-11.3,10.1-5.5,4.9-2.8,2.5-2.7,2.4c-.1.1-.3.2-.5.4l-.2.2h0a1.14,1.14,0,0,1-.8.3c-.8.7-1.7,1.4-2.5,2.1-.2.2-.4.3-.6.5a2.82,2.82,0,0,1-1.5.4,3,3,0,0,1-3.1-3v-.1a2.74,2.74,0,0,1,.8-2.3Z"/></g><g id="Group_461" data-name="Group 461"><path id="Path_737" data-name="Path 737" class="cls-4" d="M1715-137.77l.6.6c.4.5.9,1,1.3,1.5a3,3,0,0,0,.8.8c1.3,1.5,2.7,3,4,4.5,2.8,3.1,5.6,6.3,8.4,9.4l16.4,18.5c10.9,12.4,21.9,24.7,32.9,37.1q33.45,37.65,66.9,75.2,67.35,75.75,134.9,151.4,66.3,74.4,132.5,148.8c9.4,10.6,18.9,21.2,28.3,31.8,4.8,5.4,9.7,10.8,14.5,16.2l7.3,8.2c1.1,1.2,2.1,2.4,3.2,3.6.9,1.1,1.9,2.1,2.7,3.3a2.11,2.11,0,0,1-.7,2.9.1.1,0,0,0-.1.1,2,2,0,0,1-1.7.2,2.07,2.07,0,0,1-1-.6h0l-1.5-1.5c-.6-.6-1.1-1.2-1.7-1.9-1.3-1.4-2.6-2.9-3.8-4.3-2.9-3.3-5.8-6.5-8.8-9.8-5.4-6.1-10.9-12.2-16.3-18.3q-16.5-18.45-33-37-32.85-36.9-65.8-73.7L1900.6,78.33Q1833.4,3,1766.1-72.27l-28.3-31.6c-4.6-5.1-9.2-10.3-13.8-15.4-2.4-2.7-4.8-5.3-7.1-8-1.1-1.3-2.2-2.5-3.3-3.8-.3-.3-.5-.6-.8-.9a6.47,6.47,0,0,1-.8-.9c-.3-.4-.7-.7-1-1.1a2.65,2.65,0,0,1-.5-.6,2.6,2.6,0,0,1-.4-1.5,2.72,2.72,0,0,1,.9-2.1,3.23,3.23,0,0,1,2.1-.8c.7.4,1.3.8,1.9,1.2Z"/><path id="Path_738" data-name="Path 738" class="cls-4" d="M1653.9-64.27l31.6,35.5L1717.4,7l64.8,72.6q64.65,72.45,129.4,144.8,64.35,72.15,128.9,144.2c3.8,4.2,7.5,8.4,11.3,12.7,1.8,2.1,3.6,4.1,5.5,6.2,1,1.2,2,2.3,3,3.5.4.5.8.9,1.2,1.4a10.92,10.92,0,0,1,1.3,1.7,2.57,2.57,0,0,1,.3,3.2l2.2,2.5c8.7,9.8,17.3,19.7,26.1,29.5.3.3-.2.8-.5.5-9.5-10.6-19.1-21.2-28.6-31.8a2.57,2.57,0,0,1-3-.4l-1.5-1.5a4.35,4.35,0,0,1-.6-.7,17.41,17.41,0,0,1-1.2-1.4c-1.2-1.3-2.5-2.7-3.7-4.1-2.7-2.9-5.3-5.9-8-8.9-5.3-6-10.6-11.9-15.9-17.9-10.7-12.1-21.5-24.1-32.2-36.2q-32.1-36.15-64.2-72.2-64.65-72.45-129.2-145.1-64.35-72.3-128.7-144.5c-7.8-8.7-15.6-17.4-23.4-26.2a2.84,2.84,0,0,1-.7-1.7,2.84,2.84,0,0,1,.7-1.7,2.84,2.84,0,0,1,1.7-.7,3.77,3.77,0,0,1,1.5.9Z"/><path id="Path_739" data-name="Path 739" class="cls-4" d="M1602.2-123.47c3,3,5.8,6.2,8.6,9.4,3,3.4,6,6.8,9,10.1,5.9,6.6,11.7,13.2,17.6,19.8l35.8,40.3q36,40.5,72,81.1,72.15,81,144.3,161.9,72,80.7,143.8,161.6c9.3,10.5,18.7,21,28,31.5,1.2,1.4,2.4,2.7,3.7,4.1,7.9,8.9,15.8,17.7,23.7,26.6a2.73,2.73,0,0,1,.8,1.9,2.69,2.69,0,0,1-2.7,2.7,2.73,2.73,0,0,1-1.9-.8l-24.3-27.3c-3.7-4.1-7.3-8.2-11-12.3-12.1-13.5-24.1-27-36.2-40.5q-36.15-40.5-72.3-80.9Q1869,185,1797,104.23q-36-40.2-71.9-80.5-36.15-40.35-72.4-80.9l-27.9-31.2c-4.5-5-8.9-10-13.4-15l-6.9-7.8c-2.4-2.7-4.7-5.3-7-8.1-.2-.2-.3-.4-.5-.6a2.93,2.93,0,0,1-.4-1.6,3,3,0,0,1,3-3.1h.1a4.41,4.41,0,0,1,2.5,1.1Z"/><path id="Path_740" data-name="Path 740" class="cls-4" d="M1721.4-65.27a2.59,2.59,0,0,1,1.1.7h0c7.9,8.6,15.7,17.4,23.5,26.2,8,9,16.1,18,24.1,27,16.1,18,32.2,36.1,48.2,54.1q48.6,54.45,97.1,109c9.5,10.7,19,21.3,28.5,32,2.7,3.1,5.5,6.1,8.2,9.2,9.7,10.8,19.4,21.7,29.1,32.5,4.8,5.4,9.6,10.8,14.5,16.2,2.4,2.6,4.7,5.3,7.1,8,1.2,1.4,2.5,2.8,3.7,4.2s2.4,2.7,3.5,4c.1.2.3.3.4.5s.1.2.2.4c1.7,1.9,3.3,3.8,5,5.7a2.09,2.09,0,0,1,.4.6c11.1,12.5,22.3,25,33.4,37.6a2.19,2.19,0,0,1-3.1,3.1q-17-18.75-33.7-37.6a1.38,1.38,0,0,1-.4-.3L2007,262a2.65,2.65,0,0,1-.6-.5c-1.9-1.9-3.7-4-5.5-6-2.1-2.3-4.1-4.6-6.1-6.9-4-4.5-8-8.9-11.9-13.4L1958.7,208c-7.2-8-14.3-16.1-21.5-24.1-9.1-10.2-18.2-20.4-27.3-30.5l-97.2-108.9-47.3-53c-7.9-8.8-15.7-17.6-23.6-26.5-7.6-8.6-15.3-17.1-22.9-25.8a2.41,2.41,0,0,1-.7-1.8,2.61,2.61,0,0,1,1.3-2.2,2.77,2.77,0,0,1,1.3-.3c.2-.3.4-.2.6-.2Z"/><path id="Path_741" data-name="Path 741" class="cls-4" d="M1744.7-167.17c9.9,11.1,19.8,22.3,29.7,33.4a2.7,2.7,0,0,1,.8.7l102.4,115q51.3,57.6,102.6,115.1c13.4,15.1,26.8,30.1,40.3,45.2,6.6,7.5,13.3,15,19.9,22.4,2.7,3,5.4,6,8.1,9.1,3,3.3,6,6.7,8.9,10,11.5,13,23.1,25.9,34.6,38.9a2.66,2.66,0,0,1,0,3.8,2.69,2.69,0,0,1-3.8,0h0c-8.4-9.3-16.7-18.6-25-27.9-6.2-6.9-12.4-13.8-18.5-20.7-.2-.2-.4-.5-.6-.7l-12.7-14.2c-8.6-9.6-17.2-19.2-25.7-28.8q-25.8-28.8-51.4-57.6-51.3-57.6-102.7-115.2l-80.8-90.4c-.2-.3-.4-.5-.6-.8-7.2-8.1-14.5-16.2-21.7-24.3-2.6-2.9-5.2-5.8-7.8-8.8a3.33,3.33,0,0,1-.9-2.1,2.72,2.72,0,0,1,.9-2.1,3.1,3.1,0,0,1,2.2-.9A2.83,2.83,0,0,1,1744.7-167.17Z"/><path id="Path_742" data-name="Path 742" class="cls-4" d="M1541.8-85.27c1.1,1.2,2.2,2.4,3.3,3.7,1.3,1.4,2.6,2.9,3.9,4.3l7.5,8.4,15.2,17L1602-18l60.6,67.8c17.3,19.4,34.7,38.8,51.9,58.3h0a3.59,3.59,0,0,1,.7,1c1.1,1.2,2.1,2.4,3.2,3.6,4.7,5.2,9.4,10.5,14,15.7a2.66,2.66,0,0,1,0,3.8,2.69,2.69,0,0,1-3.8,0h0c-5-5.5-10-11.1-14.9-16.7l-2.4-2.7a1.56,1.56,0,0,1-.8-.6c-20.2-22.4-40.1-44.9-60.2-67.4l-60.4-67.9c-8.7-9.8-17.4-19.5-26.1-29.2-4.3-4.9-8.7-9.7-13-14.6-2.2-2.5-4.4-5-6.6-7.4-1.1-1.2-2.2-2.4-3.3-3.7-1-1.1-2-2.2-3-3.4a3,3,0,0,1-.8-2,3.18,3.18,0,0,1,.8-2,3,3,0,0,1,2-.8,3.38,3.38,0,0,1,1.9.9Z"/><path id="Path_743" data-name="Path 743" class="cls-4" d="M1903.3,285.13c2.6,2.8,5.1,5.6,7.6,8.4a2.65,2.65,0,0,1,.6.5c6.9,7.6,13.7,15.3,20.5,22.9s13.8,15.3,20.5,23.1c.3.3.5.6.8.9a8.34,8.34,0,0,1,.8,1.2h0c.1.2.2.3.2.5,4.3,4.8,8.5,9.6,12.8,14.4a2.18,2.18,0,0,1,0,3,2.05,2.05,0,0,1-2.9.1l-.1-.1c-4.3-4.8-8.6-9.7-13-14.5a2.18,2.18,0,0,1-.8-.5,1.79,1.79,0,0,0-.7-.5c-.2-.2-.4-.5-.6-.7-.4-.5-.8-.9-1.2-1.4l-2.7-3c-1.7-1.9-3.4-3.9-5.2-5.8-3.4-3.8-6.8-7.7-10.3-11.5-6.8-7.7-13.7-15.3-20.4-23-.5-.5-.9-1.1-1.4-1.6a4.05,4.05,0,0,1-.5-.9c-2.5-2.8-4.9-5.5-7.3-8.3a2.2,2.2,0,0,1,1.6-3.8,2,2,0,0,1,1.7.6Z"/><path id="Path_745" data-name="Path 745" class="cls-4" d="M1895.4-72.47c.9.9,1.8,1.9,2.7,2.8a8.34,8.34,0,0,1,1.2.8,11.23,11.23,0,0,1,1.8,2c.7.7,1.3,1.4,2,2.2,1.4,1.6,2.8,3.1,4.2,4.7,2.7,3,5.4,6,8,9,5.4,6,10.7,12,16.1,18l32.4,36.3q32.4,36.3,64.8,72.7c21.5,24.2,43.1,48.3,64.6,72.6,3.4,3.9,6.9,7.7,10.3,11.6,1.7,1.9,3.4,3.9,5.1,5.8s3.7,4,5.4,6.1a3.62,3.62,0,0,1,0,5,3.47,3.47,0,0,1-4.9.1l-.1-.1c-1.4-1.4-2.6-2.8-3.9-4.2s-2.8-3.1-4.2-4.6l-8.1-9c-5.4-6-10.8-12.1-16.2-18.1-10.8-12.1-21.6-24.1-32.3-36.2l-64.7-72.5q-32.4-36.3-64.8-72.7c-3.5-4-7.1-7.9-10.6-11.9-1.7-1.9-3.4-3.9-5.2-5.8l-2.6-2.9-2.5-2.8c-.1-.2-.3-.3-.4-.5l-.2-.2h0a2,2,0,0,1-.4-.8c-.8-.9-1.5-1.8-2.2-2.7-.2-.2-.3-.4-.5-.6a2.93,2.93,0,0,1-.4-1.6,3.17,3.17,0,0,1,.9-2.3,3.17,3.17,0,0,1,2.3-.9,2.14,2.14,0,0,1,2.4.7Z"/></g></g></g></g></svg>