<svg id="Layer_1" data-name="Layer 1" xmlns="http://www.w3.org/2000/svg" xmlns:xlink="http://www.w3.org/1999/xlink" viewBox="0 0 394.96 87.23"><defs><style>.cls-1{fill:none;}.cls-2{clip-path:url(#clip-path);}.cls-3{fill:#f2f2f2;}.cls-4{opacity:0.66;}.cls-5{fill:#fff;opacity:0.99;isolation:isolate;}</style><clipPath id="clip-path"><path id="Path_483" data-name="Path 483" class="cls-1" d="M362,87.23H33.07A33.08,33.08,0,0,1,0,54.16v9H0V47.51H0V26.91C15.59,11,67.37-3,93,.57c57.6,8.21,52.68,35.37,82.3,42.84,36.27,9.11,59.42-23.31,88.06-28,40.29-6.57,51.45,25.11,98.71,30.28C374,47,385,44.48,395,41.77v5.74h0v6.65a32.94,32.94,0,0,1-32.84,33.07Z"/></clipPath></defs><title>14-day-trial-assets</title><g class="cls-2"><g id="Group_210" data-name="Group 210"><path id="Path_483-2" data-name="Path 483" class="cls-3" d="M362,87.23H33.07A33.08,33.08,0,0,1,0,54.16v9H0V47.51H0V26.91C15.59,11,67.37-3,93,.57c57.6,8.21,52.68,35.37,82.3,42.84,36.27,9.11,59.42-23.31,88.06-28,40.29-6.57,51.45,25.11,98.71,30.28C374,47,385,44.48,395,41.77v5.74h0v6.65a32.94,32.94,0,0,1-32.84,33.07Z"/></g><g id="Group_214" data-name="Group 214" class="cls-4"><g id="Group_211" data-name="Group 211"><path id="Path_484" data-name="Path 484" class="cls-5" d="M288.12,10.59c-.08-.41-.17-.9-.25-1.32h0c-.08-.9-.16-1.8-.16-2.7A17.45,17.45,0,0,0,287.3,3c-.25-1.81-.74-3.53-1.07-5.34,0-.32-.08-.74-.08-1.06a3,3,0,0,0-1-2.3,3.12,3.12,0,0,0-1.06-.74,3.44,3.44,0,0,0-3-1.73h-.9a15.74,15.74,0,0,0-2.05.17c-.57.08-1.15.24-1.72.33-1,.16-2,.41-3,.65-2,.41-3.93.9-5.82,1.4-.49.17-1,.25-1.4.41s-1,.33-1.56.58a4.94,4.94,0,0,0-2.13,2A5.86,5.86,0,0,0,261.86,0a14.9,14.9,0,0,0,0,1.89,21.53,21.53,0,0,0,.41,2.38,6.83,6.83,0,0,0,.41,1.23c.65,2,1.23,4,1.88,6,.25.9.58,1.73.9,2.63a6.55,6.55,0,0,0,.74,1.64,3.82,3.82,0,0,0,1.48,1.31,4.68,4.68,0,0,0,2.38.49,8.35,8.35,0,0,0,2.05-.32,11.93,11.93,0,0,0,1.56-.41l1.81-.5,3-.74,5.42-1.23,1.4-.24a8.93,8.93,0,0,0,2-.58,2.23,2.23,0,0,0,1-1.31,1.39,1.39,0,0,0,.09-.57,9.77,9.77,0,0,1-.25-1.07Zm-2.63.24Zm-1.89-3c.25.74.33,1.47.58,2.21a8.14,8.14,0,0,0,.41,1.07c-1.89.33-3.78.82-5.58,1.23-1.15.25-2.3.58-3.45.82-1.51.43-3.05.79-4.6,1.07-.24,0-.57.08-.82.08a35.08,35.08,0,0,0-.74-5.09c-.24-1.06-.49-2.13-.74-3.12-.24-1.14-.57-2.21-.74-3.36a5.1,5.1,0,0,1,0-1.56,3.55,3.55,0,0,1,.9-.16c.5-.09,1.07-.25,1.56-.33,1.15-.25,2.22-.49,3.37-.66s2.21-.49,3.36-.74c.9-.16,1.72-.41,2.63-.49h.16c.08.16.08.33.17.49a14,14,0,0,0,.9,2c.49.9,1,1.89,1.39,2.79.41,1.07.82,2.38,1.23,3.78Zm-13.45,6.64c0-.08-.08-.08-.08-.16A.3.3,0,0,1,270.15,14.44Zm-.08,0a.09.09,0,0,0-.08-.08h0Zm-.33-.32c-.08,0-.08-.09-.17-.09C269.66,14,269.66,14.12,269.74,14.12Zm-2.55-13-.08.08a.08.08,0,0,1,.08-.08Z"/><path id="Path_485" data-name="Path 485" class="cls-5" d="M225.51,15.59a18.5,18.5,0,0,0-.66-3.61c-.25-1-.49-1.88-.74-2.87s-.41-1.8-.66-2.71-.49-1.72-.74-2.62c-.49-1.4-.9-3-2.05-4a3.27,3.27,0,0,0-1.47-.83,2.58,2.58,0,0,0-.83-.08.08.08,0,0,1-.08-.08h0c-.24-.08-.49-.25-.73-.33a2.9,2.9,0,0,0-1.65,0c-2.13.33-4.26.74-6.4,1.15-1,.17-2.05.41-3,.58-.49.08-.9.24-1.4.32a6,6,0,0,0-1.56.74c-.24.17-.41.33-.65.5a2.83,2.83,0,0,0-.58.82,3.26,3.26,0,0,0-.49,1.56,11.88,11.88,0,0,0-.16,2.46,13.57,13.57,0,0,0,.4,2.54,13.54,13.54,0,0,1,.41,1.89c.25.9.41,1.72.66,2.63.49,1.88.9,3.77,1.56,5.58.16.41.41.9.57,1.31A6.49,6.49,0,0,0,206.3,22l.49.49a3.16,3.16,0,0,0,1.07.74,7.28,7.28,0,0,0,2.95.82,12,12,0,0,0,2.47-.17l1.23-.24c.57-.17,1.15-.25,1.72-.41l3-.74c.83-.25,1.73-.49,2.47-.74a15.36,15.36,0,0,0,1.72-.74A5.35,5.35,0,0,0,225,19.62a4.6,4.6,0,0,0,.74-2.38V17a4.73,4.73,0,0,1-.25-1.39Zm-3.78.66-.08.08h0Zm-.82.25-1.4.24c-.74.08-1.48.25-2.22.33-1.47.25-2.95.57-4.51.82a11.19,11.19,0,0,1-1.64.08h-.08l-.08-.08c0-.08-.09-.08-.09-.16-.24-.74-.41-1.48-.65-2.22l-.74-2.71c-.25-1-.57-2-.82-3s-.66-2.22-.9-3.37V6.15l1.15-.24a21.13,21.13,0,0,1,2.38-.41c1.56-.25,3-.58,4.6-.82.41.65.9,1.31,1.31,2.05.57,1,1.07,2,1.56,3,.16.41.33.82.49,1.14.25.66.58,1.32.82,2.06a15.46,15.46,0,0,1,.66,2.13,4.09,4.09,0,0,1,.16,1v.41Z"/><path id="Path_486" data-name="Path 486" class="cls-5" d="M255.05,39.55a2.17,2.17,0,0,0-1.89-.16h0a1.56,1.56,0,0,0-1-1.94l-.11,0c-3.12-.65-6.24-1.31-9.35-1.89a19.7,19.7,0,0,0-3-.41,3.46,3.46,0,0,0-1.23.25c-.16.16-.41.25-.57.41a1.69,1.69,0,0,0-.49.82,6.58,6.58,0,0,0-.25,1.31,5.9,5.9,0,0,0,.08,1.73c.17,1.23.41,2.54.66,3.77l.24,1.73c.08.49.08,1,.17,1.4a9.53,9.53,0,0,0,.49,2.7,4.16,4.16,0,0,0,3.61,2.88,4,4,0,0,0,2-.58c.33-.24.66-.41,1-.66,1-.65,1.89-1.31,2.88-2,.57-.41,1.15-.9,1.8-1.4l1.07-.83c.66-.49,1.31-1,2-1.47.41-.25.82-.58,1.23-.82a3.3,3.3,0,0,0,.82-.66c.08-.08.08-.16.17-.24a3,3,0,0,0,.65-1.07,4,4,0,0,0,.17-.9v-.08a2.38,2.38,0,0,0-1.15-1.89Zm-9.44-.24c1.89.41,3.78.74,5.58,1.15h.25l-1.24,1.23c-.57.57-1.23,1.15-1.8,1.72s-1.23,1.15-1.81,1.72a16.37,16.37,0,0,1-1.88,1.56l-1,.74c-.33.25-.65.49-.9.66a.07.07,0,0,0-.08-.08h0a20.92,20.92,0,0,1-.49-2.22,12.43,12.43,0,0,0-.33-1.72c-.16-.66-.25-1.23-.41-1.89-.25-1.07-.49-2-.66-3.12v-.49c.33,0,.66.08,1,.08,1.23.25,2.54.41,3.77.66Z"/><path id="Path_487" data-name="Path 487" class="cls-5" d="M305.76,52.44h0v-.08a4.78,4.78,0,0,0-.08-1.07,15.06,15.06,0,0,0-.16-1.89c-.17-1-.41-1.88-.58-2.87,0-.25-.08-.49-.08-.82a2.63,2.63,0,0,0-.08-.74,2.83,2.83,0,0,0-1.4-1.8h-.08a1.59,1.59,0,0,1-1.32-1,2.52,2.52,0,0,0-2-.82c-3.28.41-6.64.74-9.93,1.23-1.4.16-2.7.41-4.1.57a10.08,10.08,0,0,0-2.21.74,3.53,3.53,0,0,0-1.89,3,7,7,0,0,0,1,2.87c.24.66.57,1.4.82,2,.41,1.07.82,2.14,1.23,3.12a4.46,4.46,0,0,0,2.87,2.14,6.72,6.72,0,0,0,3.12.08l3.61-.49c1.8-.25,3.69-.58,5.5-.9l2.79-.5c.41-.08.82-.08,1.23-.16a2.81,2.81,0,0,0,1.31-.66,1.94,1.94,0,0,0,.49-.9,1,1,0,0,0,.09-.49c.16,0,0-.33-.17-.66Zm0-.25V52a.11.11,0,0,0,0,.16Zm-6.89-5a8.44,8.44,0,0,0,.65,1.4c.33.57.74,1.15,1.07,1.8s.66,1.23,1,1.89a13.5,13.5,0,0,0-1.56.33c-1.07.16-2.14.41-3.2.49s-2.05.25-3.12.41a11.25,11.25,0,0,1-1.64.16,14.43,14.43,0,0,1-2.63.09,4.08,4.08,0,0,0-.33-.25c-.16-1.15-.4-2.3-.65-3.45A11.93,11.93,0,0,0,288,48.5c.16,0,.33-.08.57-.08l1.64-.24c.9-.17,1.89-.33,2.79-.41l5.75-.74c.08.08.08.08.08.16Zm-2.3,5.9h-.17C296.49,53.18,296.49,53.18,296.57,53.09Zm-6.9.74Zm-.32-.08c-.08,0-.08-.08-.17-.08C289.26,53.67,289.26,53.75,289.35,53.75Z"/><path id="Path_488" data-name="Path 488" class="cls-5" d="M340.8,5.75a3.43,3.43,0,0,0-3.2-2.47,34.56,34.56,0,0,0-4.27-1.88C332,.82,330.79.33,329.48-.24a6.13,6.13,0,0,0-1.23-.41,2.81,2.81,0,0,0-2.3.49,3.69,3.69,0,0,0-1,1,2.55,2.55,0,0,0-.33.66,10.17,10.17,0,0,0-.57,1.31,8.76,8.76,0,0,0-.57,3.28c0,.82,0,1.73.08,2.55a15.06,15.06,0,0,0,.16,1.89,3.25,3.25,0,0,0,3.45,2.79c.8-.1,1.59-.24,2.38-.41.41-.09.9-.25,1.31-.33.9-.33,1.81-.66,2.71-.9a50.89,50.89,0,0,0,5.83-2.14,3.23,3.23,0,0,0,1.64-2.87,3.54,3.54,0,0,1-.25-.9Zm-9.52-1.32c.74.25,1.56.58,2.3.9-.08.08-.16.08-.24.17-1.07.57-2.14,1.06-3.2,1.56l-1.23.49V7.14a16.26,16.26,0,0,1,0-3c0-.16.08-.32.08-.49.74.25,1.47.49,2.3.74Z"/><path id="Path_489" data-name="Path 489" class="cls-5" d="M215.9,64.34a5.45,5.45,0,0,0-.49-1.23c-.08-.09-.08-.17-.16-.33a6.51,6.51,0,0,0-1-1.23,8,8,0,0,0-3.69-2.14,19.87,19.87,0,0,0-2.3-.32h-.74a5.53,5.53,0,0,0-1.07.16l-.74.25a1.41,1.41,0,0,0-.57.08,3.52,3.52,0,0,0-1.8,1,4.69,4.69,0,0,0-.82,1.07,5.25,5.25,0,0,0-.66,2.22A5.92,5.92,0,0,0,202,65.9a20.36,20.36,0,0,0,.74,2,5.39,5.39,0,0,0,1.4,1.88,9.63,9.63,0,0,0,1.48,1.15,7.7,7.7,0,0,0,1.39.58,7.19,7.19,0,0,0,2.3.32,10,10,0,0,0,1.64-.16c.33-.08.58-.16.9-.25a6.84,6.84,0,0,0,1.15-.57,11.57,11.57,0,0,0,1.07-.9,13.24,13.24,0,0,0,1-1.15c.17-.24.25-.49.41-.74a4.81,4.81,0,0,0,.41-1.23,7.23,7.23,0,0,0,.17-1.31v-.08a9.91,9.91,0,0,1-.17-1.07Zm-6.73,1.88.41.41c-.08.09-.08.17-.16.17h0a.3.3,0,0,0-.16.08c-.17.08-.33.08-.5.16h-.57a2.7,2.7,0,0,1-.41-.08.3.3,0,0,1-.16-.08,3.48,3.48,0,0,1-.58-.57c-.24-.33-.41-.74-.65-1.15a.5.5,0,0,1-.09-.33,5,5,0,0,0,1,.33l.9.24c.08.09.25.09.33.17a4,4,0,0,1,.65.65Z"/><path id="Path_490" data-name="Path 490" class="cls-5" d="M333.83,48.58c-.17-.24-.33-.41-.5-.65a4.78,4.78,0,0,0-.08-1.07,2.58,2.58,0,0,0-.33-.74,2.66,2.66,0,0,0-1.06-1.07,10.93,10.93,0,0,0-2.79-1.31,9.75,9.75,0,0,0-2.14-.41,5.84,5.84,0,0,0-5.9,3.12,5.93,5.93,0,0,0-.66,3.12,16.17,16.17,0,0,0,.41,2A15.65,15.65,0,0,0,322,54.24a7.86,7.86,0,0,0,6.32,3.61,6.72,6.72,0,0,0,1.89-.24,4.8,4.8,0,0,0,2.46-1.23,5.27,5.27,0,0,0,1.56-2.79,12.57,12.57,0,0,0,.33-1.73v-.49a5.17,5.17,0,0,0-.74-2.79Zm-5.34,3.86h0c-.16,0-.24-.08-.41-.08s-.41-.25-.57-.33l-.25-.25c-.16-.24-.33-.57-.49-.82a10.53,10.53,0,0,1-.41-1.56h.16a7.5,7.5,0,0,1,1.4.41h0a.65.65,0,0,1-.08.41,2.45,2.45,0,0,0,.33,1.32c.08.24.16.57.25.82l.08.08Z"/><path id="Path_491" data-name="Path 491" class="cls-5" d="M297.39,86.17l-5.66-4.93c-.49-.41-1-.9-1.56-1.31a10.39,10.39,0,0,0-3.53-2.14,4.62,4.62,0,0,0-1-.08,3.18,3.18,0,0,0-1.23.33,2.71,2.71,0,0,0-1.31,1.4,9.92,9.92,0,0,0-.66,2.13c-.24.9-.41,1.89-.65,2.79s-.58,1.65-.82,2.55a5.62,5.62,0,0,0-.25,1.15,3.72,3.72,0,0,0,.33,1.39,2.6,2.6,0,0,0,.66.74,3.49,3.49,0,0,0,.9.66,3.66,3.66,0,0,0,1.56.65,10,10,0,0,0,1.64.17c1.06.08,2.13.08,3.2.08a28.88,28.88,0,0,0,5.25-.33c.16,0,.41-.08.57-.08s.49-.08.74-.16a2.9,2.9,0,0,0,2.13-2.79,1.67,1.67,0,0,0,.17-.9,1.39,1.39,0,0,0-.49-1.32Zm-7-.66c.25.25.5.41.74.66-.08,0-.16.08-.24.08-.66.16-1.4.24-2.05.41s-1.07.08-1.64.16c-.41,0-.83.08-1.32.08v-.08a5.86,5.86,0,0,0,.49-1.64c.17-.57.25-1.23.41-1.8a1.88,1.88,0,0,0,.09-.66c.08.08.24.16.32.24a23.87,23.87,0,0,1,3.2,2.55ZM286,82.06Z"/><path id="Path_493" data-name="Path 493" class="cls-5" d="M336.29,91.25c.16-.82.41-1.56.57-2.38a6.57,6.57,0,0,1,.33-1.23.56.56,0,0,1,.08-.33c.08-.32.08-.65.17-1v-.82a3,3,0,0,0-1.4-2.46h0c0-.17.08-.33.08-.5a2.35,2.35,0,0,0-2.3-2.3c-2.3-.08-4.6-.24-6.89-.16a7.06,7.06,0,0,0-1.89.25,4.71,4.71,0,0,0-1,.41,4.13,4.13,0,0,0-1,1.06,3.2,3.2,0,0,0-.41,1.23c-.08.25-.08.41-.17.66-.24.9-.49,1.89-.65,2.79a22,22,0,0,0-.58,3.12,17.18,17.18,0,0,0-.08,2.87m3.78.66v-1.4c0-.33.08-.65.08-1a9,9,0,0,1,.33-1.64c.16-.66.33-1.32.49-1.89s.33-1.23.49-1.89l.25-.74a11.65,11.65,0,0,1,1.56.08c.57,0,1.15.09,1.72.09s1.23.08,1.89.08a12.84,12.84,0,0,0-.17,1.64v.41h0c.09.57.09,1.07.17,1.64.08,1.07.24,2.13.24,3.2"/></g><g id="Group_213" data-name="Group 213"><g id="Group_212" data-name="Group 212"><path id="Path_494" data-name="Path 494" class="cls-5" d="M126.87,10.59c-.08-.41-.17-.9-.25-1.32h0c-.08-.9-.16-1.8-.16-2.7A18.19,18.19,0,0,0,126.05,3c-.25-1.81-.74-3.53-1.07-5.34,0-.32-.08-.74-.08-1.06a3,3,0,0,0-1-2.3,3.12,3.12,0,0,0-1.06-.74,3.45,3.45,0,0,0-3-1.73H119a15.74,15.74,0,0,0-2,.17c-.57.08-1.15.24-1.72.33-1,.16-2,.41-3,.65-2,.41-3.94.9-5.82,1.4-.49.17-1,.25-1.4.41s-1,.33-1.56.58a4.94,4.94,0,0,0-2.13,2A5.86,5.86,0,0,0,100.61,0a14.9,14.9,0,0,0,0,1.89A21.53,21.53,0,0,0,101,4.27a6.83,6.83,0,0,0,.41,1.23c.65,2,1.23,4,1.88,6,.25.9.58,1.73.9,2.63a6.21,6.21,0,0,0,.74,1.64,3.82,3.82,0,0,0,1.48,1.31,4.68,4.68,0,0,0,2.38.49,8.42,8.42,0,0,0,2-.32,11.93,11.93,0,0,0,1.56-.41c.57-.17,1.23-.33,1.81-.5,1-.24,2-.49,3-.74l5.42-1.23,1.4-.24a9.25,9.25,0,0,0,2-.58,2.23,2.23,0,0,0,1-1.31,1.24,1.24,0,0,0,.08-.57,9.73,9.73,0,0,1-.24-1.07Zm-2.63.24Zm-2-3c.25.74.33,1.47.58,2.21a9.79,9.79,0,0,0,.4,1.07c-1.88.33-3.77.82-5.58,1.23-1.14.25-2.3.58-3.44.82-1.52.43-3,.79-4.6,1.07-.25,0-.58.08-.82.08a35.08,35.08,0,0,0-.74-5.09c-.25-1.06-.49-2.13-.74-3.12-.25-1.14-.58-2.21-.74-3.36a5.1,5.1,0,0,1,0-1.56,3.47,3.47,0,0,1,.9-.16c.49-.09,1.07-.25,1.56-.33,1.15-.25,2.22-.49,3.37-.66s2.21-.49,3.36-.74c.9-.16,1.72-.41,2.63-.49h.16c.08.16.08.33.16.49a15.25,15.25,0,0,0,.9,2c.5.9,1,1.89,1.4,2.79a20.15,20.15,0,0,1,1.24,3.78ZM108.9,14.44c0-.08-.09-.08-.09-.16A.26.26,0,0,0,108.9,14.44Zm-.09,0a.08.08,0,0,0-.07-.08h0Zm-.32-.32c-.09,0-.09-.09-.17-.09C108.4,14,108.4,14.12,108.49,14.12Zm-2.55-13-.08.08a.08.08,0,0,1,.08-.08Z"/><path id="Path_495" data-name="Path 495" class="cls-5" d="M64.25,15.59A17.76,17.76,0,0,0,63.6,12c-.25-1-.49-1.88-.74-2.87s-.41-1.8-.66-2.71-.49-1.72-.74-2.62c-.49-1.4-.9-3-2.05-4a3.27,3.27,0,0,0-1.47-.83,2.58,2.58,0,0,0-.83-.08A.08.08,0,0,1,57-1.23h0c-.24-.08-.49-.25-.74-.33a2.86,2.86,0,0,0-1.64,0c-2.13.33-4.26.74-6.4,1.15-1,.17-2,.41-3,.58-.5.08-.9.24-1.4.32a5.74,5.74,0,0,0-1.56.74c-.25.17-.41.33-.66.5a2.63,2.63,0,0,0-.57.82,3.16,3.16,0,0,0-.5,1.56,12.62,12.62,0,0,0-.16,2.46,13.59,13.59,0,0,0,.41,2.54A15.14,15.14,0,0,1,41.19,11c.25.9.41,1.72.66,2.62.49,1.89.9,3.78,1.56,5.58.16.41.4.9.57,1.32A6,6,0,0,0,45.05,22l.49.5a3.07,3.07,0,0,0,1.07.74,7.24,7.24,0,0,0,3,.82A11.93,11.93,0,0,0,52,23.88l1.23-.24c.58-.17,1.15-.25,1.73-.41l3-.74c.82-.25,1.72-.5,2.46-.74A14.6,14.6,0,0,0,62.11,21a5.14,5.14,0,0,0,1.64-1.4,4.46,4.46,0,0,0,.74-2.38V17a4.73,4.73,0,0,1-.24-1.4Zm-3.77.66-.08.08h0Zm-.82.25-1.4.24c-.74.08-1.48.25-2.22.33-1.48.25-2.95.57-4.51.82a11.26,11.26,0,0,1-1.64.08h-.08l-.09-.08c0-.08-.08-.08-.08-.16-.24-.74-.41-1.48-.65-2.22l-.74-2.71c-.25-1-.58-2-.82-3s-.66-2.22-.9-3.37V6.15l1.15-.24a21.13,21.13,0,0,1,2.38-.41c1.55-.25,3-.58,4.6-.82.4.65.9,1.31,1.31,2.05.57,1,1.07,2,1.56,3,.16.41.33.82.49,1.14.24.66.57,1.32.82,2.06a15.46,15.46,0,0,1,.66,2.13,4.09,4.09,0,0,1,.16,1,.72.72,0,0,0,0,.41Z"/><path id="Path_496" data-name="Path 496" class="cls-5" d="M93.8,39.55a2.17,2.17,0,0,0-1.89-.16h0a1.56,1.56,0,0,0-1-1.94l-.11,0c-3.12-.65-6.24-1.31-9.36-1.89a19.57,19.57,0,0,0-3-.41,3.46,3.46,0,0,0-1.23.25c-.16.16-.41.25-.57.41a1.79,1.79,0,0,0-.5.82,7.36,7.36,0,0,0-.24,1.31A5.9,5.9,0,0,0,76,39.64c.16,1.23.41,2.54.66,3.77l.24,1.73c.08.49.08,1,.17,1.4a9.53,9.53,0,0,0,.49,2.7,4.15,4.15,0,0,0,3.61,2.88,4.06,4.06,0,0,0,2-.58c.33-.24.65-.41,1-.66,1-.65,1.89-1.31,2.87-2,.58-.41,1.15-.9,1.81-1.4l1.07-.83c.65-.49,1.31-1,2-1.47.41-.25.82-.58,1.23-.82a3.26,3.26,0,0,0,.82-.66c.08-.08.08-.16.16-.24a2.91,2.91,0,0,0,.66-1.07,3.47,3.47,0,0,0,.16-.9v-.08a2.35,2.35,0,0,0-1.14-1.89Zm-9.44-.24c1.89.41,3.77.74,5.58,1.15h.24L89,41.69c-.57.57-1.23,1.15-1.8,1.72s-1.23,1.15-1.81,1.72a16.37,16.37,0,0,1-1.88,1.56l-1,.74c-.33.25-.65.49-.9.66a.07.07,0,0,0-.08-.08h0A20.92,20.92,0,0,1,81,45.79a12.43,12.43,0,0,0-.33-1.72c-.16-.66-.25-1.23-.41-1.89-.25-1.07-.49-2-.66-3.12v-.49c.33,0,.66.08,1,.08,1.23.25,2.46.41,3.77.66Z"/><path id="Path_497" data-name="Path 497" class="cls-5" d="M144.51,52.44h0v-.08a4.78,4.78,0,0,0-.08-1.07,15.08,15.08,0,0,0-.17-1.89c-.16-1-.41-1.88-.57-2.87,0-.25-.08-.49-.08-.82a2.63,2.63,0,0,0-.08-.74,2.83,2.83,0,0,0-1.4-1.8H142a1.59,1.59,0,0,1-1.31-1,2.52,2.52,0,0,0-2-.82c-3.28.41-6.65.74-9.93,1.23-1.39.16-2.71.41-4.1.57a10.08,10.08,0,0,0-2.21.74,3.53,3.53,0,0,0-1.89,3,7,7,0,0,0,1,2.87c.25.66.58,1.4.83,2,.41,1.07.82,2.14,1.23,3.12a4.44,4.44,0,0,0,2.87,2.14,6.71,6.71,0,0,0,3.12.08l3.61-.49c1.8-.25,3.69-.58,5.5-.9l2.79-.5c.41-.08.82-.08,1.23-.16a2.81,2.81,0,0,0,1.31-.66,1.94,1.94,0,0,0,.49-.9,1,1,0,0,0,.09-.49c.08,0,0-.33-.17-.66Zm0-.25V52C144.43,52.11,144.43,52.19,144.51,52.19Zm-6.89-5a8.44,8.44,0,0,0,.65,1.4c.33.57.74,1.15,1.07,1.8s.66,1.23,1,1.89a13.79,13.79,0,0,0-1.55.33c-1.07.16-2.14.41-3.2.49s-2.06.25-3.12.41a11.25,11.25,0,0,1-1.64.16,14.43,14.43,0,0,1-2.63.09,4.08,4.08,0,0,0-.33-.25c-.16-1.15-.41-2.3-.65-3.45a11.93,11.93,0,0,0-.41-1.56c.16,0,.33-.08.57-.08l1.64-.24c.9-.17,1.89-.33,2.79-.41l5.75-.74c.08.08.08.08.08.16Zm-2.3,5.9h-.17C135.23,53.18,135.23,53.18,135.32,53.09Zm-6.9.74Zm-.32-.08c-.09,0-.09-.08-.17-.08A.34.34,0,0,0,128.1,53.75Z"/><path id="Path_498" data-name="Path 498" class="cls-5" d="M179.55,5.75a3.43,3.43,0,0,0-3.2-2.47,34.56,34.56,0,0,0-4.27-1.88c-1.31-.58-2.54-1.07-3.85-1.64A6,6,0,0,0,167-.65a2.82,2.82,0,0,0-2.3.49,3.8,3.8,0,0,0-1,1,2.55,2.55,0,0,0-.33.66,9,9,0,0,0-.57,1.31,9,9,0,0,0-.58,3.28c0,.82,0,1.73.08,2.55a15.08,15.08,0,0,0,.17,1.89,3.25,3.25,0,0,0,3.44,2.79c.8-.1,1.6-.24,2.38-.41.41-.09.9-.25,1.32-.33.9-.33,1.8-.66,2.71-.9a50.05,50.05,0,0,0,5.82-2.14,3.23,3.23,0,0,0,1.64-2.87,3.52,3.52,0,0,1-.24-.9ZM170,4.43c.74.25,1.56.58,2.3.9-.08.08-.16.08-.24.17-1.07.57-2.14,1.06-3.2,1.56l-1.24.49V7.14a18.28,18.28,0,0,1,0-3c0-.16.09-.32.09-.49.74.25,1.47.49,2.3.74Z"/><path id="Path_499" data-name="Path 499" class="cls-5" d="M54.57,64.34a5.45,5.45,0,0,0-.49-1.23,2,2,0,0,1-.17-.33,6.09,6.09,0,0,0-1-1.23,8,8,0,0,0-3.69-2.14,19.87,19.87,0,0,0-2.3-.32H46.2a5.53,5.53,0,0,0-1.07.16l-.74.25a1.39,1.39,0,0,0-.57.08,3.51,3.51,0,0,0-1.81,1,5,5,0,0,0-.82,1.07,5.24,5.24,0,0,0-.65,2.22,5.68,5.68,0,0,0,.16,2.05,20.36,20.36,0,0,0,.74,2,5.39,5.39,0,0,0,1.4,1.88,9.17,9.17,0,0,0,1.48,1.15,6.88,6.88,0,0,0,1.4.58,7.15,7.15,0,0,0,2.3.32,10.12,10.12,0,0,0,1.64-.16l.9-.25a7.68,7.68,0,0,0,1.15-.57,11.44,11.44,0,0,0,1.06-.9c.35-.37.68-.75,1-1.15.16-.24.24-.49.41-.74a5.73,5.73,0,0,0,.41-1.23,7.22,7.22,0,0,0,.16-1.31v-.08a9.51,9.51,0,0,0-.16-1.07Zm-6.65,1.88.41.41c-.08.09-.08.17-.16.17h0a.38.38,0,0,0-.17.08c-.16.08-.32.08-.49.16h-.57a2.7,2.7,0,0,1-.41-.08.3.3,0,0,1-.16-.08,3.48,3.48,0,0,1-.58-.57c-.24-.33-.41-.74-.66-1.15a.56.56,0,0,1-.08-.33,5,5,0,0,0,1,.33l.9.24c.08.09.24.09.33.17a5,5,0,0,1,.65.65Z"/><path id="Path_500" data-name="Path 500" class="cls-5" d="M172.58,48.58c-.17-.24-.33-.41-.5-.65a4.78,4.78,0,0,0-.08-1.07,2.58,2.58,0,0,0-.33-.74,2.66,2.66,0,0,0-1.06-1.07,10.93,10.93,0,0,0-2.79-1.31,9.75,9.75,0,0,0-2.14-.41,5.86,5.86,0,0,0-5.91,3.12,6,6,0,0,0-.65,3.12,14.58,14.58,0,0,0,.41,2,14.9,14.9,0,0,0,1.23,2.62,7.86,7.86,0,0,0,6.32,3.61,6.65,6.65,0,0,0,1.88-.24,4.79,4.79,0,0,0,2.47-1.23A5.33,5.33,0,0,0,173,53.59a14.25,14.25,0,0,0,.32-1.73v-.49a5.08,5.08,0,0,0-.74-2.79Zm-4.68,3.61c0,.08-.08.08,0,0C167.82,52.27,167.9,52.27,167.9,52.19Zm-.74.25h0c-.16,0-.25-.08-.41-.08s-.41-.25-.57-.33l-.25-.25c-.16-.24-.33-.57-.49-.82A10.53,10.53,0,0,1,165,49.4h.16a7.5,7.5,0,0,1,1.4.41h0a.72.72,0,0,1-.08.41,2.36,2.36,0,0,0,.33,1.32c.08.24.16.57.24.82l.09.08Z"/><path id="Path_501" data-name="Path 501" class="cls-5" d="M136.14,86.17l-5.66-4.93c-.49-.41-1-.9-1.56-1.31a10.39,10.39,0,0,0-3.53-2.14,4.58,4.58,0,0,0-1-.08,3.18,3.18,0,0,0-1.24.33,2.71,2.71,0,0,0-1.31,1.4,9.92,9.92,0,0,0-.66,2.13c-.24.9-.4,1.89-.65,2.79s-.58,1.65-.82,2.55a5.62,5.62,0,0,0-.25,1.15,3.72,3.72,0,0,0,.33,1.39,2.46,2.46,0,0,0,.66.74,3.49,3.49,0,0,0,.9.66,3.67,3.67,0,0,0,1.55.65,10.15,10.15,0,0,0,1.65.17c1.06.08,2.13.08,3.2.08a28.88,28.88,0,0,0,5.25-.33c.16,0,.41-.08.57-.08s.49-.08.74-.16a2.9,2.9,0,0,0,2.13-2.79,1.67,1.67,0,0,0,.17-.9,1.39,1.39,0,0,0-.49-1.32Zm-7-.66c.24.25.49.41.73.66-.08,0-.16.08-.24.08-.66.16-1.4.24-2,.41s-1.07.08-1.64.16c-.41,0-.82.08-1.32.08v-.08a6.23,6.23,0,0,0,.5-1.64c.16-.57.24-1.23.41-1.8a2.13,2.13,0,0,0,.08-.66c.08.08.24.16.33.24a25.2,25.2,0,0,1,3.2,2.55Zm-4.43-3.45Z"/><path id="Path_503" data-name="Path 503" class="cls-5" d="M175,91.25c.16-.82.41-1.56.57-2.38a6.57,6.57,0,0,1,.33-1.23.56.56,0,0,1,.08-.33c.08-.32.08-.65.17-1v-.82a3,3,0,0,0-1.4-2.46h0c0-.17.08-.33.08-.5a2.35,2.35,0,0,0-2.3-2.3c-2.3-.08-4.6-.24-6.9-.16a7,7,0,0,0-1.88.25,4.71,4.71,0,0,0-1,.41,4,4,0,0,0-1,1.06,3.2,3.2,0,0,0-.41,1.23c-.08.25-.08.41-.17.66-.24.9-.49,1.89-.65,2.79a22,22,0,0,0-.58,3.12,17.18,17.18,0,0,0-.08,2.87m3.78.66v-1.4c0-.33.08-.65.08-1a9,9,0,0,1,.33-1.64c.16-.66.32-1.32.49-1.89s.33-1.23.49-1.89l.25-.74a11.65,11.65,0,0,1,1.56.08c.57,0,1.14.09,1.72.09s1.23.08,1.89.08a11.26,11.26,0,0,0-.17,1.64v.41h0c.08.57.08,1.07.17,1.64.08,1.07.24,2.13.24,3.2"/></g></g></g></g></svg>