<svg id="Layer_1" data-name="Layer 1" xmlns="http://www.w3.org/2000/svg" xmlns:xlink="http://www.w3.org/1999/xlink" viewBox="0 0 1920.2 639.77"><defs><style>.cls-1{fill:none;}.cls-2{clip-path:url(#clip-path);}.cls-3{fill:#fff;opacity:0.99;isolation:isolate;}.cls-4{fill:#f2f2f2;}</style><clipPath id="clip-path"><path class="cls-1" d="M.3-315.09c75.8,77.5,192.8,153.8,317.8,144,242-19,294-156,483-197,177.7-38.5,288.7,71.6,427,100,229,47,302-113,532-138,58.2-6.3,111.1,5.9,160,19.1l.1-523.9H0Z"/></clipPath></defs><title>14-day-trial-assets</title><g id="Group_4" data-name="Group 4"><g class="cls-2"><g id="hash-right"><g id="Group_2" data-name="Group 2"><path id="Path_3" data-name="Path 3" class="cls-3" d="M317.4,12.61c-.2-.1-.3-.3-.5-.5-.4-.4-.7-.8-1.1-1.2-.2-.2-.4-.5-.6-.7-1.1-1.2-2.2-2.5-3.3-3.7L305-1.29l-13.6-15.4c-9.1-10.3-18.2-20.5-27.3-30.8l-55.5-62.4q-56.25-62.85-112.1-125.7-55-61.8-109.9-123.5c-7.8-8.8-15.7-17.6-23.5-26.4l-12-13.5c-2-2.3-4.1-4.6-6.1-6.8-.9-1-1.8-2-2.6-3a25.92,25.92,0,0,1-2.2-2.7,1.76,1.76,0,0,1,.56-2.42l.14-.08a2.18,2.18,0,0,1,1.4-.2,2.3,2.3,0,0,1,.8.5h0l1.2,1.2c.5.5.9,1,1.4,1.5,1.1,1.2,2.1,2.4,3.2,3.6,2.4,2.7,4.9,5.4,7.3,8.1,4.5,5.1,9,10.1,13.5,15.2,9.1,10.2,18.2,20.5,27.4,30.7q27.3,30.6,54.6,61.1,56,62.55,111.8,125.2t111.6,125c7.8,8.8,15.6,17.5,23.5,26.2,3.8,4.3,7.6,8.5,11.5,12.8,2,2.2,4,4.4,5.9,6.6.9,1,1.8,2.1,2.8,3.1.2.2.4.5.6.7l.7.7c.3.3.5.6.8.9a1,1,0,0,1,.4.5,2.63,2.63,0,0,1,.3,1.2,2.6,2.6,0,0,1-.7,1.7,2.32,2.32,0,0,1-1.7.7,1.64,1.64,0,0,1-1.8-.4Z"/><path id="Path_5" data-name="Path 5" class="cls-3" d="M411,.71c-2.5-2.5-4.8-5.2-7.1-7.8l-7.5-8.4c-4.9-5.5-9.8-11-14.6-16.5-9.9-11.2-19.8-22.3-29.7-33.5q-29.85-33.6-59.7-67.3Q232.55-200,172.6-267.19q-59.7-66.9-119.3-134.1c-7.8-8.7-15.5-17.4-23.3-26.1-1-1.1-2-2.3-3-3.4L7.3-452.89a2.18,2.18,0,0,1,0-3,2.25,2.25,0,0,1,1.5-.6,2.06,2.06,0,0,1,1.5.6c6.7,7.5,13.4,15.1,20.2,22.6,3,3.4,6.1,6.8,9.1,10.2l30,33.6q30,33.6,60,67.1,59.85,66.9,119.6,134l59.6,66.8q30,33.6,60.1,67.1c7.7,8.6,15.4,17.2,23.1,25.9,3.7,4.1,7.4,8.3,11.1,12.4,1.9,2.2,3.8,4.3,5.8,6.5s3.9,4.4,5.8,6.7a2,2,0,0,0,.4.5,2.87,2.87,0,0,1,.4,1.3,2.74,2.74,0,0,1-.8,1.9,2.67,2.67,0,0,1-1.8.8A2.56,2.56,0,0,1,411,.71Z"/><path id="Path_7" data-name="Path 7" class="cls-3" d="M292.7,37,268,9.31c-.2-.2-.5-.4-.6-.6Q225-39,182.4-86.69q-42.6-47.85-85.2-95.5c-11.1-12.5-22.3-25-33.4-37.5l-16.5-18.6c-2.2-2.5-4.5-5-6.7-7.5-2.5-2.8-4.9-5.6-7.4-8.3-9.6-10.8-19.2-21.5-28.7-32.3a2.57,2.57,0,0,1-.7-1.6,2,2,0,0,1,.7-1.6,2.33,2.33,0,0,1,3.2,0c6.9,7.7,13.8,15.4,20.7,23.2l15.4,17.2c.2.2.3.4.5.6,3.5,3.9,7,7.9,10.6,11.8,7.1,8,14.2,15.9,21.4,23.9l42.7,47.8q42.6,47.85,85.2,95.6,33.45,37.5,67,75a4.25,4.25,0,0,1,.5.7c6,6.7,12,13.5,18,20.2,2.2,2.4,4.3,4.8,6.5,7.3a2.67,2.67,0,0,1,0,3.6,2.39,2.39,0,0,1-1.8.7,4.19,4.19,0,0,1-1.7-1Z"/></g><g id="Group_3" data-name="Group 3"><path id="Path_17" data-name="Path 17" class="cls-3" d="M-5.8,47.21c1-1,2.1-1.9,3.2-2.9,1.3-1.1,2.5-2.3,3.8-3.4,2.5-2.2,4.9-4.4,7.4-6.6,5-4.4,9.9-8.8,14.9-13.3,9.9-8.8,19.8-17.6,29.7-26.5l59.3-53c17-15.2,33.9-30.4,51-45.4h0a1.44,1.44,0,0,1,.9-.6l3.1-2.8c4.6-4.1,9.2-8.2,13.8-12.2a2.6,2.6,0,0,1,1.6-.7,2,2,0,0,1,1.6.7,2.35,2.35,0,0,1,0,3.3c-4.8,4.4-9.7,8.7-14.6,13.1l-2.4,2.1a2.88,2.88,0,0,1-.5.7c-19.6,17.7-39.3,35.1-59,52.6L48.6,5.11c-8.5,7.6-17.1,15.2-25.6,22.8-4.3,3.8-8.5,7.6-12.8,11.4-2.2,1.9-4.3,3.9-6.5,5.8C2.6,46,1.6,47,.5,47.91a35.38,35.38,0,0,1-3,2.6,2.4,2.4,0,0,1-3.4,0,2.3,2.3,0,0,1-.7-1.7,3,3,0,0,1,.8-1.6Z"/></g></g></g></g><g id="Group_423" data-name="Group 423"><path id="Path_663" data-name="Path 663" class="cls-4" d="M1919.9,144.87C1844.1,67.27,1727.1-9,1602.1.87c-242,19-294,156-483,197-177.7,38.5-288.7-71.6-427-100-229-47-302,113-532,138-58.2,6.3-111.1-5.9-160-19.1l-.1,423H1920.2Z"/></g></svg>