<svg id="Layer_1" data-name="Layer 1" xmlns="http://www.w3.org/2000/svg" xmlns:xlink="http://www.w3.org/1999/xlink" viewBox="0 0 1920.2 740.65"><defs><style>.cls-1{fill:none;}.cls-2{clip-path:url(#clip-path);}.cls-3{fill:#f2f2f2;}.cls-4{fill:#fff;opacity:0.99;isolation:isolate;}</style><clipPath id="clip-path"><path class="cls-1" d="M.3,595.8c75.8,77.5,192.8,153.8,317.8,144,242-19,294-156,483-197,177.7-38.5,288.7,71.6,427,100,229,47,302-113,532-138,58.2-6.3,111.1,5.9,160,19.1L1920.2,0H0Z"/></clipPath></defs><title>14-day-trial-assets</title><g id="Group_4" data-name="Group 4"><g class="cls-2"><g id="Group_1" data-name="Group 1"><path id="Path_1" data-name="Path 1" class="cls-3" d="M.3,595.8c75.8,77.5,192.8,153.8,317.8,144,242-19,294-156,483-197,177.7-38.5,288.7,71.6,427,100,229,47,302-113,532-138,58.2-6.3,111.1,5.9,160,19.1L1920.2,0H0Z"/></g></g><g class="cls-2"><g id="hash-right"><g id="Group_2" data-name="Group 2"><path id="Path_3" data-name="Path 3" class="cls-4" d="M317.4,923.5c-.2-.1-.3-.3-.5-.5-.4-.4-.7-.8-1.1-1.2-.2-.2-.4-.5-.6-.7-1.1-1.2-2.2-2.5-3.3-3.7l-6.9-7.8-13.6-15.4c-9.1-10.3-18.2-20.5-27.3-30.8L208.6,801Q152.35,738.15,96.5,675.3q-55-61.8-109.9-123.5c-7.8-8.8-15.7-17.6-23.5-26.4l-12-13.5c-2-2.3-4.1-4.6-6.1-6.8-.9-1-1.8-2-2.6-3a25.92,25.92,0,0,1-2.2-2.7,1.76,1.76,0,0,1,.56-2.42l.14-.08a2.18,2.18,0,0,1,1.4-.2,2.3,2.3,0,0,1,.8.5h0l1.2,1.2c.5.5.9,1,1.4,1.5,1.1,1.2,2.1,2.4,3.2,3.6,2.4,2.7,4.9,5.4,7.3,8.1,4.5,5.1,9,10.1,13.5,15.2,9.1,10.2,18.2,20.5,27.4,30.7q27.3,30.6,54.6,61.1,56,62.55,111.8,125.2t111.6,125c7.8,8.8,15.6,17.5,23.5,26.2,3.8,4.3,7.6,8.5,11.5,12.8,2,2.2,4,4.4,5.9,6.6.9,1,1.8,2.1,2.8,3.1.2.2.4.5.6.7l.7.7c.3.3.5.6.8.9a1,1,0,0,1,.4.5,2.47,2.47,0,0,1-.4,2.9,2.32,2.32,0,0,1-1.7.7,1.64,1.64,0,0,1-1.8-.4Z"/><path id="Path_4" data-name="Path 4" class="cls-4" d="M368,862.5c-8.8-9.8-17.5-19.6-26.2-29.4s-17.6-19.8-26.5-29.7c-17.9-20.1-35.9-40.2-53.8-60.2Q207.8,683.05,154.1,623q-53.4-59.85-107-119.7c-3.1-3.5-6.2-7-9.4-10.5-1.5-1.7-3-3.4-4.5-5.2-.8-1-1.7-1.9-2.5-2.9a10.44,10.44,0,0,0-1-1.1,16.52,16.52,0,0,1-1.1-1.4,2.12,2.12,0,0,1-.2-2.7l-1.8-2.1c-7.2-8.2-14.4-16.3-21.6-24.5a.28.28,0,0,1,0-.4.29.29,0,0,1,.39,0l23.7,26.4a2.29,2.29,0,0,1,2.5.3l1.2,1.2c.2.2.3.4.5.6.3.4.7.7,1,1.1,1,1.1,2.1,2.2,3.1,3.4,2.2,2.4,4.4,4.9,6.6,7.4,4.4,4.9,8.8,9.9,13.2,14.8l26.7,30,53.3,59.9L244.4,718q53.4,60,106.8,119.9c6.5,7.2,12.9,14.5,19.4,21.7a2,2,0,0,1-1.4,3.4,1.38,1.38,0,0,1-1.2-.5Z"/><path id="Path_5" data-name="Path 5" class="cls-4" d="M411,911.6c-2.5-2.5-4.8-5.2-7.1-7.8l-7.5-8.4c-4.9-5.5-9.8-11-14.6-16.5-9.9-11.2-19.8-22.3-29.7-33.5q-29.85-33.6-59.7-67.3-59.85-67.2-119.8-134.4Q112.9,576.8,53.3,509.6c-7.8-8.7-15.5-17.4-23.3-26.1-1-1.1-2-2.3-3-3.4L7.3,458a2.18,2.18,0,0,1,0-3,2.21,2.21,0,0,1,1.5-.6,2,2,0,0,1,1.5.6c6.7,7.5,13.4,15.1,20.2,22.6,3,3.4,6.1,6.8,9.1,10.2l30,33.6q30,33.6,60,67.1,59.85,66.9,119.6,134l59.6,66.8q30,33.6,60.1,67.1c7.7,8.6,15.4,17.2,23.1,25.9,3.7,4.1,7.4,8.3,11.1,12.4,1.9,2.2,3.8,4.3,5.8,6.5s3.9,4.4,5.8,6.7a2.15,2.15,0,0,0,.4.5,2.83,2.83,0,0,1,.4,1.3,2.76,2.76,0,0,1-.8,1.9,2.72,2.72,0,0,1-1.8.8A2.56,2.56,0,0,1,411,911.6Z"/><path id="Path_6" data-name="Path 6" class="cls-4" d="M312,863.3a2,2,0,0,1-.9-.5h0c-6.6-7.2-13-14.5-19.5-21.7l-20-22.4c-13.3-15-26.7-29.9-40-44.9L151,683.3c-7.9-8.9-15.8-17.7-23.6-26.6-2.3-2.5-4.5-5.1-6.8-7.6-8-9-16.1-18-24.1-27l-12-13.5c-2-2.2-3.9-4.4-5.9-6.6-1-1.2-2.1-2.3-3.1-3.5s-2-2.2-2.9-3.4c-.1-.1-.2-.3-.3-.4a.37.37,0,0,1-.1-.3c-1.4-1.6-2.8-3.1-4.2-4.7-.1-.2-.3-.3-.4-.5-9.3-10.4-18.5-20.8-27.7-31.2a1.84,1.84,0,0,1,2.6-2.6l27.9,31.2c.1.1.3.2.4.3,1.4,1.6,2.9,3.2,4.3,4.8a1,1,0,0,1,.5.4c1.6,1.6,3,3.3,4.5,5l5.1,5.7,9.9,11.1c6.7,7.5,13.4,15.1,20.1,22.6,6,6.7,11.9,13.4,17.9,20l22.6,25.3q40.35,45.15,80.7,90.4c13.1,14.7,26.2,29.3,39.2,44l19.6,22c6.3,7.1,12.7,14.2,19,21.4a2,2,0,0,1,.6,1.5,2.12,2.12,0,0,1-1,1.8,2,2,0,0,1-1.1.3A.64.64,0,0,1,312,863.3Z"/><path id="Path_7" data-name="Path 7" class="cls-4" d="M292.7,947.9,268,920.2c-.2-.2-.5-.4-.6-.6q-42.45-47.7-85-95.4-42.6-47.85-85.2-95.5c-11.1-12.5-22.3-25-33.4-37.5L47.3,672.6c-2.2-2.5-4.5-5-6.7-7.5-2.5-2.8-4.9-5.6-7.4-8.3C23.6,646,14,635.3,4.5,624.5a2.6,2.6,0,0,1-.7-1.6,2,2,0,0,1,.7-1.6,2.33,2.33,0,0,1,3.2,0c6.9,7.7,13.8,15.4,20.7,23.2l15.4,17.2c.2.2.3.4.5.6,3.5,3.9,7,7.9,10.6,11.8,7.1,8,14.2,15.9,21.4,23.9L119,745.8q42.6,47.85,85.2,95.6,33.45,37.5,67,75a4.25,4.25,0,0,1,.5.7c6,6.7,12,13.5,18,20.2,2.2,2.4,4.3,4.8,6.5,7.3a2.67,2.67,0,0,1,0,3.6,2.42,2.42,0,0,1-1.8.7,4.31,4.31,0,0,1-1.7-1Z"/><path id="Path_8" data-name="Path 8" class="cls-4" d="M461.1,880c-1-1-1.8-2-2.8-3-1.1-1.2-2.1-2.4-3.2-3.6-2.1-2.3-4.2-4.7-6.3-7l-12.6-14.1c-8.4-9.4-16.7-18.8-25.1-28.1Q386,796,360.8,768q-21.6-24.15-43.1-48.4h0a6.68,6.68,0,0,1-.6-.8c-.9-1-1.8-2-2.6-3-3.9-4.3-7.8-8.7-11.6-13.1a2.43,2.43,0,0,1,0-3.2,2.2,2.2,0,0,1,3.1,0c4.2,4.6,8.3,9.2,12.4,13.9l2,2.3a2.62,2.62,0,0,1,.6.5c16.7,18.6,33.3,37.3,49.9,55.9Q396,800.3,421,828.4l21.6,24.3c3.6,4,7.2,8.1,10.8,12.1,1.8,2.1,3.7,4.1,5.5,6.2l2.7,3c.8.9,1.7,1.8,2.5,2.8a2.6,2.6,0,0,1,.7,1.6,2,2,0,0,1-.7,1.6,2.35,2.35,0,0,1-1.6.7A3.09,3.09,0,0,1,461.1,880Z"/><path id="Path_9" data-name="Path 9" class="cls-4" d="M161.1,572.6c-2.1-2.3-4.2-4.6-6.3-7a1,1,0,0,1-.5-.4c-5.7-6.3-11.4-12.7-17-19s-11.4-12.7-17.1-19.1c-.2-.3-.5-.5-.7-.8a5.79,5.79,0,0,1-.7-1h0c-.1-.1-.1-.3-.2-.4-3.5-4-7.1-7.9-10.6-11.9a1.75,1.75,0,0,1,0-2.48l0,0a1.85,1.85,0,0,1,2.5,0l10.8,12a2.17,2.17,0,0,1,.6.4A4.42,4.42,0,0,1,123,524a10.44,10.44,0,0,0,1,1.1c.7.8,1.5,1.6,2.2,2.5,1.4,1.6,2.9,3.2,4.3,4.8,2.8,3.2,5.7,6.4,8.5,9.6l17,19.1c.4.4.8.9,1.2,1.3a2.88,2.88,0,0,1,.5.7c2,2.3,4.1,4.6,6.1,6.9a1.93,1.93,0,0,1,0,2.6,1.89,1.89,0,0,1-1.3.5,2,2,0,0,1-1.4-.5Z"/><path id="Path_10" data-name="Path 10" class="cls-4" d="M82,483l-8.7-9.6c-1.4-1.6-2.9-3.2-4.3-4.8l-2.1-2.4c-.3-.4-.7-.7-1-1.1l-.4-.4-.8-.8a1.34,1.34,0,0,1-.12-1.88l.12-.12a1.42,1.42,0,0,1,2,0,7,7,0,0,1,.8,1,1.31,1.31,0,0,1,.3.4c.3.3.6.7.9,1l2.1,2.4,4.3,4.9c2.9,3.2,5.7,6.5,8.6,9.7a1.15,1.15,0,0,1,.08,1.62l-.08.08a1.52,1.52,0,0,1-.9.4,6,6,0,0,1-.8-.4Z"/><path id="Path_11" data-name="Path 11" class="cls-4" d="M167.6,869.4c-.7-.8-1.5-1.5-2.2-2.3-.3-.2-.7-.4-1-.6-.5-.5-1-1.1-1.5-1.7s-1.1-1.2-1.6-1.8c-1.2-1.3-2.3-2.6-3.5-3.9-2.2-2.5-4.5-5-6.7-7.5-4.5-5-8.9-10-13.3-14.9l-26.9-30.2C93,786.4,75,766.3,57.1,746.2L3.5,686c-2.9-3.2-5.7-6.4-8.6-9.6l-4.2-4.8c-1.5-1.7-3-3.3-4.5-5.1a3.31,3.31,0,0,1-.9-2.1,2.89,2.89,0,0,1,.9-2.1,3,3,0,0,1,4.1,0c1.1,1.1,2.2,2.3,3.2,3.5,1.2,1.3,2.3,2.6,3.5,3.8,2.2,2.5,4.5,5,6.7,7.5,4.5,5,9,10,13.4,15,8.9,10,17.9,20,26.8,30q26.85,30,53.7,60.2c17.9,20.1,35.9,40.2,53.8,60.4,2.9,3.3,5.9,6.6,8.8,9.9,1.4,1.6,2.9,3.2,4.3,4.8l2.1,2.4c.7.8,1.4,1.5,2.1,2.4.1.1.2.3.3.4s.1.1.1.2h0a4.76,4.76,0,0,1,.3.7c.6.7,1.2,1.5,1.8,2.2a2.15,2.15,0,0,0,.4.5,3.29,3.29,0,0,1,.4,1.3,2.74,2.74,0,0,1-2.7,2.7,3.71,3.71,0,0,1-1.7-.8Z"/></g><g id="Group_3" data-name="Group 3"><path id="Path_12" data-name="Path 12" class="cls-4" d="M-51.7,806.6l.5-.5a12.39,12.39,0,0,1,1.3-1.1l.7-.7c1.3-1.2,2.6-2.3,3.9-3.5l8.2-7.3,16.2-14.4,32.4-28.8q32.85-29.25,65.8-58.5,66.3-58.95,132.5-118Q274.9,515.9,340,457.9l27.8-24.8L382,420.4c2.4-2.1,4.8-4.3,7.2-6.4l3.1-2.8a23,23,0,0,1,2.9-2.4,2,2,0,0,1,2.69.68v0a1.92,1.92,0,0,1,.2,1.5,1.61,1.61,0,0,1-.5.8h0a16,16,0,0,1-1.3,1.3c-.5.5-1.1,1-1.6,1.5-1.2,1.1-2.5,2.2-3.7,3.4l-8.6,7.7c-5.3,4.8-10.7,9.5-16,14.2q-16.2,14.4-32.3,28.9-32.25,28.8-64.4,57.6-66,59-132,117.8L5.9,761.9c-9.2,8.2-18.4,16.5-27.6,24.8-4.5,4-9,8.1-13.5,12.1-2.3,2.1-4.7,4.2-7,6.2-1.1,1-2.2,1.9-3.3,2.9a4.84,4.84,0,0,0-.8.7c-.3.2-.5.5-.8.7a8.56,8.56,0,0,1-1,.9,1.76,1.76,0,0,1-.5.4,2.79,2.79,0,0,1-1.3.3,2.91,2.91,0,0,1-1.8-.7,2.42,2.42,0,0,1-.7-1.8,2.56,2.56,0,0,1,.7-1.8Z"/><path id="Path_13" data-name="Path 13" class="cls-4" d="M12.6,860.1c10.3-9.2,20.7-18.4,31-27.6s20.9-18.6,31.3-27.9q31.8-28.35,63.5-56.7L265.1,634.7,391.3,522l11.1-9.9,5.4-4.8c1-.9,2-1.8,3-2.6.4-.4.8-.7,1.2-1.1a14.41,14.41,0,0,1,1.5-1.1,2.13,2.13,0,0,1,2.8-.2l2.2-1.9,25.8-22.8c.3-.2.7.2.4.4-9.3,8.3-18.5,16.7-27.8,25a2.14,2.14,0,0,1-.4,2.6l-1.3,1.3a2.62,2.62,0,0,1-.6.5c-.4.4-.8.7-1.2,1.1l-3.5,3.2c-2.6,2.3-5.2,4.7-7.8,7-5.2,4.7-10.4,9.3-15.6,13.9-10.5,9.4-21.1,18.8-31.7,28.1q-31.65,28-63.1,56.2-63.45,56.55-126.9,113Q101.5,786.15,38.4,842.5c-7.6,6.8-15.2,13.6-22.9,20.4a2,2,0,0,1-1.5.6,2.21,2.21,0,0,1-1.5-.6,2,2,0,0,1-.6-1.5,2.12,2.12,0,0,1,.7-1.3Z"/><path id="Path_14" data-name="Path 14" class="cls-4" d="M-39.2,905.3c2.7-2.6,5.5-5,8.2-7.5,3-2.6,5.9-5.3,8.9-7.9,5.8-5.1,11.6-10.3,17.4-15.4C7.1,864,18.8,853.6,30.6,843.2q35.4-31.5,70.9-63,70.8-63,141.6-126.2,70.65-63,141.3-125.8c9.2-8.2,18.4-16.3,27.5-24.5,1.2-1.1,2.4-2.1,3.6-3.2,7.8-6.9,15.5-13.9,23.3-20.8a2.6,2.6,0,0,1,1.6-.7,2,2,0,0,1,1.6.7,2.35,2.35,0,0,1,.7,1.6,2,2,0,0,1-.7,1.6c-8,7.1-15.9,14.2-23.9,21.3l-10.8,9.6c-11.8,10.5-23.6,21.1-35.4,31.6q-35.4,31.65-70.8,63.2l-141.3,126L89.4,797.5Q54,829.15,18.7,860.8C9.6,868.9.5,877.1-8.6,885.2c-4.4,3.9-8.7,7.8-13.1,11.7-2.3,2-4.5,4.1-6.8,6.1s-4.6,4.1-7,6.1c-.2.1-.4.3-.6.4a3.28,3.28,0,0,1-1.4.4,3.2,3.2,0,0,1-2-.8,2.76,2.76,0,0,1-.8-1.9A6,6,0,0,1-39.2,905.3Z"/><path id="Path_15" data-name="Path 15" class="cls-4" d="M11.7,801a2.11,2.11,0,0,1,.6-1h0c7.6-6.9,15.3-13.7,22.9-20.6,7.9-7,15.7-14,23.6-21.1l47.3-42.2q47.7-42.45,95.4-85c9.3-8.3,18.7-16.6,28-24.9,2.7-2.4,5.4-4.8,8-7.2,9.5-8.5,19-16.9,28.5-25.4,4.7-4.2,9.5-8.4,14.2-12.7,2.3-2.1,4.6-4.1,7-6.2,1.2-1.1,2.4-2.2,3.7-3.3s2.3-2.1,3.5-3.1a1.76,1.76,0,0,0,.5-.4c.1-.1.2-.1.3-.2,1.6-1.5,3.3-2.9,4.9-4.4.2-.1.3-.3.5-.4q16.35-14.7,32.9-29.2a1.91,1.91,0,1,1,2.7,2.7h0q-16.35,14.7-32.9,29.4c-.1.1-.2.3-.3.4-1.7,1.5-3.4,3-5.1,4.6a2.17,2.17,0,0,1-.4.6c-1.7,1.6-3.5,3.2-5.3,4.8l-6,5.4-11.7,10.5c-7.9,7.1-15.9,14.1-23.8,21.2-7,6.3-14.1,12.5-21.1,18.8-8.9,8-17.8,15.9-26.7,23.9q-47.55,42.6-95.3,85-23.1,20.7-46.4,41.3c-7.7,6.9-15.4,13.7-23.1,20.6-7.5,6.7-15,13.4-22.6,20a2.6,2.6,0,0,1-1.6.7,2.13,2.13,0,0,1-1.9-1.1,2,2,0,0,1-.3-1.1V801Z"/><path id="Path_16" data-name="Path 16" class="cls-4" d="M-77.4,780.7c9.7-8.7,19.5-17.3,29.2-26a4.44,4.44,0,0,1,.6-.7L53,664.5q50.4-44.85,100.7-89.8c13.2-11.7,26.4-23.5,39.5-35.2,6.5-5.8,13.1-11.6,19.6-17.4,2.6-2.4,5.3-4.7,7.9-7,2.9-2.6,5.9-5.2,8.8-7.8q17-15.15,34-30.2a2.62,2.62,0,0,1,1.7-.7,2.81,2.81,0,0,1,1.7.7,2.38,2.38,0,0,1,0,3.37l0,0c-8.1,7.3-16.3,14.6-24.4,21.9-6,5.4-12.1,10.8-18.1,16.2a2.62,2.62,0,0,1-.6.5c-4.1,3.7-8.3,7.4-12.4,11.1l-25.2,22.5-50.4,45Q85.4,642.55,35.1,687.5-4.5,722.75-44,758.1a2.88,2.88,0,0,1-.7.5c-7.1,6.3-14.2,12.7-21.3,19-2.6,2.3-5.1,4.6-7.7,6.8a2.53,2.53,0,0,1-1.8.8,2.33,2.33,0,0,1-1.8-.8,2.76,2.76,0,0,1-.8-1.9,1.77,1.77,0,0,1,.7-1.8Z"/><path id="Path_18" data-name="Path 18" class="cls-4" d="M318.2,641.9c2.4-2.3,4.9-4.5,7.3-6.7a1,1,0,0,1,.4-.5c6.7-6,13.4-12,20.1-17.9s13.4-12,20.2-18c.3-.2.5-.5.8-.7a4.11,4.11,0,0,1,1.1-.7h0c.1-.1.3-.1.5-.2,4.2-3.7,8.4-7.5,12.6-11.2a1.87,1.87,0,0,1,2.6,0,1.78,1.78,0,0,1,.08,2.52l-.08.08c-4.2,3.8-8.5,7.6-12.7,11.3a2.44,2.44,0,0,1-.4.7c-.2.2-.3.4-.5.6a2.62,2.62,0,0,1-.6.5c-.4.4-.8.7-1.2,1.1-.9.8-1.7,1.6-2.6,2.4l-5.1,4.5c-3.4,3-6.7,6-10.1,9-6.7,6-13.4,11.9-20.1,17.9-.5.4-.9.8-1.4,1.2a2.88,2.88,0,0,1-.7.5c-2.4,2.1-4.8,4.3-7.3,6.4a2.22,2.22,0,0,1-1.4.6,2,2,0,0,1-1.4-.6,1.83,1.83,0,0,1-.6-1.4,1.57,1.57,0,0,1,.5-1.4Z"/><path id="Path_19" data-name="Path 19" class="cls-4" d="M412.6,558.6c3.4-3.1,6.7-6.1,10.1-9.1,1.7-1.5,3.4-3.1,5.1-4.6.8-.8,1.7-1.5,2.5-2.3.4-.4.8-.7,1.2-1.1l.4-.4a6,6,0,0,0,.8-.8,1.56,1.56,0,0,1,2.2,2.2c-.3.3-.7.6-1,.9-.1.1-.3.2-.4.3-.4.3-.7.6-1.1.9l-2.5,2.2-5.1,4.5-10.2,9a1.26,1.26,0,0,1-1.79,0h0a1.52,1.52,0,0,1-.4-.9.84.84,0,0,1,.2-.8Z"/><path id="Path_20" data-name="Path 20" class="cls-4" d="M5.4,648.8c.8-.8,1.6-1.6,2.4-2.3a3.47,3.47,0,0,1,.7-1,13.72,13.72,0,0,1,1.8-1.6c.6-.6,1.3-1.1,1.9-1.7,1.4-1.2,2.8-2.5,4.1-3.7l7.9-7c5.3-4.7,10.5-9.4,15.8-14.1,10.6-9.5,21.2-18.9,31.8-28.4l63.6-56.7c21.2-18.8,42.3-37.7,63.5-56.5l10.2-9,5.1-4.5c1.8-1.6,3.5-3.2,5.4-4.7a2.93,2.93,0,0,1,2.2-.9,3.12,3.12,0,0,1,2.2.9,3,3,0,0,1,0,4.27l0,0-3.7,3.4c-1.4,1.2-2.7,2.4-4.1,3.7-2.6,2.4-5.3,4.7-7.9,7.1-5.3,4.7-10.5,9.4-15.8,14.2-10.6,9.4-21.1,18.9-31.7,28.3-21.1,18.9-42.3,37.8-63.4,56.6L33.8,631.9c-3.5,3.1-6.9,6.2-10.4,9.3l-5.1,4.5c-.8.8-1.7,1.5-2.5,2.3s-1.6,1.5-2.5,2.2c-.1.1-.3.2-.4.3s-.1.1-.2.1h0c-.2.1-.5.2-.7.3-.8.7-1.5,1.3-2.3,1.9-.2.1-.4.3-.6.4a2.32,2.32,0,0,1-1.4.4,3,3,0,0,1-2-.8,2.8,2.8,0,0,1-.8-2A1.72,1.72,0,0,1,5.4,648.8Z"/></g></g></g></g></svg>