<svg id="Layer_1" data-name="Layer 1" xmlns="http://www.w3.org/2000/svg" viewBox="0 0 547.13 364.58"><defs><style>.cls-1{fill:#f2f2f2;}.cls-2{fill:#f2cb05;}.cls-3{fill:#f27d16;}</style></defs><title>claim-bg</title><path id="Path_632" data-name="Path 632" class="cls-1" d="M475.25,358c35.8-4.6,69.3-42.1,48.3-73.1-16.5-24.4-39-10.5-64.1-32-23.9-20.6-29.1-30.8-36.1-46.9-9.9-22.8-38.1-19.7-50-8.9-22.4,20.3-14.3,46.5-53.4,48-36.1,1.4-82.1-14.9-104.8,9.2-30.7,32.6-11.1,86.1,26.2,104.5,51.4,25.3,83.1-41.6,135.9-26.6C408.55,341.21,441.25,362.51,475.25,358Z"/><path id="Path_633" data-name="Path 633" class="cls-1" d="M34.05,314c-47.8-37.8-5.7-77-9.2-106.6-2.7-23.5-25.6-61.5-3.9-88.8,34.1-43,79.6-11.8,115.5-19.1,23.1-4.7,33.5-56.8,77.2-70,52.3-15.9,113.1,10,141.5,60.5s-.6,95.4-18.7,113.8c-32.7,33.1-109.3,22.2-160.8,48.7C145.05,268.31,103.45,368.81,34.05,314Z"/><path id="Path_634" data-name="Path 634" class="cls-1" d="M384.65,77.81c-31.2,32.8,42.4,56.1,65.7,112.6,12.7,30.8,51.2,69.5,81,40.6,23.3-22.7,26.7-82.7-31.1-123.2C465.05,83,405.55,55.91,384.65,77.81Z"/><g id="Group_391" data-name="Group 391"><g id="Group_382" data-name="Group 382"><g id="Group_381" data-name="Group 381"><path id="Path_643" data-name="Path 643" class="cls-2" d="M453.08,9.5c-4.3,10.5.4,19.1-1.1,24.2s-11.9,12.2-2,22.2,25.5,10.8,34-.2c10.4-13.5,3.7-42.3-6.8-51.5S455.78,2.8,453.08,9.5Zm23.6-3.7c9.9,8.8,16.2,36,6.4,48.7-8,10.4-22.6,9.5-32.1.2-8.6-8.4,1.1-16.3,2.5-21.2s-3.6-12.8.5-22.7C456.48,4.5,466.78-3,476.68,5.8Z"/></g></g><g id="Group_383" data-name="Group 383"><path id="Path_644" data-name="Path 644" class="cls-2" d="M489.08,38.3c2.1-1.8,9.4-6.4,10.8-6.6s3.8,1.6,5.9,2.1,3.6-2.4,3.2-3.9-2.8-3.3-6.2-2.1-13.9,7.8-13.9,7.8Z"/></g><g id="Group_384" data-name="Group 384"><path id="Path_645" data-name="Path 645" class="cls-2" d="M452,34.6c-1.7-2.2-8-8.1-9.3-8.6s-4,.9-6.2.9-3.1-3.1-2.4-4.4,3.4-2.7,6.5-.9S452.68,32,452.68,32Z"/></g><g id="Group_385" data-name="Group 385"><path id="Path_646" data-name="Path 646" class="cls-2" d="M469.88,63.2c3.1,2.2,5.1,4.2,6.4,7.4,1.9,4.5-.1,10.1,1.2,11.6,1.1,1.4,7,1.8,8.7-.5s.1-4.1-1.9-4.1a10.47,10.47,0,0,0-3,.5.61.61,0,0,1-.7-.3v-.2a21.77,21.77,0,0,0-2.6-9c-1.9-3.1-4.8-6.1-5.1-6S468.58,62.2,469.88,63.2Z"/></g><g id="Group_386" data-name="Group 386"><path id="Path_647" data-name="Path 647" class="cls-2" d="M460.58,61.8c-.1.5-.6,5.2-2.5,7.7-2.9,3.8-5.7,4-8.7,1.7s-3.5-5.2-3.1-6.5a3.12,3.12,0,0,1,4.1-1.7,3.9,3.9,0,0,1,2.2,4.7c-.4,1.4,1.7,4.6,3.8-.3.9-2,1.4-6.1,1.7-6.6S460.88,60.6,460.58,61.8Z"/></g><g id="Group_388" data-name="Group 388"><g id="Group_387" data-name="Group 387"><path id="Path_648" data-name="Path 648" class="cls-2" d="M462.88,19.1a.85.85,0,0,1,.8.7,5.54,5.54,0,0,0,5.6,4.9,5.71,5.71,0,0,0,5.6-5,.77.77,0,0,1,.8-.7h0a.79.79,0,0,1,.8.8v.1a7.2,7.2,0,0,1-14.3.1.78.78,0,0,1,.6-.9Z"/></g></g><g id="Group_389" data-name="Group 389"><ellipse id="Ellipse_34" data-name="Ellipse 34" class="cls-2" cx="471.69" cy="14.6" rx="1.4" ry="1" transform="translate(333.91 465.96) rotate(-74.8)"/></g><g id="Group_390" data-name="Group 390"><ellipse id="Ellipse_35" data-name="Ellipse 35" class="cls-2" cx="466.23" cy="14.06" rx="1.5" ry="1.3" transform="translate(330.41 460.29) rotate(-74.8)"/></g></g><g id="Group_418" data-name="Group 418"><g id="Group_410" data-name="Group 410"><path id="Path_657" data-name="Path 657" class="cls-3" d="M63.18,51.9c-1.4-3.4-7-14.7-10.5-23.9-3.2-8.2-10.7-15.5-17.2-15.6-8.2-.1-18.6,13.1-18.4,29.8S22.18,73.5,44,73.3,65.68,57.8,63.18,51.9ZM43.78,71.3c-20.4.2-24.4-13.5-24.6-29s9-27.9,16.6-27.8c6,.1,12.5,6.8,15.5,14.5,3.3,8.6,8.5,19.1,9.9,22.3C63.48,56.9,64.18,71,43.78,71.3Z"/></g><g id="Group_411" data-name="Group 411"><ellipse id="Ellipse_40" data-name="Ellipse 40" class="cls-3" cx="31.82" cy="26.9" rx="1.4" ry="1.6" transform="translate(-0.32 0.38) rotate(-0.69)"/></g><g id="Group_412" data-name="Group 412"><ellipse id="Ellipse_41" data-name="Ellipse 41" class="cls-3" cx="37.82" cy="26.5" rx="1.5" ry="2" transform="translate(-0.32 0.46) rotate(-0.69)"/></g><g id="Group_413" data-name="Group 413"><path id="Path_658" data-name="Path 658" class="cls-3" d="M30.28,33.6c.4-1.3,8.7-2.8,9.1-2.4s.8,11.3-3.4,12.4S29.78,35.1,30.28,33.6Z"/></g><g id="Group_414" data-name="Group 414"><path id="Path_659" data-name="Path 659" class="cls-3" d="M56.78,38.4c1.2-1.8,6.6-9.5,6.9-10.9s.2-4,1.8-4.7,3.6.4,3.5,2-2.7,3.1-3.5,4-7.1,9.7-7.7,11.4S56.38,38.9,56.78,38.4Z"/></g><g id="Group_415" data-name="Group 415"><path id="Path_660" data-name="Path 660" class="cls-3" d="M17.88,42c-1.1-1.1-10.4-6.7-11.5-7.8-.7-.7-.6-2.3-1.5-3.8s-4.2-1.7-4.7-.1-.1,2.9,3.4,4.4S17.18,42.9,18,44.8,18.78,42.9,17.88,42Z"/></g><g id="Group_416" data-name="Group 416"><path id="Path_661" data-name="Path 661" class="cls-3" d="M32.88,71.5c-1.2,2.5-3.4,8.5-3.7,10.8s.8,6.4.5,7.2-1.8,1.7-1.2,3.2,2.6,1.4,3.8-.3.7-2.8.3-3.3a12.64,12.64,0,0,1-1.4-6.9c.3-2.7,3.7-9.6,3.8-10.2C34.88,71.5,33.48,70.2,32.88,71.5Z"/></g><g id="Group_417" data-name="Group 417"><path id="Path_662" data-name="Path 662" class="cls-3" d="M52.68,71.8c1.2,1.5,5.8,4.1,5.8,6.8s-1.8,6.8-.8,8.5,5.8.8,5.7-1.5-3.3-2-3.8-2.3.8-2.9.5-5.4c-.2-2.2-3-6.8-4.1-7.3S51.48,70.4,52.68,71.8Z"/></g></g></svg>