<svg id="Layer_1" data-name="Layer 1" xmlns="http://www.w3.org/2000/svg" viewBox="0 0 383.18 376"><defs><style>.cls-1{fill:#f2f2f2;opacity:0.99;}</style></defs><title>14-day-trial-assets</title><g id="hash-right"><path class="cls-1" d="M26.83,273.8a3.81,3.81,0,0,1,.35-.32c.28-.25.56-.5.85-.74l.48-.45L31.09,270l5.39-4.8,10.65-9.44q10.67-9.42,21.29-18.91l43.2-38.44q43.51-38.71,87-77.47,42.73-38.07,85.5-76.1l18.26-16.28,9.33-8.32L316.43,16l2.07-1.83a19.71,19.71,0,0,1,1.87-1.55,1.26,1.26,0,0,1,1.87,1.43,1.16,1.16,0,0,1-.33.56h0a11.41,11.41,0,0,1-.86.84l-1.07,1-2.46,2.21c-1.88,1.69-3.76,3.36-5.64,5L301.38,33,280.15,52l-42.32,37.8q-43.32,38.7-86.66,77.38T64.65,244.45q-9.09,8.12-18.15,16.26c-3,2.64-5.89,5.29-8.85,7.93q-2.3,2.06-4.6,4.1l-2.17,1.92-.49.44-.52.47-.63.57a1,1,0,0,1-.36.27,1.67,1.67,0,0,1-2-.26,1.72,1.72,0,0,1-.49-1.19,1.63,1.63,0,0,1,.47-1.16Z"/><path class="cls-1" d="M69,308.88c6.78-6.06,13.58-12.08,20.37-18.13L110,272.43q20.86-18.62,41.7-37.24,41.58-37.17,83.2-74.31,41.45-37,82.85-74L325,80.35q1.77-1.57,3.57-3.13l2-1.73.79-.69c.31-.27.65-.5,1-.75a1.43,1.43,0,0,1,1.86-.15c.48-.42,1-.84,1.43-1.27q8.49-7.47,17-15c.18-.16.44.1.26.26-6.1,5.46-12.16,10.95-18.24,16.43a1.47,1.47,0,0,1-.23,1.72l-.86.87-.39.35-.77.71L330,80.14c-1.69,1.54-3.4,3.06-5.11,4.58q-5.13,4.59-10.28,9.15-10.38,9.25-20.79,18.49Q273,130.8,252.32,149.26q-41.67,37.1-83.33,74.19-41.53,36.92-83,73.92-7.51,6.72-15,13.43a1.39,1.39,0,0,1-1,.4,1.37,1.37,0,0,1-1-.4,1.39,1.39,0,0,1-.39-1,1.23,1.23,0,0,1,.39-.93Z"/><path class="cls-1" d="M35,338.58c1.75-1.7,3.59-3.3,5.4-4.93l5.82-5.19q5.69-5.07,11.4-10.12l23.17-20.58q23.3-20.68,46.58-41.36,46.53-41.41,93-82.89t92.81-82.6l18.09-16.1,2.36-2.1L349,59.07a1.59,1.59,0,0,1,1.07-.44,1.52,1.52,0,0,1,1.07.44,1.54,1.54,0,0,1,.44,1.07,1.48,1.48,0,0,1-.44,1.07l-15.67,14-7.07,6.31-23.25,20.79L258.63,143.8q-46.35,41.4-92.77,82.75-23.12,20.64-46.21,41.29L73.2,309.44l-17.9,16-8.6,7.69-4.48,4c-1.52,1.35-3,2.72-4.62,4l-.37.28a1.94,1.94,0,0,1-.91.25,1.88,1.88,0,0,1-1.29-.53,1.84,1.84,0,0,1-.52-1.28,1.78,1.78,0,0,1,.52-1.29Z"/><path class="cls-1" d="M68.48,270.09a1.39,1.39,0,0,1,.38-.64h0c5-4.57,10-9,15-13.52L99.38,242.1l31.08-27.71,62.63-55.79,18.38-16.36,5.28-4.71,18.69-16.69,9.32-8.31q2.28-2,4.57-4.07l2.41-2.14c.76-.68,1.52-1.37,2.31-2l.3-.23.21-.1,3.25-2.88a1.56,1.56,0,0,1,.35-.24q10.79-9.61,21.6-19.18a1.26,1.26,0,0,1,1.78,1.78Q270.76,93.14,260,102.78a1.59,1.59,0,0,1-.2.24l-3.34,3a1.26,1.26,0,0,1-.27.37c-1.12,1.08-2.3,2.1-3.46,3.14q-2,1.77-4,3.52l-7.7,6.87-15.64,13.92-13.87,12.36L194,161.86q-31.28,27.94-62.56,55.85L101,244.85,85.77,258.39c-4.94,4.39-9.85,8.81-14.85,13.13a1.52,1.52,0,0,1-1,.43,1.5,1.5,0,0,1-1.27-.73,1.47,1.47,0,0,1-.2-.74,1.32,1.32,0,0,1,.06-.39Z"/><path class="cls-1" d="M9.91,256.74l19.18-17.08a1.64,1.64,0,0,1,.4-.43q33-29.4,66.06-58.81t66.11-58.95q13-11.56,26-23.12l12.89-11.46,5.21-4.62,5.77-5.14q11.16-9.94,22.35-19.85a1.63,1.63,0,0,1,1.1-.46,1.57,1.57,0,0,1,1.11,2.67q-8,7.2-16,14.36-5.94,5.33-11.91,10.64l-.39.36-8.16,7.3L183,106.94l-33.11,29.54q-33.06,29.51-66.15,59L31.81,241.86a2.79,2.79,0,0,1-.46.33l-14,12.49-5,4.49a1.79,1.79,0,0,1-1.22.5,1.72,1.72,0,0,1-1.21-.5,1.81,1.81,0,0,1-.5-1.25,1.56,1.56,0,0,1,.5-1.18Z"/><path class="cls-1" d="M57,373.28c.68-.66,1.39-1.28,2.1-1.91l2.48-2.22,4.85-4.33,9.77-8.72,19.48-17.38,38.93-34.79c11.15-10,22.28-19.94,33.5-29.82h0a1.63,1.63,0,0,1,.57-.38l2-1.83c3-2.68,6-5.37,9.05-8a1.61,1.61,0,0,1,1.08-.44,1.53,1.53,0,0,1,1.08,2.61c-3.17,2.88-6.39,5.73-9.59,8.59L170.76,276a1.37,1.37,0,0,1-.33.43c-12.84,11.6-25.79,23.07-38.72,34.56l-39,34.69-16.8,15-8.39,7.48q-2.13,1.9-4.27,3.8l-2.11,1.87c-.64.57-1.27,1.16-1.94,1.7a1.65,1.65,0,0,1-1.13.47,1.59,1.59,0,0,1-1.58-1.6,1.55,1.55,0,0,1,.46-1.12Z"/><path class="cls-1" d="M269.74,165.64c1.58-1.48,3.2-2.92,4.82-4.36a1,1,0,0,1,.27-.36Q281.39,155,288,149.14c4.4-3.95,8.79-7.91,13.24-11.81l.53-.47a6.67,6.67,0,0,1,.7-.48h0a1.36,1.36,0,0,1,.3-.13l8.25-7.34a1.21,1.21,0,1,1,1.71,1.71l-8.34,7.44a1.26,1.26,0,0,1-.29.43l-.31.39a3.34,3.34,0,0,1-.4.35l-.78.72-1.71,1.54q-1.66,1.48-3.34,3l-6.62,5.89q-6.6,5.88-13.22,11.75l-.91.81a1.79,1.79,0,0,1-.49.32c-1.6,1.41-3.18,2.83-4.8,4.21a1.33,1.33,0,0,1-.89.37,1.28,1.28,0,0,1-.89-.37,1.27,1.27,0,0,1,0-1.79Z"/><path class="cls-1" d="M331.75,110.91l6.64-6,3.32-3,1.64-1.49c.25-.24.51-.47.77-.7a3,3,0,0,1,.25-.26l.56-.52a1,1,0,0,1,1.41,0,1,1,0,0,1,0,1.41c-.22.21-.45.4-.69.59a2.43,2.43,0,0,1-.25.2l-.71.62c-.56.48-1.11,1-1.66,1.46l-3.37,3-6.72,5.93a.86.86,0,0,1-1.19,0,.89.89,0,0,1-.25-.62.77.77,0,0,1,.25-.58Z"/><path class="cls-1" d="M64.3,170.17c.53-.52,1.07-1,1.61-1.53a2.62,2.62,0,0,1,.44-.66c.35-.38.77-.71,1.16-1.06l1.25-1.12,2.71-2.42,5.18-4.62L87,149.52l20.88-18.63q20.88-18.63,41.77-37.24t41.67-37.08L198,50.64l3.32-2.93c1.16-1,2.31-2.11,3.53-3.08a2.05,2.05,0,0,1,1.43-.59,2,2,0,0,1,1.42.59,2,2,0,0,1,0,2.85c-.78.78-1.62,1.49-2.43,2.23l-2.67,2.4c-1.72,1.55-3.46,3.1-5.19,4.64L187,66.05,166.23,84.62q-20.82,18.6-41.66,37.18L82.79,159,76,165.11l-3.34,3-1.67,1.48c-.54.48-1.07,1-1.63,1.43l-.27.21-.13.1h0a1.92,1.92,0,0,1-.46.21c-.5.43-1,.85-1.53,1.27l-.37.29a1.8,1.8,0,0,1-.93.25,1.84,1.84,0,0,1-1.85-1.84,1.81,1.81,0,0,1,.54-1.3Z"/><path class="cls-1" d="M107.71,18.36a3.17,3.17,0,0,1,.34.37c.27.29.53.59.79.89s.31.34.46.52c.81.9,1.63,1.8,2.44,2.71q2.54,2.83,5.06,5.69,5,5.6,10,11.22Q136.68,51,146.68,62.2,166.93,85,187.2,107.73,228,153.6,268.86,199.42q40.11,45,80.2,90.11,8.56,9.63,17.16,19.25,4.38,4.92,8.77,9.84l4.44,5,1.92,2.18a23.45,23.45,0,0,1,1.64,2,1.35,1.35,0,0,1-.48,1.84,1.33,1.33,0,0,1-1,.13,1.14,1.14,0,0,1-.59-.35h0a12.6,12.6,0,0,1-.88-.91c-.35-.37-.69-.75-1-1.13l-2.33-2.6q-2.65-3-5.3-5.93l-9.87-11.08q-10-11.19-20-22.37l-39.84-44.6q-40.8-45.66-81.55-91.34t-81.46-91.2q-8.55-9.59-17.14-19.13-4.19-4.65-8.36-9.32l-4.32-4.85c-.68-.76-1.35-1.52-2-2.29-.16-.17-.31-.35-.46-.52s-.34-.36-.5-.55l-.6-.66a1,1,0,0,1-.28-.38,1.67,1.67,0,0,1-.25-.89,1.76,1.76,0,0,1,1.77-1.76,1.67,1.67,0,0,1,1.22.49Z"/><path class="cls-1" d="M70.74,62.84q9.58,10.71,19.11,21.47L109.16,106q19.62,22,39.25,43.95,39.18,43.83,78.32,87.69,39,43.68,78,87.33l6.83,7.66q1.67,1.88,3.3,3.76c.61.7,1.22,1.39,1.82,2.09l.73.84c.28.32.53.68.79,1a1.53,1.53,0,0,1,.16,2c.44.5.89,1,1.33,1.51,5.26,6,10.5,11.92,15.78,17.87.17.18-.11.46-.28.28q-8.62-9.65-17.31-19.23a1.55,1.55,0,0,1-1.82-.25l-.91-.9c-.13-.13-.25-.27-.38-.41l-.74-.82c-.75-.81-1.5-1.63-2.24-2.45-1.63-1.78-3.23-3.59-4.84-5.38q-4.83-5.42-9.64-10.84-9.75-10.95-19.49-21.92Q258.45,277.88,239,256q-39.1-43.9-78.19-87.83-38.92-43.77-77.92-87.48c-4.72-5.29-9.45-10.55-14.15-15.84a1.51,1.51,0,0,1-.42-1,1.42,1.42,0,0,1,.42-1,1.48,1.48,0,0,1,1-.42,1.32,1.32,0,0,1,1,.42Z"/><path class="cls-1" d="M39.43,27c1.8,1.84,3.49,3.77,5.2,5.69s3.64,4.09,5.47,6.13c3.56,4,7.11,8,10.67,12L82.46,75.27q21.8,24.56,43.59,49.09,43.67,49.05,87.37,98.05t87.06,97.82q8.47,9.54,17,19.07l2.21,2.48L334,357.89a1.63,1.63,0,0,1,.47,1.12,1.57,1.57,0,0,1-.47,1.13,1.61,1.61,0,0,1-1.13.47,1.53,1.53,0,0,1-1.12-.47l-14.72-16.51-6.65-7.45q-10.95-12.27-21.91-24.52l-43.77-49q-43.65-48.85-87.23-97.78Q135.76,140.54,114,116.19l-43.85-49L53.26,48.37l-8.1-9.06L41,34.59c-1.43-1.61-2.87-3.21-4.23-4.88l-.3-.39a1.92,1.92,0,0,1-.26-1,1.91,1.91,0,0,1,1.91-1.91,1.86,1.86,0,0,1,1.35.56Z"/><path class="cls-1" d="M111.62,62.26a1.42,1.42,0,0,1,.68.4h0c4.81,5.23,9.52,10.56,14.25,15.86l14.58,16.32,29.2,32.75,58.81,66q8.61,9.69,17.24,19.37c1.65,1.86,3.31,3.71,5,5.56l17.59,19.71q4.38,4.9,8.76,9.82l4.3,4.81,2.25,2.54c.71.81,1.44,1.61,2.13,2.44l.24.32.11.22,3,3.43a1.83,1.83,0,0,1,.26.36q10.13,11.37,20.21,22.77a1.32,1.32,0,0,1-1.87,1.87Q298.14,275.47,288,264.07a1,1,0,0,1-.25-.22l-3.16-3.51a1.24,1.24,0,0,1-.39-.29c-1.14-1.18-2.21-2.42-3.3-3.64-1.25-1.38-2.48-2.78-3.72-4.17l-7.23-8.11-14.68-16.48q-6.51-7.32-13-14.62-8.25-9.25-16.52-18.5-29.44-32.94-58.85-65.94-14.33-16-28.61-32.1-7.14-8-14.27-16c-4.63-5.2-9.29-10.38-13.84-15.65a1.58,1.58,0,0,1-.45-1.09,1.54,1.54,0,0,1,1.54-1.54,1.4,1.4,0,0,1,.41.06Z"/><path class="cls-1" d="M125.69.53q9,10.09,18,20.21a2,2,0,0,1,.46.42q31,34.83,62,69.63t62.13,69.68q12.19,13.68,24.37,27.37l12.07,13.58,4.88,5.49L315,213q10.47,11.76,20.92,23.55a1.71,1.71,0,0,1,.48,1.16,1.69,1.69,0,0,1-.48,1.17,1.66,1.66,0,0,1-2.33,0Q326,230.45,318.46,222l-11.22-12.56c-.12-.14-.24-.28-.37-.41q-3.86-4.31-7.7-8.6-7.79-8.73-15.58-17.44-15.58-17.44-31.14-34.9-31.09-34.86-62.18-69.73l-48.9-54.73a2.69,2.69,0,0,1-.34-.49L127.87,8.39l-4.73-5.31a1.85,1.85,0,0,1-.53-1.27,1.79,1.79,0,0,1,.53-1.28A1.84,1.84,0,0,1,124.46,0a1.62,1.62,0,0,1,1.23.53Z"/><path class="cls-1" d="M2.86,50.13c.7.71,1.35,1.47,2,2.21L7.22,55l4.56,5.11L21,70.36Q30.12,80.63,39.29,90.9l36.66,41c10.5,11.75,21,23.48,31.43,35.31h0a1.57,1.57,0,0,1,.41.6L109.7,170c2.83,3.18,5.67,6.34,8.47,9.54a1.66,1.66,0,0,1,.47,1.14,1.62,1.62,0,0,1-2.76,1.14c-3-3.35-6-6.74-9-10.11l-1.47-1.65a1.48,1.48,0,0,1-.45-.35c-12.22-13.53-24.31-27.18-36.43-40.8s-24.37-27.4-36.56-41.09L16.14,70.11,8.26,61.27l-4-4.5-2-2.22c-.6-.68-1.21-1.35-1.79-2A1.77,1.77,0,0,1,0,51.31a1.68,1.68,0,0,1,.49-1.18,1.66,1.66,0,0,1,1.19-.49,1.63,1.63,0,0,1,1.18.49Z"/><path class="cls-1" d="M221.71,274.39c1.56,1.67,3.08,3.37,4.61,5.08a1.21,1.21,0,0,1,.37.28q6.23,6.92,12.42,13.88c4.16,4.65,8.34,9.27,12.44,14l.5.56a7.34,7.34,0,0,1,.51.73h0a1.44,1.44,0,0,1,.13.31l7.74,8.69a1.28,1.28,0,0,1-1.8,1.81l-7.85-8.79a1.25,1.25,0,0,1-.45-.31c-.14-.1-.27-.21-.41-.33a4.89,4.89,0,0,1-.37-.41c-.25-.28-.5-.56-.76-.83-.54-.6-1.09-1.19-1.62-1.8l-3.12-3.52-6.21-7c-4.13-4.65-8.27-9.28-12.38-13.94l-.86-1a1.82,1.82,0,0,1-.33-.52c-1.49-1.68-3-3.35-4.44-5.06a1.4,1.4,0,0,1-.39-.94,1.29,1.29,0,0,1,.39-.93,1.33,1.33,0,0,1,.94-.39,1.28,1.28,0,0,1,.94.39Z"/><path class="cls-1" d="M279.4,339.74q3.17,3.5,6.31,7l3.17,3.5c.52.57,1,1.15,1.57,1.72l.74.81a3.44,3.44,0,0,1,.27.27c.18.19.37.38.55.59a1.05,1.05,0,0,1-1.49,1.49c-.22-.24-.42-.48-.62-.73a1.78,1.78,0,0,1-.21-.27l-.66-.75-1.53-1.75-3.12-3.55c-2.08-2.36-4.17-4.71-6.24-7.08a.9.9,0,0,1,0-1.26.92.92,0,0,1,.65-.26.85.85,0,0,1,.61.26Z"/><path class="cls-1" d="M216.94,57.86c.55.55,1.08,1.12,1.61,1.69a2.46,2.46,0,0,1,.7.47,16.06,16.06,0,0,1,1.11,1.22l1.18,1.31c.85,1,1.71,1.91,2.56,2.86L229,70.87l9.74,10.9q9.81,11,19.64,22,19.62,22,39.24,44t39.09,43.93l6.24,7q1.56,1.74,3.1,3.5c1.09,1.23,2.22,2.44,3.25,3.72a2.23,2.23,0,0,1,.62,1.51,2.13,2.13,0,0,1-3.63,1.5c-.82-.82-1.58-1.71-2.35-2.57l-2.53-2.81c-1.64-1.81-3.27-3.64-4.9-5.46l-9.79-11-19.58-21.91q-19.61-21.94-39.19-43.92t-39.23-44l-6.41-7.2-3.13-3.52-1.57-1.77c-.51-.57-1-1.12-1.5-1.71-.08-.1-.16-.19-.23-.29l-.1-.14h0a3.06,3.06,0,0,1-.22-.49c-.46-.53-.9-1.07-1.34-1.62l-.31-.39a1.95,1.95,0,0,1,.31-2.35,1.91,1.91,0,0,1,1.37-.57,1.86,1.86,0,0,1,1.37.57Z"/></g></svg>