<svg id="Layer_1" data-name="Layer 1" xmlns="http://www.w3.org/2000/svg" viewBox="0 0 267.91 220"><defs><style>.cls-1{fill:#f2cb05;}.cls-2{fill:#0a2c5c;}.cls-3{fill:#fff;}.cls-4{fill:#3068d9;}.cls-5{fill:#6a98e4;}</style></defs><title>14-day-trial-assets</title><path class="cls-1" d="M0,109.48c0,22.33,16.64,60,44.63,68.45,33.3,10,50.29,1.17,61,3.76,26.26,6.33,46.12,41,86.09,38.14S268.84,168,267.89,107.54,240.29.48,202.7,0s-75.39,64.54-98.88,67.9C85.08,70.57,64.71,53.77,36.16,54.25S0,91.44,0,109.48Z"/><rect class="cls-2" x="65.73" y="15.79" width="136.44" height="194.16" rx="6.61"/><rect class="cls-3" x="73.99" y="22.38" width="119.92" height="180.98" rx="4.06"/><path class="cls-4" d="M182.84,36.84a6.61,6.61,0,0,0-6.61-6.62H91.68a6.61,6.61,0,0,0-6.61,6.62V113.6a6.52,6.52,0,0,0,1.32,4v.23h.16a6.61,6.61,0,0,0,5.13,2.44h84.55a6.59,6.59,0,0,0,5.12-2.44h.11v-.15a6.59,6.59,0,0,0,1.38-4Z"/><rect class="cls-2" x="82.76" y="133.22" width="102.4" height="4.03" rx="2.01"/><rect class="cls-5" x="94.91" y="158.67" width="78.1" height="6.82" rx="3.41"/><rect class="cls-5" x="94.91" y="175.74" width="78.1" height="6.82" rx="3.41"/><path class="cls-3" d="M115.14,72.47a2.16,2.16,0,0,1,3.06.11l20.66,22a2.18,2.18,0,0,0,3.17,0l16.09-16.88a2.19,2.19,0,0,1,3.13,0L177,93.79v-54A4.06,4.06,0,0,0,173,35.68h-78a4.06,4.06,0,0,0-4.06,4.06v55.1Z"/><rect class="cls-5" x="101.3" y="85.19" width="12.22" height="4.05" transform="translate(-30.74 94.72) rotate(-42.19)"/><circle class="cls-5" cx="111.81" cy="83.22" r="2.02"/><circle class="cls-5" cx="116.28" cy="79.17" r="2.02"/><circle class="cls-5" cx="102.92" cy="91.28" r="2.02"/><rect class="cls-5" x="148.52" y="89.9" width="8.06" height="4.05" transform="translate(-18.75 140.71) rotate(-46.97)"/><circle class="cls-5" cx="155.19" cy="89.1" r="2.02"/><circle class="cls-5" cx="159.31" cy="84.69" r="2.02"/><circle class="cls-5" cx="149.74" cy="94.93" r="2.02"/><circle class="cls-1" cx="156.93" cy="53.95" r="8.56"/></svg>