<svg id="Layer_1" data-name="Layer 1" xmlns="http://www.w3.org/2000/svg" viewBox="0 0 260.1 280.13"><defs><style>.cls-1{fill:#f27d16;}.cls-2{fill:#462673;}.cls-3{fill:#fff;}.cls-4{fill:#fd9951;}.cls-5{fill:#cc5b00;}</style></defs><title>14-day-trial-assets</title><path class="cls-1" d="M148.2,80.16c83.58,0,114.59,73.14,111.72,104.3-8.39,90.8-215.66,122.46-249.36,62.4C-34.89,165.88,76.78,80.18,148.2,80.16Z"/><path class="cls-2" d="M188.48,192.87c1.46-7.44,1-12,1-23.11l-1,0v-150A13.08,13.08,0,0,0,175.4,6.69H82A13.08,13.08,0,0,0,68.94,19.77v94.31a20.15,20.15,0,0,0-14.13,7.09c-9.33,10.39-9,61.52-.74,73.5,7.6,11,24.36,13.29,25.39,20.9.92,6.78-.73,52,1.62,54.73,9.75,11.19,74.91,14.89,98.14,0,3.24-2.08.54-52,1.44-57C181.73,207.32,186.77,201.65,188.48,192.87Z"/><path class="cls-3" d="M185.32,184.32c-1.25-11.59-7.54-10-12.67-9.93s-41.26-.07-54.63,0c-14.48.09-4.24-16-23-27.53-7.13-4.38-11.58-3.24-15.73-3.21a1.75,1.75,0,0,0-1.73,1.74l-.14,12.33a60.11,60.11,0,0,1-.38,7.29,2.18,2.18,0,0,1-4-.17c-.51-1.13-.3-20.13-1.23-21.08s-4.68,0-5.51-.48a2.68,2.68,0,0,1,.1-4.93c.39-.17,12.17.19,23.19-.19s15-1.87,19.51-6,7.31-9.87,5.51-12.36c-2.1-2.92-12-1.84-25.1-1.84-11.45,0-24.06-.67-29.19,4.06-5.47,5-6.71,17.16-6.71,24.72S52.26,181.62,58,190.79c4.51,7.17,22.11,9.63,26.73,22.5,1.78,4.94.24,33.34,1,50.9.62,12.75,87.51,15.06,88.67.39,0-16.66-.25-41.9,1-52.65.6-5.17,7.41-13.17,8.3-20C185.6,177.91,185.56,186.57,185.32,184.32Z"/><rect class="cls-4" x="154.46" y="209.42" width="13.41" height="32.57"/><circle class="cls-4" cx="161.17" cy="241.89" r="6.71"/><circle class="cls-4" cx="161.17" cy="209.57" r="6.71"/><circle class="cls-4" cx="161.17" cy="259.01" r="6.71"/><path class="cls-4" d="M97.81,165.14c-2.13-5.31-4.06-7.69-8.82-10.86l3.16-4.74c5.91,3.94,8.3,6.89,10.94,13.48Z"/><path class="cls-4" d="M101.48,167.18a3.23,3.23,0,0,1-3.69-2.08,3.19,3.19,0,0,1,1.23-4c1.37-.77,3.3,0,4,1.9S103,166.78,101.48,167.18Z"/><path class="cls-4" d="M93.24,154a3.19,3.19,0,0,1-4.19.37,3.23,3.23,0,0,1-1.28-4c.7-1.4,2.77-1.82,4.45-.69S94.27,152.76,93.24,154Z"/><path class="cls-3" d="M87.76,113.77c2.89,0,11.45,0,23.59,0,5.45,0,7.73,3.21,8.14,6.23.34,2.47-1.14,6.48-3.38,10.75C111,140.45,95.47,141,95.47,141.58c0,.92,7.51,2.32,12.59,9.58,4.4,6.29,5.08,15.41,9.18,17.31,5.22,2.42,40,.93,49.11.83,8-.1,13.2,0,16.74.16V22.89a10,10,0,0,0-10-10H84.32a10,10,0,0,0-10,10v91C77.29,113.83,80.48,113.77,87.76,113.77Z"/><path class="cls-4" d="M128.72,42.93a18.46,18.46,0,1,0,18.46,18.46A18.43,18.43,0,0,0,128.72,42.93Zm0,30.46a12,12,0,1,1,12-12,12,12,0,0,1-12,12Zm23.52-31.22a4.31,4.31,0,1,1-4.31-4.3A4.3,4.3,0,0,1,152.24,42.17Zm12.23,4.37c-.28-5.77-1.59-10.88-5.82-15.09s-9.32-5.52-15.09-5.81c-5.94-.34-23.76-.34-29.7,0-5.76.27-10.86,1.59-15.09,5.8S93.24,40.76,93,46.53c-.33,5.94-.33,23.76,0,29.7.28,5.77,1.59,10.88,5.82,15.09s9.32,5.53,15.09,5.82c5.94.33,23.76.33,29.7,0,5.77-.28,10.88-1.59,15.09-5.82s5.53-9.32,5.82-15.09c.33-5.94.33-23.74,0-29.69Zm-7.68,36.07a12.18,12.18,0,0,1-6.85,6.85c-4.74,1.88-16,1.44-21.22,1.44s-16.5.42-21.23-1.44a12.16,12.16,0,0,1-6.84-6.85c-1.88-4.74-1.45-16-1.45-21.22s-.41-16.5,1.45-21.23a12.14,12.14,0,0,1,6.84-6.84c4.74-1.88,16-1.45,21.23-1.45s16.5-.42,21.22,1.45a12.16,12.16,0,0,1,6.85,6.84c1.88,4.74,1.44,16,1.44,21.23S158.67,77.89,156.79,82.61Z"/><rect class="cls-3" x="174.67" y="31.9" width="53.26" height="53.26" rx="5.09"/><path class="cls-5" d="M219.81,35h-37a5,5,0,0,0-5,5.05V77a5,5,0,0,0,5,5h37a5,5,0,0,0,5.05-5V40A5,5,0,0,0,219.81,35Zm-5.14,16.7c0,.3,0,.6,0,.89,0,9.12-6.95,19.63-19.63,19.63a19.5,19.5,0,0,1-10.59-3.09,15.25,15.25,0,0,0,1.66.08,13.83,13.83,0,0,0,8.56-2.94,6.91,6.91,0,0,1-6.45-4.79,7.49,7.49,0,0,0,3.12-.12,6.9,6.9,0,0,1-5.52-6.78v-.08a6.88,6.88,0,0,0,3.11.87,6.93,6.93,0,0,1-2.14-9.22A19.59,19.59,0,0,0,201,53.33,6.92,6.92,0,0,1,212.8,47a13.42,13.42,0,0,0,4.38-1.66,6.9,6.9,0,0,1-3,3.8,13.8,13.8,0,0,0,4-1.08A14.71,14.71,0,0,1,214.67,51.67Z"/><rect class="cls-3" x="22.13" width="64.72" height="64.72" rx="5.49"/><path class="cls-5" d="M77.35,3.27H31.63A6.23,6.23,0,0,0,25.4,9.5V55.22a6.23,6.23,0,0,0,6.23,6.23H49.46V41.67H41.27V32.36h8.19v-7.1c0-8.07,4.8-12.53,12.16-12.53a49.35,49.35,0,0,1,7.21.63v7.92H64.77c-4,0-5.25,2.49-5.25,5v6.05h8.94L67,41.67H59.52V61.45H77.35a6.23,6.23,0,0,0,6.23-6.23V9.5A6.23,6.23,0,0,0,77.35,3.27Z"/><path class="cls-3" d="M163.53,193.91l-.05,0v0c-5.88-.17-10.5-5.22-10.5-11.51s4.62-11.34,10.5-11.51v0l.05-.06H195l.12.12v-.08c5.68.36,10.13,5.41,10.13,11.48s-4.45,11.13-10.13,11.49v-.08l-.12.12Z"/><path class="cls-2" d="M195,172.86v0c4.61.3,8.26,4.43,8.26,9.49s-3.65,9.2-8.26,9.5v0H163.53c-4.75-.14-8.56-4.34-8.56-9.51s3.81-9.37,8.56-9.51v0H195m0-4H163.53l-.11.11v-.09c-7,.2-12.45,6.13-12.45,13.51s5.47,13.31,12.45,13.51v-.1h0v.09H195l.24-.24v.2c6.74-.43,12-6.36,12-13.49s-5.27-13-12-13.48v.21l-.24-.25Z"/><rect class="cls-4" x="181.05" y="183.08" width="11.18" height="4.61"/><circle class="cls-4" cx="192.21" cy="185.39" r="2.3"/><circle class="cls-4" cx="181.11" cy="185.39" r="2.3"/><path class="cls-3" d="M170.53,169.9l-.06-.05v0a11.51,11.51,0,0,1,0-23v0l.06,0h33.9l.11.11v-.08a11.51,11.51,0,0,1,0,23v-.08l-.11.11h-33.9Z"/><path class="cls-2" d="M204.42,148.86v0a9.51,9.51,0,0,1,0,19v0H170.53a9.51,9.51,0,0,1,0-19v0h33.89m0-4H170.53l-.11.1v-.08a13.51,13.51,0,0,0,0,27v-.09l.05,0v0h34l.23-.22v.18a13.51,13.51,0,0,0,0-27v.19l-.23-.22Z"/><rect class="cls-4" x="185.66" y="159.02" width="13.9" height="4.61"/><circle class="cls-4" cx="199.37" cy="161.33" r="2.3"/><circle class="cls-4" cx="206.24" cy="161.33" r="2.3"/><circle class="cls-4" cx="185.71" cy="161.33" r="2.3"/><path class="cls-3" d="M173.1,145.9l0-.05v0a11.52,11.52,0,0,1,0-23v0l0-.05H207l.12.11v-.08a11.51,11.51,0,0,1,0,23v-.08l-.12.12H173.1Z"/><path class="cls-2" d="M207,124.85v0a9.51,9.51,0,0,1,0,19v0H173.1a9.51,9.51,0,0,1,0-19v0H207m0-4H173.1l-.1.1v-.08a13.52,13.52,0,0,0,0,27v-.09l0,0v0h34l.23-.23v.19a13.51,13.51,0,0,0,0-27v.19l-.23-.23Z"/><rect class="cls-4" x="190.66" y="135.58" width="13.9" height="4.61"/><circle class="cls-4" cx="204.37" cy="137.89" r="2.3"/><circle class="cls-4" cx="190.71" cy="137.88" r="2.3"/><path class="cls-3" d="M168.81,121.89l-.05,0v0a11.51,11.51,0,0,1,0-23v0l.05-.06h33.9l.11.12v-.08a11.51,11.51,0,0,1,0,23v-.08l-.11.11h-33.9Z"/><path class="cls-2" d="M202.71,100.84v0a9.51,9.51,0,0,1,0,19v0h-33.9a9.51,9.51,0,0,1,0-19v0h33.9m0-4h-33.9l-.11.11v-.08a13.51,13.51,0,0,0,0,27v-.09l0,0v0h34l.22-.22v.18a13.51,13.51,0,0,0,0-27v.19l-.22-.23Z"/><rect class="cls-4" x="182.45" y="112.06" width="13.9" height="4.61"/><circle class="cls-4" cx="196.17" cy="114.36" r="2.3"/><circle class="cls-4" cx="203.03" cy="114.36" r="2.3"/><circle class="cls-4" cx="182.51" cy="114.36" r="2.3"/></svg>