<svg id="Layer_1" data-name="Layer 1" xmlns="http://www.w3.org/2000/svg" viewBox="0 0 250 241.15"><defs><style>.cls-1{fill:#f2f2f2;}.cls-2{fill:#9450f2;}.cls-3{fill:#fff;}.cls-4{fill:#dbc1f7;}.cls-5{fill:#f7de65;}</style></defs><title>14-day-trial-assets</title><path class="cls-1" d="M56.67,236.38C17.55,219.65,38.73,185.57,31,166.25c-6.15-15.33-38.81-37.82-29.25-60.17C16.81,70.82,63.55,84.65,86.38,73.16c14.71-7.41,12.14-44.38,39.16-61.33,32.33-20.27,78-14,106.37,14.87s17.05,64.35,8.22,80.06c-15.94,28.32-69.58,35-99.34,62.25C123.05,185.29,113.44,260.65,56.67,236.38Z"/><rect class="cls-2" x="78.47" y="6.48" width="33.69" height="185.04" rx="10.92" transform="translate(-42.08 96.4) rotate(-45)"/><rect class="cls-3" x="83.95" y="12.52" width="22.72" height="172.94" rx="4.6" transform="translate(-42.08 96.4) rotate(-45)"/><rect class="cls-4" x="139.69" y="124.95" width="5.84" height="27.58" transform="translate(-56.33 141.49) rotate(-45)"/><circle class="cls-4" cx="133.03" cy="129.15" r="2.92"/><circle class="cls-4" cx="126.87" cy="122.99" r="2.92"/><circle class="cls-4" cx="152.37" cy="148.49" r="2.92"/><path class="cls-2" d="M184.5,185.43l-6.72-25.06a2.23,2.23,0,0,0-3.74-1L155.7,177.71a2.24,2.24,0,0,0,1,3.75l25.06,6.71A2.24,2.24,0,0,0,184.5,185.43Z"/><path class="cls-3" d="M178.3,181.42l-3.89-14.48a.44.44,0,0,0-.74-.19l-10.59,10.6a.44.44,0,0,0,.19.74L177.75,182A.46.46,0,0,0,178.3,181.42Z"/><path class="cls-5" d="M148.44,229.16a42.49,42.49,0,0,1-8.81-.91,2,2,0,0,1,.83-3.91,41.76,41.76,0,0,0,30-5.44,44.35,44.35,0,0,0,19.65-26.31c6.94-25.28,30.23-40.51,54.17-35.43a2,2,0,1,1-.83,3.92c-18.57-4-42.23,6.13-49.48,32.56a48.27,48.27,0,0,1-21.43,28.67A46.57,46.57,0,0,1,148.44,229.16Z"/><circle class="cls-2" cx="140.04" cy="226.3" r="3.71"/><circle class="cls-2" cx="191.98" cy="192.68" r="3.71"/><circle class="cls-2" cx="243.91" cy="158.71" r="3.71"/></svg>