<svg id="Layer_1" data-name="Layer 1" xmlns="http://www.w3.org/2000/svg" viewBox="0 0 250 241.15"><defs><style>.cls-1{fill:#3068d9;}.cls-2{fill:#f2cb05;}.cls-3{fill:#fff;}.cls-4{fill:#9450f2;}.cls-5{fill:#4b2477;}.cls-6{fill:#dbc1f7;}</style></defs><title>14-day-trial-assets</title><path class="cls-1" d="M56.67,236.38C17.55,219.65,38.73,185.57,31,166.25c-6.15-15.33-38.81-37.82-29.25-60.17C16.81,70.82,63.55,84.65,86.38,73.16c14.71-7.41,12.14-44.38,39.16-61.33,32.33-20.27,78-14,106.37,14.87s17.05,64.35,8.22,80.06c-15.94,28.32-69.58,35-99.34,62.25C123.05,185.29,113.44,260.65,56.67,236.38Z"/><circle class="cls-1" cx="154.88" cy="205.54" r="7.03"/><path class="cls-1" d="M191.17,209.75c6.25,5.09,2.31,17.41-5.18,22.15-9,5.72-27.17,7.81-29.57-1.6-2.59-10.19,13.19-8.61,18.13-13.85C180.63,210,187.21,206.53,191.17,209.75Z"/><rect class="cls-2" x="40.19" y="25.46" width="186.44" height="144.16" rx="6.61"/><rect class="cls-3" x="48.45" y="32.05" width="169.92" height="130.98" rx="4.06"/><rect class="cls-4" x="59.9" y="55.83" width="146.05" height="68.99" rx="5.07"/><rect class="cls-3" x="64.36" y="60.01" width="137.13" height="60.63" rx="3.11"/><rect class="cls-5" x="60.19" y="41.45" width="82.35" height="6.69" rx="3.34"/><rect class="cls-5" x="59.9" y="131.65" width="55.76" height="4.87" rx="2.43"/><rect class="cls-6" x="60.19" y="141.46" width="114.83" height="2.9" rx="1.45"/><rect class="cls-6" x="60.19" y="147.27" width="114.83" height="2.9" rx="1.45"/><rect class="cls-6" x="60.19" y="153.08" width="114.83" height="2.9" rx="1.45"/><path class="cls-4" d="M203.08,123,62.14,121.74,60.91,104.8,88.69,79.18a2.1,2.1,0,0,1,3,.11l20,21.3a2.1,2.1,0,0,0,3.06,0l15.54-16.32a2.11,2.11,0,0,1,3,0l17.9,18.22a5.52,5.52,0,0,0,3.94,1.66l48,0Z"/><rect class="cls-6" x="78.11" y="90.29" width="9.37" height="3.1" transform="translate(-40.23 79.39) rotate(-42.19)"/><circle class="cls-6" cx="86.17" cy="88.78" r="1.55"/><circle class="cls-6" cx="89.6" cy="85.67" r="1.55"/><circle class="cls-6" cx="79.35" cy="94.96" r="1.55"/><rect class="cls-6" x="122.55" y="93.71" width="6.44" height="3.23" transform="translate(-29.73 122.21) rotate(-46.97)"/><circle class="cls-6" cx="127.87" cy="93.06" r="1.62"/><circle class="cls-6" cx="131.16" cy="89.54" r="1.62"/><circle class="cls-6" cx="123.52" cy="97.72" r="1.62"/><circle class="cls-2" cx="185.3" cy="74.02" r="6.56"/></svg>